<?xml version="1.0" encoding="UTF-8"?>
<!DOCTYPE svg PUBLIC "-//W3C//DTD SVG 1.1//EN" "http://www.w3.org/Graphics/SVG/1.1/DTD/svg11.dtd">
<svg xmlns="http://www.w3.org/2000/svg" version="1.1" width="328px" height="263px" style="shape-rendering:geometricPrecision; text-rendering:geometricPrecision; image-rendering:optimizeQuality; fill-rule:evenodd; clip-rule:evenodd" xmlns:xlink="http://www.w3.org/1999/xlink">
<g><path style="opacity:1" fill="#fdfdfd" d="M -0.5,-0.5 C 21.5,-0.5 43.5,-0.5 65.5,-0.5C 64.8333,0.166667 64.1667,0.833333 63.5,1.5C 60.909,2.25429 59.0757,3.92096 58,6.5C 57.3333,13.1667 57.3333,19.8333 58,26.5C 58.4238,29.0254 59.5905,31.0254 61.5,32.5C 61.2785,34.6636 60.2785,36.3303 58.5,37.5C 51.8467,38.1403 45.8467,40.1403 40.5,43.5C 36.7641,44.9047 34.4308,47.5713 33.5,51.5C 29.8885,56.8438 29.5551,62.5105 32.5,68.5C 27.1903,78.3287 22.5237,88.4954 18.5,99C 17.7001,106.366 16.0334,113.533 13.5,120.5C 13.8333,121.167 14.1667,121.833 14.5,122.5C 12.5248,125.805 10.1915,128.805 7.5,131.5C 5.03754,134.123 2.37087,136.456 -0.5,138.5C -0.5,92.1667 -0.5,45.8333 -0.5,-0.5 Z"/></g>
<g><path style="opacity:1" fill="#fdfdfd" d="M 72.5,-0.5 C 136.167,-0.5 199.833,-0.5 263.5,-0.5C 261.924,0.142944 260.59,1.14294 259.5,2.5C 256.548,3.35885 254.715,5.35885 254,8.5C 253.333,12.5 253.333,16.5 254,20.5C 254.278,21.4158 254.778,22.0825 255.5,22.5C 255.5,22.8333 255.5,23.1667 255.5,23.5C 255.5,24.8333 255.5,26.1667 255.5,27.5C 255.203,31.7675 255.536,35.9341 256.5,40C 247.062,42.2999 238.896,46.7999 232,53.5C 228.906,59.7678 228.739,66.1011 231.5,72.5C 232.873,72.3433 234.207,72.51 235.5,73C 232.506,73.4057 230.339,74.9057 229,77.5C 228.015,82.6895 228.515,87.6895 230.5,92.5C 228.932,94.8944 227.599,97.3944 226.5,100C 226.957,100.414 227.291,100.914 227.5,101.5C 226.081,103.336 224.914,105.336 224,107.5C 222.959,113.29 221.126,118.79 218.5,124C 218.728,124.399 219.062,124.565 219.5,124.5C 217.811,125.304 216.145,126.304 214.5,127.5C 213.914,127.291 213.414,126.957 213,126.5C 212.033,127.678 211.533,129.011 211.5,130.5C 211.667,130.833 211.833,131.167 212,131.5C 214.257,129.954 216.424,128.288 218.5,126.5C 220.614,127.034 222.448,128.034 224,129.5C 224.667,135.833 224.667,142.167 224,148.5C 223,145.833 222,143.167 221,140.5C 220.667,140.833 220.333,141.167 220,141.5C 219.395,139.519 218.395,139.185 217,140.5C 214.61,138.799 213.11,136.466 212.5,133.5C 211.478,133.855 210.811,134.522 210.5,135.5C 211.376,135.369 212.043,135.702 212.5,136.5C 210.833,140.5 209.167,144.5 207.5,148.5C 208.257,150.404 209.257,150.737 210.5,149.5C 210.833,149.5 211.167,149.5 211.5,149.5C 211.231,151.429 211.731,153.095 213,154.5C 214.333,151.833 215.667,151.833 217,154.5C 219.68,152.124 221.013,149.124 221,145.5C 221.402,146.872 221.902,148.205 222.5,149.5C 223.274,150.711 224.107,150.711 225,149.5C 225.39,144.156 225.89,138.822 226.5,133.5C 226.674,131.307 226.007,129.473 224.5,128C 228.671,123.851 232.005,119.018 234.5,113.5C 234.154,112.304 233.654,112.304 233,113.5C 232.762,109.152 233.095,104.819 234,100.5C 235.698,101.529 236.532,103.029 236.5,105C 235.875,106.841 235.708,108.674 236,110.5C 237.428,107.001 237.928,103.667 237.5,100.5C 238.285,98.6264 238.952,96.6264 239.5,94.5C 240.73,92.7028 241.396,90.7028 241.5,88.5C 242.167,89.5 242.833,90.5 243.5,91.5C 243.851,95.3689 245.184,98.8689 247.5,102C 246.691,103.784 246.024,105.617 245.5,107.5C 245.942,108.739 246.609,109.739 247.5,110.5C 246.21,111.058 245.377,112.058 245,113.5C 244.333,119.833 244.333,126.167 245,132.5C 246.11,134.037 247.61,134.703 249.5,134.5C 250.167,135.167 250.833,135.833 251.5,136.5C 249.833,136.5 248.167,136.5 246.5,136.5C 246.132,144.285 246.798,151.951 248.5,159.5C 248.5,160.833 249.167,161.5 250.5,161.5C 250.335,164.85 250.502,168.183 251,171.5C 251.333,171.167 251.667,170.833 252,170.5C 252.708,171.381 253.542,172.047 254.5,172.5C 253.811,173.774 252.977,173.774 252,172.5C 249.087,176.852 247.921,181.686 248.5,187C 249.694,196.262 251.528,205.429 254,214.5C 254.333,218.833 254.667,223.167 255,227.5C 255.772,228.849 256.939,229.682 258.5,230C 257.584,230.278 256.918,230.778 256.5,231.5C 255.778,231.918 255.278,232.584 255,233.5C 254.307,239.52 253.473,245.52 252.5,251.5C 253.289,255.92 255.956,258.587 260.5,259.5C 264.5,258.167 268.5,258.167 272.5,259.5C 276.023,258.315 279.023,256.315 281.5,253.5C 280.008,246.906 278.842,240.24 278,233.5C 277.722,232.584 277.222,231.918 276.5,231.5C 275.342,230.05 275.842,229.05 278,228.5C 279.845,214.431 282.012,200.431 284.5,186.5C 285.245,179.727 283.245,174.06 278.5,169.5C 278.409,167.302 279.075,166.969 280.5,168.5C 280.783,169.289 281.283,169.956 282,170.5C 282.319,164.568 283.652,158.902 286,153.5C 286.499,147.843 286.666,142.176 286.5,136.5C 284.473,136.662 282.473,136.495 280.5,136C 281.737,135.768 282.737,135.268 283.5,134.5C 285.39,134.703 286.89,134.037 288,132.5C 288.667,126.167 288.667,119.833 288,113.5C 288.081,109.297 287.248,105.13 285.5,101C 288.615,97.0635 290.448,92.5635 291,87.5C 291.379,90.0301 292.213,92.3635 293.5,94.5C 294.048,96.6264 294.715,98.6264 295.5,100.5C 295.532,102.872 295.699,105.538 296,108.5C 296.2,110.32 297.034,111.653 298.5,112.5C 298.75,114.674 299.75,116.341 301.5,117.5C 302.739,120.589 304.239,123.589 306,126.5C 306.75,127.126 307.584,127.626 308.5,128C 307.02,129.299 306.354,130.966 306.5,133C 307.153,138.485 307.653,143.985 308,149.5C 310.149,150.84 311.316,150.173 311.5,147.5C 311.318,145.409 311.652,143.409 312.5,141.5C 311.187,140.782 310.52,141.449 310.5,143.5C 308.733,139.092 308.233,134.426 309,129.5C 311.505,127.046 314.339,126.38 317.5,127.5C 319.628,130.13 321.961,132.63 324.5,135C 323.906,135.464 323.239,135.631 322.5,135.5C 323.499,138.174 325.166,138.841 327.5,137.5C 327.5,179.167 327.5,220.833 327.5,262.5C 218.167,262.5 108.833,262.5 -0.5,262.5C -0.5,222.167 -0.5,181.833 -0.5,141.5C 1.92878,141.415 3.92878,140.415 5.5,138.5C 5.34643,142.799 4.34643,147.133 2.5,151.5C 3.28881,153.488 4.45548,153.821 6,152.5C 6.57985,149.453 6.24651,149.119 5,151.5C 4.59496,149.225 5.09496,147.225 6.5,145.5C 6.41253,148.598 6.91253,148.932 8,146.5C 8.16667,147 8.33333,147.5 8.5,148C 7.42167,150.795 6.92167,153.629 7,156.5C 9.05451,157.495 10.2212,156.662 10.5,154C 10.0556,152.238 9.55563,152.405 9,154.5C 8.67168,151.793 9.00501,149.126 10,146.5C 10.517,149.92 11.3503,153.253 12.5,156.5C 13.1067,156.376 13.44,156.043 13.5,155.5C 14.1174,155.389 14.6174,155.056 15,154.5C 15.3333,151.5 15.6667,148.5 16,145.5C 16.3333,147.167 16.6667,148.833 17,150.5C 18.0113,151.337 19.1779,151.67 20.5,151.5C 19.9531,144.844 19.4531,138.177 19,131.5C 18.5,131 18,130.5 17.5,130C 20.057,127.724 21.7236,124.89 22.5,121.5C 29.8545,112.114 34.5212,101.447 36.5,89.5C 37.1667,89.5 37.5,89.1667 37.5,88.5C 38.2541,85.7444 38.2541,83.0777 37.5,80.5C 39.5113,78.333 40.6779,75.6663 41,72.5C 41.361,77.0547 43.1943,80.888 46.5,84C 45.4224,87.099 45.4224,90.2657 46.5,93.5C 45.6457,96.7096 44.6457,99.8762 43.5,103C 43.3866,104.699 44.0532,105.866 45.5,106.5C 45.6068,108.379 45.1068,108.712 44,107.5C 41.9034,125.579 42.2367,143.579 45,161.5C 45.7246,163.949 46.7246,166.283 48,168.5C 48.1667,168 48.3333,167.5 48.5,167C 46.466,163.038 45.6327,158.871 46,154.5C 48.1747,161.364 50.5081,168.031 53,174.5C 52,173.167 51,171.833 50,170.5C 49.935,173.198 51.1017,175.364 53.5,177C 56.6842,176.851 60.0175,177.184 63.5,178C 60.1182,178.176 56.7848,178.676 53.5,179.5C 45.3104,196.813 45.977,213.813 55.5,230.5C 55.5,230.833 55.5,231.167 55.5,231.5C 53.4846,238.057 52.1513,244.89 51.5,252C 52.1582,256.517 54.8249,259.017 59.5,259.5C 61.0207,259.12 62.6874,258.954 64.5,259C 65.0814,258.107 65.4148,257.107 65.5,256C 65.0706,247.613 63.7373,239.446 61.5,231.5C 61.5,230.833 61.5,230.167 61.5,229.5C 62.4187,221.072 63.9187,212.739 66,204.5C 67.0105,196.967 66.5105,189.634 64.5,182.5C 65.2216,182.082 65.7216,181.416 66,180.5C 66.8314,173.854 67.3314,167.187 67.5,160.5C 68.8333,157.833 68.8333,155.167 67.5,152.5C 67.6126,149.951 66.9459,147.618 65.5,145.5C 65.8457,144.304 66.3457,144.304 67,145.5C 67.3623,140.319 67.8623,135.152 68.5,130C 68.2376,126.873 66.5709,125.039 63.5,124.5C 62.7377,122.738 61.4044,121.738 59.5,121.5C 58.2426,120.182 56.9093,118.849 55.5,117.5C 54.914,117.709 54.414,118.043 54,118.5C 53.34,116.676 52.1733,115.343 50.5,114.5C 50.3691,113.624 50.7025,112.957 51.5,112.5C 53.0754,113.456 54.742,114.123 56.5,114.5C 57.1667,113.833 57.8333,113.167 58.5,112.5C 59.7389,115.589 61.2389,118.589 63,121.5C 64.1096,123.037 65.6096,123.703 67.5,123.5C 67.56,124.043 67.8933,124.376 68.5,124.5C 69.8229,114.341 69.8229,104.341 68.5,94.5C 68.5,94.1667 68.5,93.8333 68.5,93.5C 69.6484,89.0189 69.8151,84.3522 69,79.5C 68.5,79 68,78.5 67.5,78C 68.6497,69.245 68.8163,60.4117 68,51.5C 67.6258,50.5838 67.1258,49.7504 66.5,49C 68.8333,49.6667 71.1667,49.6667 73.5,49C 72.2986,49.9025 71.4652,51.0692 71,52.5C 70.3333,60.1667 70.3333,67.8333 71,75.5C 71.4652,76.9308 72.2986,78.0975 73.5,79C 72.552,79.4828 71.552,79.6495 70.5,79.5C 70.5,84.1667 70.5,88.8333 70.5,93.5C 70.5,93.8333 70.5,94.1667 70.5,94.5C 70.5,96.8333 70.5,99.1667 70.5,101.5C 70.5,103.167 70.5,104.833 70.5,106.5C 70.1707,112.537 70.5041,118.537 71.5,124.5C 72.7362,123.754 74.0695,123.421 75.5,123.5C 74.8333,124.5 74.1667,125.5 73.5,126.5C 72.0047,126.415 71.0047,127.081 70.5,128.5C 71.699,134.165 72.699,139.165 73.5,143.5C 74.0431,143.56 74.3764,143.893 74.5,144.5C 73.199,147.427 72.199,150.427 71.5,153.5C 71.7573,161.372 72.2573,169.372 73,177.5C 73.3747,180 74.2081,182.333 75.5,184.5C 75.1543,185.696 74.6543,185.696 74,184.5C 72.6159,190.109 72.2825,195.775 73,201.5C 75.1827,210.911 77.016,220.244 78.5,229.5C 78.5,230.167 78.5,230.833 78.5,231.5C 76.4011,235.795 75.2344,240.462 75,245.5C 74.5008,250.155 74.3342,254.821 74.5,259.5C 75.791,259.737 76.791,259.404 77.5,258.5C 82.862,259.916 86.5286,257.916 88.5,252.5C 87.1653,245.459 85.8319,238.459 84.5,231.5C 84.5,231.167 84.5,230.833 84.5,230.5C 93.3901,212.576 93.7234,195.243 85.5,178.5C 82.1501,178.665 78.8168,178.498 75.5,178C 79.1667,177.667 82.8333,177.333 86.5,177C 91.8395,170.82 94.8395,163.653 95.5,155.5C 96.038,153.883 96.3713,152.216 96.5,150.5C 96.5,149.833 96.5,149.167 96.5,148.5C 97.8333,142.833 97.8333,137.167 96.5,131.5C 96.5,128.167 96.5,124.833 96.5,121.5C 97.1031,116.381 96.4364,111.715 94.5,107.5C 93.7692,99.9425 93.7692,92.2758 94.5,84.5C 94.8333,83.1667 95.1667,81.8333 95.5,80.5C 97.5113,78.333 98.6779,75.6663 99,72.5C 99.1903,76.0755 100.357,79.2422 102.5,82C 101.944,82.3826 101.611,82.8826 101.5,83.5C 103.353,91.2295 105.52,98.8961 108,106.5C 109.026,109.239 110.526,111.572 112.5,113.5C 115.094,119.186 118.094,124.686 121.5,130C 120.874,130.75 120.374,131.584 120,132.5C 119.5,138.825 119.334,145.158 119.5,151.5C 121.179,151.715 122.179,151.048 122.5,149.5C 123.167,150.167 123.833,150.833 124.5,151.5C 124.197,154.588 125.53,156.254 128.5,156.5C 128.351,155.448 128.517,154.448 129,153.5C 131.16,158.703 132.16,158.369 132,152.5C 131.667,153.5 131.333,154.5 131,155.5C 129.85,153.246 129.516,150.913 130,148.5C 130.914,152.185 131.581,151.852 132,147.5C 132.412,149.997 133.578,151.997 135.5,153.5C 136.724,151.102 136.558,148.769 135,146.5C 134.667,147.5 134.333,148.5 134,149.5C 133.023,147.26 132.523,144.927 132.5,142.5C 133.268,143.263 133.768,144.263 134,145.5C 134.155,143.144 134.155,140.811 134,138.5C 135.737,141.533 137.903,142.033 140.5,140C 139.22,138.034 137.553,136.534 135.5,135.5C 132.404,131.227 129.07,127.06 125.5,123C 125.957,122.586 126.291,122.086 126.5,121.5C 123.907,112.613 121.74,103.613 120,94.5C 119.059,92.2726 117.892,90.2726 116.5,88.5C 116.672,87.5084 116.338,86.8417 115.5,86.5C 115.025,84.2163 114.025,82.2163 112.5,80.5C 112.158,79.6618 111.492,79.3284 110.5,79.5C 110.868,75.9557 109.868,72.9557 107.5,70.5C 107.586,69.5041 107.252,68.6708 106.5,68C 109.114,61.8987 108.948,55.7321 106,49.5C 105.292,48.6195 104.458,47.9528 103.5,47.5C 103.5,45.5 102.5,44.5 100.5,44.5C 100.027,43.0937 99.0269,42.427 97.5,42.5C 91.7507,40.0481 85.7507,37.8815 79.5,36C 78.8333,35.3333 78.1667,34.6667 77.5,34C 78.8228,33.1841 79.4894,32.0174 79.5,30.5C 74.0498,36.2648 68.0498,36.9314 61.5,32.5C 59.473,24.3277 58.6396,15.9944 59,7.5C 60.332,5.34004 61.832,3.34004 63.5,1.5C 66.6888,1.14166 69.6888,0.474989 72.5,-0.5 Z"/></g>
<g><path style="opacity:1" fill="#fdfdfd" d="M 269.5,-0.5 C 288.833,-0.5 308.167,-0.5 327.5,-0.5C 327.5,44.8333 327.5,90.1667 327.5,135.5C 324.436,132.43 321.103,129.763 317.5,127.5C 316.653,126.034 315.32,125.2 313.5,125C 313.957,124.586 314.291,124.086 314.5,123.5C 311.513,115.216 308.679,106.883 306,98.5C 305.086,96.3359 303.919,94.3359 302.5,92.5C 304.485,87.6895 304.985,82.6895 304,77.5C 303.623,76.0577 302.79,75.0577 301.5,74.5C 302.441,72.9505 303.107,71.2838 303.5,69.5C 304.01,63.928 303.177,58.5947 301,53.5C 300.346,52.3044 299.846,52.3044 299.5,53.5C 301.225,55.9567 301.725,58.6234 301,61.5C 299.114,57.5598 296.614,54.0598 293.5,51C 294.572,49.7163 295.905,49.3829 297.5,50C 290.429,45.1927 282.762,41.526 274.5,39C 275.448,38.5172 276.448,38.3505 277.5,38.5C 277.5,34.1667 277.5,29.8333 277.5,25.5C 277.5,24.8333 277.5,24.1667 277.5,23.5C 278.338,23.1583 278.672,22.4916 278.5,21.5C 279.647,17.3537 279.814,13.0204 279,8.5C 278.722,7.5842 278.222,6.91753 277.5,6.5C 276.032,2.77036 273.365,0.437031 269.5,-0.5 Z"/></g>
<g><path style="opacity:1" fill="#414141" d="M 65.5,-0.5 C 67.8333,-0.5 70.1667,-0.5 72.5,-0.5C 69.6888,0.474989 66.6888,1.14166 63.5,1.5C 64.1667,0.833333 64.8333,0.166667 65.5,-0.5 Z"/></g>
<g><path style="opacity:1" fill="#585858" d="M 263.5,-0.5 C 265.5,-0.5 267.5,-0.5 269.5,-0.5C 273.365,0.437031 276.032,2.77036 277.5,6.5C 272.431,1.51449 266.431,0.181153 259.5,2.5C 260.59,1.14294 261.924,0.142944 263.5,-0.5 Z"/></g>
<g><path style="opacity:1" fill="#fcfcfc" d="M 277.5,6.5 C 277.5,11.1667 277.5,15.8333 277.5,20.5C 270.576,22.4633 263.243,23.1299 255.5,22.5C 255.334,17.4889 255.501,12.4889 256,7.5C 256.997,5.67694 258.164,4.01027 259.5,2.5C 266.431,0.181153 272.431,1.51449 277.5,6.5 Z"/></g>
<g><path style="opacity:1" fill="#565656" d="M 63.5,1.5 C 61.832,3.34004 60.332,5.34004 59,7.5C 58.6396,15.9944 59.473,24.3277 61.5,32.5C 59.5905,31.0254 58.4238,29.0254 58,26.5C 57.3333,19.8333 57.3333,13.1667 58,6.5C 59.0757,3.92096 60.909,2.25429 63.5,1.5 Z"/></g>
<g><path style="opacity:1" fill="#656565" d="M 259.5,2.5 C 258.164,4.01027 256.997,5.67694 256,7.5C 255.501,12.4889 255.334,17.4889 255.5,22.5C 254.778,22.0825 254.278,21.4158 254,20.5C 253.333,16.5 253.333,12.5 254,8.5C 254.715,5.35885 256.548,3.35885 259.5,2.5 Z"/></g>
<g><path style="opacity:1" fill="#5b5b5b" d="M 79.5,30.5 C 80.1111,24.1693 80.7777,17.836 81.5,11.5C 81.3074,6.13794 78.6407,2.63794 73.5,1C 77.578,0.719977 80.4113,2.55331 82,6.5C 82.6667,12.8333 82.6667,19.1667 82,25.5C 81.9005,27.6526 81.0672,29.3192 79.5,30.5 Z"/></g>
<g><path style="opacity:1" fill="#747474" d="M 277.5,6.5 C 278.222,6.91753 278.722,7.5842 279,8.5C 279.814,13.0204 279.647,17.3537 278.5,21.5C 278.5,20.8333 278.167,20.5 277.5,20.5C 277.5,15.8333 277.5,11.1667 277.5,6.5 Z"/></g>
<g><path style="opacity:1" fill="#393939" d="M 277.5,20.5 C 278.167,20.5 278.5,20.8333 278.5,21.5C 278.672,22.4916 278.338,23.1583 277.5,23.5C 270.167,23.5 262.833,23.5 255.5,23.5C 255.5,23.1667 255.5,22.8333 255.5,22.5C 263.243,23.1299 270.576,22.4633 277.5,20.5 Z"/></g>
<g><path style="opacity:1" fill="#a7a6a6" d="M 255.5,23.5 C 262.833,23.5 270.167,23.5 277.5,23.5C 277.5,24.1667 277.5,24.8333 277.5,25.5C 270.557,24.2056 263.557,24.2056 256.5,25.5C 256.624,26.1067 256.957,26.44 257.5,26.5C 257.768,28.099 257.434,29.4324 256.5,30.5C 256.737,29.209 256.404,28.209 255.5,27.5C 255.5,26.1667 255.5,24.8333 255.5,23.5 Z"/></g>
<g><path style="opacity:1" fill="#eeedee" d="M 256.5,30.5 C 257.434,29.4324 257.768,28.099 257.5,26.5C 263.319,25.3475 269.319,25.1808 275.5,26C 276.626,29.7436 276.793,33.577 276,37.5C 272.651,34.318 269.484,30.9846 266.5,27.5C 263.5,30.8333 260.5,34.1667 257.5,37.5C 256.526,35.2573 256.192,32.924 256.5,30.5 Z"/></g>
<g><path style="opacity:1" fill="#3e3d3e" d="M 97.5,42.5 C 99.0269,42.427 100.027,43.0937 100.5,44.5C 98.9731,44.573 97.9731,43.9063 97.5,42.5 Z"/></g>
<g><path style="opacity:1" fill="#4f4f4f" d="M 100.5,44.5 C 102.5,44.5 103.5,45.5 103.5,47.5C 102.167,46.8333 101.167,45.8333 100.5,44.5 Z"/></g>
<g><path style="opacity:1" fill="#424242" d="M 40.5,43.5 C 38.1377,46.192 35.8044,48.8587 33.5,51.5C 34.4308,47.5713 36.7641,44.9047 40.5,43.5 Z"/></g>
<g><path style="opacity:1" fill="#ededed" d="M 33.5,51.5 C 35.8044,48.8587 38.1377,46.192 40.5,43.5C 42.1368,42.7822 43.8034,42.6155 45.5,43C 38.3653,48.4354 34.1986,55.6021 33,64.5C 32.3708,60.1294 32.5375,55.796 33.5,51.5 Z"/></g>
<g><path style="opacity:1" fill="#fbfbfb" d="M 95.5,67.5 C 93.1468,69.8599 91.1468,72.5265 89.5,75.5C 87.5648,76.1495 85.5648,76.4828 83.5,76.5C 81.901,76.2322 80.5676,76.5655 79.5,77.5C 77.2075,77.7564 75.0408,77.4231 73,76.5C 72.3333,68.1667 72.3333,59.8333 73,51.5C 74.5251,48.9133 76.6917,48.0799 79.5,49C 86.5624,52.2483 92.5624,56.7483 97.5,62.5C 96.5435,64.0754 95.8769,65.742 95.5,67.5 Z"/></g>
<g><path style="opacity:1" fill="#ededed" d="M 97.5,42.5 C 97.9731,43.9063 98.9731,44.573 100.5,44.5C 101.167,45.8333 102.167,46.8333 103.5,47.5C 104.912,49.9976 106.079,52.6642 107,55.5C 107.821,58.5541 107.655,61.5541 106.5,64.5C 105.754,55.5069 101.754,48.3403 94.5,43C 95.448,42.5172 96.448,42.3505 97.5,42.5 Z"/></g>
<g><path style="opacity:1" fill="#5b5a5a" d="M 79.5,30.5 C 79.4894,32.0174 78.8228,33.1841 77.5,34C 78.1667,34.6667 78.8333,35.3333 79.5,36C 85.7507,37.8815 91.7507,40.0481 97.5,42.5C 96.448,42.3505 95.448,42.5172 94.5,43C 101.754,48.3403 105.754,55.5069 106.5,64.5C 107.655,61.5541 107.821,58.5541 107,55.5C 106.079,52.6642 104.912,49.9976 103.5,47.5C 104.458,47.9528 105.292,48.6195 106,49.5C 108.948,55.7321 109.114,61.8987 106.5,68C 107.252,68.6708 107.586,69.5041 107.5,70.5C 105.967,68.6452 104.3,66.8119 102.5,65C 101.552,64.5172 100.552,64.3505 99.5,64.5C 99.5,66.1667 99.5,67.8333 99.5,69.5C 99.631,70.2389 99.4643,70.9056 99,71.5C 98.6667,70.1667 98.3333,68.8333 98,67.5C 97.2303,66.4019 96.397,66.4019 95.5,67.5C 95.8769,65.742 96.5435,64.0754 97.5,62.5C 92.5624,56.7483 86.5624,52.2483 79.5,49C 76.6917,48.0799 74.5251,48.9133 73,51.5C 72.3333,59.8333 72.3333,68.1667 73,76.5C 75.0408,77.4231 77.2075,77.7564 79.5,77.5C 80.2389,77.369 80.9056,77.5357 81.5,78C 76.4591,79.0076 76.7924,79.5076 82.5,79.5C 82.5,81.8333 82.5,84.1667 82.5,86.5C 81.0413,86.4326 79.7079,86.7659 78.5,87.5C 76.1667,87.5 73.8333,87.5 71.5,87.5C 71.5,89.1667 71.5,90.8333 71.5,92.5C 73.5,92.5 75.5,92.5 77.5,92.5C 75.3926,93.4682 73.0593,93.8016 70.5,93.5C 70.5,88.8333 70.5,84.1667 70.5,79.5C 71.552,79.6495 72.552,79.4828 73.5,79C 72.2986,78.0975 71.4652,76.9308 71,75.5C 70.3333,67.8333 70.3333,60.1667 71,52.5C 71.4652,51.0692 72.2986,49.9025 73.5,49C 71.1667,49.6667 68.8333,49.6667 66.5,49C 67.1258,49.7504 67.6258,50.5838 68,51.5C 68.8163,60.4117 68.6497,69.245 67.5,78C 68,78.5 68.5,79 69,79.5C 69.8151,84.3522 69.6484,89.0189 68.5,93.5C 65.9407,93.8016 63.6074,93.4682 61.5,92.5C 63.5,92.5 65.5,92.5 67.5,92.5C 67.5,90.8333 67.5,89.1667 67.5,87.5C 64.7508,87.2739 62.0841,87.6072 59.5,88.5C 58.2121,90.2985 58.2121,91.9652 59.5,93.5C 59.44,94.0431 59.1067,94.3764 58.5,94.5C 57.2234,91.9659 57.2234,89.4659 58.5,87C 57.8742,86.2496 57.3742,85.4162 57,84.5C 56.5002,94.4944 56.3335,104.494 56.5,114.5C 54.742,114.123 53.0754,113.456 51.5,112.5C 50.7025,112.957 50.3691,113.624 50.5,114.5C 48.8712,113.375 47.3712,112.041 46,110.5C 44.6236,121.81 43.957,133.143 44,144.5C 46.144,137.236 47.9773,129.903 49.5,122.5C 51.3724,127.614 53.5391,132.614 56,137.5C 59.6769,141.546 62.8436,145.879 65.5,150.5C 65.6068,152.379 65.1068,152.712 64,151.5C 62.9196,149.004 61.5862,146.67 60,144.5C 59.8019,146.382 59.3019,148.048 58.5,149.5C 58.628,147.345 58.128,145.345 57,143.5C 54.6397,140.64 52.473,137.64 50.5,134.5C 49.0851,138.409 48.0851,142.409 47.5,146.5C 46.6587,147.009 46.1587,146.343 46,144.5C 44.5783,147.03 44.245,149.697 45,152.5C 45.3333,151.5 45.6667,150.5 46,149.5C 46.5112,151.878 47.1779,154.212 48,156.5C 48.2321,155.263 48.7321,154.263 49.5,153.5C 51.3013,161.928 54.6346,169.594 59.5,176.5C 60.9348,175.087 61.9348,173.42 62.5,171.5C 62.5,173.167 62.5,174.833 62.5,176.5C 63.5,176.5 64.5,176.5 65.5,176.5C 66.1816,170.455 66.1816,164.455 65.5,158.5C 66.1667,159.167 66.8333,159.833 67.5,160.5C 67.3314,167.187 66.8314,173.854 66,180.5C 65.7216,181.416 65.2216,182.082 64.5,182.5C 64.5,181.5 64.5,180.5 64.5,179.5C 61.4281,179.183 58.4281,179.516 55.5,180.5C 56.7878,182.739 57.7878,185.072 58.5,187.5C 57.6365,186.537 56.9698,186.537 56.5,187.5C 57.5771,189.729 58.2437,192.063 58.5,194.5C 58.5,195.167 58.1667,195.5 57.5,195.5C 56.9546,191.529 55.6213,187.862 53.5,184.5C 47.6558,199.693 48.6558,214.36 56.5,228.5C 56.56,229.043 56.8933,229.376 57.5,229.5C 58.1667,218.674 58.8334,208.008 59.5,197.5C 59.5,202.833 59.5,208.167 59.5,213.5C 59.5,219.167 59.5,224.833 59.5,230.5C 58.1667,230.5 56.8333,230.5 55.5,230.5C 45.977,213.813 45.3104,196.813 53.5,179.5C 56.7848,178.676 60.1182,178.176 63.5,178C 60.0175,177.184 56.6842,176.851 53.5,177C 51.1017,175.364 49.935,173.198 50,170.5C 51,171.833 52,173.167 53,174.5C 50.5081,168.031 48.1747,161.364 46,154.5C 45.6327,158.871 46.466,163.038 48.5,167C 48.3333,167.5 48.1667,168 48,168.5C 46.7246,166.283 45.7246,163.949 45,161.5C 42.2367,143.579 41.9034,125.579 44,107.5C 45.1068,108.712 45.6068,108.379 45.5,106.5C 44.0532,105.866 43.3866,104.699 43.5,103C 44.6457,99.8762 45.6457,96.7096 46.5,93.5C 45.4224,90.2657 45.4224,87.099 46.5,84C 43.1943,80.888 41.361,77.0547 41,72.5C 40.6779,75.6663 39.5113,78.333 37.5,80.5C 38.2541,83.0777 38.2541,85.7444 37.5,88.5C 36.7326,87.828 36.0659,86.9947 35.5,86C 36.4506,85.2825 36.6172,84.4491 36,83.5C 33.5464,85.4412 31.713,87.7746 30.5,90.5C 30.5,91.1667 30.5,91.8333 30.5,92.5C 26.0404,104.252 20.3738,115.419 13.5,126C 14.9304,127.44 16.597,127.774 18.5,127C 19.4881,124.833 20.8214,123 22.5,121.5C 21.7236,124.89 20.057,127.724 17.5,130C 18,130.5 18.5,131 19,131.5C 19.4531,138.177 19.9531,144.844 20.5,151.5C 19.1779,151.67 18.0113,151.337 17,150.5C 16.6667,148.833 16.3333,147.167 16,145.5C 15.6667,148.5 15.3333,151.5 15,154.5C 14.6174,155.056 14.1174,155.389 13.5,155.5C 13.9478,151.476 14.6145,147.476 15.5,143.5C 17.0691,144.714 17.9024,146.381 18,148.5C 18.6667,143.167 18.6667,137.833 18,132.5C 14.6812,129.209 11.1812,128.876 7.5,131.5C 10.1915,128.805 12.5248,125.805 14.5,122.5C 14.1667,121.833 13.8333,121.167 13.5,120.5C 16.0334,113.533 17.7001,106.366 18.5,99C 22.5237,88.4954 27.1903,78.3287 32.5,68.5C 29.5551,62.5105 29.8885,56.8438 33.5,51.5C 32.5375,55.796 32.3708,60.1294 33,64.5C 34.1986,55.6021 38.3653,48.4354 45.5,43C 43.8034,42.6155 42.1368,42.7822 40.5,43.5C 45.8467,40.1403 51.8467,38.1403 58.5,37.5C 60.2785,36.3303 61.2785,34.6636 61.5,32.5C 68.0498,36.9314 74.0498,36.2648 79.5,30.5 Z"/></g>
<g><path style="opacity:1" fill="#fbfbfc" d="M 47.5,72.5 C 47.573,70.9731 46.9063,69.9731 45.5,69.5C 44.9278,67.7446 44.0945,66.0779 43,64.5C 42.3333,63.1667 42.3333,61.8333 43,60.5C 48.9968,54.9245 55.8301,51.0911 63.5,49C 65.3333,49.5 66.5,50.6667 67,52.5C 67.7047,60.8611 67.5381,69.1944 66.5,77.5C 59.4117,78.2228 53.0783,76.5561 47.5,72.5 Z"/></g>
<g><path style="opacity:1" fill="#f5f4f4" d="M 85.5,44.5 C 94.1807,45.1721 99.514,49.8388 101.5,58.5C 101.167,59.1667 100.833,59.8333 100.5,60.5C 95.2627,54.878 89.2627,50.2113 82.5,46.5C 83.6016,45.8243 84.6016,45.1577 85.5,44.5 Z"/></g>
<g><path style="opacity:1" fill="#f6f5f5" d="M 48.5,44.5 C 50.7345,44.3801 52.9011,44.7135 55,45.5C 56.2575,45.8499 56.5908,46.5165 56,47.5C 49.7642,51.0667 44.0975,55.4 39,60.5C 38.837,53.1553 42.0037,47.822 48.5,44.5 Z"/></g>
<g><path style="opacity:1" fill="#f2f1f2" d="M 79.5,37.5 C 82.096,38.757 84.7627,39.9236 87.5,41C 85.1287,41.7348 82.7954,42.5682 80.5,43.5C 79.5344,41.604 79.2011,39.604 79.5,37.5 Z"/></g>
<g><path style="opacity:1" fill="#e7e5e6" d="M 58.5,37.5 C 60.3079,38.9179 60.9746,40.9179 60.5,43.5C 57.763,42.969 55.0964,42.1356 52.5,41C 54.7582,40.124 56.7582,38.9573 58.5,37.5 Z"/></g>
<g><path style="opacity:1" fill="#f9f9f9" d="M 63.5,37.5 C 67.5021,38.7597 71.5021,38.7597 75.5,37.5C 77.4454,46.897 73.7788,49.7303 64.5,46C 63.5562,43.2809 63.2229,40.4475 63.5,37.5 Z"/></g>
<g><path style="opacity:1" fill="#f9f9f9" d="M 37.5,80.5 C 35.2034,82.2941 33.0367,84.2941 31,86.5C 29.0962,77.2103 31.7628,69.5437 39,63.5C 39.9435,64.263 40.4435,65.263 40.5,66.5C 39.496,71.1807 38.496,75.8474 37.5,80.5 Z"/></g>
<g><path style="opacity:1" fill="#f7f6f6" d="M 107.5,70.5 C 108.684,74.2268 109.351,78.0601 109.5,82C 109.494,84.0326 109.161,85.866 108.5,87.5C 103.336,82.5059 100.336,76.5059 99.5,69.5C 99.5,67.8333 99.5,66.1667 99.5,64.5C 100.552,64.3505 101.552,64.5172 102.5,65C 104.3,66.8119 105.967,68.6452 107.5,70.5 Z"/></g>
<g><path style="opacity:1" fill="#3d3a3b" d="M 45.5,69.5 C 46.9063,69.9731 47.573,70.9731 47.5,72.5C 46.0937,72.0269 45.427,71.0269 45.5,69.5 Z"/></g>
<g><path style="opacity:1" fill="#cac8c9" d="M 45.5,69.5 C 45.427,71.0269 46.0937,72.0269 47.5,72.5C 47.631,73.2389 47.4643,73.9056 47,74.5C 46.2917,73.6195 45.4584,72.9528 44.5,72.5C 44.4606,71.4168 44.1272,70.4168 43.5,69.5C 43.9698,68.537 44.6365,68.537 45.5,69.5 Z"/></g>
<g><path style="opacity:1" fill="#757575" d="M 99.5,69.5 C 100.336,76.5059 103.336,82.5059 108.5,87.5C 108.461,88.7562 108.961,89.7562 110,90.5C 110.499,86.8484 110.665,83.1817 110.5,79.5C 111.492,79.3284 112.158,79.6618 112.5,80.5C 111.203,84.0941 111.203,87.0941 112.5,89.5C 113.338,89.8417 113.672,90.5084 113.5,91.5C 112.833,92.8333 112.167,94.1667 111.5,95.5C 109.413,94.4154 108.08,92.7488 107.5,90.5C 106.243,87.5726 104.243,85.2393 101.5,83.5C 101.611,82.8826 101.944,82.3826 102.5,82C 100.357,79.2422 99.1903,76.0755 99,72.5C 98.6779,75.6663 97.5113,78.333 95.5,80.5C 95.1667,81.8333 94.8333,83.1667 94.5,84.5C 93.2794,85.0283 92.1127,85.695 91,86.5C 90.3159,83.62 90.4826,80.7866 91.5,78C 91.3333,77.5 91.1667,77 91,76.5C 88.8215,77.8398 88.3215,77.5065 89.5,75.5C 91.1468,72.5265 93.1468,69.8599 95.5,67.5C 96.397,66.4019 97.2303,66.4019 98,67.5C 98.3333,68.8333 98.6667,70.1667 99,71.5C 99.4643,70.9056 99.631,70.2389 99.5,69.5 Z"/></g>
<g><path style="opacity:1" fill="#f2f1f1" d="M 293.5,71.5 C 293.328,72.4916 293.662,73.1583 294.5,73.5C 295.609,75.5544 296.609,77.7211 297.5,80C 296.391,83.8235 295.391,87.6569 294.5,91.5C 292.132,87.6114 291.132,83.2781 291.5,78.5C 291.529,75.7305 292.195,73.3972 293.5,71.5 Z"/></g>
<g><path style="opacity:1" fill="#969394" d="M 303.5,69.5 C 303.107,71.2838 302.441,72.9505 301.5,74.5C 299.97,73.9332 298.47,73.2666 297,72.5C 296.658,74.6192 295.825,74.9526 294.5,73.5C 293.662,73.1583 293.328,72.4916 293.5,71.5C 293.167,70.8333 292.833,70.1667 292.5,69.5C 293.167,69.5 293.833,69.5 294.5,69.5C 296.153,69.6596 297.486,70.3263 298.5,71.5C 299.209,72.404 300.209,72.7373 301.5,72.5C 301.343,71.1266 301.51,69.7932 302,68.5C 302.383,69.056 302.883,69.3893 303.5,69.5 Z"/></g>
<g><path style="opacity:1" fill="#f5f4f4" d="M 95.5,80.5 C 94.5416,80.9528 93.7083,81.6195 93,82.5C 91.8846,78.5155 92.8846,75.1822 96,72.5C 96.4298,75.1922 96.2631,77.8589 95.5,80.5 Z"/></g>
<g><path style="opacity:1" fill="#f3f2f3" d="M 44.5,72.5 C 44.6854,74.1958 45.5187,75.5291 47,76.5C 47.1412,83.8138 45.8079,83.4804 43,75.5C 42.3333,74.1667 42.3333,72.8333 43,71.5C 43.3826,72.056 43.8826,72.3893 44.5,72.5 Z"/></g>
<g><path style="opacity:1" fill="#504f4f" d="M 89.5,75.5 C 88.3215,77.5065 88.8215,77.8398 91,76.5C 91.1667,77 91.3333,77.5 91.5,78C 90.4826,80.7866 90.3159,83.62 91,86.5C 92.1127,85.695 93.2794,85.0283 94.5,84.5C 93.7692,92.2758 93.7692,99.9425 94.5,107.5C 94.1667,107.5 93.8333,107.5 93.5,107.5C 93.8938,106.033 94.2272,104.533 94.5,103C 93.6983,99.596 92.6983,96.2627 91.5,93C 91.9434,91.175 92.2767,89.3417 92.5,87.5C 91.5,87.5 90.5,87.5 89.5,87.5C 89.8174,84.4281 89.4841,81.4281 88.5,78.5C 86.6639,77.9724 84.9972,77.3058 83.5,76.5C 85.5648,76.4828 87.5648,76.1495 89.5,75.5 Z"/></g>
<g><path style="opacity:1" fill="#faf9fa" d="M 45.5,106.5 C 46.8881,100.289 47.5547,93.9552 47.5,87.5C 48.5,87.5 49.5,87.5 50.5,87.5C 50.5,84.8333 50.5,82.1667 50.5,79.5C 51.8333,79.5 53.1667,79.5 54.5,79.5C 55.7655,90.4818 55.7655,101.482 54.5,112.5C 51.2993,110.738 48.2993,108.738 45.5,106.5 Z"/></g>
<g><path style="opacity:1" fill="#fafafa" d="M 89.5,87.5 C 90.5,87.5 91.5,87.5 92.5,87.5C 92.2767,89.3417 91.9434,91.175 91.5,93C 92.6983,96.2627 93.6983,99.596 94.5,103C 94.2272,104.533 93.8938,106.033 93.5,107.5C 91.246,108.124 89.5794,109.457 88.5,111.5C 87.4168,111.539 86.4168,111.873 85.5,112.5C 84.5078,108.217 84.1744,103.884 84.5,99.5C 84.5,92.8333 84.5,86.1667 84.5,79.5C 85.8333,79.5 87.1667,79.5 88.5,79.5C 88.1936,82.3854 88.5269,85.0521 89.5,87.5 Z"/></g>
<g><path style="opacity:1" fill="#fcfbfb" d="M 58.5,80.5 C 61.5,80.5 64.5,80.5 67.5,80.5C 67.5,81.8333 67.5,83.1667 67.5,84.5C 64.5525,84.2229 61.7191,84.5562 59,85.5C 58.5065,83.8659 58.3398,82.1992 58.5,80.5 Z"/></g>
<g><path style="opacity:1" fill="#eeeced" d="M 71.5,80.5 C 74.8333,80.5 78.1667,80.5 81.5,80.5C 81.5,82.1667 81.5,83.8333 81.5,85.5C 78.1933,84.9492 74.8599,84.6159 71.5,84.5C 71.5,83.1667 71.5,81.8333 71.5,80.5 Z"/></g>
<g><path style="opacity:1" fill="#444242" d="M 112.5,80.5 C 114.025,82.2163 115.025,84.2163 115.5,86.5C 114.21,85.9423 113.377,84.9423 113,83.5C 112.505,85.4727 112.338,87.4727 112.5,89.5C 111.203,87.0941 111.203,84.0941 112.5,80.5 Z"/></g>
<g><path style="opacity:1" fill="#ebebeb" d="M 26.5,83.5 C 27.1386,84.0968 27.472,84.9302 27.5,86C 25.5277,95.2493 22.3611,104.083 18,112.5C 18.29,102.126 21.1234,92.4591 26.5,83.5 Z"/></g>
<g><path style="opacity:1" fill="#eaeaea" d="M 115.5,86.5 C 116.338,86.8417 116.672,87.5084 116.5,88.5C 119.434,95.9006 120.934,103.567 121,111.5C 117.802,105.069 115.302,98.4025 113.5,91.5C 113.672,90.5084 113.338,89.8417 112.5,89.5C 112.338,87.4727 112.505,85.4727 113,83.5C 113.377,84.9423 114.21,85.9423 115.5,86.5 Z"/></g>
<g><path style="opacity:1" fill="#5d5c5c" d="M 277.5,25.5 C 277.5,29.8333 277.5,34.1667 277.5,38.5C 276.448,38.3505 275.448,38.5172 274.5,39C 282.762,41.526 290.429,45.1927 297.5,50C 295.905,49.3829 294.572,49.7163 293.5,51C 296.614,54.0598 299.114,57.5598 301,61.5C 301.725,58.6234 301.225,55.9567 299.5,53.5C 299.846,52.3044 300.346,52.3044 301,53.5C 303.177,58.5947 304.01,63.928 303.5,69.5C 302.883,69.3893 302.383,69.056 302,68.5C 301.51,69.7932 301.343,71.1266 301.5,72.5C 300.209,72.7373 299.209,72.404 298.5,71.5C 299.586,71.38 300.253,70.7133 300.5,69.5C 298.719,62.6017 295.386,56.6017 290.5,51.5C 286.91,51.9669 283.91,53.4669 281.5,56C 286.037,60.3688 290.37,64.8688 294.5,69.5C 293.833,69.5 293.167,69.5 292.5,69.5C 292.833,70.1667 293.167,70.8333 293.5,71.5C 292.195,73.3972 291.529,75.7305 291.5,78.5C 291.132,83.2781 292.132,87.6114 294.5,91.5C 294.737,92.791 294.404,93.791 293.5,94.5C 292.213,92.3635 291.379,90.0301 291,87.5C 290.448,92.5635 288.615,97.0635 285.5,101C 287.248,105.13 288.081,109.297 288,113.5C 288.667,119.833 288.667,126.167 288,132.5C 286.89,134.037 285.39,134.703 283.5,134.5C 284.688,133.636 285.855,132.636 287,131.5C 287.667,125.833 287.667,120.167 287,114.5C 284.919,109.642 281.419,108.309 276.5,110.5C 276.611,109.883 276.944,109.383 277.5,109C 280.036,108.814 282.369,108.314 284.5,107.5C 281.552,107.223 278.719,107.556 276,108.5C 275.667,107.833 275.333,107.167 275,106.5C 272.511,111.963 270.844,117.63 270,123.5C 270.278,122.584 270.778,121.918 271.5,121.5C 271.076,124.354 270.076,127.021 268.5,129.5C 269.857,131.186 271.19,132.852 272.5,134.5C 267.888,133.048 266.388,130.048 268,125.5C 266.855,126.684 265.688,126.684 264.5,125.5C 264.5,124.5 264.5,123.5 264.5,122.5C 265.741,124.931 266.908,124.931 268,122.5C 269.353,117.602 271.186,112.935 273.5,108.5C 271.424,103.349 269.09,98.3489 266.5,93.5C 263.622,98.5903 261.288,103.924 259.5,109.5C 258.833,108.5 258.167,107.5 257.5,106.5C 259.395,100.984 261.395,95.4836 263.5,90C 262.066,84.3087 259.733,79.1421 256.5,74.5C 256.5,74.1667 256.5,73.8333 256.5,73.5C 257.496,73.4142 258.329,73.7476 259,74.5C 259.464,73.9056 259.631,73.2389 259.5,72.5C 256.221,66.3406 254.221,60.0073 253.5,53.5C 253.005,56.4703 251.505,58.8037 249,60.5C 248.837,58.6133 249.671,57.1133 251.5,56C 246.622,50.4278 242.122,50.5945 238,56.5C 235.469,60.7261 233.636,65.2261 232.5,70C 232.833,70.5 233.167,71 233.5,71.5C 236.22,70.1401 238.886,68.8068 241.5,67.5C 241.047,68.4584 240.381,69.2917 239.5,70C 240.449,70.6172 241.282,70.4506 242,69.5C 242.818,75.3487 242.652,81.0154 241.5,86.5C 241.827,81.456 241.494,76.456 240.5,71.5C 235.614,77.5884 235.281,83.9217 239.5,90.5C 240.386,89.675 240.719,88.675 240.5,87.5C 241.167,87.5 241.5,87.8333 241.5,88.5C 241.396,90.7028 240.73,92.7028 239.5,94.5C 238.4,92.7226 237.566,90.7226 237,88.5C 236.667,89.5 236.333,90.5 236,91.5C 235.333,90.1667 234.667,90.1667 234,91.5C 233.383,90.5509 233.549,89.7175 234.5,89C 233.906,88.5357 233.239,88.369 232.5,88.5C 232.261,90.4672 232.594,92.3005 233.5,94C 233.024,95.8242 231.524,97.3242 229,98.5C 228.308,99.4368 228.475,100.103 229.5,100.5C 225.592,108.108 222.592,116.108 220.5,124.5C 220.167,124.5 219.833,124.5 219.5,124.5C 219.062,124.565 218.728,124.399 218.5,124C 221.126,118.79 222.959,113.29 224,107.5C 224.914,105.336 226.081,103.336 227.5,101.5C 227.291,100.914 226.957,100.414 226.5,100C 227.599,97.3944 228.932,94.8944 230.5,92.5C 228.515,87.6895 228.015,82.6895 229,77.5C 230.339,74.9057 232.506,73.4057 235.5,73C 234.207,72.51 232.873,72.3433 231.5,72.5C 228.739,66.1011 228.906,59.7678 232,53.5C 238.896,46.7999 247.062,42.2999 256.5,40C 255.536,35.9341 255.203,31.7675 255.5,27.5C 256.404,28.209 256.737,29.209 256.5,30.5C 256.192,32.924 256.526,35.2573 257.5,37.5C 260.5,34.1667 263.5,30.8333 266.5,27.5C 269.484,30.9846 272.651,34.318 276,37.5C 276.793,33.577 276.626,29.7436 275.5,26C 269.319,25.1808 263.319,25.3475 257.5,26.5C 256.957,26.44 256.624,26.1067 256.5,25.5C 263.557,24.2056 270.557,24.2056 277.5,25.5 Z"/></g>
<g><path style="opacity:1" fill="#fafafa" d="M 274.5,75.5 C 279.167,75.5 283.833,75.5 288.5,75.5C 288.666,81.5092 288.499,87.5092 288,93.5C 286.865,97.6412 284.531,100.975 281,103.5C 280.517,104.448 280.351,105.448 280.5,106.5C 278.856,106.714 277.356,106.38 276,105.5C 273.554,100.275 271.387,94.9418 269.5,89.5C 271.184,84.8068 272.851,80.1401 274.5,75.5 Z"/></g>
<g><path style="opacity:1" fill="#f9f9f9" d="M 256.5,74.5 C 259.733,79.1421 262.066,84.3087 263.5,90C 261.395,95.4836 259.395,100.984 257.5,106.5C 255.833,106.5 254.167,106.5 252.5,106.5C 251.736,103.213 249.903,100.546 247,98.5C 246.138,96.913 245.471,95.2464 245,93.5C 244.501,87.5092 244.334,81.5092 244.5,75.5C 248.702,75.8168 252.702,75.4834 256.5,74.5 Z"/></g>
<g><path style="opacity:1" fill="#eeeeee" d="M 232.5,88.5 C 230.05,88.1257 229.05,86.6257 229.5,84C 229.299,79.8701 230.799,76.7034 234,74.5C 232.793,79.0548 232.293,83.7214 232.5,88.5 Z"/></g>
<g><path style="opacity:1" fill="#999898" d="M 241.5,67.5 C 242.975,69.0066 244.309,70.6732 245.5,72.5C 248.833,72.5 252.167,72.5 255.5,72.5C 255.833,72.5 256.167,72.5 256.5,72.5C 256.5,72.8333 256.5,73.1667 256.5,73.5C 256.5,73.8333 256.5,74.1667 256.5,74.5C 252.167,74.5 247.833,74.5 243.5,74.5C 243.5,80.1667 243.5,85.8333 243.5,91.5C 242.833,90.5 242.167,89.5 241.5,88.5C 241.5,87.8333 241.167,87.5 240.5,87.5C 240.5,86.8333 240.833,86.5 241.5,86.5C 242.652,81.0154 242.818,75.3487 242,69.5C 241.282,70.4506 240.449,70.6172 239.5,70C 240.381,69.2917 241.047,68.4584 241.5,67.5 Z"/></g>
<g><path style="opacity:1" fill="#f4f3f4" d="M 241.5,86.5 C 240.833,86.5 240.5,86.8333 240.5,87.5C 240.719,88.675 240.386,89.675 239.5,90.5C 235.281,83.9217 235.614,77.5884 240.5,71.5C 241.494,76.456 241.827,81.456 241.5,86.5 Z"/></g>
<g><path style="opacity:1" fill="#676465" d="M 256.5,72.5 C 256.167,72.5 255.833,72.5 255.5,72.5C 254.84,68.6873 253.674,65.0207 252,61.5C 247.839,64.1246 245.672,67.7913 245.5,72.5C 244.309,70.6732 242.975,69.0066 241.5,67.5C 242.793,65.7041 244.293,64.0375 246,62.5C 246.414,62.9574 246.914,63.2907 247.5,63.5C 249.167,62.1667 250.833,60.8333 252.5,59.5C 254.266,63.6341 255.933,67.8007 257.5,72C 257.272,72.3988 256.938,72.5654 256.5,72.5 Z"/></g>
<g><path style="opacity:1" fill="#f8f7f8" d="M 255.5,72.5 C 252.167,72.5 248.833,72.5 245.5,72.5C 245.672,67.7913 247.839,64.1246 252,61.5C 253.674,65.0207 254.84,68.6873 255.5,72.5 Z"/></g>
<g><path style="opacity:1" fill="#a3a2a2" d="M 292.5,69.5 C 290.78,71.6581 289.947,74.3248 290,77.5C 289.517,76.552 289.351,75.552 289.5,74.5C 285.154,74.6657 280.821,74.499 276.5,74C 275.572,73.6121 274.905,72.9454 274.5,72C 276.333,66.5 278.167,61 280,55.5C 284.003,60.3354 288.17,65.0021 292.5,69.5 Z"/></g>
<g><path style="opacity:1" fill="#f3f2f3" d="M 281.5,60.5 C 283.144,62.4807 284.81,64.4807 286.5,66.5C 287.466,68.396 287.799,70.396 287.5,72.5C 284.167,72.5 280.833,72.5 277.5,72.5C 278.261,68.2157 279.595,64.2157 281.5,60.5 Z"/></g>
<g><path style="opacity:1" fill="#414141" d="M 281.5,60.5 C 279.595,64.2157 278.261,68.2157 277.5,72.5C 276.761,72.631 276.094,72.4643 275.5,72C 277.067,67.8007 278.734,63.6341 280.5,59.5C 281.107,59.6236 281.44,59.9569 281.5,60.5 Z"/></g>
<g><path style="opacity:1" fill="#f5f5f5" d="M 259.5,72.5 C 258.155,67.4586 256.988,62.4586 256,57.5C 259.349,61.0158 262.849,64.3492 266.5,67.5C 270.151,64.3492 273.651,61.0158 277,57.5C 275.201,67.7264 271.701,77.3931 266.5,86.5C 264.149,81.7394 261.816,77.0728 259.5,72.5 Z"/></g>
<g><path style="opacity:1" fill="#f9f8f8" d="M 298.5,71.5 C 297.486,70.3263 296.153,69.6596 294.5,69.5C 290.37,64.8688 286.037,60.3688 281.5,56C 283.91,53.4669 286.91,51.9669 290.5,51.5C 295.386,56.6017 298.719,62.6017 300.5,69.5C 300.253,70.7133 299.586,71.38 298.5,71.5 Z"/></g>
<g><path style="opacity:1" fill="#efefef" d="M 259.5,72.5 C 259.631,73.2389 259.464,73.9056 259,74.5C 258.329,73.7476 257.496,73.4142 256.5,73.5C 256.5,73.1667 256.5,72.8333 256.5,72.5C 256.938,72.5654 257.272,72.3988 257.5,72C 255.933,67.8007 254.266,63.6341 252.5,59.5C 250.833,60.8333 249.167,62.1667 247.5,63.5C 246.914,63.2907 246.414,62.9574 246,62.5C 244.293,64.0375 242.793,65.7041 241.5,67.5C 238.886,68.8068 236.22,70.1401 233.5,71.5C 233.167,71 232.833,70.5 232.5,70C 233.636,65.2261 235.469,60.7261 238,56.5C 242.122,50.5945 246.622,50.4278 251.5,56C 249.671,57.1133 248.837,58.6133 249,60.5C 251.505,58.8037 253.005,56.4703 253.5,53.5C 254.221,60.0073 256.221,66.3406 259.5,72.5 Z"/></g>
<g><path style="opacity:1" fill="#eeeeee" d="M 236.5,50.5 C 237.376,50.3691 238.043,50.7025 238.5,51.5C 236.084,54.6628 233.918,57.9961 232,61.5C 231.447,56.9939 232.947,53.3272 236.5,50.5 Z"/></g>
<g><path style="opacity:1" fill="#f5f4f4" d="M 275.5,49.5 C 276.11,50.391 276.443,51.391 276.5,52.5C 274.372,53.9573 272.038,54.9573 269.5,55.5C 269.335,52.4816 269.502,49.4816 270,46.5C 271.741,47.7577 273.574,48.7577 275.5,49.5 Z"/></g>
<g><path style="opacity:1" fill="#f8f8f8" d="M 256.5,50.5 C 258.764,49.4187 260.931,48.0854 263,46.5C 264.777,56.4204 262.61,57.7538 256.5,50.5 Z"/></g>
<g><path style="opacity:1" fill="#f7f7f7" d="M 276.5,52.5 C 279.048,50.9865 278.715,49.9865 275.5,49.5C 273.425,47.2812 271.091,45.2812 268.5,43.5C 267.507,48.1196 267.173,52.7863 267.5,57.5C 269.575,57.3016 271.575,57.1349 273.5,57C 271.317,59.3504 268.984,61.517 266.5,63.5C 263.683,61.1833 261.016,58.6833 258.5,56C 260.582,56.9323 262.915,57.4323 265.5,57.5C 265.827,52.7863 265.493,48.1196 264.5,43.5C 261.386,45.3797 258.72,47.713 256.5,50.5C 255.761,50.369 255.094,50.5357 254.5,51C 255.696,51.6543 255.696,52.1543 254.5,52.5C 250.657,50.4415 246.657,48.7749 242.5,47.5C 248.008,44.7166 253.674,42.2166 259.5,40C 262.045,37.6244 264.378,35.1244 266.5,32.5C 268.622,35.1244 270.955,37.6244 273.5,40C 279.167,42.3333 284.833,44.6667 290.5,47C 285.948,48.6869 281.614,50.8535 277.5,53.5C 276.893,53.3764 276.56,53.0431 276.5,52.5 Z"/></g>
<g><path style="opacity:1" fill="#373334" d="M 275.5,49.5 C 278.715,49.9865 279.048,50.9865 276.5,52.5C 276.443,51.391 276.11,50.391 275.5,49.5 Z"/></g>
<g><path style="opacity:1" fill="#aaaaaa" d="M 37.5,88.5 C 37.5,89.1667 37.1667,89.5 36.5,89.5C 36.1667,89.5 35.8333,89.5 35.5,89.5C 35.5,88.8333 35.1667,88.5 34.5,88.5C 34.5654,88.0618 34.3988,87.7284 34,87.5C 32.9609,88.7101 31.7942,89.7101 30.5,90.5C 31.713,87.7746 33.5464,85.4412 36,83.5C 36.6172,84.4491 36.4506,85.2825 35.5,86C 36.0659,86.9947 36.7326,87.828 37.5,88.5 Z"/></g>
<g><path style="opacity:1" fill="#4c4b4b" d="M 101.5,83.5 C 104.243,85.2393 106.243,87.5726 107.5,90.5C 106.206,89.7101 105.039,88.7101 104,87.5C 105.895,96.3905 108.728,105.057 112.5,113.5C 110.526,111.572 109.026,109.239 108,106.5C 105.52,98.8961 103.353,91.2295 101.5,83.5 Z"/></g>
<g><path style="opacity:1" fill="#474646" d="M 107.5,70.5 C 109.868,72.9557 110.868,75.9557 110.5,79.5C 110.665,83.1817 110.499,86.8484 110,90.5C 108.961,89.7562 108.461,88.7562 108.5,87.5C 109.161,85.866 109.494,84.0326 109.5,82C 109.351,78.0601 108.684,74.2268 107.5,70.5 Z"/></g>
<g><path style="opacity:1" fill="#efeeee" d="M 61.5,92.5 C 60.8333,92.8333 60.1667,93.1667 59.5,93.5C 58.2121,91.9652 58.2121,90.2985 59.5,88.5C 62.0841,87.6072 64.7508,87.2739 67.5,87.5C 67.5,89.1667 67.5,90.8333 67.5,92.5C 65.5,92.5 63.5,92.5 61.5,92.5 Z"/></g>
<g><path style="opacity:1" fill="#eff0f0" d="M 78.5,87.5 C 79.968,88.7791 80.6347,90.4458 80.5,92.5C 79.5,92.5 78.5,92.5 77.5,92.5C 75.5,92.5 73.5,92.5 71.5,92.5C 71.5,90.8333 71.5,89.1667 71.5,87.5C 73.8333,87.5 76.1667,87.5 78.5,87.5 Z"/></g>
<g><path style="opacity:1" fill="#7f7f7f" d="M 79.5,77.5 C 80.5676,76.5655 81.901,76.2322 83.5,76.5C 84.9972,77.3058 86.6639,77.9724 88.5,78.5C 89.4841,81.4281 89.8174,84.4281 89.5,87.5C 88.5269,85.0521 88.1936,82.3854 88.5,79.5C 87.1667,79.5 85.8333,79.5 84.5,79.5C 84.5,86.1667 84.5,92.8333 84.5,99.5C 83.6909,97.7078 83.1909,95.7078 83,93.5C 82.3021,94.6906 81.4687,95.6906 80.5,96.5C 79.209,96.7373 78.209,96.404 77.5,95.5C 78.9217,95.2914 80.255,94.7914 81.5,94C 81,93.8333 80.5,93.6667 80,93.5C 76.8948,94.3672 73.7281,94.7006 70.5,94.5C 70.5,94.1667 70.5,93.8333 70.5,93.5C 73.0593,93.8016 75.3926,93.4682 77.5,92.5C 78.5,92.5 79.5,92.5 80.5,92.5C 80.6347,90.4458 79.968,88.7791 78.5,87.5C 79.7079,86.7659 81.0413,86.4326 82.5,86.5C 82.5,84.1667 82.5,81.8333 82.5,79.5C 76.7924,79.5076 76.4591,79.0076 81.5,78C 80.9056,77.5357 80.2389,77.369 79.5,77.5 Z"/></g>
<g><path style="opacity:1" fill="#f5f5f5" d="M 34.5,88.5 C 35.1667,88.5 35.5,88.8333 35.5,89.5C 33.5623,94.3434 32.0623,99.3434 31,104.5C 28.1401,110.22 25.3068,115.886 22.5,121.5C 20.8214,123 19.4881,124.833 18.5,127C 16.597,127.774 14.9304,127.44 13.5,126C 20.3738,115.419 26.0404,104.252 30.5,92.5C 32.1667,91.5 33.5,90.1667 34.5,88.5 Z"/></g>
<g><path style="opacity:1" fill="#464646" d="M 34.5,88.5 C 33.5,90.1667 32.1667,91.5 30.5,92.5C 30.5,91.8333 30.5,91.1667 30.5,90.5C 31.7942,89.7101 32.9609,88.7101 34,87.5C 34.3988,87.7284 34.5654,88.0618 34.5,88.5 Z"/></g>
<g><path style="opacity:1" fill="#f3f2f3" d="M 107.5,90.5 C 108.08,92.7488 109.413,94.4154 111.5,95.5C 115.107,106.707 119.774,117.373 125.5,127.5C 123.799,127.966 122.299,127.966 121,127.5C 118.894,122.27 116.061,117.603 112.5,113.5C 108.728,105.057 105.895,96.3905 104,87.5C 105.039,88.7101 106.206,89.7101 107.5,90.5 Z"/></g>
<g><path style="opacity:1" fill="#b1afb0" d="M 295.5,100.5 C 294.715,98.6264 294.048,96.6264 293.5,94.5C 294.404,93.791 294.737,92.791 294.5,91.5C 295.222,91.0825 295.722,90.4158 296,89.5C 296.448,91.2244 297.282,91.891 298.5,91.5C 297.787,93.7759 297.287,96.1093 297,98.5C 296.667,96.5 296.333,94.5 296,92.5C 295.503,95.146 295.336,97.8127 295.5,100.5 Z"/></g>
<g><path style="opacity:1" fill="#a5a4a4" d="M 232.5,88.5 C 233.239,88.369 233.906,88.5357 234.5,89C 233.549,89.7175 233.383,90.5509 234,91.5C 234.667,90.1667 235.333,90.1667 236,91.5C 236.333,90.5 236.667,89.5 237,88.5C 237.566,90.7226 238.4,92.7226 239.5,94.5C 238.952,96.6264 238.285,98.6264 237.5,100.5C 237.664,97.8127 237.497,95.146 237,92.5C 236.503,99.5032 235.837,99.8365 235,93.5C 233.422,96.6572 232.422,99.9906 232,103.5C 231.781,102.062 231.281,100.729 230.5,99.5C 229.893,99.6236 229.56,99.9569 229.5,100.5C 228.475,100.103 228.308,99.4368 229,98.5C 231.524,97.3242 233.024,95.8242 233.5,94C 232.594,92.3005 232.261,90.4672 232.5,88.5 Z"/></g>
<g><path style="opacity:1" fill="#f7f7f7" d="M 264.5,122.5 C 263.776,119.157 262.943,115.824 262,112.5C 261.623,111.058 260.79,110.058 259.5,109.5C 261.288,103.924 263.622,98.5903 266.5,93.5C 269.09,98.3489 271.424,103.349 273.5,108.5C 271.186,112.935 269.353,117.602 268,122.5C 266.908,124.931 265.741,124.931 264.5,122.5 Z"/></g>
<g><path style="opacity:1" fill="#525151" d="M 256.5,74.5 C 252.702,75.4834 248.702,75.8168 244.5,75.5C 244.334,81.5092 244.501,87.5092 245,93.5C 245.471,95.2464 246.138,96.913 247,98.5C 249.903,100.546 251.736,103.213 252.5,106.5C 254.167,106.5 255.833,106.5 257.5,106.5C 257.631,107.239 257.464,107.906 257,108.5C 255.951,107.483 254.784,107.316 253.5,108C 254.942,108.377 255.942,109.21 256.5,110.5C 253.5,109.167 250.5,109.167 247.5,110.5C 246.609,109.739 245.942,108.739 245.5,107.5C 246.024,105.617 246.691,103.784 247.5,102C 245.184,98.8689 243.851,95.3689 243.5,91.5C 243.5,85.8333 243.5,80.1667 243.5,74.5C 247.833,74.5 252.167,74.5 256.5,74.5 Z"/></g>
<g><path style="opacity:1" fill="#5d5d5d" d="M 77.5,95.5 C 75.8333,95.5 74.1667,95.5 72.5,95.5C 72.5,97.1667 72.5,98.8333 72.5,100.5C 75.1667,100.5 77.8333,100.5 80.5,100.5C 80.5,99.1667 80.5,97.8333 80.5,96.5C 81.4687,95.6906 82.3021,94.6906 83,93.5C 83.1909,95.7078 83.6909,97.7078 84.5,99.5C 84.1744,103.884 84.5078,108.217 85.5,112.5C 86.4168,111.873 87.4168,111.539 88.5,111.5C 87.2642,113.043 85.5976,114.043 83.5,114.5C 82.7189,113.271 82.2189,111.938 82,110.5C 80.3472,115.139 78.1806,119.472 75.5,123.5C 74.0695,123.421 72.7362,123.754 71.5,124.5C 70.5041,118.537 70.1707,112.537 70.5,106.5C 71.1667,111.833 71.8333,117.167 72.5,122.5C 78.6558,117.833 81.3224,111.5 80.5,103.5C 77.6146,103.194 74.9479,103.527 72.5,104.5C 71.9569,104.44 71.6236,104.107 71.5,103.5C 75.1224,102.675 78.789,102.175 82.5,102C 78.5138,101.501 74.5138,101.334 70.5,101.5C 70.5,99.1667 70.5,96.8333 70.5,94.5C 73.7281,94.7006 76.8948,94.3672 80,93.5C 80.5,93.6667 81,93.8333 81.5,94C 80.255,94.7914 78.9217,95.2914 77.5,95.5 Z"/></g>
<g><path style="opacity:1" fill="#f9f8f9" d="M 77.5,95.5 C 78.209,96.404 79.209,96.7373 80.5,96.5C 80.5,97.8333 80.5,99.1667 80.5,100.5C 77.8333,100.5 75.1667,100.5 72.5,100.5C 72.5,98.8333 72.5,97.1667 72.5,95.5C 74.1667,95.5 75.8333,95.5 77.5,95.5 Z"/></g>
<g><path style="opacity:1" fill="#9f9e9f" d="M 59.5,93.5 C 60.1667,93.1667 60.8333,92.8333 61.5,92.5C 63.6074,93.4682 65.9407,93.8016 68.5,93.5C 68.5,93.8333 68.5,94.1667 68.5,94.5C 69.8229,104.341 69.8229,114.341 68.5,124.5C 67.8933,124.376 67.56,124.043 67.5,123.5C 68.4912,116.687 68.8245,109.687 68.5,102.5C 64.8333,102.5 61.1667,102.5 57.5,102.5C 57.2529,105.939 57.5863,109.272 58.5,112.5C 57.8333,113.167 57.1667,113.833 56.5,114.5C 56.3335,104.494 56.5002,94.4944 57,84.5C 57.3742,85.4162 57.8742,86.2496 58.5,87C 57.2234,89.4659 57.2234,91.9659 58.5,94.5C 59.1067,94.3764 59.44,94.0431 59.5,93.5 Z"/></g>
<g><path style="opacity:1" fill="#3d3c3c" d="M 60.5,95.5 C 62.9479,94.5269 65.6146,94.1936 68.5,94.5C 68.5,96.8333 68.5,99.1667 68.5,101.5C 64.8333,101.5 61.1667,101.5 57.5,101.5C 57.0254,98.9179 57.6921,96.9179 59.5,95.5C 58.6993,97.0418 58.366,98.7085 58.5,100.5C 61.5,100.5 64.5,100.5 67.5,100.5C 67.5,98.8333 67.5,97.1667 67.5,95.5C 65.1667,95.5 62.8333,95.5 60.5,95.5 Z"/></g>
<g><path style="opacity:1" fill="#f2f1f1" d="M 59.5,95.5 C 59.8333,95.5 60.1667,95.5 60.5,95.5C 62.8333,95.5 65.1667,95.5 67.5,95.5C 67.5,97.1667 67.5,98.8333 67.5,100.5C 64.5,100.5 61.5,100.5 58.5,100.5C 58.366,98.7085 58.6993,97.0418 59.5,95.5 Z"/></g>
<g><path style="opacity:1" fill="#e9e9e9" d="M 301.5,117.5 C 301.25,115.326 300.25,113.659 298.5,112.5C 298.045,109.797 297.378,107.13 296.5,104.5C 296.703,102.792 297.536,101.459 299,100.5C 299.661,107.65 301.828,114.316 305.5,120.5C 305.333,120.833 305.167,121.167 305,121.5C 304.051,119.907 302.885,118.574 301.5,117.5 Z"/></g>
<g><path style="opacity:1" fill="#fafafa" d="M 72.5,122.5 C 72.5,116.5 72.5,110.5 72.5,104.5C 74.9479,103.527 77.6146,103.194 80.5,103.5C 81.3224,111.5 78.6558,117.833 72.5,122.5 Z"/></g>
<g><path style="opacity:1" fill="#e6e4e5" d="M 247.5,104.5 C 250.012,105.216 250.012,106.216 247.5,107.5C 246.913,106.767 246.913,105.767 247.5,104.5 Z"/></g>
<g><path style="opacity:1" fill="#e7e6e7" d="M 284.5,107.5 C 283.636,103.89 284.302,103.723 286.5,107C 285.906,107.464 285.239,107.631 284.5,107.5 Z"/></g>
<g><path style="opacity:1" fill="#a1a1a1" d="M 93.5,107.5 C 93.8333,107.5 94.1667,107.5 94.5,107.5C 96.4364,111.715 97.1031,116.381 96.5,121.5C 96.0465,116.721 95.0465,112.054 93.5,107.5 Z"/></g>
<g><path style="opacity:1" fill="#f2f2f2" d="M 229.5,100.5 C 230.595,103.717 230.429,107.05 229,110.5C 227.333,114.5 225.667,118.5 224,122.5C 223.184,123.823 222.017,124.489 220.5,124.5C 222.592,116.108 225.592,108.108 229.5,100.5 Z"/></g>
<g><path style="opacity:1" fill="#939393" d="M 70.5,101.5 C 74.5138,101.334 78.5138,101.501 82.5,102C 78.789,102.175 75.1224,102.675 71.5,103.5C 71.6236,104.107 71.9569,104.44 72.5,104.5C 72.5,110.5 72.5,116.5 72.5,122.5C 71.8333,117.167 71.1667,111.833 70.5,106.5C 70.5,104.833 70.5,103.167 70.5,101.5 Z"/></g>
<g><path style="opacity:1" fill="#fbfbfb" d="M 256.5,110.5 C 257.93,114.354 259.597,118.021 261.5,121.5C 261.924,124.354 262.924,127.021 264.5,129.5C 263.873,130.417 263.539,131.417 263.5,132.5C 261.973,132.427 260.973,133.094 260.5,134.5C 256.833,134.5 253.167,134.5 249.5,134.5C 248.828,133.733 247.995,133.066 247,132.5C 244.996,125.042 245.162,117.709 247.5,110.5C 250.5,109.167 253.5,109.167 256.5,110.5 Z"/></g>
<g><path style="opacity:1" fill="#fafafa" d="M 283.5,134.5 C 279.833,134.5 276.167,134.5 272.5,134.5C 271.19,132.852 269.857,131.186 268.5,129.5C 270.076,127.021 271.076,124.354 271.5,121.5C 272.931,120.22 273.598,118.553 273.5,116.5C 275.008,114.819 276.008,112.819 276.5,110.5C 281.419,108.309 284.919,109.642 287,114.5C 287.667,120.167 287.667,125.833 287,131.5C 285.855,132.636 284.688,133.636 283.5,134.5 Z"/></g>
<g><path style="opacity:1" fill="#4f4f4f" d="M 35.5,89.5 C 35.8333,89.5 36.1667,89.5 36.5,89.5C 34.5212,101.447 29.8545,112.114 22.5,121.5C 25.3068,115.886 28.1401,110.22 31,104.5C 32.0623,99.3434 33.5623,94.3434 35.5,89.5 Z"/></g>
<g><path style="opacity:1" fill="#f2f2f2" d="M 95.5,135.5 C 95.8016,138.059 95.4682,140.393 94.5,142.5C 93.63,135.687 92.13,129.02 90,122.5C 86.8556,132.805 81.6889,141.805 74.5,149.5C 77.5527,141.06 80.8861,132.727 84.5,124.5C 86.4091,119.026 89.5757,114.359 94,110.5C 94.611,118.831 95.111,127.164 95.5,135.5 Z"/></g>
<g><path style="opacity:1" fill="#f2f1f1" d="M 88.5,111.5 C 89.2389,111.369 89.9056,111.536 90.5,112C 88.9512,113.214 87.7845,114.714 87,116.5C 83.3908,118.282 80.2241,120.615 77.5,123.5C 76.8333,123.5 76.1667,123.5 75.5,123.5C 78.1806,119.472 80.3472,115.139 82,110.5C 82.2189,111.938 82.7189,113.271 83.5,114.5C 85.5976,114.043 87.2642,113.043 88.5,111.5 Z"/></g>
<g><path style="opacity:1" fill="#dbdbdb" d="M 284.5,107.5 C 282.369,108.314 280.036,108.814 277.5,109C 276.944,109.383 276.611,109.883 276.5,110.5C 274.461,111.911 273.461,113.911 273.5,116.5C 272.069,117.78 271.402,119.447 271.5,121.5C 270.778,121.918 270.278,122.584 270,123.5C 270.844,117.63 272.511,111.963 275,106.5C 275.333,107.167 275.667,107.833 276,108.5C 278.719,107.556 281.552,107.223 284.5,107.5 Z"/></g>
<g><path style="opacity:1" fill="#454545" d="M 276.5,110.5 C 276.008,112.819 275.008,114.819 273.5,116.5C 273.461,113.911 274.461,111.911 276.5,110.5 Z"/></g>
<g><path style="opacity:1" fill="#f3f2f2" d="M 50.5,114.5 C 53.702,120.791 56.702,127.124 59.5,133.5C 61.7788,139.06 63.7788,144.726 65.5,150.5C 62.8436,145.879 59.6769,141.546 56,137.5C 53.5391,132.614 51.3724,127.614 49.5,122.5C 47.9773,129.903 46.144,137.236 44,144.5C 43.957,133.143 44.6236,121.81 46,110.5C 47.3712,112.041 48.8712,113.375 50.5,114.5 Z"/></g>
<g><path style="opacity:1" fill="#d8d7d7" d="M 257.5,106.5 C 258.167,107.5 258.833,108.5 259.5,109.5C 260.599,114.144 262.266,118.478 264.5,122.5C 264.5,123.5 264.5,124.5 264.5,125.5C 263.5,124.167 262.5,122.833 261.5,121.5C 261.154,117.148 259.488,113.481 256.5,110.5C 255.942,109.21 254.942,108.377 253.5,108C 254.784,107.316 255.951,107.483 257,108.5C 257.464,107.906 257.631,107.239 257.5,106.5 Z"/></g>
<g><path style="opacity:1" fill="#4a4a4a" d="M 259.5,109.5 C 260.79,110.058 261.623,111.058 262,112.5C 262.943,115.824 263.776,119.157 264.5,122.5C 262.266,118.478 260.599,114.144 259.5,109.5 Z"/></g>
<g><path style="opacity:1" fill="#3f3f3f" d="M 298.5,112.5 C 300.25,113.659 301.25,115.326 301.5,117.5C 299.75,116.341 298.75,114.674 298.5,112.5 Z"/></g>
<g><path style="opacity:1" fill="#4a4a4a" d="M 256.5,110.5 C 259.488,113.481 261.154,117.148 261.5,121.5C 259.597,118.021 257.93,114.354 256.5,110.5 Z"/></g>
<g><path style="opacity:1" fill="#494949" d="M 273.5,116.5 C 273.598,118.553 272.931,120.22 271.5,121.5C 271.402,119.447 272.069,117.78 273.5,116.5 Z"/></g>
<g><path style="opacity:1" fill="#5b5b5b" d="M 301.5,74.5 C 302.79,75.0577 303.623,76.0577 304,77.5C 304.985,82.6895 304.485,87.6895 302.5,92.5C 303.919,94.3359 305.086,96.3359 306,98.5C 308.679,106.883 311.513,115.216 314.5,123.5C 314.291,124.086 313.957,124.586 313.5,125C 315.32,125.2 316.653,126.034 317.5,127.5C 314.339,126.38 311.505,127.046 309,129.5C 308.233,134.426 308.733,139.092 310.5,143.5C 310.232,145.099 310.566,146.432 311.5,147.5C 311.316,150.173 310.149,150.84 308,149.5C 307.653,143.985 307.153,138.485 306.5,133C 306.354,130.966 307.02,129.299 308.5,128C 307.584,127.626 306.75,127.126 306,126.5C 304.239,123.589 302.739,120.589 301.5,117.5C 302.885,118.574 304.051,119.907 305,121.5C 305.167,121.167 305.333,120.833 305.5,120.5C 301.828,114.316 299.661,107.65 299,100.5C 297.536,101.459 296.703,102.792 296.5,104.5C 297.378,107.13 298.045,109.797 298.5,112.5C 297.034,111.653 296.2,110.32 296,108.5C 295.699,105.538 295.532,102.872 295.5,100.5C 295.336,97.8127 295.503,95.146 296,92.5C 296.333,94.5 296.667,96.5 297,98.5C 297.287,96.1093 297.787,93.7759 298.5,91.5C 297.282,91.891 296.448,91.2244 296,89.5C 295.722,90.4158 295.222,91.0825 294.5,91.5C 295.391,87.6569 296.391,83.8235 297.5,80C 296.609,77.7211 295.609,75.5544 294.5,73.5C 295.825,74.9526 296.658,74.6192 297,72.5C 298.47,73.2666 299.97,73.9332 301.5,74.5 Z"/></g>
<g><path style="opacity:1" fill="#f2f2f2" d="M 302.5,100.5 C 304.708,101.894 306.208,103.894 307,106.5C 308.434,112.137 310.268,117.637 312.5,123C 312.167,123.5 311.833,124 311.5,124.5C 306.145,117.441 303.145,109.441 302.5,100.5 Z"/></g>
<g><path style="opacity:1" fill="#cac9c9" d="M 299.5,87.5 C 300.511,89.4024 300.678,91.4024 300,93.5C 299.995,90.7708 298.829,88.7708 296.5,87.5C 297.549,84.9548 298.549,84.9548 299.5,87.5 Z"/></g>
<g><path style="opacity:1" fill="#f2f2f2" d="M 299.5,87.5 C 299.507,84.9621 299.841,82.4621 300.5,80C 299.844,78.0909 299.344,76.2576 299,74.5C 302.201,76.7034 303.701,79.8701 303.5,84C 303.944,87.7431 302.61,88.9098 299.5,87.5 Z"/></g>
<g><path style="opacity:1" fill="#484747" d="M 67.5,123.5 C 65.6096,123.703 64.1096,123.037 63,121.5C 61.2389,118.589 59.7389,115.589 58.5,112.5C 57.5863,109.272 57.2529,105.939 57.5,102.5C 61.1667,102.5 64.8333,102.5 68.5,102.5C 68.8245,109.687 68.4912,116.687 67.5,123.5 Z"/></g>
<g><path style="opacity:1" fill="#fafafa" d="M 58.5,103.5 C 61.5,103.5 64.5,103.5 67.5,103.5C 67.8297,109.868 67.4963,116.202 66.5,122.5C 60.8354,117.496 58.1687,111.163 58.5,103.5 Z"/></g>
<g><path style="opacity:1" fill="#565555" d="M 93.5,107.5 C 95.0465,112.054 96.0465,116.721 96.5,121.5C 96.5,124.833 96.5,128.167 96.5,131.5C 96.7678,133.099 96.4345,134.432 95.5,135.5C 95.111,127.164 94.611,118.831 94,110.5C 89.5757,114.359 86.4091,119.026 84.5,124.5C 83.7784,124.082 83.2784,123.416 83,122.5C 82.7216,123.416 82.2216,124.082 81.5,124.5C 81.6495,123.448 81.4828,122.448 81,121.5C 80.1841,122.823 79.0174,123.489 77.5,123.5C 80.2241,120.615 83.3908,118.282 87,116.5C 87.7845,114.714 88.9512,113.214 90.5,112C 89.9056,111.536 89.2389,111.369 88.5,111.5C 89.5794,109.457 91.246,108.124 93.5,107.5 Z"/></g>
<g><path style="opacity:1" fill="#636162" d="M 50.5,114.5 C 52.1733,115.343 53.34,116.676 54,118.5C 54.414,118.043 54.914,117.709 55.5,117.5C 56.9093,118.849 58.2426,120.182 59.5,121.5C 58.7611,121.369 58.0944,121.536 57.5,122C 59.5921,126.015 61.2588,130.181 62.5,134.5C 61.4415,133.4 60.6082,132.066 60,130.5C 59.5172,131.448 59.3505,132.448 59.5,133.5C 56.702,127.124 53.702,120.791 50.5,114.5 Z"/></g>
<g><path style="opacity:1" fill="#413f3f" d="M 59.5,121.5 C 61.4044,121.738 62.7377,122.738 63.5,124.5C 61.5956,124.262 60.2623,123.262 59.5,121.5 Z"/></g>
<g><path style="opacity:1" fill="#434142" d="M 75.5,123.5 C 76.1667,123.5 76.8333,123.5 77.5,123.5C 76.7377,125.262 75.4044,126.262 73.5,126.5C 74.1667,125.5 74.8333,124.5 75.5,123.5 Z"/></g>
<g><path style="opacity:1" fill="#f0efef" d="M 59.5,121.5 C 60.2623,123.262 61.5956,124.262 63.5,124.5C 64.6485,126.149 65.9818,127.649 67.5,129C 66.7703,132.794 66.2703,136.627 66,140.5C 65.059,138.273 63.8923,136.273 62.5,134.5C 61.2588,130.181 59.5921,126.015 57.5,122C 58.0944,121.536 58.7611,121.369 59.5,121.5 Z"/></g>
<g><path style="opacity:1" fill="#f5f4f5" d="M 81.5,124.5 C 78.9899,128.187 76.9899,132.187 75.5,136.5C 75.0133,137.473 74.5133,138.473 74,139.5C 72.9091,135.102 72.7424,130.769 73.5,126.5C 75.4044,126.262 76.7377,125.262 77.5,123.5C 79.0174,123.489 80.1841,122.823 81,121.5C 81.4828,122.448 81.6495,123.448 81.5,124.5 Z"/></g>
<g><path style="opacity:1" fill="#4b4b4b" d="M 261.5,121.5 C 262.5,122.833 263.5,124.167 264.5,125.5C 264.821,126.817 265.154,128.151 265.5,129.5C 265.547,131.038 264.88,132.038 263.5,132.5C 263.539,131.417 263.873,130.417 264.5,129.5C 262.924,127.021 261.924,124.354 261.5,121.5 Z"/></g>
<g><path style="opacity:1" fill="#4f4f4f" d="M 317.5,127.5 C 321.103,129.763 324.436,132.43 327.5,135.5C 327.5,136.167 327.5,136.833 327.5,137.5C 325.166,138.841 323.499,138.174 322.5,135.5C 323.239,135.631 323.906,135.464 324.5,135C 321.961,132.63 319.628,130.13 317.5,127.5 Z"/></g>
<g><path style="opacity:1" fill="#5a595a" d="M 116.5,88.5 C 117.892,90.2726 119.059,92.2726 120,94.5C 121.74,103.613 123.907,112.613 126.5,121.5C 126.291,122.086 125.957,122.586 125.5,123C 129.07,127.06 132.404,131.227 135.5,135.5C 133.152,133.32 130.652,131.32 128,129.5C 126.128,130.068 124.295,130.735 122.5,131.5C 121.489,137.835 120.989,144.168 121,150.5C 121.698,147.996 122.531,145.663 123.5,143.5C 123.938,143.435 124.272,143.601 124.5,144C 123.756,145.815 123.089,147.648 122.5,149.5C 122.179,151.048 121.179,151.715 119.5,151.5C 119.334,145.158 119.5,138.825 120,132.5C 120.374,131.584 120.874,130.75 121.5,130C 118.094,124.686 115.094,119.186 112.5,113.5C 116.061,117.603 118.894,122.27 121,127.5C 122.299,127.966 123.799,127.966 125.5,127.5C 119.774,117.373 115.107,106.707 111.5,95.5C 112.167,94.1667 112.833,92.8333 113.5,91.5C 115.302,98.4025 117.802,105.069 121,111.5C 120.934,103.567 119.434,95.9006 116.5,88.5 Z"/></g>
<g><path style="opacity:1" fill="#f2f2f2" d="M 13.5,155.5 C 13.3656,151.314 13.0322,146.981 12.5,142.5C 11.8076,143.025 11.3076,143.692 11,144.5C 10.7508,143.376 10.2508,142.376 9.5,141.5C 8.14077,142.624 7.14077,143.958 6.5,145.5C 6.59001,143.304 6.92335,141.137 7.5,139C 7.16667,138.167 6.83333,137.333 6.5,136.5C 5.60433,137.506 4.93767,137.506 4.5,136.5C 5.95244,135.06 6.95244,133.394 7.5,131.5C 11.1812,128.876 14.6812,129.209 18,132.5C 18.6667,137.833 18.6667,143.167 18,148.5C 17.9024,146.381 17.0691,144.714 15.5,143.5C 14.6145,147.476 13.9478,151.476 13.5,155.5 Z"/></g>
<g><path style="opacity:1" fill="#f6f5f6" d="M 135.5,135.5 C 135.611,137.648 134.944,137.981 133.5,136.5C 132.534,138.396 132.201,140.396 132.5,142.5C 131.85,142.196 131.183,141.863 130.5,141.5C 129.702,143.078 129.202,144.744 129,146.5C 128.667,145.5 128.333,144.5 128,143.5C 127.31,142.262 126.81,142.262 126.5,143.5C 125.348,142.375 124.348,142.375 123.5,143.5C 122.531,145.663 121.698,147.996 121,150.5C 120.989,144.168 121.489,137.835 122.5,131.5C 124.295,130.735 126.128,130.068 128,129.5C 130.652,131.32 133.152,133.32 135.5,135.5 Z"/></g>
<g><path style="opacity:1" fill="#5e5e5e" d="M 247.5,110.5 C 245.162,117.709 244.996,125.042 247,132.5C 247.995,133.066 248.828,133.733 249.5,134.5C 247.61,134.703 246.11,134.037 245,132.5C 244.333,126.167 244.333,119.833 245,113.5C 245.377,112.058 246.21,111.058 247.5,110.5 Z"/></g>
<g><path style="opacity:1" fill="#f4f4f4" d="M 264.5,125.5 C 265.688,126.684 266.855,126.684 268,125.5C 266.388,130.048 267.888,133.048 272.5,134.5C 275.258,135.967 274.925,136.633 271.5,136.5C 270.791,135.596 269.791,135.263 268.5,135.5C 269.866,147.779 270.532,160.112 270.5,172.5C 272.167,172.5 273.833,172.5 275.5,172.5C 276.552,174.655 275.886,174.988 273.5,173.5C 272.186,174.313 271.019,175.313 270,176.5C 269.53,182.175 269.697,187.841 270.5,193.5C 270.59,195.964 271.257,198.13 272.5,200C 271.196,200.804 270.529,201.971 270.5,203.5C 269.662,212.783 269.662,222.116 270.5,231.5C 268.354,239.329 267.188,247.329 267,255.5C 265.747,248.968 264.747,242.302 264,235.5C 263.705,233.069 262.538,231.236 260.5,230C 261.416,229.626 262.25,229.126 263,228.5C 263.871,221.698 263.371,215.031 261.5,208.5C 263.441,197.916 263.941,187.25 263,176.5C 261.992,174.741 260.492,173.574 258.5,173C 259.793,172.51 261.127,172.343 262.5,172.5C 262.468,160.105 263.135,147.771 264.5,135.5C 263.5,135.5 262.5,135.5 261.5,135.5C 261.5,135.167 261.5,134.833 261.5,134.5C 262.5,134.167 263.167,133.5 263.5,132.5C 264.88,132.038 265.547,131.038 265.5,129.5C 265.154,128.151 264.821,126.817 264.5,125.5 Z"/></g>
<g><path style="opacity:1" fill="#cbc9ca" d="M 62.5,134.5 C 62.6495,135.552 62.4828,136.552 62,137.5C 61.3918,135.934 60.5585,134.6 59.5,133.5C 59.3505,132.448 59.5172,131.448 60,130.5C 60.6082,132.066 61.4415,133.4 62.5,134.5 Z"/></g>
<g><path style="opacity:1" fill="#353535" d="M 263.5,132.5 C 263.167,133.5 262.5,134.167 261.5,134.5C 261.167,134.5 260.833,134.5 260.5,134.5C 260.973,133.094 261.973,132.427 263.5,132.5 Z"/></g>
<g><path style="opacity:1" fill="#f9f8f9" d="M 58.5,149.5 C 58.3584,158.524 58.6917,167.524 59.5,176.5C 54.6346,169.594 51.3013,161.928 49.5,153.5C 49.2785,150.933 48.6118,148.599 47.5,146.5C 48.0851,142.409 49.0851,138.409 50.5,134.5C 52.473,137.64 54.6397,140.64 57,143.5C 58.128,145.345 58.628,147.345 58.5,149.5 Z"/></g>
<g><path style="opacity:1" fill="#5f5f5f" d="M 210.5,135.5 C 209.161,138.701 207.494,139.035 205.5,136.5C 206.167,135.167 207.167,134.167 208.5,133.5C 209.696,133.846 209.696,134.346 208.5,135C 209.094,135.464 209.761,135.631 210.5,135.5 Z"/></g>
<g><path style="opacity:1" fill="#575657" d="M 7.5,131.5 C 6.95244,133.394 5.95244,135.06 4.5,136.5C 4.93767,137.506 5.60433,137.506 6.5,136.5C 6.83333,137.333 7.16667,138.167 7.5,139C 6.92335,141.137 6.59001,143.304 6.5,145.5C 5.09496,147.225 4.59496,149.225 5,151.5C 6.24651,149.119 6.57985,149.453 6,152.5C 4.45548,153.821 3.28881,153.488 2.5,151.5C 4.34643,147.133 5.34643,142.799 5.5,138.5C 3.92878,140.415 1.92878,141.415 -0.5,141.5C -0.5,140.5 -0.5,139.5 -0.5,138.5C 2.37087,136.456 5.03754,134.123 7.5,131.5 Z"/></g>
<g><path style="opacity:1" fill="#504f50" d="M 63.5,124.5 C 66.5709,125.039 68.2376,126.873 68.5,130C 67.8623,135.152 67.3623,140.319 67,145.5C 66.3457,144.304 65.8457,144.304 65.5,145.5C 66.9459,147.618 67.6126,149.951 67.5,152.5C 67.6602,154.199 67.4935,155.866 67,157.5C 65.9558,155.128 65.4558,152.795 65.5,150.5C 63.7788,144.726 61.7788,139.06 59.5,133.5C 60.5585,134.6 61.3918,135.934 62,137.5C 62.4828,136.552 62.6495,135.552 62.5,134.5C 63.8923,136.273 65.059,138.273 66,140.5C 66.2703,136.627 66.7703,132.794 67.5,129C 65.9818,127.649 64.6485,126.149 63.5,124.5 Z"/></g>
<g><path style="opacity:1" fill="#f7f6f6" d="M 249.5,137.5 C 250.263,138.268 251.263,138.768 252.5,139C 251.185,143.407 250.185,147.907 249.5,152.5C 248.001,151.074 247.334,148.074 247.5,143.5C 247.539,141.048 248.206,139.048 249.5,137.5 Z"/></g>
<g><path style="opacity:1" fill="#403f3f" d="M 73.5,126.5 C 72.7424,130.769 72.9091,135.102 74,139.5C 74.5133,138.473 75.0133,137.473 75.5,136.5C 76.0431,136.56 76.3764,136.893 76.5,137.5C 75.4867,139.527 74.4867,141.527 73.5,143.5C 72.699,139.165 71.699,134.165 70.5,128.5C 71.0047,127.081 72.0047,126.415 73.5,126.5 Z"/></g>
<g><path style="opacity:1" fill="#5f5e5f" d="M 322.5,135.5 C 321.761,135.369 321.094,135.536 320.5,136C 322.064,140.19 323.731,144.356 325.5,148.5C 324.743,150.404 323.743,150.737 322.5,149.5C 322.196,148.85 321.863,148.183 321.5,147.5C 322.167,147.167 322.833,146.833 323.5,146.5C 322.817,143.539 321.984,143.205 321,145.5C 320.138,143.913 319.471,142.246 319,140.5C 317.957,144.226 317.457,143.893 317.5,139.5C 318.806,137.755 319.806,135.755 320.5,133.5C 321.522,133.855 322.189,134.522 322.5,135.5 Z"/></g>
<g><path style="opacity:1" fill="#515151" d="M 135.5,135.5 C 137.553,136.534 139.22,138.034 140.5,140C 137.903,142.033 135.737,141.533 134,138.5C 134.155,140.811 134.155,143.144 134,145.5C 133.768,144.263 133.268,143.263 132.5,142.5C 132.201,140.396 132.534,138.396 133.5,136.5C 134.944,137.981 135.611,137.648 135.5,135.5 Z"/></g>
<g><path style="opacity:1" fill="#7d7b7c" d="M 249.5,134.5 C 253.167,134.5 256.833,134.5 260.5,134.5C 260.833,134.5 261.167,134.5 261.5,134.5C 261.5,134.833 261.5,135.167 261.5,135.5C 261.5,135.833 261.5,136.167 261.5,136.5C 259.194,136.993 256.861,137.326 254.5,137.5C 254.263,138.791 254.596,139.791 255.5,140.5C 254.274,146.641 252.941,152.641 251.5,158.5C 250.596,159.209 250.263,160.209 250.5,161.5C 249.167,161.5 248.5,160.833 248.5,159.5C 250.534,157.345 250.867,155.012 249.5,152.5C 250.185,147.907 251.185,143.407 252.5,139C 251.263,138.768 250.263,138.268 249.5,137.5C 250.492,137.672 251.158,137.338 251.5,136.5C 250.833,135.833 250.167,135.167 249.5,134.5 Z"/></g>
<g><path style="opacity:1" fill="#b0afb0" d="M 317.5,139.5 C 317.457,143.893 317.957,144.226 319,140.5C 319.471,142.246 320.138,143.913 321,145.5C 321.984,143.205 322.817,143.539 323.5,146.5C 322.833,146.833 322.167,147.167 321.5,147.5C 321.863,148.183 322.196,148.85 322.5,149.5C 322.167,149.5 321.833,149.5 321.5,149.5C 320.59,147.981 319.757,146.315 319,144.5C 318.667,145.5 318.333,146.5 318,147.5C 317.256,145.1 316.423,142.767 315.5,140.5C 316.167,140.167 316.833,139.833 317.5,139.5 Z"/></g>
<g><path style="opacity:1" fill="#404040" d="M 311.5,147.5 C 310.566,146.432 310.232,145.099 310.5,143.5C 310.52,141.449 311.187,140.782 312.5,141.5C 311.652,143.409 311.318,145.409 311.5,147.5 Z"/></g>
<g><path style="opacity:1" fill="#979596" d="M 123.5,143.5 C 124.348,142.375 125.348,142.375 126.5,143.5C 126.566,147.559 126.733,151.559 127,155.5C 126.027,153.608 125.36,151.608 125,149.5C 124.536,150.094 124.369,150.761 124.5,151.5C 123.833,150.833 123.167,150.167 122.5,149.5C 123.089,147.648 123.756,145.815 124.5,144C 124.272,143.601 123.938,143.435 123.5,143.5 Z"/></g>
<g><path style="opacity:1" fill="#575757" d="M 132.5,142.5 C 132.523,144.927 133.023,147.26 134,149.5C 134.333,148.5 134.667,147.5 135,146.5C 136.558,148.769 136.724,151.102 135.5,153.5C 133.578,151.997 132.412,149.997 132,147.5C 131.581,151.852 130.914,152.185 130,148.5C 129.516,150.913 129.85,153.246 131,155.5C 131.333,154.5 131.667,153.5 132,152.5C 132.16,158.369 131.16,158.703 129,153.5C 128.517,154.448 128.351,155.448 128.5,156.5C 125.53,156.254 124.197,154.588 124.5,151.5C 124.369,150.761 124.536,150.094 125,149.5C 125.36,151.608 126.027,153.608 127,155.5C 126.733,151.559 126.566,147.559 126.5,143.5C 126.81,142.262 127.31,142.262 128,143.5C 128.333,144.5 128.667,145.5 129,146.5C 129.202,144.744 129.702,143.078 130.5,141.5C 131.183,141.863 131.85,142.196 132.5,142.5 Z"/></g>
<g><path style="opacity:1" fill="#979696" d="M 47.5,146.5 C 48.6118,148.599 49.2785,150.933 49.5,153.5C 48.7321,154.263 48.2321,155.263 48,156.5C 47.1779,154.212 46.5112,151.878 46,149.5C 45.6667,150.5 45.3333,151.5 45,152.5C 44.245,149.697 44.5783,147.03 46,144.5C 46.1587,146.343 46.6587,147.009 47.5,146.5 Z"/></g>
<g><path style="opacity:1" fill="#272727" d="M 96.5,148.5 C 96.5,149.167 96.5,149.833 96.5,150.5C 94.7615,148.881 94.2615,146.881 95,144.5C 96.1882,145.563 96.6882,146.897 96.5,148.5 Z"/></g>
<g><path style="opacity:1" fill="#595757" d="M 13.5,155.5 C 13.44,156.043 13.1067,156.376 12.5,156.5C 11.3503,153.253 10.517,149.92 10,146.5C 9.00501,149.126 8.67168,151.793 9,154.5C 9.55563,152.405 10.0556,152.238 10.5,154C 10.2212,156.662 9.05451,157.495 7,156.5C 6.92167,153.629 7.42167,150.795 8.5,148C 8.33333,147.5 8.16667,147 8,146.5C 6.91253,148.932 6.41253,148.598 6.5,145.5C 7.14077,143.958 8.14077,142.624 9.5,141.5C 10.2508,142.376 10.7508,143.376 11,144.5C 11.3076,143.692 11.8076,143.025 12.5,142.5C 13.0322,146.981 13.3656,151.314 13.5,155.5 Z"/></g>
<g><path style="opacity:1" fill="#edecec" d="M 251.5,158.5 C 252.941,152.641 254.274,146.641 255.5,140.5C 256.296,140.277 256.63,141.11 256.5,143C 255.446,151.61 253.946,160.11 252,168.5C 251.502,165.183 251.335,161.85 251.5,158.5 Z"/></g>
<g><path style="opacity:1" fill="#636162" d="M 315.5,140.5 C 316.423,142.767 317.256,145.1 318,147.5C 318.333,146.5 318.667,145.5 319,144.5C 319.757,146.315 320.59,147.981 321.5,149.5C 321.663,154.578 320.496,155.245 318,151.5C 317.131,154.763 315.797,155.096 314,152.5C 312.75,149.923 312.416,147.257 313,144.5C 313.511,146.878 314.178,149.212 315,151.5C 314.503,147.679 314.669,144.013 315.5,140.5 Z"/></g>
<g><path style="opacity:1" fill="#686767" d="M 237.5,100.5 C 237.928,103.667 237.428,107.001 236,110.5C 235.708,108.674 235.875,106.841 236.5,105C 236.532,103.029 235.698,101.529 234,100.5C 233.095,104.819 232.762,109.152 233,113.5C 233.654,112.304 234.154,112.304 234.5,113.5C 232.005,119.018 228.671,123.851 224.5,128C 226.007,129.473 226.674,131.307 226.5,133.5C 225.89,138.822 225.39,144.156 225,149.5C 224.107,150.711 223.274,150.711 222.5,149.5C 221.902,148.205 221.402,146.872 221,145.5C 221.013,149.124 219.68,152.124 217,154.5C 215.667,151.833 214.333,151.833 213,154.5C 211.731,153.095 211.231,151.429 211.5,149.5C 212.222,149.082 212.722,148.416 213,147.5C 213.595,148.899 213.428,150.232 212.5,151.5C 212.846,152.696 213.346,152.696 214,151.5C 215.15,149.246 215.484,146.913 215,144.5C 214.333,147.167 213.667,147.167 213,144.5C 212.153,146.193 211.32,147.86 210.5,149.5C 209.257,150.737 208.257,150.404 207.5,148.5C 209.167,144.5 210.833,140.5 212.5,136.5C 212.043,135.702 211.376,135.369 210.5,135.5C 210.811,134.522 211.478,133.855 212.5,133.5C 213.11,136.466 214.61,138.799 217,140.5C 218.395,139.185 219.395,139.519 220,141.5C 220.333,141.167 220.667,140.833 221,140.5C 222,143.167 223,145.833 224,148.5C 224.667,142.167 224.667,135.833 224,129.5C 222.448,128.034 220.614,127.034 218.5,126.5C 216.424,128.288 214.257,129.954 212,131.5C 211.833,131.167 211.667,130.833 211.5,130.5C 211.533,129.011 212.033,127.678 213,126.5C 213.414,126.957 213.914,127.291 214.5,127.5C 216.145,126.304 217.811,125.304 219.5,124.5C 219.833,124.5 220.167,124.5 220.5,124.5C 222.017,124.489 223.184,123.823 224,122.5C 225.667,118.5 227.333,114.5 229,110.5C 230.429,107.05 230.595,103.717 229.5,100.5C 229.56,99.9569 229.893,99.6236 230.5,99.5C 231.281,100.729 231.781,102.062 232,103.5C 232.422,99.9906 233.422,96.6572 235,93.5C 235.837,99.8365 236.503,99.5032 237,92.5C 237.497,95.146 237.664,97.8127 237.5,100.5 Z"/></g>
<g><path style="opacity:1" fill="#bbb8b9" d="M 211.5,149.5 C 211.167,149.5 210.833,149.5 210.5,149.5C 211.32,147.86 212.153,146.193 213,144.5C 213.667,147.167 214.333,147.167 215,144.5C 215.484,146.913 215.15,149.246 214,151.5C 213.346,152.696 212.846,152.696 212.5,151.5C 213.428,150.232 213.595,148.899 213,147.5C 212.722,148.416 212.222,149.082 211.5,149.5 Z"/></g>
<g><path style="opacity:1" fill="#7b797a" d="M 84.5,124.5 C 80.8861,132.727 77.5527,141.06 74.5,149.5C 74.9118,151.973 73.9118,153.306 71.5,153.5C 72.199,150.427 73.199,147.427 74.5,144.5C 74.3764,143.893 74.0431,143.56 73.5,143.5C 74.4867,141.527 75.4867,139.527 76.5,137.5C 76.3764,136.893 76.0431,136.56 75.5,136.5C 76.9899,132.187 78.9899,128.187 81.5,124.5C 82.2216,124.082 82.7216,123.416 83,122.5C 83.2784,123.416 83.7784,124.082 84.5,124.5 Z"/></g>
<g><path style="opacity:1" fill="#f5f5f5" d="M 65.5,158.5 C 66.1816,164.455 66.1816,170.455 65.5,176.5C 64.5,176.5 63.5,176.5 62.5,176.5C 62.5,174.833 62.5,173.167 62.5,171.5C 62.3339,165.824 62.5006,160.157 63,154.5C 63.6082,156.066 64.4415,157.4 65.5,158.5 Z"/></g>
<g><path style="opacity:1" fill="#929091" d="M 96.5,131.5 C 97.8333,137.167 97.8333,142.833 96.5,148.5C 96.6882,146.897 96.1882,145.563 95,144.5C 94.2615,146.881 94.7615,148.881 96.5,150.5C 96.3713,152.216 96.038,153.883 95.5,155.5C 94.8333,156.5 94.1667,157.5 93.5,158.5C 93.5,157.833 93.1667,157.5 92.5,157.5C 92.5654,157.062 92.3988,156.728 92,156.5C 91.6667,157.167 91.3333,157.833 91,158.5C 90.7679,157.263 90.2679,156.263 89.5,155.5C 89.3284,154.508 89.6618,153.842 90.5,153.5C 90.4346,153.938 90.6012,154.272 91,154.5C 91.9745,152.122 92.6411,152.456 93,155.5C 94.4868,153.728 94.8201,151.728 94,149.5C 93.0944,152.121 92.5944,151.954 92.5,149C 92.8747,146.711 93.5414,144.545 94.5,142.5C 95.4682,140.393 95.8016,138.059 95.5,135.5C 96.4345,134.432 96.7678,133.099 96.5,131.5 Z"/></g>
<g><path style="opacity:1" fill="#464545" d="M 251.5,136.5 C 251.158,137.338 250.492,137.672 249.5,137.5C 248.206,139.048 247.539,141.048 247.5,143.5C 247.334,148.074 248.001,151.074 249.5,152.5C 250.867,155.012 250.534,157.345 248.5,159.5C 246.798,151.951 246.132,144.285 246.5,136.5C 248.167,136.5 249.833,136.5 251.5,136.5 Z"/></g>
<g><path style="opacity:1" fill="#7c7a7b" d="M 65.5,150.5 C 65.4558,152.795 65.9558,155.128 67,157.5C 67.4935,155.866 67.6602,154.199 67.5,152.5C 68.8333,155.167 68.8333,157.833 67.5,160.5C 66.8333,159.833 66.1667,159.167 65.5,158.5C 64.4415,157.4 63.6082,156.066 63,154.5C 62.5006,160.157 62.3339,165.824 62.5,171.5C 61.9348,173.42 60.9348,175.087 59.5,176.5C 58.6917,167.524 58.3584,158.524 58.5,149.5C 59.3019,148.048 59.8019,146.382 60,144.5C 61.5862,146.67 62.9196,149.004 64,151.5C 65.1068,152.712 65.6068,152.379 65.5,150.5 Z"/></g>
<g><path style="opacity:1" fill="#656464" d="M 272.5,134.5 C 276.167,134.5 279.833,134.5 283.5,134.5C 282.737,135.268 281.737,135.768 280.5,136C 282.473,136.495 284.473,136.662 286.5,136.5C 286.666,142.176 286.499,147.843 286,153.5C 283.652,158.902 282.319,164.568 282,170.5C 281.283,169.956 280.783,169.289 280.5,168.5C 279.075,166.969 278.409,167.302 278.5,169.5C 275.5,168.5 274.5,169.5 275.5,172.5C 273.833,172.5 272.167,172.5 270.5,172.5C 270.532,160.112 269.866,147.779 268.5,135.5C 269.791,135.263 270.791,135.596 271.5,136.5C 274.925,136.633 275.258,135.967 272.5,134.5 Z"/></g>
<g><path style="opacity:1" fill="#e9e9e9" d="M 280.5,168.5 C 278.586,159.935 277.752,151.268 278,142.5C 280.737,151.175 281.57,159.842 280.5,168.5 Z"/></g>
<g><path style="opacity:1" fill="#f6f6f6" d="M 282.5,137.5 C 283.5,137.5 284.5,137.5 285.5,137.5C 285.662,143.555 285.162,149.555 284,155.5C 283.312,149.86 282.145,144.36 280.5,139C 281.416,138.722 282.082,138.222 282.5,137.5 Z"/></g>
<g><path style="opacity:1" fill="#f5f4f4" d="M 271.5,136.5 C 274.382,145.826 275.549,155.493 275,165.5C 274.333,166.167 273.667,166.833 273,167.5C 272.088,158.79 270.921,150.123 269.5,141.5C 269.556,139.36 270.223,137.694 271.5,136.5 Z"/></g>
<g><path style="opacity:1" fill="#eae9e9" d="M 278.5,169.5 C 278.5,170.5 278.5,171.5 278.5,172.5C 277.5,172.5 276.5,172.5 275.5,172.5C 274.5,169.5 275.5,168.5 278.5,169.5 Z"/></g>
<g><path style="opacity:1" fill="#5c5b5b" d="M 94.5,142.5 C 93.5414,144.545 92.8747,146.711 92.5,149C 92.5944,151.954 93.0944,152.121 94,149.5C 94.8201,151.728 94.4868,153.728 93,155.5C 92.6411,152.456 91.9745,152.122 91,154.5C 90.6012,154.272 90.4346,153.938 90.5,153.5C 92.0952,146.687 91.5952,140.02 89,133.5C 86.6444,137.997 84.1444,142.33 81.5,146.5C 80.7784,146.082 80.2784,145.416 80,144.5C 78.8333,146.167 77.6667,147.833 76.5,149.5C 76.8457,150.696 77.3457,150.696 78,149.5C 78.3333,157.167 78.6667,164.833 79,172.5C 79.171,164.656 79.671,156.989 80.5,149.5C 81.7292,158.689 81.7292,167.689 80.5,176.5C 84.8636,170.073 87.8636,163.073 89.5,155.5C 90.2679,156.263 90.7679,157.263 91,158.5C 91.3333,157.833 91.6667,157.167 92,156.5C 92.3988,156.728 92.5654,157.062 92.5,157.5C 90.5611,163.686 88.3945,169.686 86,175.5C 90.1325,170.567 92.6325,164.9 93.5,158.5C 94.1667,157.5 94.8333,156.5 95.5,155.5C 94.8395,163.653 91.8395,170.82 86.5,177C 82.8333,177.333 79.1667,177.667 75.5,178C 78.8168,178.498 82.1501,178.665 85.5,178.5C 93.7234,195.243 93.3901,212.576 84.5,230.5C 83.0222,230.762 81.6888,230.429 80.5,229.5C 80.6236,228.893 80.9569,228.56 81.5,228.5C 82.1894,229.774 83.0228,229.774 84,228.5C 87.1099,220.061 89.2765,211.394 90.5,202.5C 90.1986,196.147 88.6986,190.147 86,184.5C 84.2752,187.674 82.9419,191.007 82,194.5C 81.5002,205.495 81.3335,216.495 81.5,227.5C 80.3405,216.007 80.1739,204.341 81,192.5C 83.2044,187.48 82.7044,186.813 79.5,190.5C 78.914,190.291 78.414,189.957 78,189.5C 78.7676,198.405 79.2676,207.405 79.5,216.5C 79.4991,221.013 79.1657,225.347 78.5,229.5C 77.016,220.244 75.1827,210.911 73,201.5C 72.2825,195.775 72.6159,190.109 74,184.5C 74.6543,185.696 75.1543,185.696 75.5,184.5C 74.2081,182.333 73.3747,180 73,177.5C 72.2573,169.372 71.7573,161.372 71.5,153.5C 73.9118,153.306 74.9118,151.973 74.5,149.5C 81.6889,141.805 86.8556,132.805 90,122.5C 92.13,129.02 93.63,135.687 94.5,142.5 Z"/></g>
<g><path style="opacity:1" fill="#e6e5e5" d="M 92.5,157.5 C 93.1667,157.5 93.5,157.833 93.5,158.5C 92.6325,164.9 90.1325,170.567 86,175.5C 88.3945,169.686 90.5611,163.686 92.5,157.5 Z"/></g>
<g><path style="opacity:1" fill="#f8f7f7" d="M 76.5,153.5 C 77.654,159.987 77.8206,166.654 77,173.5C 76.7508,174.624 76.2508,175.624 75.5,176.5C 72.5234,168.647 72.8567,160.98 76.5,153.5 Z"/></g>
<g><path style="opacity:1" fill="#9c9b9c" d="M 81.5,146.5 C 81.7373,147.791 81.404,148.791 80.5,149.5C 79.671,156.989 79.171,164.656 79,172.5C 78.6667,164.833 78.3333,157.167 78,149.5C 77.3457,150.696 76.8457,150.696 76.5,149.5C 77.6667,147.833 78.8333,146.167 80,144.5C 80.2784,145.416 80.7784,146.082 81.5,146.5 Z"/></g>
<g><path style="opacity:1" fill="#f8f7f8" d="M 90.5,153.5 C 89.6618,153.842 89.3284,154.508 89.5,155.5C 87.8636,163.073 84.8636,170.073 80.5,176.5C 81.7292,167.689 81.7292,158.689 80.5,149.5C 81.404,148.791 81.7373,147.791 81.5,146.5C 84.1444,142.33 86.6444,137.997 89,133.5C 91.5952,140.02 92.0952,146.687 90.5,153.5 Z"/></g>
<g><path style="opacity:1" fill="#f0eff0" d="M 64.5,182.5 C 62.8634,184.316 61.3634,186.316 60,188.5C 59.6174,187.944 59.1174,187.611 58.5,187.5C 57.7878,185.072 56.7878,182.739 55.5,180.5C 58.4281,179.516 61.4281,179.183 64.5,179.5C 64.5,180.5 64.5,181.5 64.5,182.5 Z"/></g>
<g><path style="opacity:1" fill="#f6f5f6" d="M 75.5,179.5 C 78.5184,179.335 81.5184,179.502 84.5,180C 80.7734,190.127 77.7734,189.96 75.5,179.5 Z"/></g>
<g><path style="opacity:1" fill="#fafafa" d="M 57.5,195.5 C 57.8279,206.679 57.4946,217.679 56.5,228.5C 48.6558,214.36 47.6558,199.693 53.5,184.5C 55.6213,187.862 56.9546,191.529 57.5,195.5 Z"/></g>
<g><path style="opacity:1" fill="#504f50" d="M 64.5,182.5 C 66.5105,189.634 67.0105,196.967 66,204.5C 63.9187,212.739 62.4187,221.072 61.5,229.5C 60.5119,224.36 60.1786,219.026 60.5,213.5C 60.2663,205.032 60.7663,196.698 62,188.5C 60.1339,191.159 58.9672,190.826 58.5,187.5C 59.1174,187.611 59.6174,187.944 60,188.5C 61.3634,186.316 62.8634,184.316 64.5,182.5 Z"/></g>
<g><path style="opacity:1" fill="#f7f7f7" d="M 81.5,228.5 C 81.5,228.167 81.5,227.833 81.5,227.5C 81.3335,216.495 81.5002,205.495 82,194.5C 82.9419,191.007 84.2752,187.674 86,184.5C 88.6986,190.147 90.1986,196.147 90.5,202.5C 89.2765,211.394 87.1099,220.061 84,228.5C 83.0228,229.774 82.1894,229.774 81.5,228.5 Z"/></g>
<g><path style="opacity:1" fill="#f2f1f1" d="M 74.5,187.5 C 75.6206,189.954 76.454,192.621 77,195.5C 77.5314,202.859 77.8647,210.192 78,217.5C 75.096,207.707 73.9294,197.707 74.5,187.5 Z"/></g>
<g><path style="opacity:1" fill="#f2f2f2" d="M 58.5,187.5 C 58.9672,190.826 60.1339,191.159 62,188.5C 60.7663,196.698 60.2663,205.032 60.5,213.5C 60.1667,213.5 59.8333,213.5 59.5,213.5C 59.5,208.167 59.5,202.833 59.5,197.5C 59.7373,196.209 59.404,195.209 58.5,194.5C 58.2437,192.063 57.5771,189.729 56.5,187.5C 56.9698,186.537 57.6365,186.537 58.5,187.5 Z"/></g>
<g><path style="opacity:1" fill="#ececec" d="M 64.5,187.5 C 65.7907,196.839 64.9574,206.173 62,215.5C 61.1909,205.983 62.0243,196.65 64.5,187.5 Z"/></g>
<g><path style="opacity:1" fill="#cccbcc" d="M 81.5,227.5 C 81.5,227.833 81.5,228.167 81.5,228.5C 80.9569,228.56 80.6236,228.893 80.5,229.5C 81.6888,230.429 83.0222,230.762 84.5,230.5C 84.5,230.833 84.5,231.167 84.5,231.5C 82.5,231.5 80.5,231.5 78.5,231.5C 78.5,230.833 78.5,230.167 78.5,229.5C 79.1657,225.347 79.4991,221.013 79.5,216.5C 79.2676,207.405 78.7676,198.405 78,189.5C 78.414,189.957 78.914,190.291 79.5,190.5C 82.7044,186.813 83.2044,187.48 81,192.5C 80.1739,204.341 80.3405,216.007 81.5,227.5 Z"/></g>
<g><path style="opacity:1" fill="#a7a6a6" d="M 58.5,194.5 C 59.404,195.209 59.7373,196.209 59.5,197.5C 58.8334,208.008 58.1667,218.674 57.5,229.5C 56.8933,229.376 56.56,229.043 56.5,228.5C 57.4946,217.679 57.8279,206.679 57.5,195.5C 58.1667,195.5 58.5,195.167 58.5,194.5 Z"/></g>
<g><path style="opacity:1" fill="#9f9e9f" d="M 59.5,213.5 C 59.8333,213.5 60.1667,213.5 60.5,213.5C 60.1786,219.026 60.5119,224.36 61.5,229.5C 61.5,230.167 61.5,230.833 61.5,231.5C 59.5,231.5 57.5,231.5 55.5,231.5C 55.5,231.167 55.5,230.833 55.5,230.5C 56.8333,230.5 58.1667,230.5 59.5,230.5C 59.5,224.833 59.5,219.167 59.5,213.5 Z"/></g>
<g><path style="opacity:1" fill="#515151" d="M 55.5,231.5 C 57.5,231.5 59.5,231.5 61.5,231.5C 63.7373,239.446 65.0706,247.613 65.5,256C 65.4148,257.107 65.0814,258.107 64.5,259C 62.6874,258.954 61.0207,259.12 59.5,259.5C 54.8249,259.017 52.1582,256.517 51.5,252C 52.1513,244.89 53.4846,238.057 55.5,231.5 Z"/></g>
<g><path style="opacity:1" fill="#f4f4f4" d="M 55.5,232.5 C 59.1616,231.637 61.3282,232.97 62,236.5C 63.3529,243.792 63.6862,251.125 63,258.5C 61.6814,256.75 61.1814,254.75 61.5,252.5C 59.8561,252.286 58.3561,252.62 57,253.5C 55.6667,250.833 54.3333,250.833 53,253.5C 53.9601,246.577 54.7934,239.577 55.5,232.5 Z"/></g>
<g><path style="opacity:1" fill="#515151" d="M 78.5,231.5 C 80.5,231.5 82.5,231.5 84.5,231.5C 85.8319,238.459 87.1653,245.459 88.5,252.5C 86.5286,257.916 82.862,259.916 77.5,258.5C 76.791,259.404 75.791,259.737 74.5,259.5C 74.3342,254.821 74.5008,250.155 75,245.5C 75.2344,240.462 76.4011,235.795 78.5,231.5 Z"/></g>
<g><path style="opacity:1" fill="#f6f6f6" d="M 77.5,258.5 C 76.4138,258.38 75.7472,257.713 75.5,256.5C 76.2804,248.465 77.2804,240.465 78.5,232.5C 80.4672,232.261 82.3005,232.594 84,233.5C 84.6952,239.533 85.5285,245.533 86.5,251.5C 85.5,251.5 84.5,251.5 83.5,251.5C 83.6369,258.626 82.9702,258.959 81.5,252.5C 80.5,253.833 79.5,253.833 78.5,252.5C 77.5344,254.396 77.2011,256.396 77.5,258.5 Z"/></g>
<g><path style="opacity:1" fill="#5b5b5b" d="M 261.5,135.5 C 262.5,135.5 263.5,135.5 264.5,135.5C 263.135,147.771 262.468,160.105 262.5,172.5C 261.127,172.343 259.793,172.51 258.5,173C 260.492,173.574 261.992,174.741 263,176.5C 263.941,187.25 263.441,197.916 261.5,208.5C 263.371,215.031 263.871,221.698 263,228.5C 262.25,229.126 261.416,229.626 260.5,230C 262.538,231.236 263.705,233.069 264,235.5C 264.747,242.302 265.747,248.968 267,255.5C 267.188,247.329 268.354,239.329 270.5,231.5C 269.662,222.116 269.662,212.783 270.5,203.5C 270.529,201.971 271.196,200.804 272.5,200C 271.257,198.13 270.59,195.964 270.5,193.5C 269.697,187.841 269.53,182.175 270,176.5C 271.019,175.313 272.186,174.313 273.5,173.5C 275.886,174.988 276.552,174.655 275.5,172.5C 276.5,172.5 277.5,172.5 278.5,172.5C 278.5,171.5 278.5,170.5 278.5,169.5C 283.245,174.06 285.245,179.727 284.5,186.5C 282.012,200.431 279.845,214.431 278,228.5C 275.842,229.05 275.342,230.05 276.5,231.5C 277.222,231.918 277.722,232.584 278,233.5C 278.842,240.24 280.008,246.906 281.5,253.5C 279.023,256.315 276.023,258.315 272.5,259.5C 268.5,258.167 264.5,258.167 260.5,259.5C 255.956,258.587 253.289,255.92 252.5,251.5C 253.473,245.52 254.307,239.52 255,233.5C 255.278,232.584 255.778,231.918 256.5,231.5C 256.918,230.778 257.584,230.278 258.5,230C 256.939,229.682 255.772,228.849 255,227.5C 254.667,223.167 254.333,218.833 254,214.5C 251.528,205.429 249.694,196.262 248.5,187C 247.921,181.686 249.087,176.852 252,172.5C 252.977,173.774 253.811,173.774 254.5,172.5C 253.542,172.047 252.708,171.381 252,170.5C 251.667,170.833 251.333,171.167 251,171.5C 250.502,168.183 250.335,164.85 250.5,161.5C 250.263,160.209 250.596,159.209 251.5,158.5C 251.335,161.85 251.502,165.183 252,168.5C 253.946,160.11 255.446,151.61 256.5,143C 256.63,141.11 256.296,140.277 255.5,140.5C 254.596,139.791 254.263,138.791 254.5,137.5C 256.861,137.326 259.194,136.993 261.5,136.5C 261.5,136.167 261.5,135.833 261.5,135.5 Z"/></g>
<g><path style="opacity:1" fill="#f8f7f8" d="M 256.5,231.5 C 260.421,230.93 262.588,232.597 263,236.5C 264.203,243.804 264.537,251.137 264,258.5C 262.983,256.624 262.149,254.624 261.5,252.5C 260.284,253.002 259.117,253.335 258,253.5C 257.333,252.167 256.333,251.167 255,250.5C 255.311,244.19 255.811,237.857 256.5,231.5 Z"/></g>
<g><path style="opacity:1" fill="#f8f8f8" d="M 276.5,231.5 C 277.335,237.837 277.835,244.17 278,250.5C 275.944,252.319 273.777,252.985 271.5,252.5C 270.851,254.624 270.017,256.624 269,258.5C 268.427,250.08 269.094,241.747 271,233.5C 272.401,231.808 274.234,231.141 276.5,231.5 Z"/></g>
<g><path style="opacity:1" fill="#f7f7f7" d="M 275.5,199.5 C 277.358,200.595 279.025,201.929 280.5,203.5C 278.317,211.711 276.817,220.044 276,228.5C 274.667,227.167 273.333,227.167 272,228.5C 271.094,226.256 270.594,223.923 270.5,221.5C 271.883,214.91 272.716,208.243 273,201.5C 273.995,200.934 274.828,200.267 275.5,199.5 Z"/></g>
<g><path style="opacity:1" fill="#f7f7f7" d="M 256.5,199.5 C 257.721,200.028 258.887,200.695 260,201.5C 260.339,208.568 261.172,215.568 262.5,222.5C 262.588,224.712 262.088,226.712 261,228.5C 259.667,227.167 258.333,227.167 257,228.5C 256.208,220.189 254.708,212.022 252.5,204C 254.018,202.649 255.351,201.149 256.5,199.5 Z"/></g>
<g><path style="opacity:1" fill="#f9f8f8" d="M 257.5,175.5 C 258.833,175.5 260.167,175.5 261.5,175.5C 261.831,182.863 261.497,190.197 260.5,197.5C 259.833,197.167 259.167,196.833 258.5,196.5C 257.503,189.532 257.17,182.532 257.5,175.5 Z"/></g>
<g><path style="opacity:1" fill="#eeedee" d="M 279.5,174.5 C 280.75,174.577 281.583,175.244 282,176.5C 284.202,184.281 283.868,191.948 281,199.5C 280.333,198.833 279.667,198.167 279,197.5C 278.202,189.754 278.369,182.087 279.5,174.5 Z"/></g>
<g><path style="opacity:1" fill="#fafafa" d="M 272.5,175.5 C 273.5,175.5 274.5,175.5 275.5,175.5C 275.83,182.532 275.497,189.532 274.5,196.5C 273.833,196.833 273.167,197.167 272.5,197.5C 271.204,190.11 271.204,182.776 272.5,175.5 Z"/></g>
<g><path style="opacity:1" fill="#f0f0f0" d="M 251.5,174.5 C 252.496,174.414 253.329,174.748 254,175.5C 254.667,182.833 254.667,190.167 254,197.5C 253.333,198.167 252.667,198.833 252,199.5C 248.984,191.204 248.817,182.871 251.5,174.5 Z"/></g>
<g><path style="opacity:1" fill="#ebebeb" d="M 254.5,172.5 C 254.522,170.2 255.522,169.033 257.5,169C 258.694,171.658 257.694,172.824 254.5,172.5 Z"/></g>
<g><path style="opacity:1" fill="#f3f3f3" d="M 261.5,136.5 C 262.765,137.514 263.431,139.014 263.5,141C 262.453,149.86 261.286,158.693 260,167.5C 257.966,165.302 257.132,162.636 257.5,159.5C 258.101,151.553 259.435,143.886 261.5,136.5 Z"/></g>
</svg>
