<?xml version="1.0" encoding="utf-8"?>
<!-- Generator: Adobe Illustrator 25.0.0, SVG Export Plug-In . SVG Version: 6.00 Build 0)  -->
<svg version="1.1" id="Layer_1" xmlns="http://www.w3.org/2000/svg" xmlns:xlink="http://www.w3.org/1999/xlink" 
	 viewBox="0 0 1920 1080" style="enable-background:new 0 0 1920 1080;" xml:space="preserve">
<path d="M1317.58,437.79c-0.61-8.45-1.27-16.89-1.81-25.34c-0.21-3.22-0.14-6.46-0.23-9.69c-0.03-1.19,0.4-1.74,1.61-2.2
	c6.07-2.3,12-5,18.14-7.09c4.58-1.56,9.4-2.4,14.11-3.55c1.13-0.28,1.73,0.22,2.28,1.21c2.96,5.34,7.01,9.83,11.51,13.85
	c5.85,5.22,11.96,10.15,17.99,15.16c0.86,0.71,0.99,1.27,0.52,2.3c-4.64,10.12-9.45,20.17-13.73,30.45
	c-2.35,5.63-6.48,8.51-12.01,9.42c-9.73,1.59-19.43,1.24-28.79-2.21c-6.81-2.51-10.01-7.54-9.84-14.8c0.06-2.5,0.01-5,0.01-7.5
	C1317.42,437.8,1317.5,437.8,1317.58,437.79z"/>
<path d="M1311.57,430.07c0,5.66,0.21,11.34-0.07,16.99c-0.2,3.91-2.14,7.35-4.41,10.49c-2.03,2.8-5.12,3.95-8.33,4.45
	c-12.6,1.95-24.89,1.06-36.5-4.72c-0.58-0.29-1.13-0.94-1.39-1.55c-3.62-8.37-7.25-16.74-10.73-25.18
	c-1.13-2.74-1.89-5.64-2.67-8.51c-0.16-0.57,0.14-1.6,0.59-1.94c1.97-1.51,4.07-2.85,6.13-4.24c9.28-6.23,16.97-14.02,22.84-23.55
	c1.7-2.77,1.61-2.82,4.88-2.32c1.68,0.26,3.37,0.53,5.06,0.74c3.29,0.41,6.06,1.8,8.75,3.78c3.06,2.26,6.48,4.04,9.75,6.01
	c0.31,0.19,0.69,0.43,1.01,0.39c2.89-0.31,3.55,1.69,3.77,3.83c0.52,5.02,0.97,10.05,1.25,15.09c0.19,3.4,0.04,6.82,0.04,10.23
	C1311.52,430.07,1311.55,430.07,1311.57,430.07z"/>
<path d="M1352.55,565.03c-1.35,4.74-2.69,9.51-4.11,14.27c-0.17,0.57-0.65,1.17-1.15,1.51c-9.24,6.32-18.52,12.58-27.77,18.89
	c-2.34,1.6-2.32,1.67-4.58-0.03c-8.09-6.06-16.16-12.14-24.24-18.21c-0.24-0.18-0.48-0.4-0.76-0.51c-3.8-1.5-5.17-4.55-5.86-8.35
	c-0.57-3.2-1.73-6.3-2.66-9.55c3.04-0.48,4.14-2.8,4.99-5.38c2.27-6.92,1.46-13.82,0.07-20.76c-1.3-6.5-2.66-13.01-3.55-19.57
	c-0.59-4.33-0.41-8.76-0.54-13.15c-0.33-11.59-4.37-21.85-10.94-31.28c-2.82-4.05-5.37-8.27-8.03-12.43
	c-0.22-0.34-0.36-0.74-0.69-1.45c1.91,0.73,3.52,1.37,5.14,1.96c10.42,3.8,21.1,3.89,31.87,2.1c6.76-1.12,10.09-5.93,12.06-11.89
	c0.79-2.39,1.3-5.01,1.27-7.52c-0.13-11.34-0.44-22.68-0.84-34.01c-0.09-2.64-0.8-5.26-1.26-8.08c1.02-0.09,2.13-0.19,3.37-0.31
	c0,2.7-0.13,5.19,0.02,7.66c0.53,8.82,1.2,17.64,1.71,26.46c0.17,2.92,0.22,5.86,0.02,8.77c-0.58,8.32,2.94,14.14,10.7,17.16
	c7.42,2.88,15.2,3.11,23.02,2.94c4.37-0.1,8.59-0.78,12.51-2.86c2.67-1.42,4.68-3.35,5.9-6.21c1.96-4.59,4.11-9.1,6.19-13.64
	c0.14-0.32,0.35-0.6,0.31-0.54c-0.39,4.5-0.79,9.33-1.27,14.15c-0.06,0.6-0.43,1.26-0.84,1.74c-8.54,9.79-15.42,20.66-21.48,32.12
	c-3.19,6.03-4.02,12.45-4.1,19.09c-0.12,10.17-0.31,20.34-0.35,30.51c-0.03,6.94,0,13.89,0.31,20.82
	C1347.17,563.48,1348.81,564.78,1352.55,565.03z M1306.8,531.83c0.01-0.1,0.02-0.2,0.04-0.31c1.01,0.11,2.02,0.2,3.02,0.34
	c2.35,0.33,4.05-0.69,4.08-3c0.07-6.75-0.09-13.5-0.22-20.25c-0.03-1.65-0.93-2.77-2.66-2.94c-5.74-0.57-11.48-1.56-17.22-1.52
	c-7.51,0.05-9.64,2.99-8.21,10.43c1.21,6.3,3.38,12.19,9.02,16.01c-4.41,1.42-6.52,4.31-6.03,8.21c0.46,3.66,2.51,6.13,5.72,7.71
	c2.47,1.21,4.97,2.34,7.46,3.51c-2.19-0.36-4.23-1.1-6.34-1.59c-2.75-0.63-4.64,0.5-5.09,3.28c-0.99,6.01-0.24,11.95,3.01,17.07
	c3.45,5.43,7.61,10.41,11.48,15.57c1.5,2,3.03,3.97,4.6,5.91c0.96,1.18,2.29,1.81,3.71,1.14c0.64-0.3,1.29-1.33,1.32-2.06
	c0.24-5.91,0.48-11.82,0.43-17.73c-0.04-4.49-0.4-8.99-0.78-13.48c-0.25-2.9-1.73-4.9-4.84-5.3c-0.28-0.04-0.53-0.23-0.83-0.37
	c0.83,0,1.6,0.03,2.37-0.01c1.5-0.08,2.42-0.88,2.48-2.39c0.18-4.26,0.38-8.53,0.38-12.79c0-2.72-1.58-4.36-4.26-4.94
	C1308.57,532.15,1307.68,532,1306.8,531.83z M1322.41,552.46c-4.56,0.82-4.9,4.43-5.4,7.92c-0.02,0.12-0.02,0.24-0.02,0.37
	c0,9.63-0.03,19.25,0.09,28.88c0.01,0.66,1.16,1.88,1.72,1.84c1.14-0.07,2.64-0.51,3.3-1.34c5.05-6.41,9.9-12.98,14.87-19.45
	c4.04-5.26,4.78-11.36,4.45-17.65c-0.21-4.13-2.54-5.53-6.49-4.31c-1.71,0.53-3.42,1.09-5.13,1.63c2.58-1.56,5.3-2.76,7.94-4.12
	c3.46-1.78,5.17-4.73,5.09-8.61c-0.07-3.85-2.41-5.91-5.87-6.96c-0.1-0.03-0.16-0.17-0.13-0.14c0.89-0.68,1.97-1.22,2.66-2.08
	c3.78-4.7,6.33-9.98,6.75-16.08c0.38-5.42-1.76-7.85-7.13-8.22c-6.23-0.43-12.39,0.33-18.51,1.47c-1.77,0.33-2.74,1.37-2.77,3.09
	c-0.12,6.69-0.27,13.39-0.16,20.08c0.04,2.5,1.67,3.44,4.15,3.08c1.55-0.23,3.12-0.37,4.68-0.55c-1.23,0.46-2.49,0.63-3.74,0.89
	c-2.93,0.6-4.93,2.77-4.93,5.74c-0.01,3.96,0.19,7.92,0.37,11.88c0.08,1.72,1.01,2.69,2.82,2.65
	C1321.49,552.45,1321.95,552.46,1322.41,552.46z M1333.13,466.39c0-0.02,0-0.04,0-0.05c-3.41,0-6.82-0.18-10.21,0.05
	c-3.07,0.21-5.16,2.74-5.13,5.83c0.03,3.35,0.18,6.69,0.31,10.04c0.21,5.3,0.44,10.6,0.66,15.89c0.13,3.11,1.08,4.59,4.13,5.15
	c2.59,0.47,5.3,0.48,7.94,0.37c5.73-0.24,10.8-1.89,13.73-7.4c0.68-1.29,1.35-2.59,1.91-3.94c2.65-6.32,3.71-12.85,2.31-19.65
	c-0.9-4.34-3.06-6.18-7.44-6.28C1338.61,466.33,1335.87,466.39,1333.13,466.39z M1298.23,466.27c0,0.03,0,0.07,0,0.1
	c-2.43,0-4.86-0.03-7.29,0.01c-5.32,0.08-7.42,1.88-8.32,7.18c-1.36,8.03,0.34,15.56,4.36,22.46c1.38,2.37,3.53,4.86,5.93,5.92
	c4.5,2,9.55,2.4,14.49,1.8c3.79-0.45,5.29-2.09,5.45-5.66c0.37-8.57,0.67-17.15,0.89-25.73c0.09-3.43-2.03-5.82-5.49-6.04
	C1304.93,466.11,1301.58,466.27,1298.23,466.27z"/>
<path d="M1343.22,602.41c-0.34,9.74-1.73,18.95-3.61,28.09c-1.73,8.41-3.7,16.77-5.47,25.17c-1.8,8.5-3.55,17.02-5.18,25.56
	c-0.48,2.5-0.66,5.09-0.64,7.64c0.05,5.42,3.67,10.26,8.66,11.93c5.03,1.68,8.99,0.29,11.38-4.41c3.97-7.84,7.27-15.94,9.25-24.56
	c3.22-14.02,3.7-28.11,1.4-42.3c-0.99-6.12-2.07-12.23-3.1-18.34c-0.04-0.23-0.03-0.47,0.2-0.76c2,6.18,4.03,12.36,5.99,18.55
	c2.42,7.6,3.82,15.43,3.38,23.38c-0.26,4.82-1.53,9.6-2.55,14.35c-2.81,13.11-6.33,26.03-10.64,38.73
	c-1.72,5.07-2.31,10.19-1.21,15.48c0.1,0.5-0.28,1.36-0.71,1.67c-6.62,4.71-10.62,10.81-11.12,19.17
	c-0.46,7.66-1.57,15.27-2.05,22.93c-1.12,17.7-2,35.42-3.07,53.13c-0.19,3.21-0.8,6.4-1.21,9.61c-0.07,0.52-0.11,1.03-0.19,1.8
	c3.57-2.11,5.82-5.05,7.8-8.9c-0.61,4.07-1.25,7.58-1.63,11.12c-1.17,10.89,0.18,21.18,7.49,29.97c1.13,1.36,0.86,2.48-0.81,3.15
	c-1.21,0.49-2.55,0.9-3.83,0.89c-6.15-0.03-12.3-0.18-18.45-0.36c-3.85-0.11-5.03-1.41-4.17-5.19c0.93-4.08,2.06-8.16,3.54-12.07
	c1.59-4.18,1.26-8.27,0.37-12.4c-0.83-3.86-2.2-7.63-2.72-11.52c-0.36-2.7,0.24-5.55,0.54-8.32c0.06-0.59,0.64-1.15,1.03-1.68
	c2.73-3.74,5.49-7.45,8.2-11.2c2.64-3.66,4.05-7.77,4.06-12.3c0.03-17.26-0.05-34.56-4.03-51.47c-1.68-7.14-4.24-14.09-6.64-21.05
	c-2.7-7.86-3.93-15.85-4.03-24.2c-0.09-7.51,1.1-14.53,3.7-21.55c5.23-14.17,9.42-28.67,13.04-43.34
	c2.06-8.33,4.28-16.62,6.44-24.93C1342.7,603.49,1342.91,603.13,1343.22,602.41z"/>
<path d="M1291.02,603.36c1.25,4.43,2.59,8.83,3.74,13.29c3.32,12.92,6.4,25.89,9.88,38.76c2.48,9.19,6.05,17.99,10.85,26.27
	c0.42,0.72,0.53,1.74,0.47,2.6c-0.82,13.74-2.88,27.24-7.29,40.34c-4.91,14.62-7.14,29.71-7.5,45.09c-0.17,7.07-0.2,14.13-0.29,21.2
	c-0.06,4.38,1.51,8.24,3.98,11.74c2.77,3.93,5.71,7.75,8.49,11.67c0.56,0.79,0.97,1.8,1.14,2.76c0.72,4.1,0.23,8.1-1.07,12.07
	c-1.78,5.44-0.89,10.96-0.24,16.49c0.68,5.81,1.1,11.64,1.68,17.46c0.16,1.63-0.62,2.18-2.09,2.23c-5.54,0.18-11.07,0.45-16.61,0.54
	c-1.55,0.03-3.12-0.39-4.66-0.73c-1.42-0.31-2.11-1.34-2.22-2.77c-0.1-1.36,0.63-2.21,1.81-2.66c3.63-1.39,5.29-4.34,6.2-7.83
	c2.28-8.79,1.83-17.49-0.91-26.13c-1.15-3.63-2.16-7.31-3.09-11.04c4.59,4.75,8.68,9.96,15.21,13.17c-0.66-1.87-1.12-3.34-1.69-4.77
	c-5.88-14.71-7.75-30.11-8.06-45.82c-0.21-10.73-0.55-21.45-1.15-32.16c-0.2-3.67-1.12-7.35-2.14-10.9
	c-1.64-5.7-5.41-9.81-10.82-12.14c-2.11-0.91-2.69-2-2.56-4.21c0.52-9.27-1.66-18.11-4.35-26.9c-2.95-9.66-5.64-19.4-8.32-29.13
	c-0.42-1.52-0.45-3.25-0.22-4.82c1.36-9.28,2.63-18.59,4.39-27.8c1.18-6.19,3.12-12.24,5.08-18.3c-0.29,2.52-0.58,5.05-0.89,7.56
	c-1.11,9.02-2.01,18.07-1.65,27.17c0.63,16.02,3.48,31.58,9.88,46.37c1.41,3.25,3.13,6.31,5.94,8.65c5.72,4.77,12.66,3.11,15.41-3.8
	c2.09-5.25,2.35-10.82,1.35-16.21c-1.39-7.52-3.46-14.93-5.34-22.35c-3.5-13.81-7.16-27.57-10.56-41.41
	c-1.08-4.4-1.55-8.96-2.29-13.44C1290.66,603.44,1290.84,603.4,1291.02,603.36z"/>
<path d="M1284.7,580.39c1.93,8.37,4.13,16.89,5.12,25.79c1.04,9.32,3.48,18.53,5.77,27.67c3.35,13.4,7.19,26.67,10.67,40.04
	c1.8,6.91,2.42,13.94,0.45,20.95c-0.87,3.08-2.3,5.88-5.65,6.89c-3.75,1.14-6.84-0.35-9.37-3.01c-3.57-3.76-5.26-8.57-6.96-13.34
	c-6.02-16.94-8.25-34.43-7.07-52.32c0.55-8.32,1.74-16.6,2.59-24.9c0.22-2.11,0.13-4.26,0.42-6.36c0.22-1.6,0.94-3.12,1.22-4.71
	C1282.88,591.48,1283.79,585.86,1284.7,580.39z"/>
<path d="M1349.57,580.43c2.33,13.99,4.59,27.96,7,41.92c1.5,8.7,2.8,17.43,2.63,26.26c-0.32,16.18-4.02,31.59-11.38,46.07
	c-3.5,6.89-11.31,7.4-15.83,1.03c-2.77-3.91-2.64-8.16-2.05-12.62c1.75-13.25,5.07-26.16,8.06-39.14
	c2.81-12.17,5.34-24.39,6.28-36.88c0.11-1.46,0.29-2.94,0.16-4.38c-0.51-5.84,1.84-11.08,3.33-16.51
	C1348.31,584.21,1348.98,582.29,1349.57,580.43z"/>
<path d="M1252.71,530.44c-0.79,7.6-1.58,17-2.81,26.35c-0.99,7.54-2.52,15-3.82,22.5c-0.14,0.78-0.37,1.54-0.6,2.3
	c-0.64,2.18-2.02,3.36-3.96,3.42c-2.21,0.07-3.8-0.99-4.45-3.31c-1.79-6.39-3.67-12.75-5.15-19.21c-1.46-6.34-2.79-12.74-3.6-19.18
	c-1.1-8.71-1.74-17.51,0.37-26.17c1.02-4.18,2.57-8.23,4.01-12.3c1.17-3.31,3.71-4.89,7.14-4.96c3.63-0.07,7.07,1.01,8.56,4.45
	c1.52,3.52,2.47,7.37,3.09,11.17C1252.19,519.81,1252.24,524.22,1252.71,530.44z"/>
<path d="M1405.54,541.09c-0.91,14.81-2.94,28.19-6.82,41.28c-0.15,0.52-0.38,1.03-0.61,1.52c-1.14,2.39-2.8,3.55-4.73,3.32
	c-2.25-0.27-4.22-2.1-4.67-4.5c-1.34-7.24-2.75-14.47-3.9-21.74c-1.47-9.32-3.01-18.64-3.94-28.02c-0.84-8.42-0.06-16.81,3.3-24.75
	c0.28-0.67,0.56-1.35,0.94-1.97c1.51-2.49,3.16-5.1,6.48-4.88c3.88,0.26,7.44,1.74,8.7,5.81c1.22,3.92,2.15,7.99,2.72,12.06
	C1404.09,526.86,1404.81,534.56,1405.54,541.09z"/>
<path d="M1383.33,422.11c4.49,3.4,7.43,7.8,10.05,12.4c7.95,13.97,10.03,29.05,7.77,44.76c-0.66,4.58-2.35,9.03-3.68,13.5
	c-0.34,1.15-1.02,2.21-1.64,3.25c-2.28,3.8-4.88,4.9-9.22,3.98c-1.9-0.4-3.21-1.56-3.8-3.34c-1.69-5.13-3.53-10.24-4.82-15.48
	c-2.07-8.42-3.12-17.01-3.2-25.7c-0.06-6.52,0.82-12.85,3.25-18.96C1379.9,431.84,1381.52,427.06,1383.33,422.11z"/>
<path d="M1267.63,655.5c-1.34-6.05-2.76-12.08-3.99-18.15c-2.13-10.54-3.26-21.21-3.29-31.95c-0.04-13.89,0.16-27.78,0.45-41.66
	c0.09-4.42,0.83-8.82,1.3-13.48c6.51,4.16,12.9,8.16,17.63,14.18c2.69,3.42,3,7.66,3.23,11.79c0.49,8.62-1.31,16.97-3.46,25.24
	c-2.35,9.07-5.13,18.04-7.11,27.18c-1.76,8.14-2.69,16.46-3.98,24.7c-0.11,0.71-0.26,1.41-0.39,2.12
	C1267.89,655.48,1267.76,655.49,1267.63,655.5z"/>
<path d="M1246.38,421.89c3.26,14.16,7.02,28.23,9.59,42.52c1.69,9.39-0.38,18.74-5.22,27.13c-4.23,7.33-11.05,7.87-16.8,1.58
	c-3.36-3.67-4.59-8.28-5.34-12.99c-0.97-6.08-0.49-12.13,0.83-18.14c1.03-4.69,1.67-9.48,2.83-14.13
	c1.57-6.28,4.07-12.22,7.47-17.76c0.98-1.6,1.7-3.37,2.74-4.93c0.84-1.27,1.98-2.33,2.99-3.49
	C1245.77,421.75,1246.08,421.82,1246.38,421.89z"/>
<path d="M1252.45,441.13c2.57,5.37,4.91,10.95,7.85,16.19c3.51,6.26,7.39,12.32,11.4,18.28c6.24,9.29,9.55,19.48,9.48,30.61
	c-0.08,11.45,2,22.53,4.52,33.6c1.33,5.84,1.4,11.73-0.53,17.52c-0.25,0.75-0.55,1.49-0.92,2.18c-1.2,2.21-2.98,2.94-4.97,1.45
	c-2.45-1.84-4.74-4-6.7-6.35c-2.8-3.36-5.25-7.02-7.8-10.58c-0.22-0.31-0.26-0.92-0.12-1.28c4.98-12.68,3.59-25.67,1.75-38.64
	c-1.96-13.77-5.32-27.24-8.92-40.66C1255.49,456.06,1254.09,448.51,1252.45,441.13z"/>
<path d="M1365.52,549.37c-4,2.85-6.53,7.37-9.51,11.51c-0.36,0.49-0.67,1.03-1.1,1.46c-2.43,2.44-5.58,1.62-6.44-1.67
	c-0.2-0.76-0.37-1.56-0.38-2.34c-0.06-6.15-0.05-12.3-0.1-18.45c-0.03-3.22-0.23-6.44-0.18-9.66c0.09-6.76,0.29-13.52,0.46-20.27
	c0.05-2.01,0.23-4.02,0.22-6.03c-0.03-5.08,1.55-9.7,3.78-14.16c5.28-10.56,11.78-20.32,19.15-29.52c0.34-0.42,0.71-0.8,1.46-1.64
	c-0.39,2.25-0.7,3.97-0.99,5.7c-0.31,1.8-0.64,3.6-0.91,5.41c-2.72,18.13-5.53,36.24-8.07,54.39c-0.58,4.19-0.61,8.55-0.17,12.75
	C1363.17,540.96,1364.51,544.98,1365.52,549.37z"/>
<path d="M1286.38,580.06c3.26,2.3,6.59,4.52,9.78,6.91c6.53,4.89,13.01,9.86,19.46,14.85c0.48,0.37,0.91,1.15,0.9,1.74
	c-0.14,24.94-0.33,49.88-0.52,74.82c0,0.24-0.03,0.48-0.36,0.88c-0.41-0.74-0.83-1.48-1.22-2.23c-6.12-11.84-9.71-24.55-12.72-37.43
	c-3.81-16.32-8.11-32.49-12.98-48.52c-1.07-3.53-1.83-7.15-2.73-10.72C1286.12,580.25,1286.25,580.15,1286.38,580.06z"/>
<path d="M1282.08,722.37c6.09,2.24,10.25,6.25,12.25,12.4c2.06,6.34,2.38,12.91,2.58,19.5c0.32,10.73,0.61,21.46,0.98,32.18
	c0.43,12.41,2.89,24.41,7.33,36.01c0.28,0.72,0.49,1.47,0.48,2.46c-1.4-1.18-2.89-2.28-4.2-3.57c-1.95-1.92-3.75-4-5.67-5.95
	c-2.66-2.71-4.27-5.89-5.4-9.55c-1.96-6.33-4.52-12.47-6.61-18.77c-3.17-9.59-4.41-19.47-3.83-29.56
	C1280.67,745.87,1281.38,734.2,1282.08,722.37z"/>
<path d="M1277.15,389.66c-1.43,2.23-2.7,4.59-4.32,6.67c-5.25,6.76-11.11,12.9-18.28,17.7c-3.22,2.16-6.32,4.5-9.5,6.72
	c-3.41,2.37-4.87,6.1-6.77,9.53c-0.94,1.7-1.97,3.35-3.03,4.96c-0.79,1.19-1.95,1.39-3.21,0.77c-1.68-0.82-3.11-1.87-3.55-3.88
	c-0.78-3.5-1.99-6.94-2.39-10.48c-1.04-9.06,1.92-16.73,8.69-22.95c4.14-3.8,8.77-6.78,14.01-8.71c1.89-0.7,4.05-0.85,6.09-0.88
	c7.28-0.1,14.57-0.04,21.85-0.04C1276.86,389.27,1277.01,389.46,1277.15,389.66z"/>
<path d="M1319.51,677.74c0-1.67,0.01-3.34,0-5.01c-0.12-15.48-0.15-30.96-0.41-46.43c-0.13-7.49-0.7-14.97-1-22.46
	c-0.03-0.71,0.31-1.74,0.84-2.11c8.66-6.09,17.38-12.1,26.09-18.11c0.69-0.48,1.45-0.85,2.54-1.48c-0.25,0.97-0.4,1.58-0.57,2.19
	c-3.61,12.82-7.65,25.54-10.73,38.49c-4.38,18.38-9.88,36.38-16.09,54.19c-0.09,0.27-0.22,0.53-0.33,0.79
	C1319.73,677.78,1319.62,677.76,1319.51,677.74z"/>
<path d="M1334.67,826.23c0.51-6.9,1.07-13.45,1.46-20.01c0.84-14.42,1.48-28.84,2.42-43.25c0.54-8.19,1.19-16.4,2.37-24.52
	c0.95-6.53,5.03-11.31,10.77-15.2c0.89,3.65,1.8,7.02,2.52,10.43c1.66,7.8,1.68,15.69,1.03,23.6c-1.13,13.74-4.78,26.93-8.45,40.13
	c-1.57,5.62-2.72,11.39-4.72,16.86C1340.49,818.58,1338.28,822.77,1334.67,826.23z"/>
<path d="M1368.58,556.26c2.84,14.62,4.82,29.34,3.91,44.28c-0.3,4.97-1.14,9.92-1.76,14.87c-1.24,9.89-2.51,19.77-3.8,29.89
	c-0.23-0.33-0.43-0.49-0.44-0.66c-0.78-9.89-4.02-19.15-7.21-28.42c-3.47-10.11-5.96-20.44-7.69-30.98
	c-1.07-6.51-0.19-12.72,2.24-18.79C1355.89,561.33,1363.13,556.28,1368.58,556.26z"/>
<path d="M1352.48,390.16c0.25-0.28,0.29-0.36,0.33-0.36c9.35-0.09,18.78-1.1,27.99,1.07c12.26,2.89,25.5,16.21,23.26,33.19
	c-0.43,3.24-1.34,6.41-2.08,9.61c-0.43,1.87-1.9,2.58-3.61,2.86c-1.74,0.28-2.81-0.54-3.6-2.11c-3.98-7.96-10.41-13.66-17.39-18.88
	c-8.11-6.07-15.63-12.77-21.85-20.84C1354.41,393.23,1353.46,391.63,1352.48,390.16z"/>
<path d="M1234.88,579.05c0.42,1.35,0.7,2.27,1,3.18c0.86,2.62,2.83,4.06,5.45,4c2.73-0.07,4.76-1.56,5.37-4.33
	c1.11-5.05,2.07-10.14,3.06-15.21c0.33-1.7,0.58-3.42,0.99-5.11c-0.36,4.18-0.62,8.37-1.1,12.53c-0.74,6.41-0.17,12.62,2.26,18.63
	c1.86,4.59,2.15,9.47,2.6,14.32c0.57,6.18,0.71,12.44,3.26,18.26c0.15,0.33,0.26,0.7,0.3,1.05c0.08,0.83,0.1,1.66,0.15,2.61
	c-2.15-0.05-2.64-1.54-3.22-2.93c-0.54-1.28-0.95-2.66-1.71-3.79c-0.43-0.63-1.68-1.34-2.18-1.13c-0.68,0.3-1.32,1.41-1.4,2.22
	c-0.29,3.12,1.17,5.78,2.58,8.43c0.8,1.5,1.72,2.96,2.31,4.54c0.72,1.91-0.1,3-2.13,2.94c-1.81-0.05-3.64-0.18-5.41-0.55
	c-5.91-1.23-9.2-5.26-10.58-10.83c-2.02-8.13-3.22-16.4-2.8-24.8c0.28-5.54,0.84-11.06,1.18-16.59
	C1235,584.21,1234.88,581.91,1234.88,579.05z"/>
<path d="M1387.28,582.76c1,3.39,2.89,5.24,5.88,5.64c3.63,0.49,5.29-2.02,6.83-4.78c-0.15,0.99-0.2,2.01-0.47,2.97
	c-1.05,3.78-0.91,7.55-0.22,11.37c0.78,4.32,1.41,8.66,2.08,12.99c0.9,5.86,0.84,11.7-1.03,17.36c-1.92,5.82-6,9.81-11.59,12.15
	c-1.39,0.58-3.1,0.6-4.64,0.52c-1.45-0.08-2.91-0.95-3.01-2.46c-0.07-1.09,0.74-2.29,1.33-3.35c0.27-0.49,0.9-0.82,1.42-1.12
	c1.84-1.04,2.5-2.69,2.14-4.64c-0.65-3.52-1.48-7-2.23-10.5c-0.21-0.01-0.42-0.02-0.63-0.04c-0.25,0.79-0.58,1.57-0.75,2.39
	c-0.29,1.37-0.33,2.81-0.75,4.13c-0.34,1.06-0.9,2.21-1.72,2.92c-0.7,0.62-2.01,1.11-2.83,0.88c-1.22-0.36-0.8-1.65-0.57-2.69
	c1.97-9.17,3.8-18.37,5.93-27.5c0.82-3.53,2.38-6.88,3.48-10.35C1386.5,586.86,1386.78,584.99,1387.28,582.76z"/>
<path d="M1313.83,812.51c-3.98-4.91-8.08-9.7-10.55-15.52c-0.83-1.96-1.13-4.27-1.14-6.43c-0.15-17.81,0.04-35.63,4.29-53.07
	c1.98-8.09,4.48-16.06,6.75-24.08c0.06-0.22,0.21-0.42,0.14-0.29c0,4.85-0.19,10.02,0.04,15.17c0.37,8.09,0.96,16.17,1.57,24.25
	c0.93,12.36,1.52,24.68-0.85,36.98C1312.62,797.13,1312.9,804.8,1313.83,812.51z"/>
<path d="M1322.21,811.41c0-3.06,0.23-6.15-0.05-9.19c-0.47-5.09-1.37-10.13-1.92-15.22c-1.15-10.65-1.08-21.29,0.84-31.86
	c1.3-7.13,1.36-14.32,0.85-21.5c-0.5-7.1-1.3-14.18-1.97-21.27c-0.02-0.17,0.04-0.36,0.07-0.66c2.08,6.06,4.12,12,6.17,17.94
	c3.57,10.33,5.15,21.04,5.78,31.9c0.45,7.85,0.61,15.71,1,23.56c0.36,7.32-1.17,14.01-5.93,19.79
	C1325.3,807.04,1323.74,809.35,1322.21,811.41z"/>
<path d="M1335.84,351.19c0.19,7.24,0.54,14.48,0.54,21.72c0,9.16-4.67,16.08-11.3,21.82c-3.83,3.32-6.9,4.62-10.68,5.1
	c0.33-1.91,0.46-3.78,1-5.52c2.44-7.97,5.09-15.87,7.48-23.86c1.17-3.9,2.88-7.31,5.7-10.34c2.54-2.72,4.51-5.98,6.73-9
	C1335.48,351.13,1335.66,351.16,1335.84,351.19z"/>
<path d="M1310.25,400.6c-2.56-1.19-4.74-2.1-6.81-3.19c-7.79-4.07-12.02-10.89-12.91-19.28c-0.8-7.59-0.31-15.31-0.38-22.98
	c0-0.23,0.1-0.46,0.23-1.04c0.94,1.56,1.64,2.92,2.52,4.16c1.91,2.66,3.91,5.25,5.88,7.86c0.22,0.29,0.5,0.55,0.63,0.87
	c4.23,10.22,8.57,20.41,10.58,31.39C1310.08,398.92,1310.11,399.46,1310.25,400.6z"/>
<path d="M1329.6,393.99c5.7-3.78,8.18-9.5,10.22-15.52c0.66-1.94,1.48-3.83,2.3-5.93c7.53,2.7,15.03,5.16,22.34,8.11
	c3.15,1.27,5.92,3.5,8.79,5.42c0.75,0.5,1.21,1.43,2.05,2.47C1359.59,388.31,1344.15,386.92,1329.6,393.99z"/>
<path d="M1301.2,367.88c7.61,3.42,16.69,2.05,21.78-1.74c-0.54,1.66-0.99,2.97-1.4,4.29c-2.56,8.18-5.13,16.35-7.64,24.55
	c-0.39,1.27-0.39,2.65-0.67,3.95c-0.1,0.44-0.51,0.81-0.78,1.22c-0.35-0.38-0.89-0.7-1.02-1.14c-1.97-6.77-3.74-13.6-5.87-20.32
	c-1.04-3.28-2.72-6.36-4.1-9.54C1301.37,368.84,1301.34,368.48,1301.2,367.88z"/>
<path d="M1290.67,389.95c-11.96-2.35-23.93-3.05-36.02-2.11c-0.05-0.15-0.1-0.3-0.14-0.45c9.57-4.51,19.13-9.03,28.92-13.64
	C1284.33,379.95,1286.12,385.51,1290.67,389.95z"/>
<path d="M1380.91,544.53c-2.85-9.38-4.72-18.91-4.36-28.76c0.24-6.7,0.61-13.39,0.75-20.09c0.04-1.78-0.34-3.65-0.92-5.34
	c-2.88-8.39-3.73-16.96-2.61-26.08c0.73,4.65,1.12,9.05,2.15,13.29c1.57,6.43,3.51,12.77,5.48,19.09c0.82,2.62,2.66,4.46,5.7,4.7
	c-5.95,6.86-7.14,15.13-7.62,23.6c-0.35,6.18,0.27,12.3,1.33,18.38C1380.88,543.72,1380.88,544.13,1380.91,544.53z"/>
<path d="M1252.61,512.42c-1.4-5.71-2.45-11.56-9.52-13.53c6.91-1.6,9.33-6.96,11.47-12.52c0.71-1.86,1.21-3.8,2.23-5.65
	c-0.41,4.17-0.65,8.36-1.26,12.5C1254.6,499.61,1252.23,505.78,1252.61,512.42z"/>
<path d="M1402.48,483.21c-0.36,4.11-0.46,8.27-1.18,12.32c-0.46,2.62-0.18,5.03,0.29,7.54c0.26,1.4,0.41,2.82,0.44,4.32
	c-1.46-3.69-4.06-6.03-8.02-6.96c4.73-4.97,6.31-11.16,7.93-17.32C1402.13,483.14,1402.31,483.17,1402.48,483.21z"/>
<path d="M1288.98,371.2c-0.54,7.65,0.82,14.55,5.62,20.56c-0.29-0.21-0.61-0.38-0.87-0.62c-4.5-4.24-7.77-9.14-8.73-15.44
	c-0.29-1.89-0.07-3.02,1.87-3.54C1287.5,371.98,1288.07,371.62,1288.98,371.2z"/>
<path d="M1230.86,505.4c0.81-3.92,2.51-7.68,1.37-11.59c2.39,1.6,4.81,3.22,7.2,4.82C1235.14,498.69,1232.47,501.3,1230.86,505.4z"
	/>
<path d="M1337.69,371.42c1.15,0.38,1.99,0.65,3.13,1.02c-2.82,6.18-3.77,13.14-9.35,17.78
	C1335.54,384.7,1337.91,378.6,1337.69,371.42z"/>
<path d="M1359.58,557.58c2.33-2.65,4.36-4.96,6.74-7.67c0.68,1.92,1.16,3.29,1.64,4.64
	C1365.23,555.53,1362.67,556.46,1359.58,557.58z"/>
<path d="M1263.92,544.81c2.19,3.09,4.11,5.79,6.03,8.5c-0.1,0.09-0.19,0.18-0.29,0.27c-2.16-1.38-4.34-2.73-6.45-4.17
	c-0.26-0.18-0.33-0.86-0.25-1.26C1263.16,547.21,1263.49,546.3,1263.92,544.81z"/>
<path d="M1231.98,444.04c-0.64-2.6-1.22-4.97-1.79-7.27c1.31,0.35,2.66,0.7,4.07,1.08C1233.55,439.78,1232.81,441.8,1231.98,444.04z
	"/>
<path d="M1399.08,443.29c-0.87-2.04-1.56-3.64-2.25-5.26c1.25-0.2,2.37-0.38,3.71-0.6C1400.08,439.26,1399.63,441.09,1399.08,443.29
	z"/>
<path d="M1313.31,576.4c0,4.02,0.02,8.04-0.03,12.06c-0.01,0.59-0.35,1.18-0.54,1.76c-0.76-0.26-1.77-0.3-2.23-0.82
	c-1.8-2.06-3.46-4.25-5.11-6.43c-3.52-4.66-7.17-9.25-10.47-14.06c-3.42-4.99-4.01-10.76-3.41-16.63c0.24-2.33,1.78-3.21,4.09-2.5
	c4.99,1.54,9.99,3.08,14.91,4.86c0.91,0.33,1.91,1.67,2.06,2.67c0.57,3.84,0.89,7.73,1.14,11.61c0.16,2.49,0.03,5,0.03,7.49
	C1313.6,576.4,1313.45,576.4,1313.31,576.4z"/>
<path d="M1313.18,519.07c-0.18,3.42-0.34,6.4-0.49,9.38c-0.08,1.57-0.84,2.32-2.48,2.14c-4.78-0.5-9.58-0.87-14.33-1.52
	c-1.19-0.16-2.59-0.94-3.33-1.89c-3.55-4.5-5.62-9.66-5.97-15.42c-0.24-3.98,1.08-5.7,5.02-6.21c6.53-0.84,12.98,0.06,19.38,1.4
	c1.27,0.27,1.46,1.18,1.54,2.16C1312.78,512.57,1312.98,516.03,1313.18,519.07z"/>
<path d="M1312.16,543.18c0,1.95-0.01,3.9,0,5.85c0.01,1.6-0.68,2.41-2.34,2.08c-1.54-0.31-3.16-0.45-4.59-1.05
	c-3.59-1.5-7.12-3.14-10.6-4.86c-3.45-1.71-5.22-5.02-4.67-8.31c0.47-2.81,2.27-4.84,5.09-4.87c3.25-0.03,6.51,0.5,9.77,0.83
	c1.21,0.12,2.4,0.41,3.6,0.58c2.84,0.41,4.03,1.72,4.11,4.63c0.05,1.7,0.01,3.41,0.01,5.11
	C1312.4,543.18,1312.28,543.18,1312.16,543.18z"/>
<path d="M1340.39,555.99c-0.6,5.08-1.37,10.34-4.99,14.83c-4.7,5.83-9.12,11.88-13.68,17.83c-0.37,0.48-0.74,1-1.23,1.33
	c-1.16,0.78-2.21,0.26-2.22-1.09c-0.08-8.77-0.12-17.55-0.17-26.32c0-0.3,0.03-0.61,0.05-0.91c0.5-6.02,0.79-6.37,6.46-8.22
	c3.41-1.11,6.81-2.27,10.21-3.38c3.69-1.2,4.9-0.43,5.38,3.4C1340.29,554.19,1340.31,554.92,1340.39,555.99z"/>
<path d="M1318.38,518.04c0.22-2.92,0.46-5.96,0.66-9c0.09-1.38,0.83-2.17,2.14-2.29c5.57-0.52,11.14-1.28,16.71-1.38
	c6.02-0.11,7.81,2.28,6.91,8.29c-0.68,4.57-2.28,8.82-4.88,12.67c-1.12,1.66-2.57,2.69-4.62,2.88c-4.67,0.43-9.33,0.89-13.99,1.37
	c-1.67,0.17-2.37-0.66-2.45-2.19C1318.68,524.99,1318.54,521.58,1318.38,518.04z"/>
<path d="M1332.77,531.87c6.23-0.28,9.01,1.79,9.09,5.97c0.06,3.17-1.68,5.55-4.3,6.94c-3.91,2.07-7.95,3.99-12.09,5.54
	c-5.31,1.98-6.07,1.32-6.21-4.25c-0.07-2.5-0.13-5-0.14-7.5c-0.01-3.1,1.43-4.72,4.46-5.2
	C1327.06,532.83,1330.54,532.24,1332.77,531.87z"/>
<path d="M1332.86,467.63c2.92,0,5.84-0.06,8.76,0.02c3.2,0.08,4.89,1.22,5.6,4.23c2.26,9.61,0.12,18.34-5.67,26.22
	c-1.56,2.13-3.73,3.39-6.46,3.68c-3.79,0.41-7.53,1.56-11.38,0.5c-3.01-0.83-3.64-1.63-3.74-4.74c-0.09-2.8-0.16-5.61-0.26-8.41
	c-0.2-5.6-0.46-11.19-0.59-16.79c-0.06-2.75,1.73-4.66,4.44-4.76c3.1-0.11,6.2-0.03,9.3-0.03
	C1332.86,467.57,1332.86,467.6,1332.86,467.63z"/>
<path d="M1312.55,475.31c-0.35,7.84-0.68,15.69-1.06,23.53c-0.08,1.63-0.99,2.64-2.53,3.21c-2.93,1.09-5.87,0.4-8.84,0.32
	c-7.07-0.19-11.25-4-13.77-10.27c-2.5-6.23-3.77-12.57-2.27-19.26c0.84-3.75,2.52-5.17,6.33-5.21c5.71-0.06,11.42-0.15,17.13-0.07
	c3.3,0.05,4.97,1.94,5,5.2C1312.55,473.6,1312.55,474.46,1312.55,475.31z"/>
</svg>
