<svg width="2119" height="3954" viewBox="0 0 2119 3954" fill="none" xmlns="http://www.w3.org/2000/svg">
<path fill-rule="evenodd" clip-rule="evenodd" d="M992 7.5V15H977H962V22.5V30H947H932V37.5V45H924.5H917V52.5V60H909.5H902V67.5V75H894.5H887V90V105H879.5H872V248V391H879.5H887V421V451H894.5H902V466V481H909.5H917V488.5V496H924.5H932V504V512H939H946V519V526H939H932V533.5V541H917H902V548.5V556H894.5H887V563.474V570.948L871.75 571.224L856.5 571.5L856.206 578.75L855.912 586L830.206 586.005C816.068 586.007 799.438 586.301 793.25 586.657L782 587.306V594.153V601H763.657C753.568 601 739.843 601.294 733.157 601.654L721 602.307V609.033V615.758L706.5 616.483L692 617.208V624.104V631L672.75 631.005C662.163 631.007 648.438 631.301 642.25 631.657L631 632.306V639.653V647H623.5H616V653.887V660.774L601 661.5L586 662.226V669.613V677H578.5H571V684.5V692H563.5H556V699.5V707H548.5H541V721.5V736H533.5H526V744V752H518.527H511.053L510.777 766.75L510.5 781.5L503.25 781.794L496 782.088V797.044V812H488.5H481L480.995 838.25C480.993 852.688 480.699 869.563 480.343 875.75L479.694 887H472.847H466V924.5V962H473.5H481V992V1022H488.5H496V1015V1008H503.652H511.304L510.652 1018.66C510.293 1024.52 510 1031.04 510 1033.16V1037H503H496V1044.5V1052H488.526H481.052L480.776 1067.25L480.5 1082.5L473.25 1082.79L466 1083.09V1094.39C466 1100.6 465.707 1110.48 465.348 1116.34L464.696 1127H457.848H451L450.995 1161.25C450.993 1180.09 450.699 1200.56 450.343 1206.75L449.694 1218H427.96H406.226L405.5 1233L404.774 1248H397.887H391V1255.5V1263H383.5H376V1278V1293H368.5H361V1308V1323H353.613H346.226L345.5 1338L344.774 1353H338.008H331.242L330.516 1368.5L329.789 1384H322.895H316L315.995 1394.75C315.993 1400.66 315.699 1410.56 315.343 1416.75L314.694 1428H308H301.306L300.657 1439.25C300.301 1445.44 300.007 1455.79 300.005 1462.25L300 1474H293.159H286.319L285.662 1495.75C285.3 1507.71 285.004 1524.36 285.002 1532.75L285 1548H278.118H271.236L270.495 1593.5L269.753 1639H263.036H256.319L255.66 1661.66C255.297 1674.12 255 1691 255 1699.16V1714H248.153H241.306L240.657 1725.25C240.301 1731.44 240.007 1744.94 240.005 1755.25L240 1774H232.5H225V1796.5V1819H218H211V1826.5V1834H218H225V1849V1864H217.5H210V1872V1880H203.095H196.191L195.467 1895L194.744 1910H187.372H180V1916.89V1923.77L195 1924.5L210 1925.23V1932.11V1939H195H180V1932V1925H173H166V1932V1939H158H150V1946.5V1954H142.5H135V1961.5V1969H127.5H120V1976.5V1984H112.5H105V1991.5V1999H97.5H90V2006.5V2014H82.5H75V2022V2030H67.5H60V2044.5V2059H52.5H45V2066.39V2073.77L30 2074.5L15 2075.23V2082.61V2090H7.5H0V2112.5V2135H22.5H45V2127.5V2120H52.5H60V2112.5V2105H67.5H75V2097.5V2090H90H105V2105V2120H97.5H90V2150V2180H82.5H75L74.995 2198.75C74.993 2209.06 74.699 2222.56 74.343 2228.75L73.694 2240H66.847H60V2262.5V2285H52.5H45V2292.5V2300H52.5H60V2307.5V2315H75H90V2307.5V2300H97.5H105V2277.5V2255H112.5H120V2225V2195H127.5H135V2225.5V2256H127.5H120V2293.5V2331H112.5H105V2338V2345H112.5H120V2353V2361H127.5H135V2368V2375H142.5H150V2360V2345H157.5H165V2322.5V2300H172.5H180V2330V2360H195H210V2352.5V2345H217.5H225V2333.66C225 2327.42 225.293 2317.52 225.652 2311.66L226.304 2301H233.152H240V2248V2195H247.5H255V2209.84C255 2218 255.297 2234.87 255.66 2247.34L256.319 2270H263.16H270V2277.5V2285H292.5H315V2255V2225H308.153H301.306L300.657 2213.75C300.301 2207.56 300.007 2153.34 300.005 2093.25L300 1984H293.044H286.088L285.794 1976.75L285.5 1969.5L277.707 1969.21L269.914 1968.91L270.207 1961.71L270.5 1954.5L285.223 1954.22L299.947 1953.95L300.223 1939.22L300.5 1924.5L307.639 1924.21L314.778 1923.92L315.502 1908.96L316.226 1894H323H329.774L330.5 1879L331.226 1864H338H344.774L345.5 1849L346.226 1834H353.613H361V1819.54V1805.09L368.25 1804.79L375.5 1804.5L375.792 1796.75L376.084 1789H382.929H389.774L390.5 1774L391.226 1759H398H404.774L405.5 1744L406.226 1729H413.613H421V1721V1713H427.896H434.792L435.517 1698.5L436.242 1684H443.008H449.774L450.498 1669.04L451.222 1654.08L458.361 1653.79L465.5 1653.5L465.776 1638.25L466.052 1623H473.526H481V1608V1593H487.848H494.696L495.348 1582.34C495.707 1576.48 496 1566.36 496 1559.84V1548H503.5H511V1518V1488H518.5H526V1458.5V1429H533.5H541V1413.5V1398H548.5H556V1375.5V1353H563.5H571V1315.5V1278H578.5H586V1263V1248H578.5H571V1233V1218H578.5H586V1203V1188H593.481H600.962L601.231 1165.25L601.5 1142.5L608.75 1142.21L616 1141.91V1104.46V1067H623.5H631V1112.5V1158H638.481H645.962L646.231 1180.25L646.5 1202.5L653.631 1202.79L660.762 1203.08L661.485 1217.54L662.208 1232H669.104H676V1240V1248H683.5H691V1255.5V1263H698.5H706V1270.5V1278H698.5H691V1292.84C691 1301 691.297 1317.88 691.66 1330.34L692.319 1353H699.001H705.682L706.288 1384.48C706.621 1401.8 706.622 1425.42 706.29 1436.98L705.686 1458H698.949H692.211L691.484 1473.5L690.758 1489H684.031H677.304L676.652 1499.66C676.293 1505.52 676 1519.02 676 1529.66V1549H669H662V1571V1593H669H676V1601V1609H683.5H691V1616.5V1624H698.5H706V1631.5V1639H713.5H721V1646.5V1654H706.5H692V1646.5V1639H684H676V1631.5V1624H669H662L661.785 1661.75C661.667 1682.51 661.555 1709.4 661.535 1721.5C661.516 1733.6 661.388 1800.99 661.25 1871.25L661 1999H654.16H647.319L646.66 2021.66C646.297 2034.12 646 2078.15 646 2119.5C646 2160.85 646.297 2204.87 646.66 2217.34L647.319 2240H654.16H661V2270V2300H668.5H676V2285.16C676 2277 676.297 2260.13 676.66 2247.66L677.319 2225H684.16H691L691.005 2206.25C691.007 2195.94 691.301 2182.44 691.657 2176.25L692.306 2165H699.153H706V2179.84C706 2188 706.297 2204.87 706.66 2217.34L707.319 2240H714.145H720.971L721.235 2270.25L721.5 2300.5L728.75 2300.79L736 2301.09V2330.54V2360H743.5H751V2370.84C751 2376.81 751.294 2387.16 751.654 2393.84L752.307 2406H759.154H766L766.005 2417.25C766.007 2423.44 766.301 2433.56 766.657 2439.75L767.306 2451H773.994H780.683L781.31 2472.65C781.655 2484.55 781.699 2494.68 781.409 2495.15C781.119 2495.62 777.759 2496 773.941 2496H767L766.995 2484.75C766.993 2478.56 766.699 2468.44 766.343 2462.25L765.694 2451H758.873H752.052L751.776 2435.75L751.5 2420.5L744.399 2420.21L737.299 2419.92L736.649 2409.3C736.292 2403.47 736 2390.23 736 2379.89V2361.09L728.75 2360.79L721.5 2360.5L721.231 2337.75L720.962 2315H714.141H707.319L706.66 2292.34C706.297 2279.87 706 2263 706 2254.84V2240H699.153H692.306L691.657 2251.25C691.301 2257.44 691.007 2274.31 691.005 2288.75L691 2315H683.491H675.982L676.241 2367.75L676.5 2420.5L683.75 2420.79L691 2421.09L691.005 2432.29C691.007 2438.46 691.301 2448.56 691.657 2454.75L692.306 2466H699.153H706L706.005 2477.25C706.007 2483.44 706.301 2493.56 706.657 2499.75L707.306 2511H714.04H720.774L721.5 2526L722.226 2541H729H735.774L736.5 2556L737.226 2571H744H750.774L751.5 2586L752.226 2601H759H765.774L766.5 2616L767.226 2631H774.613H782V2638.5V2646H789.5H797V2653.5V2661H804H811V2668.5V2676H834H857V2668.5V2661H864H871V2668.5V2676H924H977V2683.5V2691H894.5H812V2706V2721H819.653H827.306L826.657 2732.25C826.301 2738.44 826.007 2745.19 826.005 2747.25L826 2751H819.113H812.226L811.5 2736L810.774 2721H803.887H797L796.995 2732.25C796.993 2738.44 796.699 2748.56 796.343 2754.75L795.694 2766H788.847H782V2776.84C782 2782.81 781.706 2793.16 781.346 2799.84L780.693 2812H773.846H767V2829.84C767 2839.66 766.706 2853.16 766.346 2859.84L765.693 2872H758.846H752V2889.84C752 2899.66 751.706 2913.16 751.346 2919.84L750.693 2932H744.006H737.319L736.66 2954.66C736.297 2967.13 736 2984 736 2992.16V3007H729H722V3044.5V3082H729H736V3104.34C736 3116.62 736.297 3136.87 736.66 3149.34L737.319 3172H744.045H750.77L751.508 3202.5L752.246 3233H759.008H765.771L766.508 3262.5L767.246 3292H773.969H780.693L781.346 3304.16C781.706 3310.84 782 3321.19 782 3327.16V3338H788.848H795.696L796.348 3348.66C796.707 3354.52 797 3364.64 797 3371.16V3383H803.848H810.696L811.348 3393.66C811.707 3399.52 812 3409.4 812 3415.61V3426.91L819.25 3427.21L826.5 3427.5L826.776 3442.75L827.052 3458H834.526H842V3465.5V3473H872H902V3232.66C902 3100.48 901.703 2982.13 901.34 2969.66L900.681 2947H893.84H887V2927.66C887 2917.02 886.707 2903.52 886.348 2897.66L885.696 2887H878.848H872V2875.16C872 2868.64 871.707 2858.52 871.348 2852.66L870.696 2842H863.874H857.052L856.776 2826.75L856.5 2811.5L849.25 2811.21L842 2810.91V2795.96V2781H849.5H857V2796V2811H864.5H872V2818.46V2825.91L879.25 2826.21L886.5 2826.5L886.777 2841.25L887.053 2856H894.527H902V2864.04V2872.09L909.25 2871.79L916.5 2871.5L916.793 2864.29L917.086 2857.09L924.293 2856.79L931.5 2856.5L931.792 2848.75L932.084 2841H939.542H947V2864V2887H939.5H932L931.995 2935.75C931.993 2962.56 931.699 2989.56 931.343 2995.75L930.694 3007H923.847H917V3240.04V3473.09L924.25 3472.79L931.5 3472.5L931.76 3427.75L932.021 3383H938.858H945.694L946.343 3371.75C946.699 3365.56 946.993 3341.94 946.995 3319.25L947 3278H954.5H962V3247.5V3217H969.5H977V3179.5V3142H984.5H992V3112V3082H999.5H1007V2946.5V2811H999.5H992V2796.5V2782H984.5H977V2796.5V2811H969.5H962V2796V2781H969.5H977V2766.5V2752H984.5H992V2736.5V2721H999.5H1007V2713.5V2706H999.5H992V2698.5V2691H999.5H1007V2630.5V2570H1014.5H1022V2495V2420H1014.5H1007V2405.5V2391H1014.5H1022V2398V2405H1029.5H1037V2382.5V2360H1030.15H1023.31L1022.66 2348.75C1022.3 2342.56 1022.01 2318.94 1022.01 2296.25L1022 2255H1014.5H1007V2232.5V2210H999.5H992V2195V2180H984.5H977V2164.5V2149H969.5H962V2127V2105H969.5H977V2120V2135H984.5H992V2150V2165H999.5H1007V2180V2195H1014.5H1022V2097.5V2000H1029.5H1037L1037.22 1969.5C1037.34 1952.73 1037.45 1935.74 1037.47 1931.75L1037.5 1924.5L1030.29 1924.21L1023.09 1923.91L1022.79 1916.71L1022.5 1909.5L1014.75 1909.21L1007 1908.92V1901.46V1894H999.5H992V1887.11V1880.23L977 1879.5L962 1878.77V1871.39V1864H954.5H947V1856.5V1849H939.544H932.088L931.794 1841.75L931.5 1834.5L916.75 1834.22L902 1833.95V1826.47V1819H894.544H887.088L886.794 1811.75L886.5 1804.5L871.75 1804.22L857 1803.95V1796.47V1789H849H841V1781.5V1774H834H827V1781.5V1789H819.613H812.226L811.5 1774L810.774 1759H803.887H797V1751.5V1744H789.5H782V1736.5V1729H774.613H767.226L766.5 1714L765.774 1699H758.387H751V1691.5V1684H743.5H736V1676.5V1669H743.456H750.912L751.206 1676.25L751.5 1683.5L759.25 1683.79L767 1684.08V1690.95V1697.81L782 1698.53L797 1699.26V1706.63V1714H819H841V1721.5V1729H849H857V1488.5V1248H863.881H870.762L871.5 1278L872.238 1308H879.619H887V1315.5V1323H879.5H872L871.778 1345.75C871.349 1389.68 871.355 1401.61 871.81 1414.75L872.27 1428H879.635H887V1435.46V1442.92L879.25 1443.21L871.5 1443.5L871.176 1457.5C870.999 1465.2 871.163 1485.56 871.542 1502.75L872.23 1534H954.615H1037V1481V1428H984.5H932V1421V1414L961.75 1414C978.112 1414 1001.96 1413.7 1014.75 1413.34L1038 1412.68V1405.34V1398H1045H1052V1360.5V1323H1044.47H1036.95L1037.22 1307.75L1037.5 1292.5L1044.75 1292.21L1052 1291.91V1284.96V1278H1045.15H1038.31L1037.66 1266.75C1037.3 1260.56 1037.01 1243.39 1037.01 1228.6L1037 1201.7L1026.11 1202.36C1020.13 1202.72 1010 1202.72 1003.61 1202.36L992 1201.69V1194.85V1188H999.5H1007V1180.5V1173H1014.5H1022V1165.5V1158H1029.5H1037V970V782H1029.5H1022V767V752H1014.5H1007V744.5V737H1022H1037V744V751H1059.5H1082V744V737H1097H1112V744.5V752H1104.5H1097V759.5V767H1090.15H1083.3L1082.65 777.656C1082.29 783.516 1082 797.016 1082 807.656V827H1075.15H1068.3L1067.65 837.656C1066.8 851.575 1066.81 1030.02 1067.66 1059.34L1068.32 1082H1075.16H1082V1127V1172H1089.46H1096.92L1097.21 1179.75L1097.5 1187.5L1105.29 1187.79L1113.09 1188.09L1112.79 1195.29L1112.5 1202.5L1089.82 1202.77L1067.15 1203.04V1308.02V1413H1096.91C1113.28 1413 1136.88 1413.3 1149.34 1413.66L1172 1414.32V1421.15V1427.98L1119.75 1428.24L1067.5 1428.5V1480.17C1067.5 1508.58 1067.88 1532.21 1068.33 1532.67C1068.79 1533.12 1109.4 1533.5 1158.58 1533.5H1248V1541V1548.5H1165.25H1082.5L1082.21 1556.25L1081.92 1564H1075.11H1068.31L1067.66 1575.25C1067.3 1581.44 1067.01 1648.88 1067.01 1725.13L1067 1863.76L1076.25 1864.21C1081.34 1864.47 1098.21 1864.46 1113.75 1864.19L1142 1863.72V1856.36V1849H1149.39H1156.77L1157.5 1834L1158.23 1819H1165H1171.77L1172.5 1804L1173.23 1789H1180H1186.77L1187.5 1774L1188.23 1759H1195.61H1203V1751.5V1744H1209.97H1216.95L1217.22 1728.75L1217.5 1713.5L1224.75 1713.21L1232 1712.91L1232.01 1694.71C1232.01 1684.69 1232.3 1671.46 1232.66 1665.29L1233.3 1654.08L1240.4 1653.79L1247.5 1653.5L1247.79 1645.75L1248.08 1638H1255.04H1262V1646V1654H1255H1248V1691.53V1729.05L1262.75 1728.78L1277.5 1728.5L1277.79 1721.25L1278.09 1714H1293.04H1308V1706.5V1699H1323H1338V1691.61V1684.23L1353 1683.5L1368 1682.77V1675.89V1669H1375.5H1383V1676.5V1684H1375.5H1368V1691.5V1699H1360.5H1353V1706.5V1714H1345.5H1338V1721.5V1729H1330.5H1323V1744V1759H1315.61H1308.23L1307.5 1774L1306.77 1789H1299.93H1293.08L1292.79 1796.75L1292.5 1804.5L1285.25 1804.79L1278 1805.09V1797.04V1789H1263H1248V1796.46V1803.92L1240.25 1804.21L1232.5 1804.5L1232.21 1811.63L1231.92 1818.76L1217.46 1819.48L1203 1820.21V1827.1V1834H1195.5H1188V1841.5V1849H1180H1172V1856.38V1863.76L1157.5 1864.48L1143 1865.21V1872.06V1878.92L1135.25 1879.21L1127.5 1879.5L1127.21 1886.75L1126.91 1894H1119.46H1112V1901.39V1908.77L1097 1909.5L1082 1910.23V1917.07V1923.91L1074.75 1924.21L1067.5 1924.5V1939.5V1954.5L1074.75 1954.79L1082 1955.09V1980.39C1082 1994.3 1082.29 2011.16 1082.65 2017.84L1083.31 2030H1090.15H1097V2112.5V2195H1104.5H1112L1112.01 2183.75C1112.01 2177.56 1112.3 2167.44 1112.66 2161.25L1113.31 2150H1120.04H1126.77L1127.5 2135L1128.23 2120H1135.11H1142V2105V2090H1149.47H1156.95L1157.22 2074.75L1157.5 2059.5L1164.75 2059.21L1172 2058.91V2047.61C1172 2041.4 1172.29 2031.52 1172.65 2025.66L1173.3 2015H1180.02H1186.74L1187.47 2000L1188.19 1985H1194.97H1201.76L1202.48 1969.5L1203.21 1954H1209.95H1216.69L1217.34 1942.75C1217.7 1936.56 1217.99 1926.68 1217.99 1920.79L1218 1910.09L1225.25 1909.79L1232.5 1909.5L1232.78 1894.25L1233.05 1879H1240.53H1248V1890.84C1248 1897.36 1247.71 1907.48 1247.35 1913.34L1246.7 1924H1239.97H1233.24L1232.52 1939.5L1231.79 1955H1224.9H1218L1217.99 1965.75C1217.99 1971.66 1217.7 1981.56 1217.34 1987.75L1216.69 1999H1209.97H1203.24L1202.52 2014.5L1201.79 2030H1194.92H1188.05L1187.78 2044.75L1187.5 2059.5L1180.4 2059.79L1173.3 2060.08L1172.66 2071.29C1172.3 2077.46 1172.01 2087.32 1172.01 2093.21L1172 2103.91L1164.75 2104.21L1157.5 2104.5L1157.22 2119.75L1156.95 2135H1149.47H1142V2150V2165H1134.5H1127V2180V2195H1120.15H1113.31L1112.66 2206.25C1112.3 2212.44 1112.01 2222.56 1112.01 2228.75L1112 2240H1105.15H1098.31L1097.66 2251.25C1097.3 2257.44 1097.01 2270.94 1097.01 2281.25L1097 2300H1090.16H1083.32L1082.66 2322.66C1081.82 2351.36 1081.82 2380.28 1082.66 2394.75L1083.31 2406H1090.15H1097V2428.5V2451H1090H1083V2466V2481H1090H1097V2510.83C1097 2527.24 1097.3 2571.12 1097.66 2608.33L1098.33 2676H1105.16H1112V2683.5V2691H1119.5H1127V2698.5V2706H1119.5H1112V2710.34C1112 2712.73 1112.29 2719.48 1112.65 2725.34L1113.3 2736H1120.04H1126.77L1127.5 2751L1128.23 2766H1134.98H1141.74L1142.47 2781L1143.19 2796H1150.09H1157V2804V2812H1164.47H1171.95L1172.22 2826.75L1172.5 2841.5L1179.65 2841.79L1186.8 2842.08L1187.52 2856.54L1188.24 2871H1202.5H1216.76L1217.48 2856.5L1218.21 2842H1225.06H1231.92L1232.21 2834.25L1232.5 2826.5L1239.66 2826.21L1246.81 2825.92L1247.54 2810.96L1248.26 2796H1255.65H1263.05L1262.78 2811.25L1262.5 2826.5L1255.25 2826.79L1248 2827.09L1247.99 2838.29C1247.99 2844.46 1247.7 2854.56 1247.34 2860.75L1246.69 2872H1239.97H1233.25L1232.51 2901.5L1231.77 2931H1224.89H1218L1217.99 3028.75C1217.99 3082.51 1217.81 3167 1217.58 3216.5C1217.36 3266 1217.14 3337.21 1217.09 3374.75L1217 3443H1210.17H1203.33L1202.67 3363.33C1202.3 3319.52 1202 3248.42 1202 3205.33V3127H1195H1188V3089.67C1188 3069.13 1187.7 3021.88 1187.34 2984.67L1186.67 2917H1179.99H1173.31L1172.66 2905.75C1172.3 2899.56 1172.01 2885.84 1172.01 2875.25L1172 2856H1165.09H1158.19L1157.47 2841L1156.74 2826H1149.98H1143.23L1142.5 2811L1141.77 2796H1134.39H1127V2788.5V2781H1120.15H1113.31L1112.66 2792.25C1112.3 2798.44 1112.01 2832.19 1112.01 2867.25L1112 2931H1105H1098V2961.5V2992H1105H1112L1112.01 3033.25C1112.01 3055.94 1112.3 3079.56 1112.66 3085.75L1113.31 3097H1120.15H1127V3111.84C1127 3120 1127.3 3136.87 1127.66 3149.34L1128.32 3172H1135.04H1141.75L1142.49 3202.5L1143.23 3233H1150.11H1157L1157 3247.25C1157 3255.09 1157.3 3271.96 1157.66 3284.75L1158.32 3308H1165.16H1172L1172 3334.25C1172 3348.69 1172.3 3375.69 1172.66 3394.25L1173.32 3428H1180.16H1187L1187.01 3439.25C1187.01 3445.44 1187.3 3455.56 1187.66 3461.75L1188.31 3473H1195.15H1202V3465.5V3458H1209.5H1217V3465.5V3473H1246.89H1276.77L1277.5 3458L1278.23 3443H1285.61H1293V3427.5V3412H1299.85H1306.7L1307.35 3401.34C1307.71 3395.48 1308 3385.58 1308 3379.34V3368H1314.85H1321.69L1322.34 3356.75C1322.7 3350.56 1322.99 3340.21 1322.99 3333.75L1323 3322H1329.85H1336.7L1337.35 3311.34C1337.71 3305.48 1338 3295.36 1338 3288.84V3277H1344.85H1351.7L1352.35 3266.34C1352.71 3260.48 1353 3246.98 1353 3236.34V3217H1360.5H1368V3180.04V3143.09L1375.25 3142.79L1382.5 3142.5V3052V2961.5L1375.27 2961.21L1368.03 2960.91L1367.77 2931.21L1367.5 2901.5L1360.25 2901.21L1353 2900.91V2870.96V2841H1345.5H1338L1337.99 2822.25C1337.99 2811.94 1337.7 2798.44 1337.34 2792.25L1336.69 2781H1329.85H1323V2762.16C1323 2751.79 1322.71 2738.52 1322.35 2732.66L1321.7 2722H1314.85H1308V2729V2736H1300.5H1293V2721V2706H1300H1307V2698.5V2691H1217.5H1128V2683.5V2676H1150.5H1173V2668.5V2661H1180H1187V2668.5V2676H1247.5H1308V2668.5V2661H1315.5H1323V2653.5V2646H1329.89H1336.77L1337.5 2631L1338.23 2616H1345.61H1353V2601V2586H1360.5H1368V2578V2570H1374.91H1381.81L1382.53 2555L1383.26 2540H1389.98H1396.7L1397.35 2529.34C1397.71 2523.48 1398 2513.58 1398 2507.34V2496H1405.5H1413V2473.5V2451H1420.5H1428V2428.5V2406H1435.5H1443V2368V2330H1435.5H1428V2292.5V2255H1435.5H1443V2277.5V2300H1450.5H1458V2255V2210H1465.5H1473V2127.54V2045.09L1465.75 2044.79L1458.5 2044.5L1458.24 1939.25L1457.99 1834H1450.49H1443V1735.89V1637.77L1428 1638.5L1413 1639.23V1631.61V1624H1420.5H1428V1616.5V1609H1435.5H1443V1556V1503H1435.5H1428V1488V1473H1420.5H1413V1450.5V1428H1405.5H1398V1420.5V1413H1405.5H1413V1368V1323H1420.5H1428V1300.5V1278H1420.5H1413V1270.5V1263H1420.5H1428V1255V1247H1435.5H1443V1232.5V1218H1450.5H1458V1203V1188H1465.5H1473V1165.5V1143H1480.5H1488V1123.66C1488 1113.02 1488.29 1099.52 1488.65 1093.66L1489.3 1083H1496.15H1503V1120.5V1158H1510.48H1517.96L1518.23 1180.25L1518.5 1202.5L1525.72 1202.79L1532.95 1203.09L1533.22 1217.79L1533.5 1232.5L1540.75 1232.79L1548 1233.09V1240.54V1248H1541.12H1534.24L1533.52 1262.51C1533.12 1270.5 1533.12 1284 1533.52 1292.51L1534.24 1308H1541.12H1548L1548.01 1326.75C1548.01 1337.06 1548.3 1350.56 1548.66 1356.75L1549.31 1368H1556.15H1563L1563.01 1379.25C1563.01 1385.44 1563.3 1395.56 1563.66 1401.75L1564.31 1413H1571H1577.69L1578.35 1425.16C1578.71 1431.84 1579 1441.97 1579 1447.66V1458H1586H1593V1468.84C1593 1474.81 1593.29 1485.16 1593.65 1491.84L1594.31 1504H1601.15H1608L1608.01 1522.25C1608.01 1532.29 1608.3 1545.56 1608.66 1551.75L1609.31 1563H1616.03H1622.76L1623.48 1578.5L1624.21 1594H1630.95H1637.69L1638.34 1605.25C1638.7 1611.44 1638.99 1621.32 1638.99 1627.21L1639 1637.91L1646.25 1638.21L1653.5 1638.5L1653.78 1653.21L1654.05 1667.91L1661.28 1668.21L1668.5 1668.5L1668.79 1676.25L1669.08 1684H1675.93H1682.77L1683.5 1699L1684.23 1714H1691H1697.77L1698.5 1729L1699.23 1744H1706.61H1714V1759V1774H1721.5H1729V1781.5V1789H1735.89H1742.77L1743.5 1804L1744.23 1819H1751.61H1759V1834V1849H1766.5H1774V1864V1879H1781.5H1789V1894V1909H1796.5H1804V1924V1939H1811.5H1819V1946.5V1954H1834H1849V1961.39V1968.77L1834.02 1969.5L1819.03 1970.22L1818.77 1999.86L1818.5 2029.5L1811.25 2029.79L1804 2030.09V2067.54V2105H1810.85H1817.7L1818.35 2115.66C1818.71 2121.52 1819 2141.77 1819 2160.66V2195H1811.5H1804V2240V2285H1826.5H1849V2262.5V2240H1856.5H1864V2225V2210H1871.5H1879V2270V2330H1886.5H1894V2345V2360H1916.5H1939V2337.5V2315H1946.5H1954V2326.84C1954 2333.36 1954.29 2343.48 1954.65 2349.34L1955.3 2360H1962.15H1969V2367.5V2375H1976.46H1983.91L1984.21 2367.75L1984.5 2360.5L1991.75 2360.21L1999 2359.91V2322.46V2285H1991.5H1984V2247.5V2210H1991.5H1999L1999.01 2228.75C1999.01 2239.06 1999.3 2252.56 1999.66 2258.75L2000.31 2270H2007.13H2013.95L2014.22 2285.25L2014.5 2300.5L2021.75 2300.79L2029 2301.09V2308.04V2315H2043.86H2058.73L2059.25 2305.25C2059.53 2299.89 2059.53 2286.39 2059.23 2275.25L2058.7 2255H2052H2045.31L2044.66 2243.75C2044.3 2237.56 2044.01 2224.06 2044.01 2213.75L2044 2195H2036.5H2029V2165V2135H2021.5H2014V2112.5V2090H2022H2030V2096.9V2103.79L2044.5 2104.52L2059 2105.24V2112.62V2120H2066.5H2074V2127.5V2135H2089.5H2105V2127.5V2120H2112H2119V2112.5V2105H2112H2105V2097.5V2090H2097.5H2090V2082.5V2075H2082.5H2075V2067.5V2060H2067.54H2060.08L2059.79 2052.25L2059.5 2044.5L2052.35 2044.21L2045.2 2043.92L2044.48 2029.46L2043.76 2015H2036.38H2029V2007.54V2000.09L2021.75 1999.79L2014.5 1999.5L2014.21 1992.29L2013.91 1985.09L2006.71 1984.79L1999.5 1984.5L1999.21 1976.75L1998.92 1969H1991.46H1984V1961.5V1954H1976.5H1969V1947.15V1940.3L1958.34 1939.65C1952.48 1939.29 1938.98 1939 1928.34 1939H1909V1932V1925H1916.5H1924V1909.5V1894H1916.5H1909V1879.5V1865H1901.5H1894V1857V1849H1886.5H1879V1834.5V1820H1886.5H1894V1804.5V1789H1886.5H1879V1759V1729H1871.5H1864V1699V1669H1856.5H1849V1631V1593H1841.5H1834V1551.66C1834 1528.92 1833.71 1505.52 1833.35 1499.66L1832.7 1489H1825.85H1819V1466V1443H1811.52H1804.04L1803.77 1420.75L1803.5 1398.5L1796.25 1398.21L1789 1397.91V1382.96V1368H1781.5H1774V1353V1338H1766.5H1759V1323V1308H1751.5H1744V1293V1278H1736.61H1729.23L1728.5 1263L1727.77 1248H1720.93H1714.08L1713.79 1240.25L1713.5 1232.5L1706.29 1232.21L1699.09 1231.91L1698.79 1224.71L1698.5 1217.5H1691H1683.5L1683.23 1240.25L1682.96 1263H1676.1H1669.24L1668.5 1203L1667.76 1143H1660.88H1654V1132.16C1654 1126.19 1653.71 1115.84 1653.35 1109.16L1652.69 1097H1645.96H1639.23L1638.5 1082L1637.77 1067H1631H1624.23L1623.5 1052L1622.77 1037H1615.34H1607.91L1608.21 1029.75L1608.5 1022.5L1615.71 1022.21L1622.91 1021.91L1623.21 1014.71L1623.5 1007.5L1630.63 1007.21L1637.76 1006.92L1638.5 961.959C1638.91 937.231 1638.91 896.75 1638.5 872L1637.76 827H1630.98H1624.21L1623.48 811.5L1622.76 796H1615.97H1609.19L1608.47 781L1607.74 766H1600.98H1594.21L1593.48 751.541L1592.76 737.083L1585.63 736.791L1578.5 736.5L1578.21 728.75L1577.92 721H1570.46H1563V713.5V706H1556.04H1549.09L1548.79 698.75L1548.5 691.5L1541.29 691.207L1534.09 690.914L1533.79 683.707L1533.5 676.5L1525.75 676.208L1518 675.916V668.458V661H1510.5H1503V654.113V647.226L1488 646.5L1473 645.774V638.387V631H1443H1413V623.5V616H1405.5H1398V609.16V602.319L1375.34 601.66C1362.88 601.297 1346 601 1337.84 601H1323V594.153V587.306L1311.75 586.657C1305.56 586.301 1292.06 586.007 1281.75 586.005L1263 586V579.105V572.211L1247.5 571.484L1232 570.758V563.983V557.208L1217.54 556.485L1203.08 555.762L1202.79 548.631L1202.5 541.5L1194.75 541.208L1187 540.916V533.458V526H1179.5H1172V518.5V511H1179.5H1187V503.5V496H1194.39H1201.77L1202.5 481L1203.23 466H1210H1216.77L1217.5 451L1218.23 436H1224.95H1231.68L1232.34 402.25C1232.7 383.688 1233 346.563 1233 319.75L1233 271H1239.84H1246.68L1247.34 237.25C1248.18 194.152 1248.18 147.736 1247.35 132.157L1246.69 120H1239.96H1233.23L1232.5 105L1231.77 90H1225H1218.23L1217.5 75L1216.77 60H1209.39H1202V52.5V45H1194.5H1187V37.5V30H1172H1157V22.5V15H1135H1113V7.5V0H1052.5H992V7.5ZM1112 22.5V30H1127.5H1143V37.5V45H1157.5H1172V52.5V60H1180H1188V67.456V74.912L1195.25 75.206L1202.5 75.5L1202.79 82.75L1203.09 90H1209.94H1216.79L1217.52 105.5L1218.24 121H1225H1231.76L1232.5 151C1232.91 167.5 1232.91 194.5 1232.5 211L1231.76 241H1224.88H1218V318.843C1218 361.657 1217.71 402.157 1217.35 408.843L1216.69 421H1209.85H1203L1202.99 432.25C1202.99 438.438 1202.7 448.563 1202.34 454.75L1201.69 466H1194.85H1188V473.5V481H1180.5H1173V488.5V496H1165.5H1158V503.5V511H1150.5H1143V518.5V526H1135H1127V533.5V541L1115.75 541.005C1109.56 541.007 1099.44 541.301 1093.25 541.657L1082 542.306V549.153V556H1059.5H1037V549.153V542.306L1025.75 541.657C1019.56 541.301 1009.44 541.007 1003.25 541.005L992 541V533.5V526H977H962V518.5V511H954.5H947V503.5V496H939.5H932V481V466H924.5H917V451V436H909.5H902L901.995 417.25C901.993 406.938 901.699 393.438 901.343 387.25L900.694 376H893.847H887V241.044V106.088L894.25 105.794L901.5 105.5L901.792 97.75L902.084 90H909.542H917V82.5V75H924H931V67.5V60H939H947V52.5V45H954.5H962V37.5V30H984.5H1007V22.5V15H1059.5H1112V22.5ZM962 564V571H977H992V578.5V586H1052.5H1113V579.095V572.191L1128 571.467L1143 570.744V563.872V557H1149.9H1156.79L1157.45 571.25C1157.82 579.087 1157.98 609.35 1157.81 638.5L1157.5 691.5L1149.75 691.792L1142 692.084V699.542V707H1127H1112V714.5V722H1089.5H1067V729V736H1059.5H1052V729V722H1029.5H1007V714.5V707H992H977V699.5V692H969.5H962V677V662H954.5H947V609.5V557H954.5H962V564ZM916.76 616.75L917.02 662H905.166C898.646 662 888.516 661.707 882.656 661.348L872 660.696V653.848V647L860.75 646.995C854.563 646.993 844.438 646.699 838.25 646.343L827 645.694V639V632.306L815.75 631.657C809.563 631.301 799.438 631.007 793.25 631.005L782 631V623.5V616H789.5H797V609.153V602.306L808.25 601.657C814.438 601.301 827.938 601.007 838.25 601.005L857 601V593.5V586H872H887V578.473V570.948L901.75 571.223L916.5 571.5L916.76 616.75ZM1218 578.5V586H1229.34C1235.58 586 1245.48 586.293 1251.34 586.652L1262 587.304V594.133V600.962L1284.75 601.231L1307.5 601.5L1307.79 608.631L1308.08 615.762L1322.54 616.485L1337 617.208V624.104V631L1318.75 631.005C1308.71 631.007 1295.44 631.301 1289.25 631.657L1278 632.306V639.048V645.789L1262.5 646.516L1247 647.242V653.962V660.681L1225.39 661.332C1213.5 661.689 1203.38 661.734 1202.89 661.432C1201.87 660.8 1201.65 572.685 1202.67 571.667C1203.03 571.3 1206.63 571 1210.67 571H1218V578.5ZM770.344 631.652L781 632.304V639.152V646H774H767V653.5V661H744.5H722V653.5V646H714H706V639.019V632.038L728.75 631.749C741.263 631.59 753.342 631.357 755.594 631.23C757.846 631.104 764.484 631.293 770.344 631.652ZM1398.16 632H1413V639V646H1398H1383V653.5V661H1368H1353V654V647H1345.5H1338V638.84V630.681L1360.66 631.34C1373.12 631.703 1390 632 1398.16 632ZM679.75 646.657L691 647.306V654.653V662H683.5H676V668.956V675.912L668.75 676.206L661.5 676.5L661.206 683.75L660.912 691H653.456H646V698.387V705.774L631 706.5L616 707.226V714.613V722H609.104H602.208L601.483 736.5L600.758 751H593.379H586V759V767H578.5H571V782V797H578.372H585.744L586.467 782L587.191 767H594.095H601V759.5V752H608.5H616V759.5V767H608.5H601V782V797H608.458H615.916L616.208 789.25L616.5 781.5L623.75 781.206L631 780.912V766.456V752H638.5H646V744.5V737H653.5H661V729.5V722H668.5H676V714.613V707.226L690.958 706.502L705.917 705.778L706.208 698.639L706.5 691.5L721.25 691.223L736 690.947V684.079V677.211L751.5 676.484L767 675.758V668.879V662H774H781V669V676H792.844C799.359 676 809.484 676.293 815.344 676.652L826 677.304V684.031V690.758L841.5 691.484L857 692.211V699.061V705.912L864.25 706.206L871.5 706.5V714V721.5L856.25 721.776L841 722.052V728.922V735.792L826.541 736.515L812.083 737.238L811.791 744.369L811.5 751.5L803.75 751.792L796 752.084V758.938V765.792L781.541 766.515L767.083 767.238L766.791 774.369L766.5 781.5L758.75 781.792L751 782.084V788.947V795.809L736 796.533L721 797.256V804.628V812H713.5H706V819.5V827H691.5H677V834.5V842H669H661V849.5V857H653.5H646V864.5V872H638.5H631V879.5V887H623.5H616V894.5V902H608.5H601V909.5V917H586H571V902V887H563.5H556V910.153V933.306L567.25 932.657C573.438 932.301 586.938 932.007 597.25 932.005L616 932V924.5V917H623.5H631V947V977H623.5H616V1015V1053H609.152H602.304L601.652 1063.66C601.293 1069.52 601 1086.39 601 1101.16V1128H593.5H586V1157.5V1187H578.5H571V1202.5V1218H563.5H556V1225.5V1233H548.5H541V1240.5V1248H533.5H526V1255.5V1263H518.5H511V1270.5V1278H503.5H496V1285.5V1293H488.5H481V1308V1323H488.5H496V1315.5V1308H503.5H511V1300.5V1293H518.5H526V1285.5V1278H533.5H541V1270.5V1263H548.5H556V1255.5V1248H563.5H571V1255.5V1263H563.5H556V1270.5V1278H548.5H541V1293V1308H548.5H556V1323V1338H548.5H541V1360.5V1383H533.5H526V1405.5V1428H518.5H511V1451V1474H503.5H496V1504V1534H488.5H481V1556.5V1579H473.5H466V1594V1609H458.5H451V1624V1639H443.5H436V1654V1669H428.5H421V1684V1699H413.613H406.226L405.5 1714L404.774 1729H398H391.226L390.5 1744L389.774 1759H382.887H376V1766.5V1774H368.613H361.226L360.5 1789L359.774 1804H353H346.226L345.5 1819L344.774 1834H338H331.226L330.5 1849L329.774 1864H323H316.226L315.502 1878.96L314.778 1893.92L307.639 1894.21L300.5 1894.5L300.208 1902.25L299.916 1910H293.062H286.208L285.483 1924.5L284.758 1939H277.379H270V1932.15V1925.31L258.75 1924.66C252.563 1924.3 242.438 1924.01 236.25 1924.01L225 1924V1917.04V1910.09L217.75 1909.79L210.5 1909.5L210.208 1901.75L209.916 1894H217.337H224.758L225.483 1879.5L226.208 1865H233.104H240V1857V1849H247.5H255V1834V1819H247.5H240V1826.5V1834H232.5H225V1826.5V1819H232.405H239.809L240.533 1804L241.256 1789H248.128H255V1804V1819H262.387H269.774L270.5 1804L271.226 1789H278.113H285V1781.5V1774H292.5H300V1759V1744H307.372H314.744L315.467 1729L316.191 1714H322.967H329.744L330.467 1699L331.191 1684H338.069H344.948L345.224 1668.75L345.5 1653.5L352.6 1653.21L359.699 1652.92L360.345 1641.71C360.7 1635.54 360.993 1625.66 360.995 1619.75L361 1609H367.895H374.789L375.516 1593.5L376.242 1578H382.968H389.694L390.343 1566.75C390.699 1560.56 390.993 1550.66 390.995 1544.75L391 1534H397.846H404.693L405.346 1521.84C405.706 1515.16 406 1505.05 406 1499.39V1489.09L413.25 1488.79L420.5 1488.5L420.776 1473.79L421.053 1459.09L428.276 1458.79L435.5 1458.5L435.792 1450.75L436.084 1443H442.938H449.792L450.515 1428.54L451.238 1414.08L458.369 1413.79L465.5 1413.5L465.792 1405.75L466.084 1398H473.542H481V1390.5V1383H488.5H496V1375.5V1368H503.5H511V1353V1338H503.5H496V1345.5V1353H488.5H481V1360.5V1368H473.613H466.226L465.5 1383L464.774 1398H457.887H451V1405.5V1413H443.5H436V1420.5V1428H428.5H421V1443V1458H413.5H406V1443V1428H412.847H419.694L420.343 1416.75C420.699 1410.56 420.993 1393.69 420.995 1379.25L421 1353H427.887H434.774L435.5 1368L436.226 1383H443.613H451V1375.5V1368H458.5H466V1353V1338H473.5H481V1330.5V1323H466H451V1285.5V1248H457.838H464.676L465.338 1213.34C465.702 1194.27 466 1167.27 466 1153.34V1128H473.5H481V1112.5V1097H487.905H494.809L495.533 1082L496.256 1067H503.628H511V1052V1037H518.5H526V1029.5V1022H533.5H541V1007V992H533.5H526V999.5V1007H518.5H511V999.5V992H518.5H526V984.5V977H533.5H541V932V887H533.5H526V924.5V962H518.5H511V970V978H503.5H496L495.995 966.25C495.993 959.788 495.699 949.438 495.343 943.25L494.694 932H487.847H481V917V902H487.847H494.694L495.343 890.75C495.699 884.563 495.993 867.688 495.995 853.25L496 827H503.5H511V804.5V782H518.5H526V774V766H533.5H541V751.5V737H548.5H556V729V721H563.5H571V713.5V706H578.5H586V698.5V691H593.5H601V684V677H608.5H616V669.613V662.226L631 661.5L646 660.774V653.929V647.084L653.75 646.743C658.013 646.556 663.075 646.314 665 646.206C666.925 646.098 673.563 646.301 679.75 646.657ZM1461.75 646.657L1473 647.306V654.111V660.916L1480.75 661.208L1488.5 661.5L1488.79 668.648L1489.08 675.796L1503.5 676.517L1517.92 677.238L1518.21 684.369L1518.5 691.5L1525.75 691.794L1533 692.088V699.544V707H1540.5H1548V714.5V722H1555.38H1562.76L1563.48 736.5L1564.21 751H1571.06H1577.92L1578.21 758.75L1578.5 766.5L1585.64 766.792L1592.78 767.083L1593.5 782.042L1594.23 797H1601.11H1608L1608.01 808.25C1608.01 814.438 1608.3 824.563 1608.66 830.75L1609.31 842H1615.99H1622.68L1623.34 864.662C1624.18 893.679 1624.19 966.108 1623.34 980.75L1622.69 992H1615.85H1609V984.5V977H1601.59H1594.19L1593.47 962L1592.74 947H1585.37H1578V894.544V842.088L1570.75 841.794L1563.5 841.5L1563.23 819.25L1562.96 797H1555.48H1548V789V781H1541.1H1534.21L1533.48 766.541L1532.76 752.083L1525.63 751.791L1518.5 751.5L1518.21 743.75L1517.92 736H1510.46H1503V728.5V721H1495.5H1488V714V707H1480.5H1473V699.544V692.088L1465.75 691.794L1458.5 691.5L1458.21 684.25L1457.91 677H1450.46H1443V669.5V662H1435.5H1428V654V646L1439.25 646.005C1445.44 646.007 1455.56 646.301 1461.75 646.657ZM827 654V661H804.5H782V654V647H804.5H827V654ZM1323 654V661H1307.5H1292V654V647H1307.5H1323V654ZM721 669V676H714H707V669V662H714H721V669ZM872 668.887V675.774L887 676.5L902 677.226V684.766V692.306L913.243 691.662C919.427 691.308 929.552 691.308 935.743 691.662L947 692.305V699.652V707H954.5H962V714.5V722H939.5H917V714.5V707H909.5H902V699.605V692.211L886.5 691.484L871 690.758V684.031V677.304L860.344 676.652C854.484 676.293 844.584 676 838.344 676H827V669V662H849.5H872V668.887ZM1278 668.872V675.744L1263 676.467L1248 677.191V683.974V690.758L1232.5 691.484L1217 692.211V699.061V705.912L1209.75 706.206L1202.5 706.5L1202.21 714.25L1201.92 722H1183.11C1172.77 722 1159.52 721.707 1153.66 721.348L1143 720.696V713.848V707H1157.46H1171.92L1172.21 699.25L1172.5 691.5H1187.5C1195.75 691.5 1205.76 691.388 1209.75 691.25L1217 691V684.121V677.242L1232.5 676.516L1248 675.789V668.895V662H1263H1278V668.872ZM1413 669V676H1405.5H1398V669V662H1405.5H1413V669ZM1371.75 676.657L1383 677.306V684.04V690.774L1398 691.5L1413 692.226V699.613V707H1420.5H1428V713.887V720.774L1442.88 721.494L1457.77 722.215L1458.49 736.608L1459.21 751H1466.06H1472.92L1473.21 758.75L1473.5 766.5L1480.75 766.794L1488 767.088V774.544V782H1495.46H1502.92L1503.21 774.25L1503.5 766.5L1510.75 766.206L1518 765.912V773.956V782H1525.5H1533V796.5V811H1526.1H1519.21L1518.48 796.5L1517.76 782H1510.38H1503V797V812H1510.5H1518V823.344C1518 829.584 1518.29 839.484 1518.65 845.344L1519.3 856H1526.15H1533L1533.01 875.25C1533.01 885.837 1533.3 899.563 1533.66 905.75L1534.31 917H1518.65H1503V924.474V931.948L1518.25 932.224L1533.5 932.5L1533.79 939.75L1534.09 947H1540.94H1547.8L1548.16 938.25C1548.36 933.438 1548.35 909.813 1548.15 885.75L1547.77 842H1540.39H1533V827V812H1540.5H1548V827V842H1555.5H1563V902V962H1570.5H1578V969.5V977H1570.5H1563V969.5V962H1548H1533V969.5V977H1540.5H1548V984.458V991.916L1555.75 992.208L1563.5 992.5L1563.79 999.707L1564.09 1006.91L1571.29 1007.21L1578.5 1007.5L1578.79 1014.75L1579.09 1022H1585.93H1592.77L1593.5 1037L1594.23 1052H1601.07H1607.92L1608.21 1059.75L1608.5 1067.5L1615.66 1067.79L1622.81 1068.08L1623.54 1083.04L1624.26 1098H1631.01H1637.77L1638.51 1127.5L1639.25 1157H1645.96H1652.68L1653.34 1179.66C1653.7 1192.12 1654 1229.47 1654 1262.66V1323H1646.5H1639V1315.5V1308H1631.5H1624V1300.5V1293H1616.5H1609V1285.5V1278H1601.5H1594V1270.5V1263H1586H1578V1270.5V1278H1585.5H1593V1285.5V1293H1600.5H1608V1300.5V1308H1615.5H1623V1315.5V1323H1630.39H1637.77L1638.5 1338L1639.23 1353H1646.07H1652.92L1653.21 1360.75L1653.5 1368.5L1661.25 1368.79L1669 1369.08V1376.04V1383H1683.35H1697.69L1698.34 1394.25C1698.7 1400.44 1698.99 1413.94 1698.99 1424.25L1699 1443H1706H1713V1451V1459H1706H1699V1451V1443H1691.62H1684.24L1683.52 1428.54L1682.8 1414.08L1675.65 1413.79L1668.5 1413.5L1668.21 1405.75L1667.92 1398H1660.96H1654V1390.5V1383H1646.5H1639V1375.5V1368H1631.61H1624.23L1623.5 1353L1622.77 1338H1615.39H1608V1330.5V1323H1600.5H1593V1315.5V1308H1585.5H1578L1578.01 1311.75C1578.01 1313.81 1578.3 1320.56 1578.66 1326.75L1579.31 1338H1586.65H1594V1345.5V1353H1601H1608V1360.5V1368H1615.5H1623V1375.5V1383H1630.46H1637.92L1638.21 1390.75L1638.5 1398.5L1645.65 1398.79L1652.8 1399.08L1653.52 1413.5L1654.24 1427.92L1661.37 1428.21L1668.5 1428.5L1668.79 1435.75L1669.09 1443H1675.93H1682.77L1683.5 1457.96L1684.22 1472.92L1691.36 1473.21L1698.5 1473.5L1698.78 1488.75L1699.05 1504H1705.87H1712.7L1713.35 1514.66C1713.71 1520.52 1714 1530.64 1714 1537.16V1549H1720.85H1727.7L1728.35 1559.66C1728.71 1565.52 1729 1575.42 1729 1581.66V1593H1736.5H1744V1608.5V1624H1751.5H1759V1639V1654H1765.85H1772.7L1773.35 1664.66C1773.71 1670.52 1774 1680.42 1774 1686.66V1698H1781.5H1789V1713V1728H1796.5H1804V1736V1744H1810.89H1817.77L1818.5 1759L1819.23 1774H1826.61H1834V1759V1744H1826.5H1819V1735.96V1727.91L1826.25 1728.21L1833.5 1728.5L1833.79 1736.25L1834.08 1744H1841.54H1849V1759V1774H1856.5H1864V1789V1804H1871.5H1879V1811.5V1819H1871.5H1864V1811.5V1804H1856.5H1849V1819V1834H1856.5H1864V1841.5V1849H1871.5H1879V1864V1879H1886.5H1894V1887V1895H1901.5H1909V1902V1909H1901.5H1894V1916.5V1924L1882.75 1924.01C1876.56 1924.01 1866.44 1924.3 1860.25 1924.66L1849 1925.31V1932.15V1939H1841.5H1834V1932V1925H1826.53H1819.05L1818.78 1909.75L1818.5 1894.5L1811.28 1894.21L1804.05 1893.91L1803.78 1879.21L1803.5 1864.5L1796.37 1864.21L1789.24 1863.92L1788.52 1849.46L1787.79 1835H1780.9H1774V1827V1819H1766.5H1759V1804V1789H1751.5H1744V1774V1759H1736.61H1729.23L1728.5 1744L1727.77 1729H1720.89H1714V1721.5V1714H1706.63H1699.26L1698.53 1699L1697.81 1684H1691.03H1684.26L1683.53 1669L1682.81 1654H1676.02H1669.23L1668.5 1639L1667.77 1624H1660.99H1654.21L1653.48 1608.5L1652.76 1593H1646.03H1639.3L1638.65 1582.34C1638.29 1576.48 1638 1566.58 1638 1560.34V1549H1631.15H1624.31L1623.66 1537.75C1623.3 1531.56 1623.01 1521.21 1623.01 1514.75L1623 1503H1616.15H1609.3L1608.65 1492.34C1608.29 1486.48 1608 1472.98 1608 1462.34V1443H1601.15H1594.3L1593.65 1432.34C1593.29 1426.48 1593 1416.36 1593 1409.84V1398H1586.15H1579.3L1578.65 1387.34C1578.29 1381.48 1578 1371.36 1578 1364.84V1353H1570.5H1563L1563.01 1341.75C1563.01 1335.56 1563.3 1325.44 1563.66 1319.25L1564.31 1308H1571.15H1578V1300.5V1293H1570.5H1563V1285.54V1278.09L1555.75 1277.79L1548.5 1277.5L1548.22 1262.75L1547.95 1248H1555.47H1563V1255.5V1263H1570.5H1578V1255.54V1248.09L1570.75 1247.79L1563.5 1247.5L1563.22 1232.75L1562.95 1218H1555.47H1548V1203V1188H1540.5H1533V1165.5V1143H1525.5H1518V1112.5V1082H1510.5H1503V1029.5V977H1510.5H1518V969.5V962H1525.5H1533V954.5V947H1518H1503V954.5V962H1495.5H1488V939.5V917H1480.5H1473V939.5V962H1465.5H1458V977V992H1450.5H1443V1007V1022H1435.5H1428V1030V1038H1420.5H1413V1052.5V1067H1405.5H1398V1075V1083H1390.5H1383V1097.5V1112H1375.5H1368V1119.5V1127H1360.5H1353V1135V1143H1356.84C1358.96 1143 1365.44 1142.71 1371.25 1142.35L1381.81 1141.71L1382.52 1127.35L1383.24 1113H1390.62H1398V1105V1097H1405.5H1413V1082.5V1068H1420.5H1428V1060V1052H1435.5H1443V1037.5V1023H1450.5H1458V1015V1007H1466H1474V1014.5V1022H1481H1488V1052V1082H1481.15H1474.3L1473.65 1071.34C1473.29 1065.48 1473 1055.34 1473 1048.8V1036.91L1465.75 1037.21L1458.5 1037.5L1458.22 1052.25L1457.95 1067H1450.47H1443V1075V1083H1435.5H1428V1097.5V1112H1420.5H1413V1119.5V1127H1405.54H1398.08L1397.79 1134.75L1397.5 1142.5L1390.25 1142.79L1383 1143.09V1150.54V1158H1375.5H1368V1165.5V1173L1364.25 1172.99C1362.19 1172.99 1355.44 1172.7 1349.25 1172.34L1338 1171.69V1164.85V1158H1345.5H1353V1150.5V1143H1338H1323V1150.5V1158H1285.5H1248V1164.85V1171.69L1236.75 1172.34C1230.56 1172.7 1199.96 1172.99 1168.75 1172.99L1112 1173V1165.5V1158H1104.5H1097V1060V962H1090.15H1083.31L1082.75 922.004C1082.44 900.006 1082.44 873.006 1082.74 862.004L1083.3 842H1090.15H1097V812V782H1104.46H1111.92L1112.21 774.25L1112.5 766.5L1119.71 766.207L1126.91 765.914L1127.21 758.707L1127.5 751.5L1135.25 751.208L1143 750.916V743.958V737H1172.5H1202V743.887V750.774L1216.96 751.498L1231.92 752.222L1232.21 759.361L1232.5 766.5L1247.75 766.776L1263 767.052V759.639V752.226L1248 751.5L1233 750.774V744.015V737.256L1218 736.533L1203 735.809V728.905V722H1225H1247V729.5V737H1262H1277V744.5V752H1285H1293V759.5V767H1308H1323V759.542V752.084L1315.25 751.792L1307.5 751.5L1307.21 744.25L1306.91 737H1292.46H1278V729.526V722.052L1262.75 721.776L1247.5 721.5L1247.84 707C1248.02 699.025 1248.29 692.381 1248.44 692.235C1248.58 692.089 1258.66 691.68 1270.85 691.325L1293 690.681V683.883V677.084L1300.75 676.743C1315.96 676.074 1360.69 676.02 1371.75 676.657ZM646 729V736H639H632V729V722H639H646V729ZM916 728.848V735.696L905.344 736.348C899.484 736.707 889.584 737 883.344 737H872V744.5V752H857H842V759.5V767H834H826V773.905V780.809L811 781.533L796 782.256V789.628V797H781.5H767V804.5V812H759.5H752V804.5V797H759.5H767V789.527V782.053L781.75 781.777L796.5 781.5L796.794 774.25L797.088 767H804.544H812V759.527V752.053L826.75 751.777L841.5 751.5L841.794 744.25L842.088 737H857.044H872V729.5V722H894H916V728.848ZM992 729V736H984.5H977V729V722H984.5H992V729ZM1488 729V736H1480.5H1473V729V722H1480.5H1488V729ZM631 744V751H623.5H616V744V737H623.5H631V744ZM977 744.5V752H984.5H992V759.5V767H999.5H1007V781.5V796H1014.5H1022V976.5V1157H1014.5H1007V1165V1173H939.5H872V1165.5V1158H837.656C818.766 1158 798.516 1157.71 792.656 1157.35L782 1156.7V1149.85V1143H774H766V1135.54V1128.09L758.75 1127.79L751.5 1127.5L751.207 1120.29L750.914 1113.09L743.707 1112.79L736.5 1112.5L736.208 1104.75L735.916 1097H728.458H721V1082.5V1068H713.5H706V1060V1052H699.104H692.208L691.485 1037.54L690.762 1023.08L683.631 1022.79L676.5 1022.5L676.208 1014.75L675.916 1007H668.458H661V1022V1037H668.458H675.916L676.208 1044.75L676.5 1052.5L683.631 1052.79L690.762 1053.08L691.485 1067.54L692.208 1082H699.062H705.916L706.208 1089.75L706.5 1097.5L713.631 1097.79L720.762 1098.08L721.485 1112.54L722.208 1127H729.062H735.916L736.208 1134.75L736.5 1142.5L744.25 1142.79L752 1143.08V1150.54V1158H766.5H781V1165V1172H766H751V1240V1308H736.5H722V1300.5V1293H714H706V1285.5V1278H721.5H737L736.995 1221.75C736.993 1190.81 736.7 1160.46 736.345 1154.29L735.699 1143.08L728.6 1142.79L721.5 1142.5L721.207 1135.29L720.914 1128.09L713.707 1127.79L706.5 1127.5L706.208 1119.75L705.916 1112H698.458H691V1104.5V1097H683.5H676V1082.54V1068.09L668.75 1067.79L661.5 1067.5L661.223 1052.75L660.947 1038H653.473H646V1045V1052H638.5H631V1025.66C631 1011.17 631.293 994.516 631.652 988.656L632.304 978H639.152H646V992.5V1007H653.5H661V992V977H653.5H646V947V917H653.5H661V909.5V902H668.5H676V894.5V887H683.5H691V879.5V872H683.5H676V864.5V857H683.5H691V864.5V872H699H707V864.5V857H721.5H736V849.5V842H744H752V834.5V827H766.5H781V819.5V812H789H797V804.527V797.053L811.75 796.777L826.5 796.5L826.791 789.369L827.083 782.238L841.541 781.515L856 780.792V774.024V767.256L871 766.533L886 765.809V759.026V752.242L901.5 751.516L917 750.789V743.895V737H947H977V744.5ZM1503 744.544V752.088L1495.75 751.794L1488.5 751.5L1488.21 744.25L1487.91 737H1495.46H1503V744.544ZM1263 774.5V782H1278H1293V789.5V797H1300.5H1308V803.905V810.809L1323 811.533L1338 812.256V819.628V827H1345.5H1353V834.5V842H1368H1383V849.5V857H1390.5H1398V864.5V872H1413H1428V879.5V887H1435.5H1443V894.5V902H1450.5H1458V909.5V917H1465.5H1473V909.5V902H1480.5H1488V909.5V917H1495.5H1503V909.5V902H1496.11H1489.23L1488.5 887L1487.77 872H1480.39H1473V864.5V857H1458H1443V849.5V842H1435.5H1428V834.5V827H1420.5H1413V819.5V812H1405H1397V804.5V797H1382.5H1368V789.5V782H1360.5H1353V774.5V767H1338H1323V774.5V782H1308H1293V774.5V767H1278H1263V774.5ZM1338 789.5V797H1353H1368V804.5V812H1375.5H1383V819.5V827H1390.5H1398V834.5V842H1390.5H1383V834.5V827H1375.5H1368V819.5V812H1353H1338V804.5V797H1330.5H1323V789.5V782H1330.5H1338V789.5ZM556 812V827H548.5H541V857V887H548.5H556V857V827H563.5H571V857V887H578.5H586V864V841H593.5H601V819V797H593.5H586V812V827H578.5H571V812V797H563.5H556V812ZM751 819.5V827H743.5H736V819.5V812H743.5H751V819.5ZM721.794 834.25L721.5 841.5L714.25 841.794L707 842.088V834.544V827H714.544H722.088L721.794 834.25ZM706 849.544V857.088L698.75 856.794L691.5 856.5L691.206 849.25L690.912 842H698.456H706V849.544ZM1428 849.5V857H1435.5H1443V864.5V872H1450.5H1458V879.5V887H1450.5H1443V879.5V872H1435.5H1428V864.5V857H1420.5H1413V849.5V842H1420.5H1428V849.5ZM1473 894.5V902H1466H1459V894.5V887H1466H1473V894.5ZM586 954.5V962H571H556V969.5V977H548.5H541V984.5V992H548.5H556V985.113V978.226L571 977.5L586 976.774V969.387V962H593.5H601V969.5V977H608.5H616V962V947H601H586V954.5ZM1488 984.5V992H1480.5H1473V984.5V977H1480.5H1488V984.5ZM1593 984.5V992H1586H1579V984.5V977H1586H1593V984.5ZM1608 1007.5V1022H1601H1594V1007.5V993H1601H1608V1007.5ZM661.208 1089.75L661.5 1097.5L668.75 1097.79L676 1098.09V1105.54V1113H683.379H690.758L691.481 1127.46L692.204 1141.92L699.352 1142.21L706.5 1142.5L706.793 1149.71L707.086 1156.91L714.293 1157.21L721.5 1157.5V1202.5V1247.5L713.75 1247.79L706 1248.08V1240.54V1233H698.5H691V1225.5V1218H683.5H676V1203V1188H668.5H661V1172.5V1157H654.152H647.304L646.652 1146.34C645.798 1132.38 645.809 1083.52 646.667 1082.67C647.033 1082.3 650.389 1082 654.125 1082H660.916L661.208 1089.75ZM1473 1098V1113H1466.16H1459.32L1458.66 1134.75C1458.3 1146.71 1458 1163.36 1458 1171.75L1458 1187H1450.5H1443V1202V1217H1435.5H1428V1225V1233H1420.5H1413V1240.5V1248H1405.65H1398.31L1397.65 1235.84C1397.29 1229.16 1397 1219.03 1397 1213.34V1203H1390H1383V1187.5V1172H1389.9H1396.79L1397.52 1157.5L1398.24 1143H1405.62H1413V1135.5V1128H1420.5H1428V1120.5V1113H1435.5H1443V1105V1097H1450.5H1458V1090V1083H1465.5H1473V1098ZM842 1179.85V1186.69L853.25 1187.34C859.438 1187.7 883.063 1187.99 905.75 1187.99L947 1188V1194.89V1201.79L930.25 1202.53C921.038 1202.94 905.212 1203.02 895.081 1202.7C884.951 1202.39 872.013 1202.39 866.331 1202.72L856 1203.3V1210.15V1217H849H842V1202V1187H819.5H797V1180V1173H819.5H842V1179.85ZM1308 1180V1187H1292.5H1277V1194.46V1201.91L1269.75 1202.21L1262.5 1202.5L1262.24 1247.75L1261.98 1293H1254.99H1248V1247.48V1201.95L1226.25 1202.62C1214.29 1202.98 1197.41 1202.95 1188.75 1202.54L1173 1201.79V1194.9V1188L1206.75 1187.99C1225.31 1187.99 1245.56 1187.7 1251.75 1187.34L1263 1186.69V1179.85V1173H1285.5H1308V1180ZM796.206 1195.25L796.5 1202.5L811.75 1202.78L827 1203.05V1217.53V1232H833.847H840.694L841.343 1243.25C841.699 1249.44 841.993 1354.51 841.995 1476.75L842 1699H826.5H811V1691.53V1684.05L796.25 1683.78L781.5 1683.5L781.209 1676.37L780.917 1669.24L766.459 1668.52L752 1667.79V1660.94V1654.08L744.25 1653.79L736.5 1653.5L736.206 1646.25L735.912 1639H728.456H721V1631.54V1624.09L713.75 1623.79L706.5 1623.5L706.208 1615.75L705.916 1608H699.062H692.208L691.544 1593.75C691.178 1585.91 691.019 1562.4 691.19 1541.5L691.5 1503.5L698.75 1503.21L706 1502.91V1491.61C706 1485.4 706.293 1475.52 706.652 1469.66L707.304 1459H714.152H721V1398.5V1338H713.5H706L706.005 1334.25C706.007 1332.19 706.301 1325.44 706.657 1319.25L707.306 1308H714.153H721V1315.5V1323H743.5H766V1266.16C766 1234.89 766.293 1204.52 766.652 1198.66L767.304 1188H781.608H795.912L796.206 1195.25ZM1353 1255.5V1323H1368H1383V1315.5V1308H1375.5H1368V1270.5V1233H1375.5H1383V1255.5V1278H1398H1413V1285.5V1293H1398H1383V1300.5V1308H1389.85H1396.69L1397.34 1319.25C1397.7 1325.44 1397.99 1345.69 1397.99 1364.25L1398 1398H1390.5H1383V1420.5V1443H1390.5H1398V1458.5V1474H1405.5H1413V1496V1518H1420.5H1428V1556V1594H1420.5H1413V1608.5V1623H1405.5H1398V1630.46V1637.92L1390.25 1638.21L1382.5 1638.5L1382.21 1645.65L1381.92 1652.8L1367.46 1653.52L1353 1654.24V1661.62V1669H1345.54H1338.09L1337.79 1676.25L1337.5 1683.5L1322.75 1683.78L1308 1684.05V1691.53V1699H1285.5H1263V1691.5V1684H1270H1277V1594V1504H1270H1263V1413.5V1323H1270H1277L1277 1296.75C1277 1282.31 1277.3 1255.31 1277.66 1236.75L1278.32 1203L1289.41 1202.99C1295.51 1202.99 1305.56 1202.7 1311.75 1202.34L1323 1201.69V1194.85V1188H1338H1353V1255.5ZM1232.81 1240C1232.99 1252.38 1232.83 1269.36 1232.46 1277.75L1231.79 1293H1213.05C1202.74 1293 1189.52 1292.71 1183.66 1292.35L1173 1291.7V1284.85V1278H1127.5H1082V1248.01V1218.01L1150.25 1217.73C1187.79 1217.57 1221.65 1217.46 1225.5 1217.47L1232.5 1217.5L1232.81 1240ZM1022 1248V1278H977H932V1285.5V1293H909.619H887.238L886.5 1263L885.762 1233H878.881H872V1225.5V1218H947H1022V1248ZM421 1300.5V1338H413.5H406V1375.5V1413H398.5H391V1435.5V1458H383.5H376V1469.84C376 1476.36 375.707 1486.48 375.348 1492.34L374.696 1503H367.848H361V1518V1533H353.526H346.052L345.776 1548.25L345.5 1563.5L338.25 1563.79L331 1564.09V1575.39C331 1581.6 330.707 1591.48 330.348 1597.34L329.696 1608H322.969H316.242L315.516 1623.5L314.789 1639H308.008H301.226L300.5 1654L299.774 1669H293H286.226L285.5 1684L284.774 1699H277.387H270L270.005 1687.75C270.007 1681.56 270.301 1671.44 270.657 1665.25L271.306 1654H278.153H285L285.005 1620.25C285.007 1601.69 285.301 1581.44 285.657 1575.25L286.306 1564H293.141H299.976L300.238 1526.25L300.5 1488.5L307.75 1488.21L315 1487.91L315.005 1476.71C315.007 1470.54 315.301 1460.44 315.657 1454.25L316.306 1443H323.153H330L330.005 1431.75C330.007 1425.56 330.301 1415.44 330.657 1409.25L331.306 1398H338.04H344.774L345.5 1383L346.226 1368H353H359.774L360.5 1353L361.226 1338H368H374.774L375.5 1323L376.226 1308H383H389.774L390.498 1293.04L391.222 1278.08L398.361 1277.79L405.5 1277.5L405.794 1270.25L406.088 1263H413.544H421V1300.5ZM1714 1270.5V1278H1720.89H1727.77L1728.5 1293L1729.23 1308H1736H1742.77L1743.5 1323L1744.23 1338H1751.01H1757.79L1758.52 1353.5L1759.24 1369H1765.97H1772.7L1773.35 1379.66C1773.71 1385.52 1774 1395.42 1774 1401.66V1413H1781.5H1789V1435.5V1458H1796.5H1804V1481V1504H1811.5H1819V1549V1594H1825.85H1832.7L1833.35 1604.66C1833.71 1610.52 1834 1630.54 1834 1649.16V1683H1841.5H1849V1698.5V1714H1841.5H1834V1699V1684H1826.5H1819V1669V1654H1811.5H1804V1669V1684H1796.5H1789V1669V1654H1796.5H1804V1638.5V1623H1796.5H1789V1601V1579H1781.53H1774.05L1773.78 1563.75L1773.5 1548.5L1766.25 1548.21L1759 1547.91V1536.61C1759 1530.4 1758.71 1520.52 1758.35 1514.66L1757.7 1504H1750.87H1744.05L1743.78 1488.75L1743.5 1473.5L1736.25 1473.21L1729 1472.91L1728.99 1461.71C1728.99 1455.54 1728.7 1445.44 1728.34 1439.25L1727.69 1428H1720.97H1714.25L1713.51 1398.5L1712.77 1369H1706.05H1699.32L1698.72 1326.5C1698.38 1303.12 1698.38 1279.27 1698.71 1273.5L1699.3 1263H1706.65H1714V1270.5ZM1022 1300.5V1308H992H962V1300.5V1293H992H1022V1300.5ZM1143 1300.5V1308H1120H1097V1300.5V1293H1120H1143V1300.5ZM526 1315.5V1323H518.5H511V1330.5V1338H518.5H526V1330.5V1323H533.5H541V1315.5V1308H533.5H526V1315.5ZM1248 1323V1338H1240.65H1233.31L1232.66 1326.75C1232.3 1320.56 1232.01 1313.81 1232.01 1311.75L1232 1308H1240H1248V1323ZM1022 1360.5V1398H980.156C957.141 1398 933.516 1398.29 927.656 1398.65L917 1399.3V1406.15V1413H902H887V1375.5V1338H902H917V1330.5V1323H969.5H1022V1360.5ZM1202 1330.5V1338H1210H1218V1375.5V1413H1210H1202V1406.15V1399.3L1191.34 1398.65C1185.48 1398.29 1158.48 1398 1131.34 1398H1082L1082.01 1371.75C1082.01 1357.31 1082.3 1340.44 1082.66 1334.25L1083.31 1323H1142.65H1202V1330.5ZM1683 1353V1368H1676H1669V1353V1338H1676H1683V1353ZM1247.5 1428.08C1247.98 1437.26 1247.88 1442.52 1247.22 1443.18C1246.56 1443.84 1241.28 1443.94 1232.1 1443.47L1218 1442.74V1435.92V1429.09L1225.25 1428.79L1232.5 1428.5L1232.79 1421.25L1233.09 1414H1239.93H1246.78L1247.5 1428.08ZM1022 1480.86V1518.73L967.75 1518.89C937.913 1518.99 907.538 1518.76 900.25 1518.4L887 1517.73V1487.86V1458H894.5H902V1450.5V1443H962H1022V1480.86ZM1203 1450.5V1458H1210.5H1218V1480.5V1503H1225H1232V1510.38V1517.76L1217.75 1518.37C1201.31 1519.07 1084.39 1518.75 1083.72 1518C1083.47 1517.72 1082.96 1500.98 1082.58 1480.79L1081.89 1444.09L1089.7 1443.74C1093.99 1443.56 1121.24 1443.31 1150.25 1443.2L1203 1443V1450.5ZM1743 1526.5V1534H1736H1729V1526.5V1519H1736H1743V1526.5ZM375 1556V1564H368H361V1556V1548H368H375V1556ZM871.509 1563.66C871.105 1572.27 871.107 1599.49 871.514 1624.16L872.253 1669H878.974H885.696L886.348 1679.66C886.707 1685.52 887 1695.64 887 1702.16V1714H893.887H900.774L901.5 1729L902.226 1744H909.613H917V1759V1774H924.5H932V1789V1804H939.5H947V1819V1834H954.5H962V1841.5V1849H969.5H977V1856.48V1863.96L999.75 1864.23L1022.5 1864.5L1022.79 1871.75L1023.09 1879H1029.96H1036.84L1037.17 1812.75C1037.35 1776.31 1037.35 1701.84 1037.17 1647.25L1036.83 1548H954.538H872.242L871.509 1563.66ZM1758 1564V1579H1751H1744V1564V1549H1751H1758V1564ZM1022 1706V1849H1007H992V1842V1835H984.5H977V1827.5V1820H969.5H962V1804.5V1789H954.5H947V1781.5V1774H939.5H932V1759V1744H924.5H917V1729V1714H909.5H902V1702.16C902 1695.64 901.707 1685.52 901.348 1679.66L900.696 1669H893.848H887V1616V1563H954.5H1022V1706ZM1221.21 1563.64L1231.72 1564.29L1232.41 1576.71C1232.79 1583.54 1232.79 1600.35 1232.4 1614.07L1231.69 1639H1224.85H1218L1217.99 1657.75C1217.99 1668.06 1217.7 1681.56 1217.34 1687.75L1216.69 1699H1209.96H1203.23L1202.5 1714L1201.77 1729H1195H1188.23L1187.5 1744L1186.77 1759H1179.39H1172V1774V1789H1164.5H1157V1803.96V1818.91L1149.75 1819.21L1142.5 1819.5L1142.21 1826.71L1141.91 1833.91L1134.71 1834.21L1127.5 1834.5L1127.21 1841.75L1126.91 1849H1104.46H1082L1082 1759.25C1082 1709.89 1082.3 1659.04 1082.66 1646.25L1083.32 1623H1090.16H1097V1593.67C1097 1577.53 1097.3 1564.03 1097.67 1563.67C1098.52 1562.81 1207.28 1562.79 1221.21 1563.64ZM360 1593.5V1608H353H346V1593.5V1579H353H360V1593.5ZM1774 1597.84C1774 1599.96 1773.71 1606.48 1773.35 1612.34L1772.7 1623H1765.85H1759V1608.5V1594H1766.5H1774V1597.84ZM345 1624V1639H338H331V1624V1609H338H345V1624ZM1788.78 1638.75L1788.5 1653.5L1781.25 1653.79L1774 1654.09V1639.04V1624H1781.53H1789.05L1788.78 1638.75ZM1413 1646.5V1654H1405.5H1398V1661.5V1669H1390.5H1383V1661.5V1654H1390.5H1398V1646.5V1639H1405.5H1413V1646.5ZM330 1661V1669H323H316V1661V1653H323H330V1661ZM736 1661.54V1669.09L728.75 1668.79L721.5 1668.5L721.206 1661.25L720.912 1654H728.456H736V1661.54ZM1428 1773.5V1879H1435.5H1443V1969.5V2060H1450.5H1458V2127.5V2195H1450.5H1443V2187V2179H1435.5H1428V2141.5V2104H1420.5H1413V2067V2030H1405.52H1398.03L1397.77 1999.75L1397.5 1969.5L1390.25 1969.21L1383 1968.91V1938.96V1909H1375.5H1368V1879V1849H1360.5H1353V1860.84C1353 1867.36 1352.71 1877.48 1352.35 1883.34L1351.7 1894H1344.85H1338V1905.84C1338 1912.36 1337.71 1922.48 1337.35 1928.34L1336.7 1939H1329.85H1323V1954.5V1970H1315.5H1308V1981.34C1308 1987.58 1307.71 1997.48 1307.35 2003.34L1306.7 2014H1299.98H1293.26L1292.53 2029L1291.81 2044H1284.91H1278V2052V2060H1270.53H1263.05L1262.78 2074.75L1262.5 2089.5L1255.25 2089.79L1248 2090.09V2097.54V2105H1240.61H1233.23L1232.5 2120L1231.77 2135H1224.39H1217V2142.5V2150H1210H1203V2157.5V2165H1195.61H1188.23L1187.5 2180L1186.77 2195H1179.39H1172V2202.5V2210H1165H1158L1157.99 2213.75C1157.99 2215.81 1157.7 2222.56 1157.34 2228.75L1156.69 2240H1164.35H1172V2232.5V2225H1179.39H1186.77L1187.5 2210L1188.23 2195H1195.11H1202V2187.5V2180H1209.5H1217V2202.5V2225H1210.11H1203.23L1202.47 2240.25C1202.05 2248.64 1201.89 2306.12 1202.1 2368C1202.32 2429.88 1202.38 2507.61 1202.25 2540.75L1202 2601H1195H1188.01L1187.75 2420.75L1187.5 2240.5L1180.36 2240.21L1173.23 2239.92L1172.5 2254.96L1171.77 2270H1165H1158.23L1157.5 2284.96L1156.78 2299.92L1149.64 2300.21L1142.5 2300.5L1142.22 2315.75L1141.95 2331H1134.47H1127V2353V2375H1120.15H1113.3L1112.64 2364.11C1112.28 2358.13 1112.28 2348 1112.64 2341.61L1113.31 2330H1120.13H1126.95L1127.22 2315.25L1127.5 2300.5L1134.75 2300.21L1142 2299.91V2284.96V2270H1134.5H1127V2285V2300H1120.15H1113.3L1112.65 2289.34C1112.29 2283.48 1112 2273.36 1112 2266.84V2255H1119.5H1127V2232.5V2210H1134.5H1142L1142.01 2198.75C1142.01 2192.56 1142.3 2182.44 1142.66 2176.25L1143.31 2165H1150.04H1156.77L1157.5 2150L1158.23 2135H1164.98H1171.74L1172.47 2120L1173.19 2105H1179.98H1186.77L1187.5 2090L1188.23 2075H1194.99H1201.76L1202.48 2059.5L1203.21 2044H1210.1H1217L1217.01 2033.25C1217.01 2027.34 1217.3 2017.44 1217.66 2011.25L1218.31 2000H1225.03H1231.76L1232.48 1984.5L1233.21 1969H1239.95H1246.69L1247.34 1957.75C1247.7 1951.56 1247.99 1941.66 1247.99 1935.75L1248 1925H1254.9H1261.79L1262.52 1909.5L1263.24 1894H1269.97H1276.69L1277.34 1882.75C1277.7 1876.56 1277.99 1866.44 1277.99 1860.25L1278 1849H1285.5H1293V1834V1819H1300.5H1308V1804V1789H1315.5H1323V1774V1759H1330.5H1338V1751.5V1744H1345.5H1353V1736.5V1729H1360.5H1368V1721V1713H1374.96H1381.91L1382.21 1705.75L1382.5 1698.5L1389.71 1698.21L1396.91 1697.91L1397.21 1690.71L1397.5 1683.5L1405.25 1683.21L1413 1682.92V1675.46V1668H1420.5H1428V1773.5ZM706.206 1676.25L706.5 1683.5L713.707 1683.79L720.914 1684.09L721.207 1691.29L721.5 1698.5L728.75 1698.79L736 1699.09V1706.54V1714H743.456H750.912L751.206 1721.25L751.5 1728.5L758.75 1728.79L766 1729.09V1736.54V1744H773.387H780.774L781.5 1759L782.226 1774H789.613H797V1789V1804H804.5H812V1819V1834H819.5H827V1849V1864H834.5H842V1886.5V1909H849.5H857V1924.5V1940H864.5H872V1962V1984H879.5H887V1999.5V2015H894.5H902V2030V2045H908.848H915.696L916.348 2055.66C916.707 2061.52 917 2071.42 917 2077.66V2089H924.5H932V2104.5V2120H939.5H947V2135V2150H954.5H962V2165V2180H969.5H977V2202.5V2225H984.5H992V2247.5V2270H999.5H1007V2285V2300H999.5H992V2285V2270H984.5H977V2255V2240H969.5H962V2232.5V2225H954.5H947V2240V2255H954.5H962V2270V2285H969.5H977V2300V2315H984.5H992V2330V2345H999.5H1007V2360.5V2376H999.5H992V2360.5V2345H984.5H977V2330V2315H969.5H962V2330.5V2346H969.5H977V2368V2390H984.5H992V2412.5V2435H999.5H1007V2488V2541H999.5H992V2601V2661H969.5H947L946.995 2626.75C946.993 2607.91 946.699 2587.44 946.343 2581.25L945.694 2570H938.847H932V2495.5V2421H938.98H945.96L946.23 2375.5L946.5 2330L939.25 2330H932V2322.44V2314.87L939.25 2315.01C943.237 2315.08 949.987 2315.11 954.25 2315.07L962 2315V2300V2285H954.5H947V2270V2255H939.5H932V2247.5V2240H924.5H917V2255.5V2271H909.5H902V2225.5V2180H909.5H917V2165V2150H909.5H902V2142.5V2135H894.5H887V2127.5V2120H879.613H872.226L871.5 2105L870.774 2090H863.887H857V2082.5V2075H849.613H842.226L841.5 2060L840.774 2045H834H827.226L826.5 2030L825.774 2015H819.015H812.256L811.533 2000L810.809 1985H804.026H797.242L796.516 1969.5L795.789 1954H788.895H782V1943.66C782 1937.97 781.706 1927.84 781.346 1921.16L780.693 1909H773.965H767.238L766.5 1879L765.762 1849H758.994H752.226L751.5 1864L750.774 1879H744.002H737.23L736.492 1909.5L735.754 1940H729.037H722.319L721.66 1962.66C721.297 1975.12 721 1991.77 721 1999.66V2014H714.154H707.307L706.654 2026.16C706.294 2032.84 706 2046.57 706 2056.66V2075H699.16H692.319L691.66 2097.66C691.297 2110.13 691 2127 691 2135.16V2150H684.153H677.306L676.657 2161.25C676.301 2167.44 676.007 2177.56 676.005 2183.75L676 2195H668.5H661V2115.66C661 2072.02 661.293 2031.52 661.652 2025.66L662.304 2015H669.152H676L676.25 1879.25C676.388 1804.59 676.465 1726.74 676.423 1706.25L676.345 1669H691.129H705.912L706.206 1676.25ZM315 1691.5V1699H308H301V1691.5V1684H308H315V1691.5ZM1818.79 1706.25L1819.08 1714H1811.54H1804V1705.96V1697.91L1811.25 1698.21L1818.5 1698.5L1818.79 1706.25ZM300 1721.5V1729H293H286V1721.5V1714H293H300V1721.5ZM285 1751.5V1759H278H271V1751.5V1744H278H285V1751.5ZM270 1774V1789H263H256V1774V1759H263H270V1774ZM1834 1789V1804H1841.5H1849V1789V1774H1841.5H1834V1789ZM841.5 1804L842.226 1819H848.992H855.758L856.48 1833.43C856.877 1841.37 856.904 1848.35 856.542 1848.93C856.177 1849.52 852.781 1850 848.941 1850H842V1834.5V1819H834.5H827V1804V1789H833.887H840.774L841.5 1804ZM1277 1827V1849H1270H1263V1864V1879H1255.5H1248V1864V1849H1255.5H1263V1827V1805H1270H1277V1827ZM1247 1834.5V1849H1240.11H1233.23L1232.5 1864L1231.77 1879H1225.02H1218.26L1217.53 1894L1216.81 1909H1210.03H1203.24L1202.52 1924.5L1201.79 1940H1194.9H1188L1187.99 1950.75C1187.99 1956.66 1187.7 1966.56 1187.34 1972.75L1186.69 1984H1179.96H1173.23L1172.5 1999L1171.77 2014H1164.99H1158.21L1157.48 2029.5L1156.76 2045H1150.03H1143.31L1142.66 2056.25C1142.3 2062.44 1142.01 2072.32 1142.01 2078.21L1142 2088.91L1134.75 2089.21L1127.5 2089.5L1127.22 2104.25L1126.95 2119H1120.12H1113.3L1112.65 2108.34C1112.29 2102.48 1112 2082.23 1112 2063.34V2029H1105.15H1098.3L1097.65 2018.34C1097.29 2012.48 1097 1995.61 1097 1980.84V1954H1090H1083V1947V1940H1090H1097V1932V1924H1104.5H1112V1916.5V1909H1120H1128V1902.1V1895.21L1142.5 1894.48L1157 1893.76V1886.38V1879H1165H1173V1871.5V1864H1187.5H1202V1856.5V1849H1209.5H1217V1841.5V1834H1225H1233V1827V1820H1240H1247V1834.5ZM901.794 1841.75L902.088 1849H909.544H917V1856.5V1864H924.5H932V1871.5V1879H947H962V1886.5V1894H969.5H977V1901.39V1908.77L992 1909.5L1007 1910.23V1917.11V1924H1014.5H1022V1954.5V1985H1014.5H1007V2052V2119H999.5H992V2104.5V2090H984.5H977V2075V2060H969.5H962V2044.5V2029H954.5H947V2014V1999H939.5H932V2014.5V2030H939.5H947V2052V2074H954.5H962V2089.5V2105H954.5H947V2090V2075H939.5H932V2060V2045H924.5H917V2029.5V2014H909.5H902V2002.66C902 1996.42 901.707 1986.52 901.348 1980.66L900.696 1970H893.848H887V1954.5V1939H879.5H872V1916.5V1894H864.5H857V1879V1864H864.5H872V1879V1894H879.5H887L886.995 1882.75C886.993 1876.56 886.699 1866.44 886.343 1860.25L885.694 1849H878.847H872V1841.47V1833.95L886.75 1834.22L901.5 1834.5L901.794 1841.75ZM887 1909.5V1925H893.848H900.696L901.348 1935.66C901.707 1941.52 902 1951.42 902 1957.66V1969H909.5H917V1984V1999H924.5H932V1977V1955H924.5H917V1939.5V1924H909.5H902V1909V1894H894.5H887V1909.5ZM766.776 1939.75L767.052 1955H774.026H781V1970V1985H774H767V1977V1969H759H751V1992.04V2015.09L743.75 2014.79L736.5 2014.5L736.181 2000C736.005 1992.03 736.165 1978.64 736.536 1970.25L737.211 1955H744.105H751V1940.17C751 1932.01 751.318 1925.01 751.706 1924.63C752.095 1924.24 755.582 1924.05 759.456 1924.21L766.5 1924.5L766.776 1939.75ZM1368 1946.5V1969L1364.25 1969.01C1362.19 1969.01 1355.44 1969.3 1349.25 1969.66L1338 1970.31V1955.2V1940.09L1345.25 1939.79L1352.5 1939.5L1352.79 1931.75L1353.08 1924H1360.54H1368V1946.5ZM1882.75 1939.66L1894 1940.31V1947.15V1954H1871.5H1849V1947.04V1940.08L1856.75 1939.74C1861.01 1939.56 1866.08 1939.31 1868 1939.21C1869.92 1939.1 1876.56 1939.3 1882.75 1939.66ZM256 1947V1954H240.5H225V1947V1940H240.5H256V1947ZM210 1961.5V1969L221.75 1969.01C228.213 1969.01 238.563 1969.3 244.75 1969.66L256 1970.31V1977.05V1983.79L270.34 1984.51L284.68 1985.23L285.308 2028.26C285.653 2051.93 285.66 2095.41 285.323 2124.9C284.987 2154.38 285.053 2192.34 285.47 2209.25L286.23 2240H293.115H300V2255V2270H292.5H285V2262.5V2255H277.5H270V2217.5V2180H263H256V2172.54V2165.08L248.25 2164.79L240.5 2164.5L240.206 2157.25L239.912 2150H233.109H226.306L225.657 2161.25C225.301 2167.44 225.007 2201.17 225.005 2236.21L225 2299.91L217.75 2300.21L210.5 2300.5L210.231 2322.75L209.962 2345H202.481H195V2307.5V2270H202.5H210V2210V2150H195H180V2180V2210H172.5H165V2247.5V2285H157.5H150V2315V2345H142.5H135V2307.5V2270H142.5H150V2232.5V2195H157.5H165V2172.54V2150.09L157.75 2149.79L150.5 2149.5L150.206 2142.25L149.912 2135H142.456H135V2142V2149H127.5H120V2172V2195H112.5H105V2217.5V2240H97.5H90V2263V2286H82.5H75V2263V2240H82.5H90V2210V2180H97.5H105V2157.5V2135H112.5H120V2097.5V2060H105H90V2067.5V2075H82.5H75V2082.5V2090H67.5H60V2097V2104H52.542H45.084L44.792 2111.75L44.5 2119.5L29.75 2119.78L15 2120.05V2112.53V2105H22.5H30V2097.5V2090H37.5H45V2082.5V2075H52.5H60V2067.5V2060H67.5H75V2052V2044H82.5H90V2036.5V2029H97.5H105V2014.5V2000H112.5H120V1992.5V1985H127.5H135V1977.5V1970H142.5H150V1962.54V1955.08L157.75 1954.74C162.012 1954.56 175.512 1954.31 187.75 1954.2L210 1954V1961.5ZM1954.79 1961.71L1955.09 1968.91L1962.29 1969.21L1969.5 1969.5L1969.79 1976.71L1970.09 1983.91L1977.29 1984.21L1984.5 1984.5L1984.79 1991.71L1985.09 1998.91L1992.29 1999.21L1999.5 1999.5L1999.79 2006.75L2000.09 2014H2007H2013.92L2014.21 2021.75L2014.5 2029.5L2021.71 2029.79L2028.91 2030.09L2029.21 2037.29L2029.5 2044.5L2036.63 2044.79L2043.76 2045.08L2044.48 2059.44L2045.2 2073.8L2059.6 2074.52L2074 2075.24V2082.62V2090H2081.5H2089L2089 2093.75C2089.01 2095.81 2089.3 2102.56 2089.66 2108.75L2090.31 2120H2082.65H2075V2112.54V2105.08L2067.25 2104.79L2059.5 2104.5L2059.21 2097.25L2058.91 2090H2051.46H2044V2082.5V2075H2036.5H2029V2067.5V2060H2014H1999V2093.84C1999 2112.46 1999.29 2132.48 1999.65 2138.34L2000.3 2149H2007.15H2014L2014.01 2168.25C2014.01 2178.84 2014.3 2192.56 2014.66 2198.75L2015.31 2210H2022.15H2029V2232.5V2255H2036.5H2044V2277.5V2300H2037.15H2030.31L2029.66 2288.75C2029.3 2282.56 2029.01 2272.68 2029.01 2266.79L2029 2256.09L2021.75 2255.79L2014.5 2255.5L2014.23 2232.75L2013.96 2210H2006.48H1999V2180V2150H1991.5H1984V2142.5V2135H1969.65H1955.3L1954.65 2145.66C1954.29 2151.52 1954 2168.39 1954 2183.16V2210H1961.5H1969V2187.5V2165H1976.5H1984V2187.5V2210H1976.5H1969V2247.5V2285H1976.5H1984V2315V2345H1976.5H1969V2323.04V2301.09L1961.75 2300.79L1954.5 2300.5L1954.23 2270.25L1953.97 2240H1946.48H1939V2202.5V2165H1931.5H1924V2157.5V2150H1916.5H1909L1909.01 2213.75C1909.01 2248.81 1909.3 2282.56 1909.66 2288.75L1910.31 2300H1917.15H1924V2322.5V2345H1916.5H1909V2330V2315H1901.5H1894V2240V2165H1886.5H1879V2157.5V2150H1871.5H1864V2157.5V2165H1856.5H1849V2202.5V2240H1841.5H1834V2255V2270H1826.5H1819V2240V2210H1825.9H1832.79L1833.54 2194.25C1833.95 2185.59 1834.04 2152.56 1833.76 2120.85C1833.47 2089.14 1833.47 2045.61 1833.77 2024.1L1834.3 1985H1841.65H1849V1977.65V1970.31L1860.25 1969.66C1866.44 1969.3 1879.94 1969.01 1890.25 1969.01L1909 1969V1961.48V1953.96L1931.75 1954.23L1954.5 1954.5L1954.79 1961.71ZM1383 2006.96V2043.91L1390.25 2044.21L1397.5 2044.5V2074.5V2104.5L1390.25 2104.79L1383 2105.09V2135.04V2165H1390.5H1398V2180V2195H1390.5H1383V2233V2271H1375.5H1368V2297.34C1368 2311.83 1367.71 2328.48 1367.35 2334.34L1366.7 2345H1359.85H1353V2367.5V2390H1345.5H1338V2412.5V2435H1330.5H1323V2446.84C1323 2453.36 1322.71 2463.48 1322.35 2469.34L1321.7 2480H1314.85H1308V2495.5V2511H1300.5H1293V2526V2541H1285.5H1278V2552.34C1278 2558.58 1277.71 2568.48 1277.35 2574.34L1276.7 2585H1269.98H1263.26L1262.53 2600L1261.81 2615H1254.91H1248V2623V2631H1240.61H1233.23L1232.5 2646L1231.77 2661H1217.39H1203V2646V2631H1209.87H1216.75L1217.49 2541.01C1217.9 2491.52 1217.9 2423.8 1217.5 2390.52C1217.09 2357.25 1217.09 2309.99 1217.49 2285.51L1218.24 2241H1225.12H1232V2210.5V2180H1239.39H1246.77L1247.5 2165L1248.23 2150H1255.61H1263V2142.5V2135H1270.5H1278V2127.54V2120.09L1285.25 2119.79L1292.5 2119.5L1292.78 2104.75L1293.05 2090H1300.53H1308V2082.54V2075.09L1315.25 2074.79L1322.5 2074.5L1322.78 2059.79L1323.05 2045.09L1330.28 2044.79L1337.5 2044.5L1337.78 2029.75L1338.05 2015H1345.53H1353V2030V2045H1360.5H1368V2075V2105H1375.5H1383V2074.5V2044H1375.5H1368V2007V1970H1375.5H1383V2006.96ZM1337.55 1985.08C1337.92 1985.67 1337.89 1992.42 1337.5 2000.08L1336.78 2014H1329.89H1323V1999V1984H1329.94C1333.83 1984 1337.17 1984.47 1337.55 1985.08ZM796 2007V2015H789H782V2007V1999H789H796V2007ZM736 2045V2075H728.5H721L721.005 2056.25C721.007 2045.94 721.301 2032.44 721.657 2026.25L722.306 2015H729.153H736V2045ZM766 2022V2029H773.387H780.774L781.498 2043.96L782.222 2058.92L789.361 2059.21L796.5 2059.5L796.792 2067.25L797.084 2075H803.947H810.809L811.533 2090L812.256 2105H819.628H827V2112.5V2120H833.887H840.774L841.5 2135L842.226 2150H849.613H857V2157.5V2165H864.5H872V2172.5V2180H878.847H885.694L886.343 2191.25C886.699 2197.44 886.993 2227.81 886.995 2258.75L887 2315H893.847H900.694L901.332 2326.14C901.682 2332.26 901.682 2342.61 901.331 2349.14L900.693 2361H893.846H887V2458.5V2556H894.5H902V2608.5V2661H894.5H887V2653.5V2646H879.613H872.226L871.5 2631L870.774 2616H864H857.226L856.5 2601L855.774 2586H849H842.226L841.5 2571L840.774 2556H834H827.226L826.5 2541L825.774 2526H818.913H812.052L811.776 2510.75L811.5 2495.5L804.25 2495.21L797 2494.91V2484.61C797 2478.95 796.706 2468.84 796.346 2462.16L795.693 2450H788.998H782.304L781.652 2439.34C781.293 2433.48 781 2423.58 781 2417.34V2406H774.154H767.307L766.654 2393.84C766.294 2387.16 766 2376.81 766 2370.84V2360H759.11H752.221L751.483 2330L750.746 2300H744.026H737.306L736.657 2288.75C736.301 2282.56 736.007 2265.69 736.005 2251.25L736 2225H729.105H722.211L721.541 2209.75C721.172 2201.36 721.012 2184.38 721.185 2172L721.5 2149.5L728.75 2149.21L736 2148.91V2119.46V2090H743.5H751V2075.16C751 2067 751.297 2050.12 751.66 2037.66L752.319 2015H759.16H766V2022ZM1323 2018.84C1323 2020.96 1322.71 2027.48 1322.35 2033.34L1321.7 2044H1314.85H1308V2029.5V2015H1315.5H1323V2018.84ZM811 2037V2045H804H797V2037V2029H804H811V2037ZM1308 2052.5V2060H1300.5H1293V2052.5V2045H1300.5H1308V2052.5ZM826 2067V2075H819H812V2067V2059H819H826V2067ZM841 2082.5V2090H834H827V2082.5V2075H834H841V2082.5ZM1292.79 2082.25L1292.5 2089.5L1285.25 2089.79L1278 2090.09V2082.54V2075H1285.54H1293.09L1292.79 2082.25ZM721 2112V2135H714H707V2112V2089H714H721V2112ZM1277 2097.5V2105H1270H1263V2097.5V2090H1270H1277V2097.5ZM856 2112V2119H849H842V2112V2105H849H856V2112ZM1413 2127.5V2150H1405.5H1398V2127.5V2105H1405.5H1413V2127.5ZM871 2127.5V2135H864H857V2127.5V2120H864H871V2127.5ZM1262 2127.5V2135H1255H1248V2127.5V2120H1255H1262V2127.5ZM1247 2142.5V2150H1240H1233V2142.5V2135H1240H1247V2142.5ZM150 2172.5V2180H142.5H135V2172.5V2165H142.5H150V2172.5ZM917 2195V2210H924.5H932V2217.5V2225H939.5H947V2210V2195H939.5H932V2187.5V2180H924.5H917V2195ZM1428 2210V2240H1420.5H1413V2262.5V2285H1405.5H1398V2315V2345H1390.5H1383V2364.34C1383 2374.98 1382.71 2388.48 1382.35 2394.34L1381.7 2405H1374.85H1368V2416.84C1368 2423.36 1367.71 2433.48 1367.35 2439.34L1366.7 2450H1359.85H1353V2465.5V2481H1345.5H1338V2492.34C1338 2498.58 1337.71 2508.48 1337.35 2514.34L1336.7 2525H1329.98H1323.26L1322.53 2540L1321.81 2555H1314.91H1308V2540V2525H1315.5H1323V2503V2481H1330.5H1338V2458.5V2436H1345.5H1353V2413.5V2391H1360.5H1368V2368V2345H1375.5H1383V2315V2285H1390.5H1398V2247.5V2210H1405.5H1413V2195V2180H1420.5H1428V2210ZM1142 2255V2270H1149.5H1157V2255V2240H1149.5H1142V2255ZM1172.81 2420.5C1172.98 2478.25 1172.82 2552.61 1172.44 2585.75L1171.76 2646H1164.88H1158V2653.5V2661H1142.5H1127V2631V2601H1120.15H1113.31L1112.66 2589.75C1112.3 2583.56 1112.01 2542.84 1112.01 2499.25L1112 2420H1119.48H1126.96L1127.23 2397.75L1127.5 2375.5L1134.75 2375.21L1142 2374.91V2359.96V2345H1149.5H1157V2329.96V2314.92L1164.75 2315.21L1172.5 2315.5L1172.81 2420.5ZM706.005 2341.25C706.007 2347.44 706.301 2357.56 706.657 2363.75L707.306 2375H714.153H721V2385.84C721 2391.81 721.294 2402.16 721.654 2408.84L722.307 2421H729.154H736L736.005 2431.75C736.007 2437.66 736.301 2447.56 736.657 2453.75L737.306 2465H744.048H750.789L751.516 2480.5L752.242 2496H758.968H765.694L766.343 2507.25C766.699 2513.44 766.993 2523.34 766.995 2529.25L767 2540H773.895H780.789L781.516 2555.5L782.242 2571H789.621H797V2586V2601H804.5H812V2616V2631H819.5H827V2646V2661H819.5H812V2653.5V2646H804.613H797.226L796.5 2631L795.774 2616H789H782.226L781.5 2601L780.774 2586H773.387H766V2578.5V2571H759.105H752.211L751.484 2555.5L750.758 2540H744.031H737.304L736.652 2529.34C736.293 2523.48 736 2513.58 736 2507.34V2496H728.5H721V2480.5V2465H714.152H707.304L706.652 2454.34C706.293 2448.48 706 2438.36 706 2431.84V2420H699.152H692.304L691.652 2409.34C690.815 2395.67 690.818 2355.81 691.657 2341.25L692.306 2330H699.153H706L706.005 2341.25ZM931 2352.5V2360H924H917V2352.5V2345H924H931V2352.5ZM1428 2368V2391H1420.5H1413V2420.5V2450H1405.5H1398V2472.5V2495H1390.5H1383V2510.5V2526H1375.5H1368V2541V2556H1360.5H1353V2571V2586H1345.5H1338V2593.5V2601H1330.5H1323V2616V2631H1315.5H1308V2638.5V2646H1300.5H1293V2653.5V2661H1285.5H1278V2653.5V2646H1284.89H1291.77L1292.5 2631L1293.23 2616H1300.61H1308V2601V2586H1315.5H1323V2571.04V2556.09L1330.25 2555.79L1337.5 2555.5L1337.78 2540.79L1338.05 2526.09L1345.28 2525.79L1352.5 2525.5L1352.78 2510.25L1353.05 2495H1359.87H1366.7L1367.35 2484.34C1367.71 2478.48 1368 2468.36 1368 2461.84V2450H1375.5H1383V2427.5V2405H1390.5H1398V2375.54V2346.08L1405.75 2345.74C1410.01 2345.56 1416.76 2345.31 1420.75 2345.2L1428 2345V2368ZM1112 2390V2405H1104.35H1096.7L1097.35 2394.34C1097.71 2388.48 1098 2381.73 1098 2379.34V2375H1105H1112V2390ZM917 2454.84C917 2489.96 916.707 2523.48 916.348 2529.34L915.696 2540H908.848H902V2465.5V2391H909.5H917V2454.84ZM796.777 2510.75L796.5 2525.5L789.25 2525.79L782 2526.09V2511.04V2496H789.527H797.053L796.777 2510.75ZM811.462 2539.95C811.858 2547.62 811.889 2554.37 811.531 2554.95C811.174 2555.53 807.759 2556 803.941 2556H797V2541V2526H803.872H810.744L811.462 2539.95ZM1307.99 2559.75C1307.99 2561.81 1307.7 2568.56 1307.34 2574.75L1306.69 2586H1299.85H1293V2593.5V2601H1285.5H1278V2593.5V2586H1285.5H1293V2571V2556H1300.5H1308L1307.99 2559.75ZM826 2578.5V2586H819H812V2578.5V2571H819H826V2578.5ZM841 2608.5V2616H834H827V2608.5V2601H834H841V2608.5ZM931 2608.5V2616H924H917V2608.5V2601H924H931V2608.5ZM1277 2623.5V2631H1270H1263V2623.5V2616H1270H1277V2623.5ZM856 2638.5V2646H849H842V2638.5V2631H849H856V2638.5ZM977 2728.5V2751H969.5H962V2766V2781H954.5H947V2789V2797H939.527H932.053L931.777 2811.75L931.5 2826.5L924.25 2826.79L917 2827.09V2834.54V2842H909.5H902V2834V2826H894.527H887.053L886.777 2811.25L886.5 2796.5L879.361 2796.21L872.222 2795.92L871.498 2780.96L870.774 2766H864.008H857.242L856.517 2751.5L855.792 2737H848.896H842L841.995 2732.75C841.993 2730.41 841.699 2723.44 841.343 2717.25L840.694 2706H908.847H977V2728.5ZM1277.79 2713.75L1277.5 2721.5L1270.25 2721.79L1263 2722.09L1262.99 2732.79C1262.99 2738.68 1262.7 2748.56 1262.34 2754.75L1261.69 2766H1254.89H1248.08L1247.79 2773.75L1247.5 2781.5L1240.36 2781.79L1233.22 2782.08L1232.5 2797.04L1231.77 2812H1224.99H1218.21L1217.48 2826.5L1216.76 2841H1202.49H1188.23L1187.5 2826L1186.77 2811H1179.39H1172V2796.54V2782.09L1164.75 2781.79L1157.5 2781.5L1157.22 2766.79L1156.95 2752.09L1149.72 2751.79L1142.5 2751.5L1142.23 2728.75L1141.96 2706H1210.02H1278.08L1277.79 2713.75ZM1293 2751V2766H1285.63H1278.26L1277.53 2781L1276.81 2796H1269.91H1263V2781V2766H1270.5H1278V2751V2736H1285.5H1293V2751ZM841 2766V2781H834H827V2796.5V2812H833.848H840.696L841.348 2822.66C841.707 2828.52 842 2838.42 842 2844.66V2856H849.5H857V2878.46V2900.91L864.25 2901.21L871.5 2901.5L871.762 2938.75L872.024 2976H878.863H885.701L886.358 2988.75C887.207 3005.21 887.193 3430.75 886.344 3446.25L885.7 3458H871.35H857V3450.5V3443H849.613H842.226L841.5 3428L840.774 3413H833.887H827L826.995 3401.75C826.993 3395.56 826.699 3385.44 826.343 3379.25L825.694 3368H819.001H812.307L811.654 3355.84C811.294 3349.16 811 3339.03 811 3333.34V3323H804H797L796.995 3311.75C796.993 3305.56 796.699 3295.44 796.343 3289.25L795.694 3278H789.001H782.307L781.654 3265.84C781.294 3259.16 781 3248.81 781 3242.84V3232H774.16H767.319L766.66 3209.34C766.297 3196.87 766 3180.22 766 3172.34V3158H759.16H752.319L751.66 3135.34C750.809 3106.12 750.811 2996.93 751.662 2968.75L752.319 2947H759.159H766V2928.66C766 2918.57 766.294 2904.84 766.654 2898.16L767.307 2886H774.154H781V2868.16C781 2858.34 781.294 2844.84 781.654 2838.16L782.307 2826H789.001H795.694L796.343 2814.75C796.699 2808.56 796.993 2795.29 796.995 2785.25L797 2767H804.5H812V2774V2781H819.5H827V2766V2751H834H841V2766ZM1308 2781.5V2796H1315.5H1323V2819V2842H1329.85H1336.7L1337.35 2852.66C1337.71 2858.52 1338 2872.02 1338 2882.66V2902H1345.5H1353V2932V2962H1360.5H1368V3052V3142H1360.52H1353.03L1352.77 3172.25L1352.5 3202.5L1345.25 3202.79L1338 3203.09V3232.54V3262H1330.5H1323V3285V3308H1315.5H1308V3330.5V3353H1300.5H1293V3375.5V3398H1285.5H1278L1277.99 3409.25C1277.99 3415.44 1277.7 3425.56 1277.34 3431.75L1276.69 3443H1269.89H1263.09L1262.79 3450.25L1262.5 3457.5L1247.9 3457.78L1233.31 3458.05L1232.66 3446.78C1231.81 3431.97 1231.81 3009.39 1232.66 2965.75L1233.32 2932H1240.01H1246.69L1247.35 2919.84C1247.71 2913.16 1248 2902.81 1248 2896.84V2886H1254.85H1261.69L1262.34 2874.75C1262.7 2868.56 1262.99 2858.44 1262.99 2852.25L1263 2841H1269.89H1276.77L1277.5 2826L1278.23 2811H1284.96H1291.69L1292.34 2799.75C1292.7 2793.56 1292.99 2783.66 1292.99 2777.75L1293 2767H1300.5H1308V2781.5ZM962 2826V2841H954.5H947V2826V2811H954.5H962V2826ZM992 2947V3067H984.5H977V3097.5V3128H969.5H962V3165V3202H954.5H947V3228.84C947 3243.61 946.707 3260.48 946.348 3266.34L945.696 3277H938.848H932V3157V3037H938.84H945.681L946.34 3014.34C946.703 3001.87 947 2971.5 947 2946.84V2902H954.5H962V2872V2842H969.5H977V2834.5V2827H984.5H992V2947ZM1142.5 2842L1143.23 2857H1150.11H1157L1157 2871.25C1157 2879.09 1157.3 2895.96 1157.66 2908.75L1158.32 2932H1164.99H1171.67L1172.34 2999.67C1172.7 3036.88 1173 3090.88 1173 3119.67V3172H1179.88H1186.75L1187.49 3202.49C1187.9 3219.26 1187.9 3246.26 1187.49 3262.49L1186.75 3292H1179.99H1173.22L1172.48 3262L1171.75 3232H1165.03H1158.31L1157.66 3220.75C1157.3 3214.56 1157.01 3197.69 1157.01 3183.25L1157 3157H1150.15H1143.31L1142.66 3145.75C1142.3 3139.56 1142.01 3126.06 1142.01 3115.75L1142 3097H1135.15H1128.31L1127.66 3085.75C1126.81 3071.04 1126.8 2851.5 1127.65 2837.66L1128.3 2827H1135.04H1141.77L1142.5 2842ZM834.75 3487.68L827 3488.08L826.995 3514.29C826.993 3528.71 826.699 3545.56 826.343 3551.75L825.694 3563H818.847H812L811.995 3612.25C811.993 3639.34 811.699 3666.56 811.343 3672.75L810.694 3684H803.859H797.024L796.762 3721.25L796.5 3758.5L789.407 3758.79L782.314 3759.08L781.614 3795.57C781.229 3815.63 781.185 3832.49 781.516 3833.03C781.847 3833.56 785.466 3834 789.559 3834H797V3841.5V3849H803.956H810.912L811.206 3856.25L811.5 3863.5L818.707 3863.79L825.914 3864.09L826.207 3871.29L826.5 3878.5L834.25 3878.79L842 3879.08V3886.54V3894H864.5H887V3901.5V3909H902H917V3901.5V3894H924.5H932V3901.5V3909H954.5H977V3901.5V3894H984.5H992V3864V3834H984.5H977V3743.5V3653H969.5H962V3600.5V3548H954.5H947V3525.5V3503H939.5H932V3495.5V3488H897.656C878.766 3488 858.629 3487.84 852.906 3487.63C847.183 3487.43 839.013 3487.45 834.75 3487.68ZM1172.66 3499.25C1172.3 3505.44 1172.01 3515.56 1172.01 3521.75L1172 3533H1165.15H1158.31L1157.66 3544.25C1157.3 3550.44 1157.01 3567.31 1157.01 3581.75L1157 3608H1150.16H1143.32L1142.66 3642.66C1142.3 3661.73 1142 3692.1 1142 3710.16V3743H1135.16H1128.32L1127.73 3815.75C1127.41 3855.76 1127.4 3893.11 1127.71 3898.75L1128.29 3909H1150.65H1173V3901.5V3894H1187.5H1202V3901.5V3909H1217H1232V3901.5V3894H1254.46H1276.92L1277.21 3886.25L1277.5 3878.5L1285.25 3878.21L1293 3877.92V3870.96V3864H1300.5H1308V3849.03V3834.05L1322.75 3833.78L1337.5 3833.5L1337.82 3819C1337.99 3811.03 1337.83 3797.64 1337.46 3789.25L1336.79 3774H1329.91H1323.04L1322.77 3751.25L1322.5 3728.5L1315.25 3728.21L1308 3727.91V3683.12C1308 3658.48 1307.7 3628.13 1307.34 3615.66L1306.68 3593H1299.84H1293L1292.99 3559.25C1292.99 3540.69 1292.7 3520.44 1292.34 3514.25L1291.69 3503H1284.85H1278V3495.5V3488H1225.65H1173.31L1172.66 3499.25ZM917 3510.5V3518H924.5H932V3540.5V3563H939.5H947V3615.5V3668H954.5H962V3758.5V3849H969.5H977V3871.5V3894H962H947V3886.5V3879H939.5H932V3841.5V3804H924.544H917.088L916.794 3811.25L916.5 3818.5L908.75 3818.79L901 3819.08V3826.54V3834H894H887V3819V3804H879.653H872.306L871.657 3815.25C871.301 3821.44 871.007 3838.09 871.005 3852.25L871 3878H864H857V3871V3864H849.5H842V3856.5V3849H849.645H857.289L856.775 3819.46C856.491 3803.22 856.089 3789.78 855.88 3789.59C855.671 3789.4 845.6 3789.08 833.5 3788.88L811.5 3788.5L811.208 3796.25L810.916 3804H803.958H797V3788.5V3773H803.847H810.694L811.343 3761.75C811.699 3755.56 811.993 3738.91 811.995 3724.75L812 3699H818.838H825.676L826.337 3665.25C826.7 3646.69 826.998 3619.46 826.998 3604.75L827 3578H834H841V3563.16C841 3555 841.297 3538.13 841.66 3525.66L842.319 3503H879.66H917V3510.5ZM1263 3510.5V3518H1269.85H1276.69L1277.34 3529.25C1277.7 3535.44 1277.99 3559.06 1277.99 3581.75L1278 3623H1285.5H1293V3676V3729H1299.85H1306.7L1307.35 3739.66C1307.71 3745.52 1308 3758.77 1308 3769.11V3787.91L1315.25 3788.21L1322.5 3788.5L1322.78 3803.25L1323.05 3818H1315.53H1308V3803.5V3789H1285.5H1263L1262.75 3803.75C1262.61 3811.86 1262.5 3832 1262.5 3848.5V3878.5L1255.25 3878.79L1248 3879.09V3852.2C1248 3837.41 1247.71 3820.52 1247.35 3814.66L1246.7 3804H1232.5H1218.31L1217.66 3815.25C1217.3 3821.44 1217.01 3841.46 1217.01 3859.75L1217 3893H1210H1203V3859.16C1203 3840.54 1202.71 3820.52 1202.35 3814.66L1201.7 3804H1194.35H1187V3811.5V3819H1180H1173L1172.99 3845.25C1172.99 3859.69 1172.7 3876.56 1172.34 3882.75L1171.69 3894H1156.68H1141.67L1142.34 3848.84C1142.7 3824 1143 3796.77 1143 3788.34V3773H1150H1157V3710.16C1157 3675.59 1157.29 3641.84 1157.65 3635.16L1158.31 3623H1165.15H1172V3585.5V3548H1179.5H1187L1187.01 3536.75C1187.01 3530.56 1187.3 3520.44 1187.66 3514.25L1188.31 3503H1225.65H1263V3510.5ZM1292 3826V3848H1285H1278V3826V3804H1285H1292V3826ZM0 3931.5V3954H7.5H15V3931.5V3909H7.5H0V3931.5Z" fill="black"/>
</svg>
