<?xml version="1.0" encoding="UTF-8"?>
<!DOCTYPE svg PUBLIC "-//W3C//DTD SVG 1.1//EN" "http://www.w3.org/Graphics/SVG/1.1/DTD/svg11.dtd">
<svg xmlns="http://www.w3.org/2000/svg" version="1.1" width="159px" height="263px" style="shape-rendering:geometricPrecision; text-rendering:geometricPrecision; image-rendering:optimizeQuality; fill-rule:evenodd; clip-rule:evenodd" xmlns:xlink="http://www.w3.org/1999/xlink">
<g><path style="opacity:1" fill="#fdfdfd" d="M -0.5,-0.5 C 21.5,-0.5 43.5,-0.5 65.5,-0.5C 64.8333,0.166667 64.1667,0.833333 63.5,1.5C 60.909,2.25429 59.0757,3.92096 58,6.5C 57.3333,13.1667 57.3333,19.8333 58,26.5C 58.4238,29.0254 59.5905,31.0254 61.5,32.5C 61.2785,34.6636 60.2785,36.3303 58.5,37.5C 51.8467,38.1403 45.8467,40.1403 40.5,43.5C 36.7641,44.9047 34.4308,47.5713 33.5,51.5C 29.8885,56.8438 29.5551,62.5105 32.5,68.5C 27.1903,78.3287 22.5237,88.4954 18.5,99C 17.7001,106.366 16.0334,113.533 13.5,120.5C 13.8333,121.167 14.1667,121.833 14.5,122.5C 12.5248,125.805 10.1915,128.805 7.5,131.5C 5.03754,134.123 2.37087,136.456 -0.5,138.5C -0.5,92.1667 -0.5,45.8333 -0.5,-0.5 Z"/></g>
<g><path style="opacity:1" fill="#fdfdfd" d="M 72.5,-0.5 C 101.167,-0.5 129.833,-0.5 158.5,-0.5C 158.5,87.1667 158.5,174.833 158.5,262.5C 105.5,262.5 52.5,262.5 -0.5,262.5C -0.5,222.167 -0.5,181.833 -0.5,141.5C 1.92878,141.415 3.92878,140.415 5.5,138.5C 5.34643,142.799 4.34643,147.133 2.5,151.5C 3.28881,153.488 4.45548,153.821 6,152.5C 6.57985,149.453 6.24651,149.119 5,151.5C 4.59496,149.225 5.09496,147.225 6.5,145.5C 6.41253,148.598 6.91253,148.932 8,146.5C 8.16667,147 8.33333,147.5 8.5,148C 7.42167,150.795 6.92167,153.629 7,156.5C 9.05451,157.495 10.2212,156.662 10.5,154C 10.0556,152.238 9.55563,152.405 9,154.5C 8.67168,151.793 9.00501,149.126 10,146.5C 10.517,149.92 11.3503,153.253 12.5,156.5C 13.1067,156.376 13.44,156.043 13.5,155.5C 14.1174,155.389 14.6174,155.056 15,154.5C 15.3333,151.5 15.6667,148.5 16,145.5C 16.3333,147.167 16.6667,148.833 17,150.5C 18.0113,151.337 19.1779,151.67 20.5,151.5C 19.9531,144.844 19.4531,138.177 19,131.5C 18.5,131 18,130.5 17.5,130C 20.057,127.724 21.7236,124.89 22.5,121.5C 29.8545,112.114 34.5212,101.447 36.5,89.5C 37.1667,89.5 37.5,89.1667 37.5,88.5C 38.2541,85.7444 38.2541,83.0777 37.5,80.5C 39.5113,78.333 40.6779,75.6663 41,72.5C 41.361,77.0547 43.1943,80.888 46.5,84C 45.4224,87.099 45.4224,90.2657 46.5,93.5C 45.6457,96.7096 44.6457,99.8762 43.5,103C 43.3866,104.699 44.0532,105.866 45.5,106.5C 45.6068,108.379 45.1068,108.712 44,107.5C 41.9034,125.579 42.2367,143.579 45,161.5C 45.7246,163.949 46.7246,166.283 48,168.5C 48.1667,168 48.3333,167.5 48.5,167C 46.466,163.038 45.6327,158.871 46,154.5C 48.1747,161.364 50.5081,168.031 53,174.5C 52,173.167 51,171.833 50,170.5C 49.935,173.198 51.1017,175.364 53.5,177C 56.6842,176.851 60.0175,177.184 63.5,178C 60.1182,178.176 56.7848,178.676 53.5,179.5C 45.3104,196.813 45.977,213.813 55.5,230.5C 55.5,230.833 55.5,231.167 55.5,231.5C 53.4846,238.057 52.1513,244.89 51.5,252C 52.1582,256.517 54.8249,259.017 59.5,259.5C 61.0207,259.12 62.6874,258.954 64.5,259C 65.0814,258.107 65.4148,257.107 65.5,256C 65.0706,247.613 63.7373,239.446 61.5,231.5C 61.5,230.833 61.5,230.167 61.5,229.5C 62.4187,221.072 63.9187,212.739 66,204.5C 67.0105,196.967 66.5105,189.634 64.5,182.5C 65.2216,182.082 65.7216,181.416 66,180.5C 66.8314,173.854 67.3314,167.187 67.5,160.5C 68.8333,157.833 68.8333,155.167 67.5,152.5C 67.6126,149.951 66.9459,147.618 65.5,145.5C 65.8457,144.304 66.3457,144.304 67,145.5C 67.3623,140.319 67.8623,135.152 68.5,130C 68.2376,126.873 66.5709,125.039 63.5,124.5C 62.7377,122.738 61.4044,121.738 59.5,121.5C 58.2426,120.182 56.9093,118.849 55.5,117.5C 54.914,117.709 54.414,118.043 54,118.5C 53.34,116.676 52.1733,115.343 50.5,114.5C 50.3691,113.624 50.7025,112.957 51.5,112.5C 53.0754,113.456 54.742,114.123 56.5,114.5C 57.1667,113.833 57.8333,113.167 58.5,112.5C 59.7389,115.589 61.2389,118.589 63,121.5C 64.1096,123.037 65.6096,123.703 67.5,123.5C 67.56,124.043 67.8933,124.376 68.5,124.5C 69.8229,114.341 69.8229,104.341 68.5,94.5C 68.5,94.1667 68.5,93.8333 68.5,93.5C 69.6484,89.0189 69.8151,84.3522 69,79.5C 68.5,79 68,78.5 67.5,78C 68.6497,69.245 68.8163,60.4117 68,51.5C 67.6258,50.5838 67.1258,49.7504 66.5,49C 68.8333,49.6667 71.1667,49.6667 73.5,49C 72.2986,49.9025 71.4652,51.0692 71,52.5C 70.3333,60.1667 70.3333,67.8333 71,75.5C 71.4652,76.9308 72.2986,78.0975 73.5,79C 72.552,79.4828 71.552,79.6495 70.5,79.5C 70.5,84.1667 70.5,88.8333 70.5,93.5C 70.5,93.8333 70.5,94.1667 70.5,94.5C 70.5,96.8333 70.5,99.1667 70.5,101.5C 70.5,103.167 70.5,104.833 70.5,106.5C 70.1707,112.537 70.5041,118.537 71.5,124.5C 72.7362,123.754 74.0695,123.421 75.5,123.5C 74.8333,124.5 74.1667,125.5 73.5,126.5C 72.0047,126.415 71.0047,127.081 70.5,128.5C 71.699,134.165 72.699,139.165 73.5,143.5C 74.0542,145.771 73.5542,148.104 72,150.5C 71.8184,154.918 71.6517,159.251 71.5,163.5C 72.2787,168.113 72.7787,172.78 73,177.5C 73.3747,180 74.2081,182.333 75.5,184.5C 75.1543,185.696 74.6543,185.696 74,184.5C 73.1155,188.113 72.6155,191.78 72.5,195.5C 74.4001,206.985 76.4001,218.318 78.5,229.5C 78.5,230.167 78.5,230.833 78.5,231.5C 76.4011,235.795 75.2344,240.462 75,245.5C 74.5008,250.155 74.3342,254.821 74.5,259.5C 75.791,259.737 76.791,259.404 77.5,258.5C 82.862,259.916 86.5286,257.916 88.5,252.5C 87.1653,245.459 85.8319,238.459 84.5,231.5C 84.5,231.167 84.5,230.833 84.5,230.5C 93.3901,212.576 93.7234,195.243 85.5,178.5C 82.1501,178.665 78.8168,178.498 75.5,178C 79.1667,177.667 82.8333,177.333 86.5,177C 91.8395,170.82 94.8395,163.653 95.5,155.5C 96.038,153.883 96.3713,152.216 96.5,150.5C 96.5,149.833 96.5,149.167 96.5,148.5C 97.8333,142.833 97.8333,137.167 96.5,131.5C 96.5,128.167 96.5,124.833 96.5,121.5C 97.1031,116.381 96.4364,111.715 94.5,107.5C 93.7692,99.9425 93.7692,92.2758 94.5,84.5C 94.8333,83.1667 95.1667,81.8333 95.5,80.5C 97.5113,78.333 98.6779,75.6663 99,72.5C 99.1903,76.0755 100.357,79.2422 102.5,82C 101.944,82.3826 101.611,82.8826 101.5,83.5C 103.353,91.2295 105.52,98.8961 108,106.5C 109.026,109.239 110.526,111.572 112.5,113.5C 115.094,119.186 118.094,124.686 121.5,130C 120.874,130.75 120.374,131.584 120,132.5C 119.5,138.825 119.334,145.158 119.5,151.5C 121.179,151.715 122.179,151.048 122.5,149.5C 123.167,150.167 123.833,150.833 124.5,151.5C 124.197,154.588 125.53,156.254 128.5,156.5C 128.351,155.448 128.517,154.448 129,153.5C 131.16,158.703 132.16,158.369 132,152.5C 131.667,153.5 131.333,154.5 131,155.5C 129.85,153.246 129.516,150.913 130,148.5C 130.914,152.185 131.581,151.852 132,147.5C 132.412,149.997 133.578,151.997 135.5,153.5C 136.724,151.102 136.558,148.769 135,146.5C 134.667,147.5 134.333,148.5 134,149.5C 133.023,147.26 132.523,144.927 132.5,142.5C 133.268,143.263 133.768,144.263 134,145.5C 134.155,143.144 134.155,140.811 134,138.5C 135.737,141.533 137.903,142.033 140.5,140C 139.22,138.034 137.553,136.534 135.5,135.5C 132.404,131.227 129.07,127.06 125.5,123C 125.957,122.586 126.291,122.086 126.5,121.5C 123.907,112.613 121.74,103.613 120,94.5C 119.059,92.2726 117.892,90.2726 116.5,88.5C 116.672,87.5084 116.338,86.8417 115.5,86.5C 115.025,84.2163 114.025,82.2163 112.5,80.5C 112.158,79.6618 111.492,79.3284 110.5,79.5C 110.868,75.9557 109.868,72.9557 107.5,70.5C 107.586,69.5041 107.252,68.6708 106.5,68C 109.114,61.8987 108.948,55.7321 106,49.5C 105.292,48.6195 104.458,47.9528 103.5,47.5C 103.5,45.5 102.5,44.5 100.5,44.5C 100.027,43.0937 99.0269,42.427 97.5,42.5C 91.7507,40.0481 85.7507,37.8815 79.5,36C 78.8333,35.3333 78.1667,34.6667 77.5,34C 78.8228,33.1841 79.4894,32.0174 79.5,30.5C 74.0498,36.2648 68.0498,36.9314 61.5,32.5C 59.473,24.3277 58.6396,15.9944 59,7.5C 60.332,5.34004 61.832,3.34004 63.5,1.5C 66.6888,1.14166 69.6888,0.474989 72.5,-0.5 Z"/></g>
<g><path style="opacity:1" fill="#414141" d="M 65.5,-0.5 C 67.8333,-0.5 70.1667,-0.5 72.5,-0.5C 69.6888,0.474989 66.6888,1.14166 63.5,1.5C 64.1667,0.833333 64.8333,0.166667 65.5,-0.5 Z"/></g>
<g><path style="opacity:1" fill="#565656" d="M 63.5,1.5 C 61.832,3.34004 60.332,5.34004 59,7.5C 58.6396,15.9944 59.473,24.3277 61.5,32.5C 59.5905,31.0254 58.4238,29.0254 58,26.5C 57.3333,19.8333 57.3333,13.1667 58,6.5C 59.0757,3.92096 60.909,2.25429 63.5,1.5 Z"/></g>
<g><path style="opacity:1" fill="#5b5b5b" d="M 79.5,30.5 C 80.1111,24.1693 80.7777,17.836 81.5,11.5C 81.3074,6.13794 78.6407,2.63794 73.5,1C 77.578,0.719977 80.4113,2.55331 82,6.5C 82.6667,12.8333 82.6667,19.1667 82,25.5C 81.9005,27.6526 81.0672,29.3192 79.5,30.5 Z"/></g>
<g><path style="opacity:1" fill="#5c5c5c" d="M 79.5,30.5 C 79.4894,32.0174 78.8228,33.1841 77.5,34C 78.1667,34.6667 78.8333,35.3333 79.5,36C 85.7507,37.8815 91.7507,40.0481 97.5,42.5C 96.448,42.3505 95.448,42.5172 94.5,43C 101.754,48.3403 105.754,55.5069 106.5,64.5C 107.655,61.5541 107.821,58.5541 107,55.5C 106.079,52.6642 104.912,49.9976 103.5,47.5C 104.458,47.9528 105.292,48.6195 106,49.5C 108.948,55.7321 109.114,61.8987 106.5,68C 107.252,68.6708 107.586,69.5041 107.5,70.5C 105.967,68.6452 104.3,66.8119 102.5,65C 101.552,64.5172 100.552,64.3505 99.5,64.5C 99.1813,73.5566 102.181,81.2233 108.5,87.5C 108.461,88.7562 108.961,89.7562 110,90.5C 110.499,86.8484 110.665,83.1817 110.5,79.5C 111.492,79.3284 112.158,79.6618 112.5,80.5C 111.203,84.0941 111.203,87.0941 112.5,89.5C 114.807,96.9032 117.641,104.237 121,111.5C 120.934,103.567 119.434,95.9006 116.5,88.5C 117.892,90.2726 119.059,92.2726 120,94.5C 121.74,103.613 123.907,112.613 126.5,121.5C 126.291,122.086 125.957,122.586 125.5,123C 129.07,127.06 132.404,131.227 135.5,135.5C 133.152,133.32 130.652,131.32 128,129.5C 126.128,130.068 124.295,130.735 122.5,131.5C 121.489,137.835 120.989,144.168 121,150.5C 121.698,147.996 122.531,145.663 123.5,143.5C 123.938,143.435 124.272,143.601 124.5,144C 123.756,145.815 123.089,147.648 122.5,149.5C 122.179,151.048 121.179,151.715 119.5,151.5C 119.334,145.158 119.5,138.825 120,132.5C 120.374,131.584 120.874,130.75 121.5,130C 118.094,124.686 115.094,119.186 112.5,113.5C 116.061,117.603 118.894,122.27 121,127.5C 122.299,127.966 123.799,127.966 125.5,127.5C 120.562,118.614 116.395,109.281 113,99.5C 111.311,96.3333 109.478,93.3333 107.5,90.5C 106.243,87.5726 104.243,85.2393 101.5,83.5C 101.611,82.8826 101.944,82.3826 102.5,82C 100.357,79.2422 99.1903,76.0755 99,72.5C 98.6779,75.6663 97.5113,78.333 95.5,80.5C 95.1667,81.8333 94.8333,83.1667 94.5,84.5C 93.2794,85.0283 92.1127,85.695 91,86.5C 90.3159,83.62 90.4826,80.7866 91.5,78C 91.3333,77.5 91.1667,77 91,76.5C 88.8215,77.8398 88.3215,77.5065 89.5,75.5C 92.4064,71.3619 95.0731,67.0285 97.5,62.5C 92.2627,55.9508 85.596,51.2841 77.5,48.5C 75.6171,48.8757 74.1171,49.8757 73,51.5C 72.3333,59.8333 72.3333,68.1667 73,76.5C 75.0408,77.4231 77.2075,77.7564 79.5,77.5C 80.2389,77.369 80.9056,77.5357 81.5,78C 76.4591,79.0076 76.7924,79.5076 82.5,79.5C 82.5,81.8333 82.5,84.1667 82.5,86.5C 81.0413,86.4326 79.7079,86.7659 78.5,87.5C 76.1667,87.5 73.8333,87.5 71.5,87.5C 71.5,89.1667 71.5,90.8333 71.5,92.5C 73.5,92.5 75.5,92.5 77.5,92.5C 75.3926,93.4682 73.0593,93.8016 70.5,93.5C 70.5,88.8333 70.5,84.1667 70.5,79.5C 71.552,79.6495 72.552,79.4828 73.5,79C 72.2986,78.0975 71.4652,76.9308 71,75.5C 70.3333,67.8333 70.3333,60.1667 71,52.5C 71.4652,51.0692 72.2986,49.9025 73.5,49C 71.1667,49.6667 68.8333,49.6667 66.5,49C 67.1258,49.7504 67.6258,50.5838 68,51.5C 68.8163,60.4117 68.6497,69.245 67.5,78C 68,78.5 68.5,79 69,79.5C 69.8151,84.3522 69.6484,89.0189 68.5,93.5C 65.9407,93.8016 63.6074,93.4682 61.5,92.5C 63.5,92.5 65.5,92.5 67.5,92.5C 67.5,90.8333 67.5,89.1667 67.5,87.5C 64.7508,87.2739 62.0841,87.6072 59.5,88.5C 58.2121,90.2985 58.2121,91.9652 59.5,93.5C 59.44,94.0431 59.1067,94.3764 58.5,94.5C 57.2234,91.9659 57.2234,89.4659 58.5,87C 57.8742,86.2496 57.3742,85.4162 57,84.5C 56.5002,94.4944 56.3335,104.494 56.5,114.5C 54.742,114.123 53.0754,113.456 51.5,112.5C 50.7025,112.957 50.3691,113.624 50.5,114.5C 48.8523,113.19 47.1856,111.857 45.5,110.5C 44.3894,121.823 43.8894,133.157 44,144.5C 46.144,137.236 47.9773,129.903 49.5,122.5C 51.3724,127.614 53.5391,132.614 56,137.5C 59.6769,141.546 62.8436,145.879 65.5,150.5C 65.6068,152.379 65.1068,152.712 64,151.5C 62.9196,149.004 61.5862,146.67 60,144.5C 59.8019,146.382 59.3019,148.048 58.5,149.5C 58.628,147.345 58.128,145.345 57,143.5C 54.6397,140.64 52.473,137.64 50.5,134.5C 49.0851,138.409 48.0851,142.409 47.5,146.5C 46.6587,147.009 46.1587,146.343 46,144.5C 44.5783,147.03 44.245,149.697 45,152.5C 45.3333,151.5 45.6667,150.5 46,149.5C 46.5112,151.878 47.1779,154.212 48,156.5C 48.2321,155.263 48.7321,154.263 49.5,153.5C 51.3013,161.928 54.6346,169.594 59.5,176.5C 60.9348,175.087 61.9348,173.42 62.5,171.5C 62.5,173.167 62.5,174.833 62.5,176.5C 63.5,176.5 64.5,176.5 65.5,176.5C 66.1816,170.455 66.1816,164.455 65.5,158.5C 66.1667,159.167 66.8333,159.833 67.5,160.5C 67.3314,167.187 66.8314,173.854 66,180.5C 65.7216,181.416 65.2216,182.082 64.5,182.5C 64.5,181.5 64.5,180.5 64.5,179.5C 61.4281,179.183 58.4281,179.516 55.5,180.5C 56.7878,182.739 57.7878,185.072 58.5,187.5C 57.6365,186.537 56.9698,186.537 56.5,187.5C 57.5771,189.729 58.2437,192.063 58.5,194.5C 58.5,195.167 58.1667,195.5 57.5,195.5C 56.9546,191.529 55.6213,187.862 53.5,184.5C 47.6558,199.693 48.6558,214.36 56.5,228.5C 56.56,229.043 56.8933,229.376 57.5,229.5C 58.1667,218.674 58.8334,208.008 59.5,197.5C 59.5,202.833 59.5,208.167 59.5,213.5C 59.5,219.167 59.5,224.833 59.5,230.5C 58.1667,230.5 56.8333,230.5 55.5,230.5C 45.977,213.813 45.3104,196.813 53.5,179.5C 56.7848,178.676 60.1182,178.176 63.5,178C 60.0175,177.184 56.6842,176.851 53.5,177C 51.1017,175.364 49.935,173.198 50,170.5C 51,171.833 52,173.167 53,174.5C 50.5081,168.031 48.1747,161.364 46,154.5C 45.6327,158.871 46.466,163.038 48.5,167C 48.3333,167.5 48.1667,168 48,168.5C 46.7246,166.283 45.7246,163.949 45,161.5C 42.2367,143.579 41.9034,125.579 44,107.5C 45.1068,108.712 45.6068,108.379 45.5,106.5C 44.0532,105.866 43.3866,104.699 43.5,103C 44.6457,99.8762 45.6457,96.7096 46.5,93.5C 45.4224,90.2657 45.4224,87.099 46.5,84C 43.1943,80.888 41.361,77.0547 41,72.5C 40.6779,75.6663 39.5113,78.333 37.5,80.5C 38.2541,83.0777 38.2541,85.7444 37.5,88.5C 36.7326,87.828 36.0659,86.9947 35.5,86C 36.4506,85.2825 36.6172,84.4491 36,83.5C 33.5464,85.4412 31.713,87.7746 30.5,90.5C 30.5,91.1667 30.5,91.8333 30.5,92.5C 26.0404,104.252 20.3738,115.419 13.5,126C 14.9304,127.44 16.597,127.774 18.5,127C 19.4881,124.833 20.8214,123 22.5,121.5C 21.7236,124.89 20.057,127.724 17.5,130C 18,130.5 18.5,131 19,131.5C 19.4531,138.177 19.9531,144.844 20.5,151.5C 19.1779,151.67 18.0113,151.337 17,150.5C 16.6667,148.833 16.3333,147.167 16,145.5C 15.6667,148.5 15.3333,151.5 15,154.5C 14.6174,155.056 14.1174,155.389 13.5,155.5C 13.9478,151.476 14.6145,147.476 15.5,143.5C 17.0691,144.714 17.9024,146.381 18,148.5C 18.6667,143.167 18.6667,137.833 18,132.5C 14.6812,129.209 11.1812,128.876 7.5,131.5C 10.1915,128.805 12.5248,125.805 14.5,122.5C 14.1667,121.833 13.8333,121.167 13.5,120.5C 16.0334,113.533 17.7001,106.366 18.5,99C 22.5237,88.4954 27.1903,78.3287 32.5,68.5C 29.5551,62.5105 29.8885,56.8438 33.5,51.5C 32.5375,55.796 32.3708,60.1294 33,64.5C 34.1986,55.6021 38.3653,48.4354 45.5,43C 43.8034,42.6155 42.1368,42.7822 40.5,43.5C 45.8467,40.1403 51.8467,38.1403 58.5,37.5C 60.2785,36.3303 61.2785,34.6636 61.5,32.5C 68.0498,36.9314 74.0498,36.2648 79.5,30.5 Z"/></g>
<g><path style="opacity:1" fill="#f9f9f9" d="M 63.5,37.5 C 67.5021,38.7597 71.5021,38.7597 75.5,37.5C 77.4454,46.897 73.7788,49.7303 64.5,46C 63.5562,43.2809 63.2229,40.4475 63.5,37.5 Z"/></g>
<g><path style="opacity:1" fill="#e7e5e6" d="M 58.5,37.5 C 60.3079,38.9179 60.9746,40.9179 60.5,43.5C 57.763,42.969 55.0964,42.1356 52.5,41C 54.7582,40.124 56.7582,38.9573 58.5,37.5 Z"/></g>
<g><path style="opacity:1" fill="#f2f1f2" d="M 79.5,37.5 C 82.096,38.757 84.7627,39.9236 87.5,41C 85.1287,41.7348 82.7954,42.5682 80.5,43.5C 79.5344,41.604 79.2011,39.604 79.5,37.5 Z"/></g>
<g><path style="opacity:1" fill="#3e3d3e" d="M 97.5,42.5 C 99.0269,42.427 100.027,43.0937 100.5,44.5C 98.9731,44.573 97.9731,43.9063 97.5,42.5 Z"/></g>
<g><path style="opacity:1" fill="#f6f5f5" d="M 48.5,44.5 C 50.7345,44.3801 52.9011,44.7135 55,45.5C 56.2575,45.8499 56.5908,46.5165 56,47.5C 49.7642,51.0667 44.0975,55.4 39,60.5C 38.837,53.1553 42.0037,47.822 48.5,44.5 Z"/></g>
<g><path style="opacity:1" fill="#f5f4f4" d="M 85.5,44.5 C 94.1807,45.1721 99.514,49.8388 101.5,58.5C 101.167,59.1667 100.833,59.8333 100.5,60.5C 95.2627,54.878 89.2627,50.2113 82.5,46.5C 83.6016,45.8243 84.6016,45.1577 85.5,44.5 Z"/></g>
<g><path style="opacity:1" fill="#4f4f4f" d="M 100.5,44.5 C 102.5,44.5 103.5,45.5 103.5,47.5C 102.167,46.8333 101.167,45.8333 100.5,44.5 Z"/></g>
<g><path style="opacity:1" fill="#424242" d="M 40.5,43.5 C 38.1377,46.192 35.8044,48.8587 33.5,51.5C 34.4308,47.5713 36.7641,44.9047 40.5,43.5 Z"/></g>
<g><path style="opacity:1" fill="#ededed" d="M 33.5,51.5 C 35.8044,48.8587 38.1377,46.192 40.5,43.5C 42.1368,42.7822 43.8034,42.6155 45.5,43C 38.3653,48.4354 34.1986,55.6021 33,64.5C 32.3708,60.1294 32.5375,55.796 33.5,51.5 Z"/></g>
<g><path style="opacity:1" fill="#fbfbfc" d="M 47.5,72.5 C 47.573,70.9731 46.9063,69.9731 45.5,69.5C 44.9278,67.7446 44.0945,66.0779 43,64.5C 42.3333,63.1667 42.3333,61.8333 43,60.5C 48.9968,54.9245 55.8301,51.0911 63.5,49C 65.3333,49.5 66.5,50.6667 67,52.5C 67.7047,60.8611 67.5381,69.1944 66.5,77.5C 59.4117,78.2228 53.0783,76.5561 47.5,72.5 Z"/></g>
<g><path style="opacity:1" fill="#fbfbfb" d="M 89.5,75.5 C 87.5648,76.1495 85.5648,76.4828 83.5,76.5C 81.901,76.2322 80.5676,76.5655 79.5,77.5C 77.2075,77.7564 75.0408,77.4231 73,76.5C 72.3333,68.1667 72.3333,59.8333 73,51.5C 74.1171,49.8757 75.6171,48.8757 77.5,48.5C 85.596,51.2841 92.2627,55.9508 97.5,62.5C 95.0731,67.0285 92.4064,71.3619 89.5,75.5 Z"/></g>
<g><path style="opacity:1" fill="#ededed" d="M 97.5,42.5 C 97.9731,43.9063 98.9731,44.573 100.5,44.5C 101.167,45.8333 102.167,46.8333 103.5,47.5C 104.912,49.9976 106.079,52.6642 107,55.5C 107.821,58.5541 107.655,61.5541 106.5,64.5C 105.754,55.5069 101.754,48.3403 94.5,43C 95.448,42.5172 96.448,42.3505 97.5,42.5 Z"/></g>
<g><path style="opacity:1" fill="#f9f9f9" d="M 37.5,80.5 C 35.2034,82.2941 33.0367,84.2941 31,86.5C 29.0962,77.2103 31.7628,69.5437 39,63.5C 39.9435,64.263 40.4435,65.263 40.5,66.5C 39.496,71.1807 38.496,75.8474 37.5,80.5 Z"/></g>
<g><path style="opacity:1" fill="#f7f6f6" d="M 107.5,70.5 C 108.684,74.2268 109.351,78.0601 109.5,82C 109.494,84.0326 109.161,85.866 108.5,87.5C 102.181,81.2233 99.1813,73.5566 99.5,64.5C 100.552,64.3505 101.552,64.5172 102.5,65C 104.3,66.8119 105.967,68.6452 107.5,70.5 Z"/></g>
<g><path style="opacity:1" fill="#3d3a3b" d="M 45.5,69.5 C 46.9063,69.9731 47.573,70.9731 47.5,72.5C 46.0937,72.0269 45.427,71.0269 45.5,69.5 Z"/></g>
<g><path style="opacity:1" fill="#cac8c9" d="M 45.5,69.5 C 45.427,71.0269 46.0937,72.0269 47.5,72.5C 47.631,73.2389 47.4643,73.9056 47,74.5C 46.2917,73.6195 45.4584,72.9528 44.5,72.5C 44.4606,71.4168 44.1272,70.4168 43.5,69.5C 43.9698,68.537 44.6365,68.537 45.5,69.5 Z"/></g>
<g><path style="opacity:1" fill="#f5f4f4" d="M 95.5,80.5 C 94.5416,80.9528 93.7083,81.6195 93,82.5C 91.8846,78.5155 92.8846,75.1822 96,72.5C 96.4298,75.1922 96.2631,77.8589 95.5,80.5 Z"/></g>
<g><path style="opacity:1" fill="#f3f2f3" d="M 44.5,72.5 C 44.6854,74.1958 45.5187,75.5291 47,76.5C 47.1412,83.8138 45.8079,83.4804 43,75.5C 42.3333,74.1667 42.3333,72.8333 43,71.5C 43.3826,72.056 43.8826,72.3893 44.5,72.5 Z"/></g>
<g><path style="opacity:1" fill="#504f4f" d="M 89.5,75.5 C 88.3215,77.5065 88.8215,77.8398 91,76.5C 91.1667,77 91.3333,77.5 91.5,78C 90.4826,80.7866 90.3159,83.62 91,86.5C 92.1127,85.695 93.2794,85.0283 94.5,84.5C 93.7692,92.2758 93.7692,99.9425 94.5,107.5C 94.1667,107.5 93.8333,107.5 93.5,107.5C 93.8938,106.033 94.2272,104.533 94.5,103C 93.6983,99.596 92.6983,96.2627 91.5,93C 91.9434,91.175 92.2767,89.3417 92.5,87.5C 91.5,87.5 90.5,87.5 89.5,87.5C 89.8174,84.4281 89.4841,81.4281 88.5,78.5C 86.6639,77.9724 84.9972,77.3058 83.5,76.5C 85.5648,76.4828 87.5648,76.1495 89.5,75.5 Z"/></g>
<g><path style="opacity:1" fill="#faf9fa" d="M 45.5,106.5 C 46.8881,100.289 47.5547,93.9552 47.5,87.5C 48.5,87.5 49.5,87.5 50.5,87.5C 50.5,84.8333 50.5,82.1667 50.5,79.5C 51.8333,79.5 53.1667,79.5 54.5,79.5C 55.7655,90.4818 55.7655,101.482 54.5,112.5C 51.2993,110.738 48.2993,108.738 45.5,106.5 Z"/></g>
<g><path style="opacity:1" fill="#fafafa" d="M 89.5,87.5 C 90.5,87.5 91.5,87.5 92.5,87.5C 92.2767,89.3417 91.9434,91.175 91.5,93C 92.6983,96.2627 93.6983,99.596 94.5,103C 94.2272,104.533 93.8938,106.033 93.5,107.5C 91.246,108.124 89.5794,109.457 88.5,111.5C 87.4168,111.539 86.4168,111.873 85.5,112.5C 84.5078,108.217 84.1744,103.884 84.5,99.5C 84.5,92.8333 84.5,86.1667 84.5,79.5C 85.8333,79.5 87.1667,79.5 88.5,79.5C 88.1936,82.3854 88.5269,85.0521 89.5,87.5 Z"/></g>
<g><path style="opacity:1" fill="#fcfbfb" d="M 58.5,80.5 C 61.5,80.5 64.5,80.5 67.5,80.5C 67.5,81.8333 67.5,83.1667 67.5,84.5C 64.5525,84.2229 61.7191,84.5562 59,85.5C 58.5065,83.8659 58.3398,82.1992 58.5,80.5 Z"/></g>
<g><path style="opacity:1" fill="#eeeced" d="M 71.5,80.5 C 74.8333,80.5 78.1667,80.5 81.5,80.5C 81.5,82.1667 81.5,83.8333 81.5,85.5C 78.1933,84.9492 74.8599,84.6159 71.5,84.5C 71.5,83.1667 71.5,81.8333 71.5,80.5 Z"/></g>
<g><path style="opacity:1" fill="#444242" d="M 112.5,80.5 C 114.025,82.2163 115.025,84.2163 115.5,86.5C 114.21,85.9423 113.377,84.9423 113,83.5C 112.505,85.4727 112.338,87.4727 112.5,89.5C 111.203,87.0941 111.203,84.0941 112.5,80.5 Z"/></g>
<g><path style="opacity:1" fill="#ebebeb" d="M 26.5,83.5 C 27.1386,84.0968 27.472,84.9302 27.5,86C 25.5277,95.2493 22.3611,104.083 18,112.5C 18.29,102.126 21.1234,92.4591 26.5,83.5 Z"/></g>
<g><path style="opacity:1" fill="#eaeaea" d="M 115.5,86.5 C 116.338,86.8417 116.672,87.5084 116.5,88.5C 119.434,95.9006 120.934,103.567 121,111.5C 117.641,104.237 114.807,96.9032 112.5,89.5C 112.338,87.4727 112.505,85.4727 113,83.5C 113.377,84.9423 114.21,85.9423 115.5,86.5 Z"/></g>
<g><path style="opacity:1" fill="#aaaaaa" d="M 37.5,88.5 C 37.5,89.1667 37.1667,89.5 36.5,89.5C 36.1667,89.5 35.8333,89.5 35.5,89.5C 35.5,88.8333 35.1667,88.5 34.5,88.5C 34.5654,88.0618 34.3988,87.7284 34,87.5C 32.9609,88.7101 31.7942,89.7101 30.5,90.5C 31.713,87.7746 33.5464,85.4412 36,83.5C 36.6172,84.4491 36.4506,85.2825 35.5,86C 36.0659,86.9947 36.7326,87.828 37.5,88.5 Z"/></g>
<g><path style="opacity:1" fill="#4c4b4b" d="M 101.5,83.5 C 104.243,85.2393 106.243,87.5726 107.5,90.5C 106.206,89.7101 105.039,88.7101 104,87.5C 105.895,96.3905 108.728,105.057 112.5,113.5C 110.526,111.572 109.026,109.239 108,106.5C 105.52,98.8961 103.353,91.2295 101.5,83.5 Z"/></g>
<g><path style="opacity:1" fill="#474646" d="M 107.5,70.5 C 109.868,72.9557 110.868,75.9557 110.5,79.5C 110.665,83.1817 110.499,86.8484 110,90.5C 108.961,89.7562 108.461,88.7562 108.5,87.5C 109.161,85.866 109.494,84.0326 109.5,82C 109.351,78.0601 108.684,74.2268 107.5,70.5 Z"/></g>
<g><path style="opacity:1" fill="#efeeee" d="M 61.5,92.5 C 60.8333,92.8333 60.1667,93.1667 59.5,93.5C 58.2121,91.9652 58.2121,90.2985 59.5,88.5C 62.0841,87.6072 64.7508,87.2739 67.5,87.5C 67.5,89.1667 67.5,90.8333 67.5,92.5C 65.5,92.5 63.5,92.5 61.5,92.5 Z"/></g>
<g><path style="opacity:1" fill="#eff0f0" d="M 78.5,87.5 C 79.968,88.7791 80.6347,90.4458 80.5,92.5C 79.5,92.5 78.5,92.5 77.5,92.5C 75.5,92.5 73.5,92.5 71.5,92.5C 71.5,90.8333 71.5,89.1667 71.5,87.5C 73.8333,87.5 76.1667,87.5 78.5,87.5 Z"/></g>
<g><path style="opacity:1" fill="#7f7f7f" d="M 79.5,77.5 C 80.5676,76.5655 81.901,76.2322 83.5,76.5C 84.9972,77.3058 86.6639,77.9724 88.5,78.5C 89.4841,81.4281 89.8174,84.4281 89.5,87.5C 88.5269,85.0521 88.1936,82.3854 88.5,79.5C 87.1667,79.5 85.8333,79.5 84.5,79.5C 84.5,86.1667 84.5,92.8333 84.5,99.5C 83.6909,97.7078 83.1909,95.7078 83,93.5C 82.3021,94.6906 81.4687,95.6906 80.5,96.5C 79.209,96.7373 78.209,96.404 77.5,95.5C 78.9217,95.2914 80.255,94.7914 81.5,94C 81,93.8333 80.5,93.6667 80,93.5C 76.8948,94.3672 73.7281,94.7006 70.5,94.5C 70.5,94.1667 70.5,93.8333 70.5,93.5C 73.0593,93.8016 75.3926,93.4682 77.5,92.5C 78.5,92.5 79.5,92.5 80.5,92.5C 80.6347,90.4458 79.968,88.7791 78.5,87.5C 79.7079,86.7659 81.0413,86.4326 82.5,86.5C 82.5,84.1667 82.5,81.8333 82.5,79.5C 76.7924,79.5076 76.4591,79.0076 81.5,78C 80.9056,77.5357 80.2389,77.369 79.5,77.5 Z"/></g>
<g><path style="opacity:1" fill="#f5f5f5" d="M 34.5,88.5 C 35.1667,88.5 35.5,88.8333 35.5,89.5C 33.5623,94.3434 32.0623,99.3434 31,104.5C 28.1401,110.22 25.3068,115.886 22.5,121.5C 20.8214,123 19.4881,124.833 18.5,127C 16.597,127.774 14.9304,127.44 13.5,126C 20.3738,115.419 26.0404,104.252 30.5,92.5C 32.1667,91.5 33.5,90.1667 34.5,88.5 Z"/></g>
<g><path style="opacity:1" fill="#464646" d="M 34.5,88.5 C 33.5,90.1667 32.1667,91.5 30.5,92.5C 30.5,91.8333 30.5,91.1667 30.5,90.5C 31.7942,89.7101 32.9609,88.7101 34,87.5C 34.3988,87.7284 34.5654,88.0618 34.5,88.5 Z"/></g>
<g><path style="opacity:1" fill="#f3f2f3" d="M 107.5,90.5 C 109.478,93.3333 111.311,96.3333 113,99.5C 116.395,109.281 120.562,118.614 125.5,127.5C 123.799,127.966 122.299,127.966 121,127.5C 118.894,122.27 116.061,117.603 112.5,113.5C 108.728,105.057 105.895,96.3905 104,87.5C 105.039,88.7101 106.206,89.7101 107.5,90.5 Z"/></g>
<g><path style="opacity:1" fill="#9a9a9a" d="M 59.5,93.5 C 60.1667,93.1667 60.8333,92.8333 61.5,92.5C 63.6074,93.4682 65.9407,93.8016 68.5,93.5C 68.5,93.8333 68.5,94.1667 68.5,94.5C 69.8229,104.341 69.8229,114.341 68.5,124.5C 67.8933,124.376 67.56,124.043 67.5,123.5C 68.4912,116.687 68.8245,109.687 68.5,102.5C 64.8333,102.5 61.1667,102.5 57.5,102.5C 57.2529,105.939 57.5863,109.272 58.5,112.5C 57.8333,113.167 57.1667,113.833 56.5,114.5C 56.3335,104.494 56.5002,94.4944 57,84.5C 57.3742,85.4162 57.8742,86.2496 58.5,87C 57.2234,89.4659 57.2234,91.9659 58.5,94.5C 59.1067,94.3764 59.44,94.0431 59.5,93.5 Z"/></g>
<g><path style="opacity:1" fill="#3d3c3c" d="M 60.5,95.5 C 62.9479,94.5269 65.6146,94.1936 68.5,94.5C 68.5,96.8333 68.5,99.1667 68.5,101.5C 64.8333,101.5 61.1667,101.5 57.5,101.5C 57.0254,98.9179 57.6921,96.9179 59.5,95.5C 58.6993,97.0418 58.366,98.7085 58.5,100.5C 61.5,100.5 64.5,100.5 67.5,100.5C 67.5,98.8333 67.5,97.1667 67.5,95.5C 65.1667,95.5 62.8333,95.5 60.5,95.5 Z"/></g>
<g><path style="opacity:1" fill="#f2f1f1" d="M 59.5,95.5 C 59.8333,95.5 60.1667,95.5 60.5,95.5C 62.8333,95.5 65.1667,95.5 67.5,95.5C 67.5,97.1667 67.5,98.8333 67.5,100.5C 64.5,100.5 61.5,100.5 58.5,100.5C 58.366,98.7085 58.6993,97.0418 59.5,95.5 Z"/></g>
<g><path style="opacity:1" fill="#5c5d5d" d="M 77.5,95.5 C 75.8333,95.5 74.1667,95.5 72.5,95.5C 72.5,97.1667 72.5,98.8333 72.5,100.5C 75.1667,100.5 77.8333,100.5 80.5,100.5C 80.5,99.1667 80.5,97.8333 80.5,96.5C 81.4687,95.6906 82.3021,94.6906 83,93.5C 83.1909,95.7078 83.6909,97.7078 84.5,99.5C 84.1744,103.884 84.5078,108.217 85.5,112.5C 86.4168,111.873 87.4168,111.539 88.5,111.5C 87.2642,113.043 85.5976,114.043 83.5,114.5C 82.7189,113.271 82.2189,111.938 82,110.5C 80.3472,115.139 78.1806,119.472 75.5,123.5C 74.0695,123.421 72.7362,123.754 71.5,124.5C 70.5041,118.537 70.1707,112.537 70.5,106.5C 71.1667,111.833 71.8333,117.167 72.5,122.5C 78.6558,117.833 81.3224,111.5 80.5,103.5C 77.6146,103.194 74.9479,103.527 72.5,104.5C 71.9569,104.44 71.6236,104.107 71.5,103.5C 75.1224,102.675 78.789,102.175 82.5,102C 78.5138,101.501 74.5138,101.334 70.5,101.5C 70.5,99.1667 70.5,96.8333 70.5,94.5C 73.7281,94.7006 76.8948,94.3672 80,93.5C 80.5,93.6667 81,93.8333 81.5,94C 80.255,94.7914 78.9217,95.2914 77.5,95.5 Z"/></g>
<g><path style="opacity:1" fill="#f9f8f9" d="M 77.5,95.5 C 78.209,96.404 79.209,96.7373 80.5,96.5C 80.5,97.8333 80.5,99.1667 80.5,100.5C 77.8333,100.5 75.1667,100.5 72.5,100.5C 72.5,98.8333 72.5,97.1667 72.5,95.5C 74.1667,95.5 75.8333,95.5 77.5,95.5 Z"/></g>
<g><path style="opacity:1" fill="#fafafa" d="M 72.5,122.5 C 72.5,116.5 72.5,110.5 72.5,104.5C 74.9479,103.527 77.6146,103.194 80.5,103.5C 81.3224,111.5 78.6558,117.833 72.5,122.5 Z"/></g>
<g><path style="opacity:1" fill="#494949" d="M 67.5,123.5 C 65.6096,123.703 64.1096,123.037 63,121.5C 61.2389,118.589 59.7389,115.589 58.5,112.5C 57.5863,109.272 57.2529,105.939 57.5,102.5C 61.1667,102.5 64.8333,102.5 68.5,102.5C 68.8245,109.687 68.4912,116.687 67.5,123.5 Z"/></g>
<g><path style="opacity:1" fill="#fafafa" d="M 58.5,103.5 C 61.5,103.5 64.5,103.5 67.5,103.5C 67.8297,109.868 67.4963,116.202 66.5,122.5C 60.8354,117.496 58.1687,111.163 58.5,103.5 Z"/></g>
<g><path style="opacity:1" fill="#a1a1a1" d="M 93.5,107.5 C 93.8333,107.5 94.1667,107.5 94.5,107.5C 96.4364,111.715 97.1031,116.381 96.5,121.5C 96.0465,116.721 95.0465,112.054 93.5,107.5 Z"/></g>
<g><path style="opacity:1" fill="#939393" d="M 70.5,101.5 C 74.5138,101.334 78.5138,101.501 82.5,102C 78.789,102.175 75.1224,102.675 71.5,103.5C 71.6236,104.107 71.9569,104.44 72.5,104.5C 72.5,110.5 72.5,116.5 72.5,122.5C 71.8333,117.167 71.1667,111.833 70.5,106.5C 70.5,104.833 70.5,103.167 70.5,101.5 Z"/></g>
<g><path style="opacity:1" fill="#515151" d="M 35.5,89.5 C 35.8333,89.5 36.1667,89.5 36.5,89.5C 34.5212,101.447 29.8545,112.114 22.5,121.5C 25.3068,115.886 28.1401,110.22 31,104.5C 32.0623,99.3434 33.5623,94.3434 35.5,89.5 Z"/></g>
<g><path style="opacity:1" fill="#f2f2f2" d="M 95.5,135.5 C 95.8016,138.059 95.4682,140.393 94.5,142.5C 93.63,135.687 92.13,129.02 90,122.5C 86.8036,132.565 81.8036,141.565 75,149.5C 74.6753,147.447 75.0087,145.447 76,143.5C 79.1311,137.263 81.9645,130.929 84.5,124.5C 86.4091,119.026 89.5757,114.359 94,110.5C 94.611,118.831 95.111,127.164 95.5,135.5 Z"/></g>
<g><path style="opacity:1" fill="#f2f1f1" d="M 88.5,111.5 C 89.2389,111.369 89.9056,111.536 90.5,112C 88.9512,113.214 87.7845,114.714 87,116.5C 83.3908,118.282 80.2241,120.615 77.5,123.5C 76.8333,123.5 76.1667,123.5 75.5,123.5C 78.1806,119.472 80.3472,115.139 82,110.5C 82.2189,111.938 82.7189,113.271 83.5,114.5C 85.5976,114.043 87.2642,113.043 88.5,111.5 Z"/></g>
<g><path style="opacity:1" fill="#f0eff0" d="M 50.5,114.5 C 53.702,120.791 56.702,127.124 59.5,133.5C 61.7788,139.06 63.7788,144.726 65.5,150.5C 62.8436,145.879 59.6769,141.546 56,137.5C 53.5391,132.614 51.3724,127.614 49.5,122.5C 47.9773,129.903 46.144,137.236 44,144.5C 43.8894,133.157 44.3894,121.823 45.5,110.5C 47.1856,111.857 48.8523,113.19 50.5,114.5 Z"/></g>
<g><path style="opacity:1" fill="#565555" d="M 93.5,107.5 C 95.0465,112.054 96.0465,116.721 96.5,121.5C 96.5,124.833 96.5,128.167 96.5,131.5C 96.7678,133.099 96.4345,134.432 95.5,135.5C 95.111,127.164 94.611,118.831 94,110.5C 89.5757,114.359 86.4091,119.026 84.5,124.5C 83.7784,124.082 83.2784,123.416 83,122.5C 82.7216,123.416 82.2216,124.082 81.5,124.5C 81.6495,123.448 81.4828,122.448 81,121.5C 80.1841,122.823 79.0174,123.489 77.5,123.5C 80.2241,120.615 83.3908,118.282 87,116.5C 87.7845,114.714 88.9512,113.214 90.5,112C 89.9056,111.536 89.2389,111.369 88.5,111.5C 89.5794,109.457 91.246,108.124 93.5,107.5 Z"/></g>
<g><path style="opacity:1" fill="#636162" d="M 50.5,114.5 C 52.1733,115.343 53.34,116.676 54,118.5C 54.414,118.043 54.914,117.709 55.5,117.5C 56.9093,118.849 58.2426,120.182 59.5,121.5C 58.7611,121.369 58.0944,121.536 57.5,122C 59.5921,126.015 61.2588,130.181 62.5,134.5C 61.4415,133.4 60.6082,132.066 60,130.5C 59.5172,131.448 59.3505,132.448 59.5,133.5C 56.702,127.124 53.702,120.791 50.5,114.5 Z"/></g>
<g><path style="opacity:1" fill="#413f3f" d="M 59.5,121.5 C 61.4044,121.738 62.7377,122.738 63.5,124.5C 61.5956,124.262 60.2623,123.262 59.5,121.5 Z"/></g>
<g><path style="opacity:1" fill="#434142" d="M 75.5,123.5 C 76.1667,123.5 76.8333,123.5 77.5,123.5C 76.7377,125.262 75.4044,126.262 73.5,126.5C 74.1667,125.5 74.8333,124.5 75.5,123.5 Z"/></g>
<g><path style="opacity:1" fill="#f0efef" d="M 59.5,121.5 C 60.2623,123.262 61.5956,124.262 63.5,124.5C 64.6485,126.149 65.9818,127.649 67.5,129C 66.7703,132.794 66.2703,136.627 66,140.5C 65.059,138.273 63.8923,136.273 62.5,134.5C 61.2588,130.181 59.5921,126.015 57.5,122C 58.0944,121.536 58.7611,121.369 59.5,121.5 Z"/></g>
<g><path style="opacity:1" fill="#f5f4f5" d="M 81.5,124.5 C 78.9899,128.187 76.9899,132.187 75.5,136.5C 75.0133,137.473 74.5133,138.473 74,139.5C 72.9091,135.102 72.7424,130.769 73.5,126.5C 75.4044,126.262 76.7377,125.262 77.5,123.5C 79.0174,123.489 80.1841,122.823 81,121.5C 81.4828,122.448 81.6495,123.448 81.5,124.5 Z"/></g>
<g><path style="opacity:1" fill="#f2f2f2" d="M 13.5,155.5 C 13.3656,151.314 13.0322,146.981 12.5,142.5C 11.8076,143.025 11.3076,143.692 11,144.5C 10.7508,143.376 10.2508,142.376 9.5,141.5C 8.14077,142.624 7.14077,143.958 6.5,145.5C 6.59001,143.304 6.92335,141.137 7.5,139C 7.16667,138.167 6.83333,137.333 6.5,136.5C 5.60433,137.506 4.93767,137.506 4.5,136.5C 5.95244,135.06 6.95244,133.394 7.5,131.5C 11.1812,128.876 14.6812,129.209 18,132.5C 18.6667,137.833 18.6667,143.167 18,148.5C 17.9024,146.381 17.0691,144.714 15.5,143.5C 14.6145,147.476 13.9478,151.476 13.5,155.5 Z"/></g>
<g><path style="opacity:1" fill="#f6f5f6" d="M 135.5,135.5 C 135.611,137.648 134.944,137.981 133.5,136.5C 132.534,138.396 132.201,140.396 132.5,142.5C 131.85,142.196 131.183,141.863 130.5,141.5C 129.702,143.078 129.202,144.744 129,146.5C 128.667,145.5 128.333,144.5 128,143.5C 127.31,142.262 126.81,142.262 126.5,143.5C 125.348,142.375 124.348,142.375 123.5,143.5C 122.531,145.663 121.698,147.996 121,150.5C 120.989,144.168 121.489,137.835 122.5,131.5C 124.295,130.735 126.128,130.068 128,129.5C 130.652,131.32 133.152,133.32 135.5,135.5 Z"/></g>
<g><path style="opacity:1" fill="#cbc9ca" d="M 62.5,134.5 C 62.6495,135.552 62.4828,136.552 62,137.5C 61.3918,135.934 60.5585,134.6 59.5,133.5C 59.3505,132.448 59.5172,131.448 60,130.5C 60.6082,132.066 61.4415,133.4 62.5,134.5 Z"/></g>
<g><path style="opacity:1" fill="#f9f8f9" d="M 58.5,149.5 C 58.3584,158.524 58.6917,167.524 59.5,176.5C 54.6346,169.594 51.3013,161.928 49.5,153.5C 49.2785,150.933 48.6118,148.599 47.5,146.5C 48.0851,142.409 49.0851,138.409 50.5,134.5C 52.473,137.64 54.6397,140.64 57,143.5C 58.128,145.345 58.628,147.345 58.5,149.5 Z"/></g>
<g><path style="opacity:1" fill="#575657" d="M 7.5,131.5 C 6.95244,133.394 5.95244,135.06 4.5,136.5C 4.93767,137.506 5.60433,137.506 6.5,136.5C 6.83333,137.333 7.16667,138.167 7.5,139C 6.92335,141.137 6.59001,143.304 6.5,145.5C 5.09496,147.225 4.59496,149.225 5,151.5C 6.24651,149.119 6.57985,149.453 6,152.5C 4.45548,153.821 3.28881,153.488 2.5,151.5C 4.34643,147.133 5.34643,142.799 5.5,138.5C 3.92878,140.415 1.92878,141.415 -0.5,141.5C -0.5,140.5 -0.5,139.5 -0.5,138.5C 2.37087,136.456 5.03754,134.123 7.5,131.5 Z"/></g>
<g><path style="opacity:1" fill="#504f50" d="M 63.5,124.5 C 66.5709,125.039 68.2376,126.873 68.5,130C 67.8623,135.152 67.3623,140.319 67,145.5C 66.3457,144.304 65.8457,144.304 65.5,145.5C 66.9459,147.618 67.6126,149.951 67.5,152.5C 67.6602,154.199 67.4935,155.866 67,157.5C 65.9558,155.128 65.4558,152.795 65.5,150.5C 63.7788,144.726 61.7788,139.06 59.5,133.5C 60.5585,134.6 61.3918,135.934 62,137.5C 62.4828,136.552 62.6495,135.552 62.5,134.5C 63.8923,136.273 65.059,138.273 66,140.5C 66.2703,136.627 66.7703,132.794 67.5,129C 65.9818,127.649 64.6485,126.149 63.5,124.5 Z"/></g>
<g><path style="opacity:1" fill="#403f3f" d="M 73.5,126.5 C 72.7424,130.769 72.9091,135.102 74,139.5C 74.5133,138.473 75.0133,137.473 75.5,136.5C 76.0431,136.56 76.3764,136.893 76.5,137.5C 75.4867,139.527 74.4867,141.527 73.5,143.5C 72.699,139.165 71.699,134.165 70.5,128.5C 71.0047,127.081 72.0047,126.415 73.5,126.5 Z"/></g>
<g><path style="opacity:1" fill="#515151" d="M 135.5,135.5 C 137.553,136.534 139.22,138.034 140.5,140C 137.903,142.033 135.737,141.533 134,138.5C 134.155,140.811 134.155,143.144 134,145.5C 133.768,144.263 133.268,143.263 132.5,142.5C 132.201,140.396 132.534,138.396 133.5,136.5C 134.944,137.981 135.611,137.648 135.5,135.5 Z"/></g>
<g><path style="opacity:1" fill="#979596" d="M 123.5,143.5 C 124.348,142.375 125.348,142.375 126.5,143.5C 126.566,147.559 126.733,151.559 127,155.5C 126.027,153.608 125.36,151.608 125,149.5C 124.536,150.094 124.369,150.761 124.5,151.5C 123.833,150.833 123.167,150.167 122.5,149.5C 123.089,147.648 123.756,145.815 124.5,144C 124.272,143.601 123.938,143.435 123.5,143.5 Z"/></g>
<g><path style="opacity:1" fill="#575757" d="M 132.5,142.5 C 132.523,144.927 133.023,147.26 134,149.5C 134.333,148.5 134.667,147.5 135,146.5C 136.558,148.769 136.724,151.102 135.5,153.5C 133.578,151.997 132.412,149.997 132,147.5C 131.581,151.852 130.914,152.185 130,148.5C 129.516,150.913 129.85,153.246 131,155.5C 131.333,154.5 131.667,153.5 132,152.5C 132.16,158.369 131.16,158.703 129,153.5C 128.517,154.448 128.351,155.448 128.5,156.5C 125.53,156.254 124.197,154.588 124.5,151.5C 124.369,150.761 124.536,150.094 125,149.5C 125.36,151.608 126.027,153.608 127,155.5C 126.733,151.559 126.566,147.559 126.5,143.5C 126.81,142.262 127.31,142.262 128,143.5C 128.333,144.5 128.667,145.5 129,146.5C 129.202,144.744 129.702,143.078 130.5,141.5C 131.183,141.863 131.85,142.196 132.5,142.5 Z"/></g>
<g><path style="opacity:1" fill="#979696" d="M 47.5,146.5 C 48.6118,148.599 49.2785,150.933 49.5,153.5C 48.7321,154.263 48.2321,155.263 48,156.5C 47.1779,154.212 46.5112,151.878 46,149.5C 45.6667,150.5 45.3333,151.5 45,152.5C 44.245,149.697 44.5783,147.03 46,144.5C 46.1587,146.343 46.6587,147.009 47.5,146.5 Z"/></g>
<g><path style="opacity:1" fill="#272727" d="M 96.5,148.5 C 96.5,149.167 96.5,149.833 96.5,150.5C 94.7615,148.881 94.2615,146.881 95,144.5C 96.1882,145.563 96.6882,146.897 96.5,148.5 Z"/></g>
<g><path style="opacity:1" fill="#595757" d="M 13.5,155.5 C 13.44,156.043 13.1067,156.376 12.5,156.5C 11.3503,153.253 10.517,149.92 10,146.5C 9.00501,149.126 8.67168,151.793 9,154.5C 9.55563,152.405 10.0556,152.238 10.5,154C 10.2212,156.662 9.05451,157.495 7,156.5C 6.92167,153.629 7.42167,150.795 8.5,148C 8.33333,147.5 8.16667,147 8,146.5C 6.91253,148.932 6.41253,148.598 6.5,145.5C 7.14077,143.958 8.14077,142.624 9.5,141.5C 10.2508,142.376 10.7508,143.376 11,144.5C 11.3076,143.692 11.8076,143.025 12.5,142.5C 13.0322,146.981 13.3656,151.314 13.5,155.5 Z"/></g>
<g><path style="opacity:1" fill="#f5f5f5" d="M 65.5,158.5 C 66.1816,164.455 66.1816,170.455 65.5,176.5C 64.5,176.5 63.5,176.5 62.5,176.5C 62.5,174.833 62.5,173.167 62.5,171.5C 62.3339,165.824 62.5006,160.157 63,154.5C 63.6082,156.066 64.4415,157.4 65.5,158.5 Z"/></g>
<g><path style="opacity:1" fill="#929091" d="M 96.5,131.5 C 97.8333,137.167 97.8333,142.833 96.5,148.5C 96.6882,146.897 96.1882,145.563 95,144.5C 94.2615,146.881 94.7615,148.881 96.5,150.5C 96.3713,152.216 96.038,153.883 95.5,155.5C 94.8333,156.5 94.1667,157.5 93.5,158.5C 93.5,157.833 93.1667,157.5 92.5,157.5C 92.5654,157.062 92.3988,156.728 92,156.5C 91.6667,157.167 91.3333,157.833 91,158.5C 90.7679,157.263 90.2679,156.263 89.5,155.5C 89.3284,154.508 89.6618,153.842 90.5,153.5C 90.4346,153.938 90.6012,154.272 91,154.5C 91.9745,152.122 92.6411,152.456 93,155.5C 94.4868,153.728 94.8201,151.728 94,149.5C 93.0944,152.121 92.5944,151.954 92.5,149C 92.8747,146.711 93.5414,144.545 94.5,142.5C 95.4682,140.393 95.8016,138.059 95.5,135.5C 96.4345,134.432 96.7678,133.099 96.5,131.5 Z"/></g>
<g><path style="opacity:1" fill="#7c7a7b" d="M 65.5,150.5 C 65.4558,152.795 65.9558,155.128 67,157.5C 67.4935,155.866 67.6602,154.199 67.5,152.5C 68.8333,155.167 68.8333,157.833 67.5,160.5C 66.8333,159.833 66.1667,159.167 65.5,158.5C 64.4415,157.4 63.6082,156.066 63,154.5C 62.5006,160.157 62.3339,165.824 62.5,171.5C 61.9348,173.42 60.9348,175.087 59.5,176.5C 58.6917,167.524 58.3584,158.524 58.5,149.5C 59.3019,148.048 59.8019,146.382 60,144.5C 61.5862,146.67 62.9196,149.004 64,151.5C 65.1068,152.712 65.6068,152.379 65.5,150.5 Z"/></g>
<g><path style="opacity:1" fill="#5c5b5b" d="M 84.5,124.5 C 81.9645,130.929 79.1311,137.263 76,143.5C 75.0087,145.447 74.6753,147.447 75,149.5C 81.8036,141.565 86.8036,132.565 90,122.5C 92.13,129.02 93.63,135.687 94.5,142.5C 93.5414,144.545 92.8747,146.711 92.5,149C 92.5944,151.954 93.0944,152.121 94,149.5C 94.8201,151.728 94.4868,153.728 93,155.5C 92.6411,152.456 91.9745,152.122 91,154.5C 90.6012,154.272 90.4346,153.938 90.5,153.5C 92.0952,146.687 91.5952,140.02 89,133.5C 86.6444,137.997 84.1444,142.33 81.5,146.5C 80.7784,146.082 80.2784,145.416 80,144.5C 78.8333,146.167 77.6667,147.833 76.5,149.5C 76.8457,150.696 77.3457,150.696 78,149.5C 78.3333,157.167 78.6667,164.833 79,172.5C 79.171,164.656 79.671,156.989 80.5,149.5C 81.7292,158.689 81.7292,167.689 80.5,176.5C 84.8636,170.073 87.8636,163.073 89.5,155.5C 90.2679,156.263 90.7679,157.263 91,158.5C 91.3333,157.833 91.6667,157.167 92,156.5C 92.3988,156.728 92.5654,157.062 92.5,157.5C 90.5611,163.686 88.3945,169.686 86,175.5C 90.1325,170.567 92.6325,164.9 93.5,158.5C 94.1667,157.5 94.8333,156.5 95.5,155.5C 94.8395,163.653 91.8395,170.82 86.5,177C 82.8333,177.333 79.1667,177.667 75.5,178C 78.8168,178.498 82.1501,178.665 85.5,178.5C 93.7234,195.243 93.3901,212.576 84.5,230.5C 83.0222,230.762 81.6888,230.429 80.5,229.5C 80.6236,228.893 80.9569,228.56 81.5,228.5C 82.1894,229.774 83.0228,229.774 84,228.5C 87.1099,220.061 89.2765,211.394 90.5,202.5C 90.1986,196.147 88.6986,190.147 86,184.5C 84.2752,187.674 82.9419,191.007 82,194.5C 81.5002,205.495 81.3335,216.495 81.5,227.5C 80.507,219.016 80.1736,210.349 80.5,201.5C 80.389,196.669 80.889,192.002 82,187.5C 81.1667,188.5 80.3333,189.5 79.5,190.5C 78.6043,189.494 77.9377,189.494 77.5,190.5C 78.4066,193.421 78.7399,196.421 78.5,199.5C 79.7421,209.648 79.7421,219.648 78.5,229.5C 76.4001,218.318 74.4001,206.985 72.5,195.5C 72.6155,191.78 73.1155,188.113 74,184.5C 74.6543,185.696 75.1543,185.696 75.5,184.5C 74.2081,182.333 73.3747,180 73,177.5C 72.7787,172.78 72.2787,168.113 71.5,163.5C 71.6517,159.251 71.8184,154.918 72,150.5C 73.5542,148.104 74.0542,145.771 73.5,143.5C 74.4867,141.527 75.4867,139.527 76.5,137.5C 76.3764,136.893 76.0431,136.56 75.5,136.5C 76.9899,132.187 78.9899,128.187 81.5,124.5C 82.2216,124.082 82.7216,123.416 83,122.5C 83.2784,123.416 83.7784,124.082 84.5,124.5 Z"/></g>
<g><path style="opacity:1" fill="#e6e5e5" d="M 92.5,157.5 C 93.1667,157.5 93.5,157.833 93.5,158.5C 92.6325,164.9 90.1325,170.567 86,175.5C 88.3945,169.686 90.5611,163.686 92.5,157.5 Z"/></g>
<g><path style="opacity:1" fill="#f8f7f7" d="M 76.5,153.5 C 77.654,159.987 77.8206,166.654 77,173.5C 76.7508,174.624 76.2508,175.624 75.5,176.5C 72.5234,168.647 72.8567,160.98 76.5,153.5 Z"/></g>
<g><path style="opacity:1" fill="#9c9b9c" d="M 81.5,146.5 C 81.7373,147.791 81.404,148.791 80.5,149.5C 79.671,156.989 79.171,164.656 79,172.5C 78.6667,164.833 78.3333,157.167 78,149.5C 77.3457,150.696 76.8457,150.696 76.5,149.5C 77.6667,147.833 78.8333,146.167 80,144.5C 80.2784,145.416 80.7784,146.082 81.5,146.5 Z"/></g>
<g><path style="opacity:1" fill="#f8f7f8" d="M 90.5,153.5 C 89.6618,153.842 89.3284,154.508 89.5,155.5C 87.8636,163.073 84.8636,170.073 80.5,176.5C 81.7292,167.689 81.7292,158.689 80.5,149.5C 81.404,148.791 81.7373,147.791 81.5,146.5C 84.1444,142.33 86.6444,137.997 89,133.5C 91.5952,140.02 92.0952,146.687 90.5,153.5 Z"/></g>
<g><path style="opacity:1" fill="#f0eff0" d="M 64.5,182.5 C 62.8634,184.316 61.3634,186.316 60,188.5C 59.6174,187.944 59.1174,187.611 58.5,187.5C 57.7878,185.072 56.7878,182.739 55.5,180.5C 58.4281,179.516 61.4281,179.183 64.5,179.5C 64.5,180.5 64.5,181.5 64.5,182.5 Z"/></g>
<g><path style="opacity:1" fill="#f6f5f6" d="M 75.5,179.5 C 78.5184,179.335 81.5184,179.502 84.5,180C 80.7734,190.127 77.7734,189.96 75.5,179.5 Z"/></g>
<g><path style="opacity:1" fill="#fafafa" d="M 57.5,195.5 C 57.8279,206.679 57.4946,217.679 56.5,228.5C 48.6558,214.36 47.6558,199.693 53.5,184.5C 55.6213,187.862 56.9546,191.529 57.5,195.5 Z"/></g>
<g><path style="opacity:1" fill="#f7f7f7" d="M 81.5,228.5 C 81.5,228.167 81.5,227.833 81.5,227.5C 81.3335,216.495 81.5002,205.495 82,194.5C 82.9419,191.007 84.2752,187.674 86,184.5C 88.6986,190.147 90.1986,196.147 90.5,202.5C 89.2765,211.394 87.1099,220.061 84,228.5C 83.0228,229.774 82.1894,229.774 81.5,228.5 Z"/></g>
<g><path style="opacity:1" fill="#f2f1f1" d="M 74.5,187.5 C 75.6206,189.954 76.454,192.621 77,195.5C 77.5314,202.859 77.8647,210.192 78,217.5C 75.096,207.707 73.9294,197.707 74.5,187.5 Z"/></g>
<g><path style="opacity:1" fill="#f2f2f2" d="M 58.5,187.5 C 58.9672,190.826 60.1339,191.159 62,188.5C 60.7663,196.698 60.2663,205.032 60.5,213.5C 60.1667,213.5 59.8333,213.5 59.5,213.5C 59.5,208.167 59.5,202.833 59.5,197.5C 59.7373,196.209 59.404,195.209 58.5,194.5C 58.2437,192.063 57.5771,189.729 56.5,187.5C 56.9698,186.537 57.6365,186.537 58.5,187.5 Z"/></g>
<g><path style="opacity:1" fill="#f2f2f2" d="M 80.5,201.5 C 79.8333,200.833 79.1667,200.167 78.5,199.5C 78.7399,196.421 78.4066,193.421 77.5,190.5C 77.9377,189.494 78.6043,189.494 79.5,190.5C 80.3333,189.5 81.1667,188.5 82,187.5C 80.889,192.002 80.389,196.669 80.5,201.5 Z"/></g>
<g><path style="opacity:1" fill="#bcbcbc" d="M 78.5,199.5 C 79.1667,200.167 79.8333,200.833 80.5,201.5C 80.1736,210.349 80.507,219.016 81.5,227.5C 81.5,227.833 81.5,228.167 81.5,228.5C 80.9569,228.56 80.6236,228.893 80.5,229.5C 81.6888,230.429 83.0222,230.762 84.5,230.5C 84.5,230.833 84.5,231.167 84.5,231.5C 82.5,231.5 80.5,231.5 78.5,231.5C 78.5,230.833 78.5,230.167 78.5,229.5C 79.7421,219.648 79.7421,209.648 78.5,199.5 Z"/></g>
<g><path style="opacity:1" fill="#4d4d4d" d="M 64.5,182.5 C 66.5105,189.634 67.0105,196.967 66,204.5C 63.9187,212.739 62.4187,221.072 61.5,229.5C 60.5119,224.36 60.1786,219.026 60.5,213.5C 60.2663,205.032 60.7663,196.698 62,188.5C 60.1339,191.159 58.9672,190.826 58.5,187.5C 59.1174,187.611 59.6174,187.944 60,188.5C 61.3634,186.316 62.8634,184.316 64.5,182.5 Z"/></g>
<g><path style="opacity:1" fill="#ececec" d="M 64.5,187.5 C 65.7907,196.839 64.9574,206.173 62,215.5C 61.1909,205.983 62.0243,196.65 64.5,187.5 Z"/></g>
<g><path style="opacity:1" fill="#a7a6a6" d="M 58.5,194.5 C 59.404,195.209 59.7373,196.209 59.5,197.5C 58.8334,208.008 58.1667,218.674 57.5,229.5C 56.8933,229.376 56.56,229.043 56.5,228.5C 57.4946,217.679 57.8279,206.679 57.5,195.5C 58.1667,195.5 58.5,195.167 58.5,194.5 Z"/></g>
<g><path style="opacity:1" fill="#a5a5a5" d="M 59.5,213.5 C 59.8333,213.5 60.1667,213.5 60.5,213.5C 60.1786,219.026 60.5119,224.36 61.5,229.5C 61.5,230.167 61.5,230.833 61.5,231.5C 59.5,231.5 57.5,231.5 55.5,231.5C 55.5,231.167 55.5,230.833 55.5,230.5C 56.8333,230.5 58.1667,230.5 59.5,230.5C 59.5,224.833 59.5,219.167 59.5,213.5 Z"/></g>
<g><path style="opacity:1" fill="#515151" d="M 55.5,231.5 C 57.5,231.5 59.5,231.5 61.5,231.5C 63.7373,239.446 65.0706,247.613 65.5,256C 65.4148,257.107 65.0814,258.107 64.5,259C 62.6874,258.954 61.0207,259.12 59.5,259.5C 54.8249,259.017 52.1582,256.517 51.5,252C 52.1513,244.89 53.4846,238.057 55.5,231.5 Z"/></g>
<g><path style="opacity:1" fill="#f4f4f4" d="M 55.5,232.5 C 59.1616,231.637 61.3282,232.97 62,236.5C 63.3529,243.792 63.6862,251.125 63,258.5C 61.6814,256.75 61.1814,254.75 61.5,252.5C 59.8561,252.286 58.3561,252.62 57,253.5C 55.6667,250.833 54.3333,250.833 53,253.5C 53.9601,246.577 54.7934,239.577 55.5,232.5 Z"/></g>
<g><path style="opacity:1" fill="#515051" d="M 78.5,231.5 C 80.5,231.5 82.5,231.5 84.5,231.5C 85.8319,238.459 87.1653,245.459 88.5,252.5C 86.5286,257.916 82.862,259.916 77.5,258.5C 76.791,259.404 75.791,259.737 74.5,259.5C 74.3342,254.821 74.5008,250.155 75,245.5C 75.2344,240.462 76.4011,235.795 78.5,231.5 Z"/></g>
<g><path style="opacity:1" fill="#f6f6f6" d="M 77.5,258.5 C 76.4138,258.38 75.7472,257.713 75.5,256.5C 76.2804,248.465 77.2804,240.465 78.5,232.5C 80.4672,232.261 82.3005,232.594 84,233.5C 84.6952,239.533 85.5285,245.533 86.5,251.5C 85.5,251.5 84.5,251.5 83.5,251.5C 83.6369,258.626 82.9702,258.959 81.5,252.5C 80.5,253.833 79.5,253.833 78.5,252.5C 77.5344,254.396 77.2011,256.396 77.5,258.5 Z"/></g>
</svg>
