<svg width="2151" height="3954" viewBox="0 0 2151 3954" fill="none" xmlns="http://www.w3.org/2000/svg">
<path fill-rule="evenodd" clip-rule="evenodd" d="M962 7.5V15H954H946V22.5V30H931.5H917V22.5V15H909.5H902V22.5V30H909H916V37.5V45H908.5H901V52.5V60H893.5H886V75V90H879H872V75V60H864.5H857V75V90H864H871V105V120H863.5H856V127.5V135H849H842V142.5V150H849H856V172.5V195H849H842V203V211H849H856V218V225H849H842V233V241H848.956H855.912L856.206 248.25L856.5 255.5L863.75 255.794L871 256.088V331.044V406H864H857V413.5V421H864.5H872V436V451H879H886V458.5V466H893.474H900.948L901.224 481.25L901.5 496.5L908.75 496.794L916 497.088V504.044V511H909H902V526V541H894.5H887V548.5V556H879.5H872V548.5V541H849.5H827V548.5V556H819.613H812.226L811.5 571L810.774 586H796.387H782V578.5V571H789.5H797V563.5V556H782H767V548.474V540.948L751.75 541.224L736.5 541.5L736.206 548.75L735.912 556H743.456H751V563.5V571H758.5H766V578.5V586H751H736V593.5V601H706H676V608.5V616H661.544H647.088L646.794 608.75L646.5 601.5L638.75 601.208L631 600.916V608.431V615.947L616.25 616.223L601.5 616.5L601.206 623.75L600.912 631H608.456H616V638.5V646H608.5H601V653.5V661H593.5H586V668.5V676H571H556V669V662H548.5H541V669V676H548.5H556V691V706H548.5H541V713.5V721H533.5H526V728.5V736H518H510V750.956V765.912L502.75 766.206L495.5 766.5L495.224 781.207L494.947 795.913L487.724 796.207L480.5 796.5L480.231 818.707L479.962 840.913L472.731 841.207L465.5 841.5V924.5V1007.5L472.616 1007.79L479.732 1008.08L480.252 1017.79C480.539 1023.13 480.531 1036.39 480.236 1047.25L479.699 1067H472.849H466V1059.5V1052H458.628H451.256L450.533 1067L449.809 1082H442.905H436V1090V1098H443H450V1120V1142H443H436V1135V1128H428.5H421V1135.5V1143H428H435V1172.5V1202H420H405V1210V1218H398.104H391.208L390.483 1232.5L389.758 1247H382.379H375V1262V1277H368H361V1270V1263H353H345V1270.5V1278H338H331V1285.5V1293H338H345V1285.5V1278H352.5H360V1293V1308H352.5H345V1323V1338H337.5H330V1353V1368H315H300V1375.5V1383H307.5H315V1390.5V1398H307.5H300V1420.5V1443H292.5H285V1473V1503H277.5H270V1495.46V1487.91L262.75 1488.21L255.5 1488.5L255.206 1495.75L254.912 1503H262.456H270V1548V1593H262.5H255V1623.5V1654H247.5H240V1684V1714H225H210V1729V1744H217.5H225V1766.5V1789H217.5H210V1811.5V1834H202.5H195V1826.5V1819H187.5H180V1834V1849H187.5H195V1871.5V1894H187.5H180V1909V1924H165H150V1931.5V1939H142.5H135V1931.5V1924H127.5H120V1931.5V1939H112.5H105V1946.5V1954H97.5H90V1961.5V1969H82.5H75V1976.5V1984H67.5H60V1992V2000H67H74V2007V2014H67.113H60.226L59.5 2029L58.774 2044H51.387H44V2051.5V2059H37H30V2051.35V2043.69L18.75 2044.34C12.563 2044.7 5.813 2044.99 3.75 2044.99L0 2045V2052.5V2060H14.5H29V2067V2074H21.5H14V2081.5V2089H7H0V2119.5V2150H15H30V2180V2210H37.5H45V2172.5V2135H52.5H60V2127.5V2120H75H90V2127.5V2135H82.653H75.306L74.657 2146.25C74.301 2152.44 74.007 2162.56 74.005 2168.75L74 2180H67H60V2187.5V2195H67H74V2202.5V2210H66.5H59V2232.5V2255H51.371H43.743L44.18 2291.98C44.421 2312.31 44.872 2329.2 45.182 2329.51C45.492 2329.82 55.703 2330.36 67.873 2330.7L90 2331.32V2323.66V2316H97.5H105V2338V2360H97.5H90V2352.5V2345H82.5H75V2352.5V2360H82.5H90V2367.35V2374.69L101.25 2375.34C115.657 2376.17 140.343 2376.17 154.75 2375.34L166 2374.69V2367.85V2361H173H180V2368.5V2376H195.5H211V2368.62V2361.24L225.392 2360.52L239.784 2359.8L240.519 2329.9L241.254 2300H248.127H255V2293V2286H262.5H270V2293V2300H263.153H256.306L255.657 2311.25C255.301 2317.44 255.007 2324.19 255.005 2326.25L255 2330H263H271V2315.5V2301H285.5H300V2308V2315H308H316V2307.5V2300H323.544H331.088L330.794 2292.75L330.5 2285.5L323.25 2285.21L316 2284.91V2277.46V2270H323H330V2262.5V2255H323.004H316.008L315.754 2127.25L315.5 1999.5L308.25 1999.21L301 1998.91V1976.46V1954H307.848H314.696L315.348 1943.34C315.707 1937.48 316 1927.58 316 1921.34V1910H323.5H331V1895V1880H338H345V1887V1894H353H361V1886.5V1879H353.5H346V1871.5V1864H353.5H361V1849V1834H368.5H376V1819.5V1805H383.5H391V1789.5V1774H398.5H406V1759V1744H413.5H421V1736.5V1729H436H451V1721.5V1714H443.5H436V1706.5V1699H443.5H451V1684V1669H458.5H466V1654V1639H473.5H481V1624V1609H488.5H496V1624V1639H503.5H511V1623.5V1608H503.5H496V1593.5V1579H503.5H511V1571V1563H518.5H526V1556V1549H518.5H511V1541.5V1534H518.5H526V1503.5V1473H533.5H541V1443.5V1414H548.5H556V1398.5V1383H563.5H571V1353V1323H579H587V1285.54V1248.09L594.25 1247.79L601.5 1247.5V1240V1232.5L594.25 1232.21L587 1231.91V1224.96V1218H601.5H616V1210.5V1203H623.5H631V1195.5V1188H638.5H646V1203V1218H653.5H661V1233V1248H653.456H645.912L646.206 1255.25L646.5 1262.5L653.75 1262.79L661 1263.09V1255.54V1248H668.5H676V1278V1308H668.5H661V1315.5V1323H676H691V1338V1353H683.5H676V1345.5V1338H668.5H661V1345.5V1353H668.5H676V1360.5V1368H668.5H661V1375.5V1383H668.5H676V1375.5V1368H683.474H690.948L691.224 1383.25L691.5 1398.5L698.75 1398.79L706 1399.09V1413.54V1428H698.5H691V1450.5V1473H683.5H676V1488V1503H668.5H661V1556V1609H668.5H676V1616V1623H668.5H661V1743.5V1864H653.5H646V1954.5V2045H638.5H631V2105V2165H623.5H616V2157.5V2150H608.5H601V2157.5V2165H608.5H616V2172.5V2180H608.5H601V2187.5V2195H608.5H616V2187.5V2180H623.5H631V2195V2210H638.5H646V2277.5V2345H653.5H661V2375.5V2406H668.5H676V2428.5V2451H668.456H660.912L661.206 2458.25L661.5 2465.5L668.75 2465.79L676 2466.09V2458.54V2451H683.5H691V2473.54V2496.09L683.75 2495.79L676.5 2495.5L676.206 2488.25L675.912 2481H668.412H660.912L661.206 2488.25L661.5 2495.5L668.707 2495.79L675.914 2496.09L676.207 2503.29L676.5 2510.5L683.75 2510.79L691 2511.09V2503.54V2496H698.5H706V2503.5V2511H699H692V2518.5V2526H706.5H721V2541V2556H728.5H736V2571V2586H743.5H751V2600.5V2615H744H737V2608V2601H729H721V2608.5V2616H728.5H736V2623.5V2631H744H752V2638.5V2646H766.5H781V2653.5V2661H788.5H796V2691V2721H788.5H781V2751V2781H773.5H766V2803.5V2826H751H736V2834V2842H743.5H751V2871.5V2901H743.5H736V2923.46V2945.91L728.75 2946.21L721.5 2946.5L721.193 3037.5C721.024 3087.55 721.184 3134.91 721.547 3142.75L722.208 3157H729.104H736V3187.5V3218H743.5H751V3247.5V3277H758.5H766V3300V3323H773.5H781V3345.5V3368H788.5H796V3390.5V3413H803.5H811V3428V3443H818.5H826V3473V3503H819H812V3495.5V3488H804.5H797V3495.5V3503H804.653H812.306L811.657 3514.25C811.301 3520.44 811.007 3527.19 811.005 3529.25L811 3533H804H797V3540.5V3548H789H781V3555.5V3563H789H797V3555.5V3548H804H811V3570.46V3592.91L803.75 3593.21L796.5 3593.5L796.243 3660.75L795.986 3728H788.493H781V3758V3788H773.5H766V3796V3804H751H736V3819V3834H744H752V3826.5V3819H759H766V3826.5V3834H773.5H781V3841.5V3849H788.5H796V3864V3879H811H826V3886.5V3894H819H812V3901.5V3909H819.5H827V3901.5V3894H834H841V3901.5V3909H916.5H992V3886.5V3864H999.5H1007V3856.5V3849H1014.5H1022V3841.5V3834H1014.5H1007V3841.5V3849H999.5H992V3773.5V3698H984.5H977V3638V3578H969.5H962V3548V3518H954.5H947V3443V3368H954.5H962V3360.5V3353H954.5H947V3345.5V3338H954.5H962V3293V3248H969.5H977V3218V3188H984.5H992V3150V3112H999.5H1007V3097V3082H1014.5H1022V3074.5V3067H1014.5H1007V3052V3037H1014.35H1021.69L1022.34 3025.75C1022.7 3019.56 1022.99 2982.21 1022.99 2942.75L1023 2871H1015H1007V2818.5V2766H999.5H992V2751.5V2737H999.5H1007V2721.5V2706H1014.35H1021.69L1022.34 2694.75C1022.7 2688.56 1022.99 2644.69 1022.99 2597.25L1023 2511H1030H1037V2518.5V2526H1044.5H1052V2518.5V2511H1059.5H1067V2518.5V2526H1074.5H1082V2541V2556H1089.5H1097V2639V2722H1104.5H1112V2737V2752H1119.5H1127V2759V2766H1112H1097V2773.5V2781H1104.5H1112V2796V2811H1104.5H1097V2939V3067H1104.5H1112V3089.5V3112H1097.5H1083V3119.5V3127H1097.5H1112V3135V3143H1119.5H1127V3173V3203H1134.5H1142V3240.5V3278H1149.5H1157V3315.5V3353H1150H1143V3360V3367H1150H1157V3375V3383H1164.5H1172V3390.5V3398H1164.5H1157V3405.5V3413H1164.5H1172V3458V3503H1164.5H1157V3525.5V3548H1149.5H1142V3608V3668H1134.5H1127V3751V3834H1119.5H1112V3864V3894H1119.5H1127V3901.55V3909.1L1217.5 3908.92L1308 3908.74V3901.37V3894H1300.5H1293V3886.5V3879H1300.5H1308V3871.5V3864H1315.5H1323V3856.5V3849H1330.5H1338V3841.5V3834H1345.5H1353V3818.5V3803H1345.5H1338V3796V3789H1345.5H1353V3781.5V3774H1345.5H1338V3758.5V3743H1330.5H1323V3690.5V3638H1315.5H1308V3631.04V3624.09L1315.25 3623.79L1322.5 3623.5L1322.79 3615.75L1323.08 3608H1315.54H1308V3578V3548H1315.5H1323V3540.5V3533H1308H1293V3525.5V3518H1300.5H1308V3510.5V3503H1315.5H1323V3495.5V3488H1315.5H1308V3495.5V3503H1300.5H1293V3465.5V3428H1300.5H1308V3413V3398H1315.5H1323V3375.5V3353H1330.5H1338V3330.5V3308H1345.5H1353V3323V3338H1360.5H1368V3322.5V3307H1360.5H1353V3277.5V3248H1360.5H1368V3218V3188H1375.5H1383V3150V3112H1390.5H1398V3044.5V2977H1390.5H1383V2946.5V2916H1375.5H1368V2893.5V2871H1375.5H1383V2864.11V2857.23L1368 2856.5L1353 2855.77V2833.39V2811H1345.5H1338V2796.5V2782H1345.5H1353V2789V2796H1360.5H1368V2788.5V2781H1360.5H1353V2773.5V2766H1345.5H1338V2758.5V2751H1330.5H1323V2728.5V2706H1315.5H1308V2691V2676H1315.5H1323V2661V2646H1345.5H1368V2638.5V2631H1375.5H1383V2616V2601H1375.5H1368V2593.5V2586H1375.5H1383V2571V2556H1390.5H1398V2571V2586H1405.5H1413V2578V2570H1420.5H1428V2562.5V2555H1435.5H1443V2548V2541H1435.5H1428V2526V2511H1435.5H1443V2496V2481H1435.5H1428V2465.5V2450H1435.5H1443V2390.54V2331.08L1450.75 2330.79L1458.5 2330.5L1458.77 2300.75L1459.03 2271H1465.86H1472.69L1473.35 2258.84C1473.71 2252.16 1474 2191.18 1474 2123.34V2000H1481H1488V1992.5V1985H1481.1H1474.21L1473.48 1969.5L1472.76 1954H1465.88H1459V1916.5V1879H1466H1473V1871.5V1864H1480.5H1488V1841.5V1819H1495.5H1503V1811.5V1804H1495.5H1488V1811.5V1819H1480.5H1473V1841.5V1864H1466H1459V1747.16C1459 1682.89 1458.71 1625.52 1458.35 1619.66L1457.7 1609H1450.35H1443V1601.5V1594H1458H1473V1586.5V1579H1466H1459V1571.5V1564H1466H1473V1556.5V1549H1466.12H1459.24L1458.52 1534.57C1458.12 1526.63 1458.1 1519.65 1458.46 1519.07C1458.82 1518.48 1462.22 1518 1466.06 1518H1473V1510.5V1503H1458H1443V1480.5V1458H1435.5H1428V1450.5V1443H1420.5H1413V1435.5V1428H1428H1443V1413V1398H1435.5H1428V1405.5V1413H1420.5H1413V1398V1383H1420.5H1428V1338V1293H1435.5H1443V1277.5V1262H1435.5H1428V1255V1248H1435.5H1443V1240.5V1233H1465.5H1488V1225.5V1218H1473.5H1459V1210.5V1203H1481H1503V1195.5V1188H1510.5H1518V1203V1218H1525.5H1533V1224.89V1231.77L1518 1232.5L1503 1233.23V1240.61V1248H1510.48H1517.96L1518.23 1270.25L1518.5 1292.5L1525.75 1292.79L1533 1293.09V1315.54V1338H1540.5H1548V1361V1384H1555.5H1563V1406.5V1429H1570.5H1578V1458.5V1488H1570.47H1562.95L1563.22 1503.25L1563.5 1518.5H1571H1578.5L1578.18 1503.75L1577.86 1489H1585.43H1593V1526.5V1564H1600.5H1608V1579V1594H1615.5H1623V1601.5V1609H1608.5H1594V1616.5V1624H1616H1638V1631.5V1639H1630.5H1623V1654V1669H1630.47H1637.95L1638.22 1683.75L1638.5 1698.5H1646H1653.5L1653.79 1691.25L1654.09 1684H1661.02H1667.95L1668.22 1698.75L1668.5 1713.5L1675.75 1713.79L1683 1714.09V1721.54V1729H1690.5H1698V1744V1759H1705.5H1713V1774V1789H1705.5H1698V1796.5V1804L1709.25 1804.01C1715.44 1804.01 1725.55 1804.3 1731.72 1804.66L1742.95 1805.3L1743.22 1819.9L1743.5 1834.5L1750.75 1834.79L1758 1835.09V1850.04V1865H1765.5H1773V1879.5V1894H1766H1759V1886.5V1879H1751.5H1744V1886.46V1893.91L1751.25 1894.21L1758.5 1894.5L1758.78 1909.25L1759.05 1924H1766.53H1774V1909.5V1895H1781H1788V1910V1925H1795.47H1802.95L1803.22 1939.75L1803.5 1954.5L1810.75 1954.79L1818 1955.09V1969.5V1983.91L1810.75 1984.21L1803.5 1984.5L1803.25 2104.75L1802.99 2225H1796.1H1789.21L1788.54 2240.25C1788.17 2248.64 1788.01 2262.25 1788.18 2270.5L1788.5 2285.5L1795.75 2285.79L1803 2286.09V2293.54V2301H1826H1849V2308V2315H1856.5H1864V2322.5V2330H1871.5H1879V2344.89V2359.77L1894 2360.5L1909 2361.23V2368.11V2375H1901.5H1894V2382.5V2390H1901.5H1909V2397.5V2405H1916.5H1924V2397.5V2390H1916.5H1909V2383V2376L1924.75 2375.82C1933.41 2375.72 1953.89 2375.78 1970.25 2375.96L2000 2376.27V2368.64V2361H2007.5H2015V2338.5V2316H2022H2029V2323.5V2331L2040.75 2331C2047.21 2330.99 2057.56 2330.7 2063.75 2330.34L2075 2329.69V2299.85V2270H2067.5H2060V2263.09V2256.19L2075 2255.47L2090 2254.74V2247.37V2240H2075H2060V2232.5V2225H2052.5H2045V2194.5V2164H2037.5H2030V2142V2120H2044.5H2059V2126.96V2133.91L2051.75 2134.21L2044.5 2134.5L2044.21 2142.29L2043.91 2150.09L2051.71 2149.79L2059.5 2149.5L2059.79 2142.25L2060.09 2135H2067.04H2074V2142.5V2150H2097H2120V2119.5V2089H2112.5H2105V2081.5V2074H2097.5H2090V2066.5V2059H2082.53H2075.05L2074.78 2044.25L2074.5 2029.5L2067.25 2029.21L2060 2028.91V2021.46V2014H2045H2030V1999V1984H2022.5H2015V1977V1970H2022.5H2030L2029.99 1965.75C2029.99 1963.41 2029.7 1956.44 2029.34 1950.25L2028.69 1939H2013.85H1999V1946.5V1954H1992H1985V1946.5V1939H1976.91H1968.82L1969.16 1924.25L1969.5 1909.5L1961.75 1909.21L1954 1908.92V1916.46V1924H1947H1940V1916.5V1909H1932.5H1925V1901.5V1894H1932H1939V1886.5V1879H1924.5H1910V1872V1865H1916.94C1920.78 1865 1924.18 1864.52 1924.54 1863.93C1924.9 1863.35 1924.88 1856.37 1924.48 1848.43L1923.76 1834H1916.88H1910V1819V1804H1902H1894V1781.5V1759H1901.5H1909V1766.5V1774H1916.5H1924V1750.85V1727.69L1912.75 1728.34C1906.56 1728.7 1899.81 1728.99 1897.75 1728.99L1894 1729V1736.5V1744H1886.5H1879V1721V1698H1871.5H1864V1660.5V1623H1856.5H1849V1601V1579H1856.5H1864V1571.5V1564H1856.5H1849V1541V1518H1856.5H1864V1510.5V1503H1856.5H1849V1510.5V1518H1841.5H1834V1488V1458H1826.5H1819V1443V1428H1826.5H1834V1420.5V1413H1819H1804V1398V1383H1796.5H1789V1360.5V1338H1781.5H1774V1323V1308H1781.5H1789V1315.5V1323H1796.5H1804V1315.5V1308H1796.5H1789V1293V1278H1781.5H1774V1270.5V1263H1766.5H1759V1270.5V1278H1751.5H1744V1270V1262H1751H1758V1255V1248H1743.5H1729V1240.5V1233H1736.5H1744V1225.5V1218H1736.5H1729V1225V1232H1721.5H1714V1225.04V1218.09L1721.25 1217.79L1728.5 1217.5L1728.79 1210.25L1729.09 1203L1717.79 1202.99C1711.58 1202.99 1701.45 1202.7 1695.28 1202.34L1684.05 1201.7L1683.78 1187.1L1683.5 1172.5L1676.25 1172.21L1669 1171.91V1149.46V1127H1676.5H1684V1120.11V1113.23L1669 1112.5L1654 1111.77V1089.39V1067H1661.5H1669V1052V1037H1676.54H1684.09L1683.79 1029.75L1683.5 1022.5L1668.25 1022.22L1653 1021.95V1044.47V1067H1646H1639V1029.5V992H1646.5H1654V984.5V977H1669H1684V954.5V932H1676.61H1669.23L1668.5 947L1667.77 962H1660.89H1654V909.5V857H1646.5H1639V849.544V842.088L1646.25 841.794L1653.5 841.5L1653.79 834.25L1654.09 827H1646.54H1639V812V797H1631.5H1624V774.542V752.084L1616.25 751.792L1608.5 751.5L1608.21 744.293L1607.91 737.086L1615.71 736.793L1623.5 736.5L1623.79 729.25L1624.09 722H1616.04H1608V729V736H1601.12H1594.24L1593.52 721.542L1592.8 707.084L1585.65 706.792L1578.5 706.5L1578.21 698.75L1577.92 691H1585.46H1593V676.5V662H1586.12H1579.24L1578.52 676.5L1577.79 691H1563.4H1549V683.5V676H1541.5H1534V668.396V660.792L1548.5 661.517L1563 662.242V653.968V645.694L1551.75 646.343C1545.56 646.699 1538.81 646.993 1536.75 646.995L1533 647V654V661H1526H1519V653.5V646H1504H1489V638.5V631H1481.54H1474.09L1473.79 623.75L1473.5 616.5L1458.25 616.224L1443 615.948V609.127V602.306L1431.75 601.657C1425.56 601.301 1412.06 601.007 1401.75 601.005L1383 601V593.5V586H1375.5H1368V578.5V571H1360.5H1353V578.5V586H1323H1293V578.5V571H1300.5H1308V563.5V556H1300.5H1293V563.5V571H1270.5H1248V563.5V556H1255.5H1263V548.5V541H1255.5H1248V548.5V556H1240H1232V548.5V541H1217.5H1203V533.5V526H1195.5H1188V518.5V511H1195.5H1203V496.5V482H1210.5H1218V466.5V451H1225.5H1233V428.5V406H1240.5H1248V368.544V331.088L1255.25 330.794L1262.5 330.5L1262.79 323.25L1263.09 316H1255.54H1248V278.544V241.088L1255.25 240.794L1262.5 240.5L1262.76 195.25L1263.02 150H1255.51H1248V120.544V91.088L1255.25 90.794L1262.5 90.5L1262.79 82.75L1263.08 75H1240.54H1218V67.5V60H1210.5H1203V52.5V45H1195.5H1188V37.5V30H1180.5H1173V22.5V15H1158H1143V7.5V0H1052.5H962V7.5ZM1007 37.5V45H999.5H992V52.5V60H1037.5H1083V52.5V45H1052.5H1022V37.5V30H1067H1112V37.347V44.694L1123.25 45.343C1129.44 45.699 1139.56 45.993 1145.75 45.995L1157 46V53V60H1149.5H1142V75V90H1157H1172V82.5V75H1164.5H1157V68V61H1164.5H1172V68V75H1179.5H1187V82.5V90H1179.5H1172V97.5V105H1180H1188V98V91H1195H1202V105.5V120H1209.5H1217V165.5V211H1210H1203V218V225H1210H1217V300.5V376H1209.5H1202V406V436H1194.5H1187V451V466H1179.5H1172V481V496H1164.5H1157V503.5V511H1142H1127V518.5V526H1112.54H1098.09L1097.79 518.75L1097.5 511.5L1089.75 511.208L1082 510.916V518.458V526H1089.5H1097V533.5V541H1059.5H1022V533.5V526H999.5H977V519.113V512.226L992 511.5L1007 510.774V503.387V496H1014.5H1022V488.5V481H1007H992V488.5V496H984.5H977V503.5V511H969.5H962V503.5V496H954.5H947V488.5V481H954.5H962V466V451H954.5H947V458.5V466H939.5H932V451V436H924.5H917V413.5V391H909.5H902V308V225H894.5H887V188V151H894.5H902V128.5V106H909.5H917V113V120H924.5H932V112.5V105H924.5H917V90.5V76H924.5H932V83V90H939.5H947V82.5V75H939.5H932V68V61H947H962V53.613V46.226L977 45.5L992 44.774V37.387V30H999.5H1007V37.5ZM1097 52.5V60H1104.5H1112V52.5V45H1104.5H1097V52.5ZM842 293.5V301H849.5H857V293.5V286H849.5H842V293.5ZM842 353.5V361H849.5H857V353.5V346H849.5H842V353.5ZM917 367.956V376H924.542H932.084L931.792 368.25L931.5 360.5L924.25 360.206L917 359.912V367.956ZM842 382.956V391H849.542H857.084L856.792 383.25L856.5 375.5L849.25 375.206L842 374.912V382.956ZM1248 443.5V466H1255.5H1263V443.5V421H1255.5H1248V443.5ZM842 443.5V451H849.5H857V443.5V436H849.5H842V443.5ZM962 488.5V496H969.5H977V488.5V481H969.5H962V488.5ZM1127.21 488.75L1127.5 496.5L1134.75 496.794L1142 497.088V489.044V481H1134.46H1126.92L1127.21 488.75ZM860.344 556.652L871 557.304V564.152V571H849H827V563.5V556H838.344C844.584 556 854.484 556.293 860.344 556.652ZM1322 563.5V571H1330H1338V563.5V556H1330H1322V563.5ZM977 579.5V587H992H1007V594.5V602H1048.84C1071.86 602 1095.48 601.707 1101.34 601.348L1112 600.696V593.848V587H1119.46H1126.91L1127.21 594.25L1127.5 601.5L1142.25 601.162L1157 600.824V630.912V661H1150.04H1143.08L1142.79 668.75L1142.5 676.5L1135.35 676.792L1128.2 677.084L1127.48 691.542L1126.76 706L1115.63 706.005C1109.51 706.007 1099.44 706.301 1093.25 706.657L1082 707.306V714.153V721H1052.5H1023V713.5V706H1007.5H992V691.613V677.226L977 676.5L962 675.774V623.887V572H969.5H977V579.5ZM901 617.152V647.304L890.344 646.652C884.484 646.293 877.714 646 875.301 646H870.912L871.206 638.75L871.5 631.5L879.25 631.208L887 630.916V608.958V587H894H901V617.152ZM1232 594.5V602H1254.5H1277V609V616H1254.46H1231.92L1232.21 623.75L1232.5 631.5L1247.25 631.777L1262 632.053V639.027V646H1240H1218V616.5V587H1225H1232V594.5ZM646 623.5V631H638.5H631V623.5V616H638.5H646V623.5ZM1503 624V632H1510.5H1518V624V616H1510.5H1503V624ZM827 624V631H819.5H812V624V617H819.5H827V624ZM857 624V631H849.5H842V624V617H849.5H857V624ZM1293 624V631H1285.5H1278V624V617H1285.5H1293V624ZM1217 654V661H1210H1203V654V647H1210H1217V654ZM1007 676.5V692H1014.5H1022V676.5V661H1014.5H1007V676.5ZM646 669.5V677H639H632V669.5V662H639H646V669.5ZM1082.75 676.548C1081.6 677.754 1081.86 690.796 1083.05 691.531C1083.63 691.889 1090.38 691.858 1098.05 691.462L1112 690.744V683.872V677H1108.16C1106.04 677 1099.63 676.722 1093.91 676.381C1088.18 676.041 1083.16 676.116 1082.75 676.548ZM631 684.5V692H624H617V684.5V677H624H631V684.5ZM796 684.5V692H804H812V698.958V705.916L804.25 706.208L796.5 706.5L796.208 714.25L795.916 722H788.337H780.758L781.483 736.5L782.208 751H774.604H767V744V737H759H751V743.879V750.758L736.5 751.483L722 752.208V759.604V767H736.5H751V773.847V780.694L739.75 781.343C733.563 781.699 723.438 781.993 717.25 781.995L706 782V796.5V811H698.5H691V804V797H683.456H675.912L676.206 804.25L676.5 811.5L683.75 811.794L691 812.088V819.044V826H683.5H676V818.348V810.696L665.344 811.348C659.484 811.707 652.734 812 650.344 812H646V819.5V827H653.5H661V834.5V842H646H631V849.5V857H623.5H616V864.5V872H608.5H601V879.5V887H594H587V879.5V872H593.847H600.694L601.343 860.75C601.699 854.563 601.993 844.438 601.995 838.25L602 827H608.887H615.774L616.5 812L617.226 797H624H630.774L631.5 782L632.226 767H639.113H646V774.5V782H653.5H661V774.5V767H668.5H676V759.5V752H669H662V744.5V737H669.5H677V729.5V722H684.5H692V714.5V707H698.973H705.947L706.223 721.75L706.5 736.5L713.75 736.794L721 737.088L721.005 725.794C721.007 719.582 721.301 709.438 721.657 703.25L722.306 692H737.153H752V684.5V677H774H796V684.5ZM1503 684.5V692H1510.5H1518V699.5V707H1525.5H1533V714.5V722H1540.5H1548V729.5V737H1555.5H1563V744.5V752H1555.5H1548V759V766H1541H1534V751V736H1526.5H1519V728.5V721H1511.5H1504V713.5V706H1496.5H1489V698.5V691H1481.5H1474V684V677H1488.5H1503V684.5ZM1367.79 699.25L1368.08 707H1390.54H1413V714.5V722H1420.5H1428V729.5V737H1443H1458V744.5V752H1465.5H1473V767V782H1480.5H1488V789.5V797H1495.5H1503V804.5V812H1495.5H1488V819.5V827H1503H1518V857V887H1525.5H1533V894.5V902H1518.5H1504V894.5V887H1496.5H1489V879.5V872H1481.5H1474V864.5V857H1488.5H1503V849.5V842H1488H1473V849V856H1466H1459V849V842H1466H1473V834.5V827H1465.5H1458V834V841H1450.5H1443V834V827H1450.5H1458V819.5V812H1450.5H1443V819V826H1435.5H1428V819V812H1435.5H1443V804.5V797H1435.5H1428V789V781H1420.5H1413V774V767H1398H1383V774V781H1375.5H1368V774V767H1375.5H1383V759.5V752H1375.5H1368V759V766H1353H1338V751.653V737.306L1326.75 736.657C1320.56 736.301 1310.44 736.007 1304.25 736.005L1293 736V729V722H1308H1323V714.5V707H1330H1337V698.974V690.948L1352.25 691.224L1367.5 691.5L1367.79 699.25ZM616 706.5V721H608.5H601V717.156C601 715.041 601.293 708.516 601.652 702.656L602.304 692H609.152H616V706.5ZM1323 699V706H1315.5H1308V699V692H1315.5H1323V699ZM1608.21 699.25L1608.5 706.5L1615.75 706.794L1623 707.088V699.544V692H1615.46H1607.91L1608.21 699.25ZM751 714.5V722H759H767V714.5V707H759H751V714.5ZM856 714V721H841.5H827V714V707H841.5H856V714ZM1277 714V721H1270H1263V714V707H1270H1277V714ZM1338 722V737H1345.5H1353V722V707H1345.5H1338V722ZM601 728.887V735.774L586 736.5L571 737.226V744.613V752H563.5H556V759.5V767H548.5H541V759.5V752H548.5H556V744.5V737H563.5H571V729.5V722H586H601V728.887ZM826 729V736H811.5H797V729V722H811.5H826V729ZM766 759V766H759H752V759V752H759H766V759ZM977 758.847V765.694L965.75 766.343C959.563 766.699 949.438 766.993 943.25 766.995L932 767V759.5V752H954.5H977V758.847ZM1052 767V782H1059.5H1067V970V1158H1074.5H1082V1172.5V1187H1074.5H1067V1210V1233H1060H1053V1210V1187H1044.85H1036.7L1037.35 1176.34C1037.71 1170.48 1038 1160.58 1038 1154.34V1143H1044.85H1051.69L1052.35 1130.84C1052.71 1124.16 1053 1051.55 1053 969.5C1053 887.448 1052.71 814.843 1052.35 808.157L1051.69 796H1044.85H1038V781V766H1030.5H1023V759V752H1037.5H1052V767ZM1082 766.5V781H1074.5H1067V766.5V752H1074.5H1082V766.5ZM1202 759.5V767H1180H1158V774.519V782.038L1180.25 781.769L1202.5 781.5L1202.79 774.25L1203.09 767H1218.04H1233V774.5V782H1248H1263V789.5V797H1278H1293V804.5V812H1285.5H1278V819.5V827H1285.5H1293V834.5V842H1300.5H1308V827V812H1314.85H1321.69L1322.34 823.25C1322.7 829.438 1322.99 839.563 1322.99 845.75L1323 857H1330.5H1338V849.5V842H1352.5H1367V849.5V857H1360H1353V864.5V872H1360.5H1368V864.5V857H1375H1382V864.5V872H1390H1398V879.5V887H1375.5H1353V894.5V902H1368H1383V909.5V917H1390.5H1398V924.5V932H1413H1428V939.5V947H1435.5H1443V932V917H1450.5H1458V932V947H1450.5H1443V954.5V962H1450.5H1458V969.5V977H1450.5H1443V992V1007H1435.5H1428V1014.5V1022H1420.5H1413V1037V1052H1405.5H1398V1044.5V1037H1390.5H1383V1044.5V1052H1390H1397V1067V1082H1389.5H1382V1089.5V1097H1375H1368V1089.5V1082H1360.5H1353V1090V1098H1360H1367V1105V1112H1360H1353V1105V1098H1345.5H1338V1105.5V1113H1345H1352V1120V1127H1337.5H1323V1134.5V1142H1307.5H1292V1149.5V1157H1285H1278V1150V1143H1270.5H1263V1150V1157H1217.5H1172V1164.5V1172H1149.5H1127V1165V1158H1120H1113V1150V1142H1105.5H1098V969.5V797H1105.5H1113V782V767H1120.5H1128V759.5V752H1165H1202V759.5ZM917 774.5V782H947H977V774.5V767H984.5H992V782V797H999.5H1007V819.5V842H1014.5H1022V932V1022H1014.5H1007V1075V1128H999.5H992V1135.5V1143H999.5H1007V1150V1157H999.5H992V1164.5V1172H969.5H947V1164.5V1157H939.5H932V1150V1143H924.5H917V1150V1157H872H827V1149.5V1142H804.544H782.088L781.794 1134.75L781.5 1127.5L766.75 1127.22L752 1126.95V1119.97V1113H767.042H782.084L781.792 1105.25L781.5 1097.5L759.25 1097.23L737 1096.96V1089.48V1082H729.653H722.306L721.657 1070.75C721.301 1064.56 721.007 1047.69 721.005 1033.25L721 1007H714H707V992V977H714H721V962V947H706.5H692V917V887H699H706V894.5V902H721H736V894.5V887H721.5H707V879.5V872H714.5H722V864.5V857H729H736V864.5V872H751.5H767V864.5V857H759.5H752V849.5V842H759.5H767V834.5V827H773.956H780.912L781.206 834.25L781.5 841.5L789.25 841.792L797 842.084V834.542V827H804.5H812V819.5V812H819.5H827V804.5V797H834.5H842V789.5V782H864H886V774.5V767H901.5H917V774.5ZM1578 774.5V782H1585.5H1593V804.5V827H1600.5H1608L1608.01 860.75C1608.01 879.313 1608.3 899.563 1608.66 905.75L1609.31 917H1616.15H1623V932V947H1615.5H1608V954.5V962H1601H1594V909.5V857H1586.5H1579V837.656C1579 827.016 1578.71 813.516 1578.35 807.656L1577.7 797H1570.85H1564V789V781H1556.5H1549V774V767H1563.5H1578V774.5ZM556 789.5V797H548.5H541V812V827H533.5H526V879.5V932H518.5H511V939.5V947H503.5H496V909.5V872H503.5H511V842V812H518.5H526V797V782H541H556V789.5ZM1398 789V796H1390.5H1383V789V782H1390.5H1398V789ZM1458 789.5V797H1465.5H1473V789.5V782H1465.5H1458V789.5ZM977 804.5V812H969.5H962V819.5V827H969.5H977V819.5V812H984.5H992V804.5V797H984.5H977V804.5ZM1112 849.5V887H1119.37H1126.74L1127.2 867.863C1127.45 857.338 1127.45 840.463 1127.19 830.363L1126.73 812H1119.37H1112V849.5ZM1262.21 834.25L1262.5 841.5L1270.25 841.792L1278 842.084V834.542V827H1269.96H1261.91L1262.21 834.25ZM1668.71 856.627C1668.32 857.015 1668 864.008 1668 872.167V887H1676.03H1684.05L1683.78 871.75L1683.5 856.5L1676.46 856.21C1672.58 856.051 1669.1 856.239 1668.71 856.627ZM1323 879.5V887H1330.5H1338V879.5V872H1330.5H1323V879.5ZM752 894.5V902H759H766V894.5V887H759H752V894.5ZM1428 894.5V902H1420.5H1413V894.5V887H1420.5H1428V894.5ZM436 909.5V917H443.5H451V909.5V902H443.5H436V909.5ZM1112.22 917.25L1112.5 932.5H1120H1127.5L1127.78 917.25L1128.05 902H1120H1111.95L1112.22 917.25ZM661 940V947H654H647V940V933H654H661V940ZM1563 955V962H1556H1549V955V948H1556H1563V955ZM435.343 973.25C435.699 979.438 435.993 989.563 435.995 995.75L436 1007H443.5H451V984.5V962H442.847H434.694L435.343 973.25ZM677 969.5V977H684H691L691.005 980.75C691.007 982.813 691.301 989.563 691.657 995.75L692.306 1007H684.653H677V999.5V992H669.5H662V977V962H669.5H677V969.5ZM1383 969.5V977H1390.5H1398V969.5V962H1390.5H1383V969.5ZM1413 992V1007H1405.5H1398V1014.5V1022H1405.5H1413V1014.5V1007H1420.5H1428V992V977H1420.5H1413V992ZM586 985V992H578.5H571V985V978H578.5H586V985ZM1533 985V992H1526H1519V985V978H1526H1533V985ZM571 1000V1007H563.5H556V1000V993H563.5H571V1000ZM1518 1000.25L1517.99 1007.5L1525.5 1007.17L1533 1006.84V1014.42V1022H1548H1563V1015V1008H1570.5H1578V1022.5V1037H1570.5H1563V1044.5V1052H1578H1593V1059.47V1066.95L1578.25 1067.22L1563.5 1067.5L1563.21 1074.75L1562.91 1082H1577.96H1593V1075V1068H1600.5H1608V1075.5V1083H1615.5H1623V1105.5V1128H1630.5H1638V1150.5V1173H1631H1624V1180.5V1188H1631H1638V1210.5V1233H1645.5H1653V1263.15V1293.3L1642.34 1292.65C1636.48 1292.29 1629.96 1292 1627.84 1292H1624V1284.5V1277H1616.5H1609V1262.61V1248.23L1594 1247.5L1579 1246.77V1239.39V1232H1571.53H1564.05L1563.78 1217.25L1563.5 1202.5L1556.25 1202.21L1549 1201.91V1186.96V1172H1541.5H1534V1157.5V1143H1548.5H1563V1127.5V1112H1555.5H1548V1120V1128H1541H1534V1120V1112H1526.5H1519V1097V1082H1525.89H1532.77L1533.5 1067L1534.23 1052H1541.11H1548V1044.46V1036.91L1540.75 1037.21L1533.5 1037.5L1533.21 1044.75L1532.91 1052H1526.07H1519.23L1518.5 1037L1517.77 1022H1510.89H1504V1007.5V993H1511H1518L1518 1000.25ZM1548 1000V1007H1541H1534V1000V993H1541H1548V1000ZM601 1044.5V1082H593.5H586V1119.5V1157H578.5H571V1179.5V1202H563.5H556V1209.5V1217H548.5H541V1210V1203H533.5H526V1210.5V1218H533.5H541V1225.5V1233H533.5H526V1247.46V1261.92L518.25 1262.21L510.5 1262.5L510.206 1269.75L509.912 1277H502.956H496V1262.5V1248H481H466V1240.5V1233H473.5H481V1225.5V1218H473.5H466V1195.5V1173H473.5H481V1158V1143H496H511V1128V1113H503.5H496V1098V1083H503.5H511V1068V1053H518.5H526V1067.5V1082H533.5H541V1067V1052H533.5H526V1044.5V1037H533.5H541V1029.5V1022H563.5H586V1014.5V1007H593.5H601V1044.5ZM706.794 1029.75L707.088 1037H699.544H692V1029.46V1021.91L699.25 1022.21L706.5 1022.5L706.794 1029.75ZM691 1075V1082H684H677V1075V1068H684H691V1075ZM1112.21 1089.75L1112.5 1097.5L1119.75 1097.79L1127 1098.09V1090.04V1082H1119.46H1111.92L1112.21 1089.75ZM465 1090V1097H458H451V1090V1083H458H465V1090ZM1428 1090V1097H1420.5H1413V1090V1083H1420.5H1428V1090ZM556 1104.5V1112H541H526V1120V1128H548.5H571V1112.5V1097H563.5H556V1104.5ZM1458 1127.5V1157H1450.5H1443V1179.5V1202H1435.5H1428V1180V1158H1420.5H1413V1150.5V1143H1428H1443V1120.5V1098H1450.5H1458V1127.5ZM977 1120V1128H984.5H992V1120V1112H984.5H977V1120ZM676 1120V1127H669H662V1120V1113H669H676V1120ZM1127.46 1128.07C1127.1 1128.65 1127.12 1135.63 1127.52 1143.57L1128.24 1158H1135.06C1138.81 1158 1142.17 1157.53 1142.52 1156.96C1142.87 1156.39 1142.84 1149.42 1142.45 1141.46L1141.73 1127H1134.93C1131.18 1127 1127.82 1127.48 1127.46 1128.07ZM631 1158V1188H623.5H616V1195.5V1203H609H602V1195.5V1188H608.846H615.693L616.346 1175.84C616.706 1169.16 617 1155.66 617 1145.84V1128H624H631V1158ZM691 1135V1142H683.5H676V1135V1128H683.5H691V1135ZM1503 1158V1188H1488.5H1474V1180.5V1173H1481.5H1489V1150.5V1128H1496H1503V1158ZM676 1150.5V1158H669H662V1150.5V1143H669H676V1150.5ZM706 1150.5V1158H713.5H721V1173V1188H714.042H707.084L706.792 1180.25L706.5 1172.5L699.25 1172.21L692 1171.91V1157.46V1143H699H706V1150.5ZM541 1173V1188H548.5H556V1173V1158H548.5H541V1173ZM1052 1165.5V1173H1059.5H1067V1165.5V1158H1059.5H1052V1165.5ZM691 1180.5V1188H698.5H706V1210V1232H699H692V1217V1202H684.5H677V1187.5V1173H684H691V1180.5ZM1413 1188V1203H1420.5H1428V1210V1217L1424.25 1217.01C1422.19 1217.01 1415.44 1217.3 1409.25 1217.66L1398 1218.31V1195.65V1173H1405.5H1413V1188ZM361 1210.54V1218.09L368.25 1217.79L375.5 1217.5L375.794 1210.25L376.088 1203H368.544H361V1210.54ZM481 1210.5V1218H488.5H496V1210.5V1203H488.5H481V1210.5ZM796.5 1218L795.774 1233H804.015H812.256L811.533 1218L810.809 1203H818.405H826V1240.5V1278H819H812V1285.5V1293H819H826V1308V1323H833.5H841V1413V1503H834C830.15 1503 826.983 1503.34 826.962 1503.75C826.941 1504.16 826.673 1534.76 826.368 1571.75L825.812 1639H833.406H841V1668.5V1698H834H827V1683.62V1669.24L797 1668.5L767 1667.76V1660.38V1653H759.5H752V1646V1639H759.542H767.084L766.792 1631.25L766.5 1623.5L752 1623.5C744.025 1623.5 734.013 1623.39 729.75 1623.25L722 1623V1615.5V1608H714.5H707V1601V1594H714H721V1579V1564H713.379H705.758L706.483 1578.5L707.208 1593H699.604H692V1563.62V1534.24L706.474 1533.52L720.948 1532.8L721.224 1518.15L721.5 1503.5L728.75 1503.21L736 1502.91V1495.46V1488H729H722V1473.54V1459.09L729.25 1458.79L736.5 1458.5L736.812 1428.5C736.984 1412 736.824 1391.64 736.457 1383.25L735.789 1368H728.895H722V1345.5V1323H729H736V1330.5V1338H744H752V1345.5V1353H758.847H765.694L766.343 1341.75C766.699 1335.56 766.993 1318.69 766.995 1304.25L767 1278H774.5H782V1240.5V1203H789.613H797.226L796.5 1218ZM1308 1240.5V1278H1315.5H1323V1240.5V1203H1330H1337V1240.5V1278H1330H1323V1285.5V1293H1330H1337V1300.5V1308H1330H1323V1315.5V1323H1330H1337V1330.5V1338H1345H1353V1345.5V1353H1360.5H1368V1345.5V1338H1375.5H1383V1330.5V1323H1390H1397V1338V1353H1389.5H1382L1382.01 1402.25C1382.01 1429.34 1382.3 1456.56 1382.66 1462.75L1383.31 1474H1390.15H1397V1477.84C1397 1479.96 1397.29 1486.48 1397.65 1492.34L1398.3 1503H1390.65H1383V1511V1519H1390.5H1398V1511.5V1504H1405.5H1413V1556V1608H1405H1397V1615.35V1622.69L1385.75 1623.34C1379.56 1623.7 1369.66 1623.99 1363.75 1623.99L1353 1624V1631.5V1639H1360H1367V1645.97V1652.95L1352.25 1653.22L1337.5 1653.5L1337.21 1660.75L1336.91 1668H1329.98H1323.05L1322.78 1653.25L1322.5 1638.5L1308 1638.84C1300.03 1639.02 1293.31 1639.37 1293.07 1639.6C1292.83 1639.84 1292.56 1649.59 1292.48 1661.27C1292.39 1672.94 1292.25 1685.99 1292.16 1690.25L1292 1698H1285H1278V1480.5V1263H1285.5H1293V1233V1203H1300.5H1308V1240.5ZM902 1233V1248H894.5H887V1233V1218H894.5H902V1233ZM1022 1225.5V1233H1014.5H1007V1240.5V1248H962H917V1240.5V1233H954.5H992V1225.5V1218H1007H1022V1225.5ZM1112 1225.5V1233H1157.5H1203V1225.5V1218H1217.5H1232V1225.5V1233H1224.5H1217V1255V1277H1179.5H1142V1270.02V1263.03L1172.25 1262.77L1202.5 1262.5V1255V1247.5L1165 1247.41C1144.38 1247.36 1124.01 1247.25 1119.75 1247.16L1112 1247V1240V1233H1105H1098V1225.5V1218H1105H1112V1225.5ZM1593.21 1225.25L1593.5 1232.5H1608.5H1623.5L1623.79 1225.25L1624.09 1218H1608.5H1592.91L1593.21 1225.25ZM721 1240V1247H714H707V1240V1233H714H721V1240ZM1413 1240V1247H1405.5H1398V1240V1233H1405.5H1413V1240ZM601 1255.5V1263H608.5H616V1255.5V1248H608.5H601V1255.5ZM796 1255.5V1263H804H812V1255.5V1248H804H796V1255.5ZM1067 1255.5V1263H1060H1053V1255.5V1248H1060H1067V1255.5ZM1458 1263V1278H1465.5H1473V1263V1248H1465.5H1458V1263ZM901.794 1269.75L902.088 1277H894.544H887V1269.46V1261.91L894.25 1262.21L901.5 1262.5L901.794 1269.75ZM480.995 1274.25C480.993 1280.44 480.699 1290.56 480.343 1296.75L479.694 1308H472.847H466V1285.5V1263H473.5H481L480.995 1274.25ZM962 1270V1277H947H932V1270V1263H947H962V1270ZM1007 1270V1277H992H977V1270V1263H992H1007V1270ZM1112 1270V1277H1105H1098V1270V1263H1105H1112V1270ZM1067 1375V1473H1060H1053V1375V1277H1060H1067V1375ZM1713 1285V1292H1706H1699V1285V1278H1706H1713V1285ZM316 1300.5V1308H308H300V1315.5V1323H315.653H331.306L330.657 1311.75C330.301 1305.56 330.007 1298.81 330.005 1296.75L330 1293H323H316V1300.5ZM405 1338V1383H397.5H390V1405.5V1428H383H376V1413V1398H368.5H361V1420.5V1443H368H375V1458V1473H353H331V1443.5V1414H338.5H346V1399V1384H353.5H361V1368.5V1353H368H375V1360.5V1368H383H391V1360.5V1353H383.5H376V1338V1323H383.5H391V1308V1293H398H405V1338ZM1503 1315.5V1338H1510.5H1518V1315.5V1293H1510.5H1503V1315.5ZM1774 1300.5V1308H1766.5H1759V1300.5V1293H1766.5H1774V1300.5ZM796 1315.5V1323H804H812V1315.5V1308H804H796V1315.5ZM1623 1330.5V1338H1616H1609V1330.5V1323H1616H1623V1330.5ZM1729 1330.5V1338H1736H1743V1353V1368H1736H1729V1383V1398H1736.5H1744V1383.5V1369H1750.97H1757.95L1758.22 1383.75L1758.5 1398.5L1765.75 1398.79L1773 1399.09V1414.04V1429H1780.5H1788V1451V1473H1781H1774V1458V1443H1766.5H1759V1465.5V1488H1751.5H1744V1465.5V1443H1751.5H1759V1428V1413H1751H1743V1428V1443H1736H1729V1420.5V1398H1721.5H1714V1360.5V1323H1721.5H1729V1330.5ZM541 1345.5V1353H533.5H526V1360.5V1368H518.5H511V1360.5V1353H518.5H526V1345.5V1338H533.5H541V1345.5ZM992 1353.61V1369.23L1007 1368.5L1022 1367.77V1375.39V1383H1007H992V1390.5V1398H962H932V1390.5V1383H939.5H947V1375.5V1368H962H977V1360.5V1353H939.5H902V1345.5V1338H947H992V1353.61ZM1022 1345.5V1353H1014.5H1007V1345.5V1338H1014.5H1022V1345.5ZM1187 1345.5V1353H1149.46H1111.92L1112.21 1360.75L1112.5 1368.5L1149.75 1368.22L1187 1367.94V1375.43V1382.91L1179.75 1383.21L1172.5 1383.5L1172.21 1390.75L1171.91 1398H1157.5H1143.09L1142.79 1390.75L1142.5 1383.5L1127.25 1383.22L1112 1382.95V1390.47V1398H1105H1098V1368V1338H1142.5H1187V1345.5ZM1217 1345.5V1353H1210H1203V1360.5V1368H1210H1217V1383V1398H1210.03H1203.05L1202.78 1383.25L1202.5 1368.5L1195.25 1368.21L1188 1367.91V1360.46V1353H1195.5H1203V1345.5V1338H1210H1217V1345.5ZM1593 1345.5V1353H1586H1579V1345.5V1338H1586H1593V1345.5ZM1638 1345.5V1353H1631H1624V1345.5V1338H1631H1638V1345.5ZM480 1360.5V1368H473H466V1360.5V1353H473H480V1360.5ZM1293 1375.5V1398H1300.5H1308V1375.5V1353H1300.5H1293V1375.5ZM1338 1360.5V1368H1345.5H1353V1375.5V1383H1360.5H1368V1375.5V1368H1360.5H1353V1360.5V1353H1345.5H1338V1360.5ZM1503 1360.5V1368H1518H1533V1360.5V1353H1518H1503V1360.5ZM751.667 1368.67C751.3 1369.03 751 1382.53 751 1398.67V1428H759H767V1405.5V1383H774H781V1375.5V1368H766.667C758.783 1368 752.033 1368.3 751.667 1368.67ZM917 1383V1398H909.5H902V1383V1368H909.5H917V1383ZM510.662 1390.75C510.3 1402.71 510.004 1419.31 510.002 1427.63L510 1442.76L495.5 1443.48L481 1444.21V1451.1V1458H488H495V1480.5V1503H488.153H481.306L480.657 1514.25C480.301 1520.44 480.007 1533.94 480.005 1544.25L480 1563H472.5H465V1578V1593H458H451V1586V1579H443.5H436V1586.5V1594H443H450V1608.5V1623H442.5H435V1638V1653H427.5H420V1668V1683H412.5H405V1698V1713H398H391V1697.97V1682.95L375.75 1683.22L360.5 1683.5V1691V1698.5L367.75 1698.79L375 1699.09V1706.04V1713H368H361V1706V1699H353.5H346V1684V1669H353.5H361V1646.5V1624H368.5H376V1616.54V1609.09L383.25 1608.79L390.5 1608.5L390.769 1586.25L391.038 1564H397.975H404.912L405.206 1571.25L405.5 1578.5L413.293 1578.79L421.086 1579.09L420.793 1571.29L420.5 1563.5L413.25 1563.21L406 1562.91V1540.96V1519H413.5H421V1503.5V1488H428.5H436V1473.5V1459H443.5H451V1444V1429H458.5H466V1421.5V1414H473.5H481V1421V1428H488.5H496V1420.5V1413H488.5H481V1406.04V1399.09L488.25 1398.79L495.5 1398.5L495.777 1383.75L496.053 1369H503.686H511.319L510.662 1390.75ZM1849 1390.5V1398H1856.5H1864V1390.5V1383H1856.5H1849V1390.5ZM435 1406V1413H428H421V1406V1399H428H435V1406ZM1638 1406V1413H1630.5H1623V1427.96V1442.92L1630.75 1443.21L1638.5 1443.5L1638.79 1450.75L1639.09 1458H1646.54H1654V1451V1444H1660.88H1667.76L1668.48 1458.5L1669.21 1473H1676.1H1683V1481V1489H1690.5H1698V1511.5V1534H1705.5H1713V1556.5V1579H1720.5H1728V1594V1609H1721H1714V1616.5V1624H1728.37H1742.74L1743.46 1637.95C1743.86 1645.62 1743.89 1652.37 1743.53 1652.95C1743.13 1653.6 1737.46 1654 1728.44 1654H1714V1669.04V1684.09L1721.25 1683.79L1728.5 1683.5L1728.79 1676.25L1729.09 1669H1736.54H1744V1661.5V1654H1751H1758V1669V1684H1743H1728V1698.5V1713H1721H1714V1705.5V1698H1706.5H1699V1683V1668H1691.5H1684V1653V1638H1676.5H1669V1631.03V1624.05L1683.75 1623.78L1698.5 1623.5L1698.79 1616.25L1699.09 1609H1684.04H1669V1601.54V1594.09L1676.25 1593.79L1683.5 1593.5L1683.79 1586.25L1684.09 1579H1676.04H1668V1586V1593H1661.03H1654.05L1653.78 1578.25L1653.5 1563.5L1646.25 1563.21L1639 1562.91V1540.46V1518H1631.5H1624V1495.5V1473H1631.5H1639V1465.5V1458H1624H1609V1435.5V1413H1616H1623V1406V1399H1630.5H1638V1406ZM1293 1458V1503H1300.5H1308V1458V1413H1300.5H1293V1458ZM1653 1428.5V1443H1646H1639V1428.5V1414H1646H1653V1428.5ZM571 1435.5V1443H586H601V1435.5V1428H586H571V1435.5ZM346 1450.5V1458H353.5H361V1450.5V1443H353.5H346V1450.5ZM1022 1481V1518H1014.5H1007V1510.5V1503H969.5H932V1488V1473H939.5H947V1466V1459H969.5H992V1466.5V1474H999.5H1007V1459V1444H1014.5H1022V1481ZM1112 1488V1518H1105H1098V1488V1458H1105H1112V1488ZM1849 1473V1488H1856.5H1864V1473V1458H1856.5H1849V1473ZM917 1473.5V1488H909.5H902V1473.5V1459H909.5H917V1473.5ZM1143 1466V1473H1150H1157V1466V1459H1172H1187V1481V1503H1157H1127V1481V1459H1135H1143V1466ZM1217 1488.5V1518H1210H1203V1488.5V1459H1210H1217V1488.5ZM330.5 1488L331.226 1503H338.069H344.912L345.206 1495.75L345.5 1488.5L352.75 1488.21L360 1487.91V1495.46V1503H352.5H345V1525.38V1547.76L330.5 1548.48L316 1549.21V1556.1V1563H323H330V1571.04V1579.09L322.75 1578.79L315.5 1578.5L315.206 1571.25L314.912 1564H307.956H301V1549.12V1534.24L315.5 1533.52L330 1532.79V1525.4V1518H323H316V1495.5V1473H322.887H329.774L330.5 1488ZM451 1488V1503H458.5H466V1488V1473H458.5H451V1488ZM947 1480.5V1488H954.5H962V1480.5V1473H954.5H947V1480.5ZM1653 1480.5V1488H1645.5H1638V1495.5V1503H1646H1654V1495.5V1488H1661.5H1669V1480.5V1473H1661H1653V1480.5ZM721 1496V1503H714H707V1496V1489H714H721V1496ZM1803 1496V1503H1796H1789V1496V1489H1796H1803V1496ZM1067 1556V1609H1060H1053V1556V1503H1060H1067V1556ZM1773.79 1510.75L1774.09 1518H1766.54H1759V1510.46V1502.91L1766.25 1503.21L1773.5 1503.5L1773.79 1510.75ZM1803 1525.5V1533H1796H1789V1540.46V1547.91L1796.25 1548.21L1803.5 1548.5L1803.79 1555.75L1804.09 1563H1811.04H1818V1586V1609H1811H1804V1601V1593H1796.5H1789V1586V1579H1796.5H1804V1571V1563H1789H1774V1541.04V1519.08L1781.75 1518.74C1786.01 1518.56 1792.54 1518.31 1796.25 1518.2L1803 1518V1525.5ZM1383 1541V1549H1390.5H1398V1541V1533H1390.5H1383V1541ZM1383 1578.5V1594H1390.5H1398V1578.5V1563H1390.5H1383V1578.5ZM1563.42 1564.35C1563.13 1565.1 1563.03 1568.59 1563.2 1572.1L1563.5 1578.5L1571.25 1578.79L1579 1579.08V1571.04V1563H1571.47C1566.05 1563 1563.79 1563.38 1563.42 1564.35ZM962 1571.5V1579H984.5H1007V1594V1609H1014.5H1022V1706.5V1804H992H962V1789V1774H954.5H947V1766.5V1759H939.5H932V1736.5V1714H924.5H917V1698.5V1683H909.5H902V1645.5V1608H894.5H887V1601V1594H894.5H902V1579V1564H932H962V1571.5ZM1217 1585.96V1607.91L1209.75 1608.21L1202.5 1608.5L1202.21 1616.25L1201.92 1624H1209.46H1217V1639V1654H1210.15H1203.3L1202.65 1664.66C1202.29 1670.52 1202 1683.79 1202 1694.16V1713H1194.5H1187V1706V1699H1180.04H1173.09L1172.79 1706.25L1172.5 1713.5L1164.75 1713.79L1157 1714.08V1729.04V1744H1164.5H1172V1751.5V1759H1164.5H1157V1774V1789H1149.5H1142V1804V1819H1135H1128V1811.5V1804H1120H1112V1811.5V1819H1105H1098V1699V1579H1104.97H1111.95L1112.22 1593.75L1112.5 1608.5L1119.75 1608.79L1127 1609.09V1616.54V1624H1134.5H1142V1616.54V1609.09L1134.75 1608.79L1127.5 1608.5L1127.22 1593.75L1126.95 1579H1134.97H1143V1571.5V1564H1180H1217V1585.96ZM526 1586.5V1594H533.5H541V1586.5V1579H533.5H526V1586.5ZM315 1608.5V1623H308H301V1608.5V1594H308H315V1608.5ZM421 1601.54V1609.09L428.25 1608.79L435.5 1608.5L435.794 1601.25L436.088 1594H428.544H421V1601.54ZM1293 1609V1624H1300.5H1308V1609V1594H1300.5H1293V1609ZM300 1638.5V1653H293H286V1638.5V1624H293H300V1638.5ZM782 1631.54V1639.09L789.25 1638.79L796.5 1638.5L796.794 1631.25L797.088 1624H789.544H782V1631.54ZM1067 1714V1804H1060H1053V1714V1624H1060H1067V1714ZM1112 1661.5V1699H1119.5H1127V1661.5V1624H1119.5H1112V1661.5ZM1818 1631V1638H1811H1804V1631V1624H1811H1818V1631ZM1833 1646.5V1654H1826H1819V1646.5V1639H1826H1833V1646.5ZM481 1661.5V1669H488.5H496V1661.5V1654H488.5H481V1661.5ZM1653 1661.5V1669H1646H1639V1661.5V1654H1646H1653V1661.5ZM1322 1676V1683H1315H1308V1676V1669H1315H1322V1676ZM1428 1699V1729H1420.5H1413V1736.5V1744H1420.5H1428V1879.5V2015H1435.5H1443V2074.5V2134H1435.5H1428V2096.5V2059H1420.5H1413V2021.5V1984H1405.5H1398V1954V1924H1390.5H1383V1886.5V1849H1375.5H1368V1826.5V1804H1360.54H1353.08L1352.79 1811.75L1352.5 1819.5L1345.25 1819.79L1338 1820.09V1826.98C1338 1830.78 1337.53 1834.17 1336.95 1834.53C1336.37 1834.89 1329.62 1834.86 1321.95 1834.46L1308 1833.74V1826.37V1819H1323H1338V1811.5V1804H1330.5H1323V1789V1774H1330.5H1338V1766.5V1759H1345.5H1353V1751.5V1744H1360.5H1368V1736.5V1729H1375.5H1383V1714V1699H1390.5H1398V1706.5V1714H1405.5H1413V1706V1698H1405.5H1398V1691V1684H1405.5H1413V1676.5V1669H1420.5H1428V1699ZM466 1691V1699H473.5H481V1691V1683H473.5H466V1691ZM766 1691V1698H759H752V1691V1684H759H766V1691ZM1247 1706.5V1729H1240H1233V1736.5V1744H1247.35H1261.69L1262.34 1755.24C1262.69 1761.43 1262.69 1771.55 1262.34 1777.74L1261.69 1789H1247.35H1233V1781.5V1774H1225H1217V1781.5V1789H1210H1203V1774V1759H1210.5H1218V1744V1729H1225.5H1233V1706.5V1684H1240H1247V1706.5ZM1773 1699V1714H1766H1759V1721.5V1729H1751.5H1744V1736.5V1744H1759H1774V1729V1714H1780.89H1787.77L1788.5 1729L1789.23 1744H1796.11H1803V1751.5V1759H1796H1789V1766.5V1774H1796.5H1804V1781.5V1789H1811.5H1819V1796.5V1804H1826H1833V1811.5V1819H1826H1819V1811.5V1804H1811.5H1804V1826.5V1849H1819H1834V1834.5V1820H1841.5H1849V1834.5V1849H1856.5H1864V1857V1865H1871.5H1879V1880V1895H1886.5H1894V1902V1909H1879H1864V1916.5V1924H1849H1834V1916.5V1909H1826.5H1819V1894V1879H1811.5H1804V1864V1849H1796.5H1789V1834V1819H1781.5H1774V1804V1789H1766.5H1759V1774V1759H1751.5H1744V1751.5V1744H1736.5H1729V1729V1714H1744H1759V1699V1684H1766H1773V1699ZM345 1714V1729H338H331V1714V1699H338H345V1714ZM721 1706.5V1714H728.5H736V1721.5V1729H743.5H751V1736.5V1744H743.5H736V1751.5V1759H744H752V1751.5V1744H759H766V1751.5V1759H773.5H781V1766.5V1774H774H767V1781.5V1789H781.5H796V1796.5V1804H789H782V1811.38V1818.76L796.5 1819.48L811 1820.21V1827.72V1835.24L796.5 1834.52L782 1833.79V1845.74C782 1852.31 781.707 1862.48 781.348 1868.34L780.696 1879H773.848H767V1849V1819H751.5H736V1834V1849H728.5H721V1841.46V1833.91L713.75 1834.21L706.5 1834.5L706.235 1864.25L705.97 1894H713.372H720.774L721.5 1879L722.226 1864H729.113H736V1879V1894H728.5H721V1931.5V1969H713.5H706V1998.96V2028.91L698.75 2029.21L691.5 2029.5L691.238 2066.75L690.976 2104H683.988H677V2029V1954H692.044H707.088L706.794 1946.75L706.5 1939.5L699.25 1939.21L692 1938.91V1818.96V1699H706.5H721V1706.5ZM781 1706V1713H774H767V1706V1699H774H781V1706ZM932 1706.5V1714H939.5H947V1706.5V1699H939.5H932V1706.5ZM390 1721.5V1729H383H376V1721.5V1714H383H390V1721.5ZM706.169 1759L705.921 1804H713.461H721V1811.5V1819H728.5H736V1811.5V1804H728.5H721V1774V1744H728.5H736V1736.54V1729.09L728.75 1728.79L721.5 1728.5L721.206 1721.25L720.912 1714H713.665H706.418L706.169 1759ZM811 1721V1728H796.5H782V1721V1714H796.5H811V1721ZM886 1729V1744H879H872V1751.5V1759H879.5H887V1751.5V1744H894H901V1751.5V1759H894H887V1774V1789H894.5H902V1796.5V1804H909.5H917V1796.5V1789H923.974H930.948L931.224 1804.25L931.5 1819.5L938.75 1819.79L946 1820.09V1834.54V1849H939H932V1841.5V1834H924.5H917V1826.5V1819H909.5H902V1811.5V1804H887H872V1796.5V1789H864.5H857V1781.5V1774H849.5H842V1759V1744H857H872V1729V1714H879H886V1729ZM1337 1721V1728H1329.5H1322V1736V1744H1315H1308V1729V1714H1322.5H1337V1721ZM375 1744V1759H368H361V1744V1729H368H375V1744ZM826 1736.5V1744H819H812V1736.5V1729H819H826V1736.5ZM1187 1736.5V1744H1180H1173V1736.5V1729H1180H1187V1736.5ZM1293 1736.5V1744H1300H1307V1751.5V1759H1292.5H1278V1751.5V1744H1270.5H1263V1736.5V1729H1278H1293V1736.5ZM180 1751.5V1759H187.5H195V1751.5V1744H187.5H180V1751.5ZM345 1751.5V1759H352.5H360V1774V1789H352.5H345V1804V1819H337.5H330V1826.5V1834H322.5H315V1849V1864H308H301V1856.5V1849H293.5H286V1841.5V1834H278.5H271V1819.5V1805H278H285V1812V1819H293H301V1812.04V1805.09L308.25 1804.79L315.5 1804.5L315.792 1796.75L316.084 1789H322.889H329.694L330.343 1777.75C330.699 1771.56 330.993 1761.44 330.995 1755.25L331 1744H338H345V1751.5ZM1473 1751.5V1759H1480.5H1488V1751.5V1744H1480.5H1473V1751.5ZM857 1766.5V1774H864.5H872V1766.5V1759H864.5H857V1766.5ZM180 1781.5V1789H187.5H195V1781.5V1774H187.5H180V1781.5ZM300 1796.5V1804H293H286V1796.5V1789H293H300V1796.5ZM405 1796.5V1804H413H421V1796.5V1789H413H405V1796.5ZM1202 1797V1805H1195H1188V1797V1789H1195H1202V1797ZM1232 1796.5V1804H1225H1218V1796.5V1789H1225H1232V1796.5ZM1338 1796.5V1804H1345.5H1353V1796.5V1789H1345.5H1338V1796.5ZM1383 1819V1834H1390.5H1398V1819V1804H1390.5H1383V1819ZM390.667 1819.67C390.3 1820.03 390 1823.41 390 1827.17V1834H405.5H421V1826.5V1819H406.167C398.008 1819 391.033 1819.3 390.667 1819.67ZM992 1826.5V1834H984.5H977V1826.5V1819H984.5H992V1826.5ZM1022 1834V1849H1014.5H1007V1834V1819H1014.5H1022V1834ZM1187 1826.5V1834H1180H1173V1826.5V1819H1180H1187V1826.5ZM1067 1864V1894H1052H1037V1901.5V1909H1030H1023V1901.5V1894H1030H1037V1887.04V1880.08L1044.75 1879.79L1052.5 1879.5L1052.77 1856.75L1053.04 1834H1060.02H1067V1864ZM1308 1842V1849H1300.5H1293V1842V1835H1300.5H1308V1842ZM270 1856.5V1864H263H256V1856.5V1849H263H270V1856.5ZM390.667 1849.67C390.3 1850.03 390 1853.41 390 1857.17V1864H398H406V1856.5V1849H398.667C394.633 1849 391.033 1849.3 390.667 1849.67ZM1398 1879V1909H1405.5H1413V1879V1849H1405.5H1398V1879ZM1834 1856.5V1864H1826.5H1819V1871.5V1879H1826.5H1834V1871.5V1864H1841.5H1849V1856.5V1849H1841.5H1834V1856.5ZM826 1865V1880H833.5H841V1902.5V1925H848.481H855.962L856.231 1947.25L856.5 1969.5L863.75 1969.79L871 1970.09L871.005 1981.29C871.007 1987.46 871.301 1997.56 871.657 2003.75L872.306 2015H879.04H885.774L886.5 2030L887.226 2045H894.113H901V2060V2075H894H887V2082.5V2090H894.5H902V2082.5V2075H909H916V2090V2105H908.5H901V2112V2119H894H887V2104.5V2090H879.5H872V2082.5V2075H879.5H887V2060V2045H879.5H872V2030V2015H864.5H857V2022.65V2030.31L845.75 2029.66C839.563 2029.3 832.813 2029.01 830.75 2029.01L827 2029V2014.5V2000H834.5H842V2007.54V2015.09L849.25 2014.79L856.5 2014.5V2007V1999.5L849.25 1999.21L842 1998.91V1968.96V1939H833.849H825.699L826.255 1959C826.561 1969.99 826.564 1983.49 826.26 1989L825.709 1999H818.855H812V1976.5V1954H804.5H797V1939V1924H789.5H782V1909V1894H789.5H797V1901.5V1909H812H827V1901.5V1894H819.5H812V1886.5V1879H804H796V1871.5V1864H803.5H811V1857V1850H818.5H826V1865ZM901 1857V1864H894H887V1857V1850H894H901V1857ZM285.794 1871.75L286.088 1879H278.044H270V1886.5V1894H255H240V1901.5V1909H233H226V1894.5V1880H233.5H241V1872.5V1865H248H255V1872V1879H262.5H270V1872.17C270 1868.41 270.318 1865.01 270.706 1864.63C271.095 1864.24 274.582 1864.05 278.456 1864.21L285.5 1864.5L285.794 1871.75ZM917 1879.5V1894H909.5H902V1879.5V1865H909.5H917V1879.5ZM992 1872V1879H984.5H977V1872V1865H984.5H992V1872ZM1142 1872V1879H1127.5H1113V1872V1865H1127.5H1142V1872ZM1323 1872V1879H1330H1337V1894V1909H1330.11H1323.23L1322.5 1894L1321.77 1879H1314.89H1308V1872V1865H1315.5H1323V1872ZM300 1886.5V1894H292.5H285V1901.5V1909H277.5H270V1916.5V1924H262.456H254.912L255.206 1916.75L255.5 1909.5L262.707 1909.21L269.914 1908.91L270.207 1901.71L270.5 1894.5L277.75 1894.21L285 1893.91V1887.12C285 1883.39 285.3 1880.03 285.667 1879.67C286.033 1879.3 289.408 1879 293.167 1879H300V1886.5ZM616 1916.5V1954H623.5H631V1916.5V1879H623.5H616V1916.5ZM1217 1886.5V1894H1210H1203V1886.5V1879H1210H1217V1886.5ZM1849 1894V1909H1856.5H1864V1894V1879H1856.5H1849V1894ZM946 1887V1894H939H932V1887V1880H939H946V1887ZM1022 1887V1894H1014.5H1007V1887V1880H1014.5H1022V1887ZM1112 1887V1894H1104.5H1097V1887V1880H1104.5H1112V1887ZM1293 1894.5V1909H1307.5H1322V1924V1939H1315.15H1308.31L1307.66 1950.25C1307.3 1956.44 1307.01 1966.56 1307.01 1972.75L1307 1984H1299.5H1292V1999V2014H1284.5H1277V2029V2044H1270H1263V2022V2000H1255.5H1248V2022.5V2045H1255H1262V2059.5V2074H1254.5H1247V2082V2090H1240.04H1233.08L1232.79 2082.25L1232.5 2074.5H1225H1217.5L1217.21 2081.75L1216.91 2089H1209.96H1203V2074.52V2060.04L1225.25 2059.77L1247.5 2059.5L1247.79 2052.38L1248.08 2045.26L1233.04 2044.54L1218 2043.81V2036.91V2030H1225.5H1233V2007.5V1985H1240.5H1248V1970V1955H1255.5H1263V1947V1939H1277.5H1292V1932V1925H1285H1278V1902.5V1880H1285.5H1293V1894.5ZM1082 1901.5V1909H1075H1068V1901.5V1894H1075H1082V1901.5ZM932 1917V1939H939.5H947V1932.11V1925.23L962 1924.5L977 1923.77V1916.89V1910H984.5H992V1924.39V1938.77L1007 1939.5L1022 1940.23V1947.11V1954H999.5H977V1961.5V1969H969.5H962V1977V1985H969.5H977V1992.5V2000H992H1007V2007.5V2015H999.5H992V2037.5V2060H984.5H977V2045V2030H969.5H962V2007.5V1985H954.5H947V1977V1969H939.5H932V1954V1939H924.5H917V1917V1895H924.5H932V1917ZM962 1902V1909H954.5H947V1902V1895H954.5H962V1902ZM1172 1902V1909H1165.11H1158.23L1157.5 1924L1156.77 1939H1149.93H1143.09L1142.79 1931.75L1142.5 1924.5L1135.25 1924.21L1128 1923.91V1916.96V1910H1135.5H1143V1902.5V1895H1157.5H1172V1902ZM1202 1902V1909H1195H1188V1902V1895H1195H1202V1902ZM1067 1939.5V1970H1060H1053L1052.99 1950.75C1052.99 1940.16 1052.7 1926.44 1052.34 1920.25L1051.69 1909H1059.35H1067V1939.5ZM1473 1931.5V1939H1480.5H1488V1931.5V1924H1480.5H1473V1931.5ZM1127.21 1932.25L1127.5 1939.5L1135.25 1939.79L1143 1940.08V1947.04V1954H1157.5H1172V1976.5V1999L1164.25 1999.25C1159.99 1999.39 1149.97 1999.5 1142 1999.5H1127.5L1127.21 2006.75L1126.91 2014H1119.97H1113.04L1112.77 1991.75L1112.5 1969.5L1105.25 1969.21L1098 1968.91V1954.46V1940H1105.5H1113V1932.5V1925H1119.96H1126.91L1127.21 1932.25ZM135 1946.5V1954H127.5H120V1961.5V1969H112.5H105V1961.5V1954H112.5H120V1946.5V1939H127.5H135V1946.5ZM1187 1946.5V1954H1180H1173V1946.5V1939H1180H1187V1946.5ZM1278 1962.04V1970.09L1285.25 1969.79L1292.5 1969.5L1292.79 1961.75L1293.08 1954H1285.54H1278V1962.04ZM1488 1969V1984H1495.5H1503V1969V1954H1495.5H1488V1969ZM2014 1961.5V1969H2007H2000V1961.5V1954H2007H2014V1961.5ZM180 1962V1969H173H166V1962V1955H173H180V1962ZM1939 1970.15V1985.31L1927.75 1984.66C1921.56 1984.3 1908.06 1984.01 1897.75 1984.01L1879 1984V1977V1970H1902H1925V1962.5V1955H1932H1939V1970.15ZM315.417 1970.35C315.131 1971.1 315.033 1974.59 315.199 1978.1L315.5 1984.5L322.75 1984.79L330 1985.09V1977.04V1969H322.969C317.975 1969 315.787 1969.39 315.417 1970.35ZM616.667 1969.67C616.3 1970.03 616 1980.38 616 1992.67V2015H623.5H631V1992V1969H624.167C620.408 1969 617.033 1969.3 616.667 1969.67ZM1128 1977V1985H1135H1142V1977V1969H1135H1128V1977ZM105 1977V1984H97.5H90V1977V1970H97.5H105V1977ZM165 1977V1984H172.5H180V1977V1970H187.456H194.912L195.206 1977.25L195.5 1984.5H203H210.5L210.794 1977.25L211.088 1970H218.044H225V1977.5V1985H247.5H270V2015V2045H277.5H285V2074.5V2104H277.5H270V2134V2164H263H256V2156.5V2149H248H240V2142V2135H233.044H226.088L225.794 2142.25L225.5 2149.5L218.293 2149.79L211.086 2150.09L210.793 2142.29L210.5 2134.5L195.25 2134.22L180 2133.95V2148.97V2164H173.159H166.319L165.667 2142.34C165.309 2130.43 164.899 2120.58 164.758 2120.45C164.616 2120.32 157.863 2119.88 149.75 2119.49L135 2118.76V2126.38V2134H127.5H120V2119.5V2105H135H150V2090V2075H135H120V2059.5V2044H112.5H105V2051.5V2059H97.5H90V2044.5V2030H97.5H105V2022.5V2015H120H135V2022.5V2030H150H165V2022.54V2015.09L157.75 2014.79L150.5 2014.5L150.206 2007.25L149.912 2000H157.456H165V1992V1984H158H151V1977V1970H158H165V1977ZM1007 1977V1984H992H977V1977V1970H992H1007V1977ZM1052 2022.5V2075H1067H1082V2127.5V2180H1074.5H1067V2172.5V2165H1059.5H1052V2180V2195H1067H1082V2202.5V2210H1074.5H1067V2217.5V2225H1082H1097V2240V2255H1089.5H1082V2277.5V2300H1074.5H1067V2285V2270H1059.5H1052V2285V2300H1045H1038V2292.5V2285H1030.5H1023V2255V2225H1030.5H1038V2210V2195H1030.5H1023V2135V2075H1029.85H1036.69L1037.34 2063.75C1037.7 2057.56 1037.99 2033.94 1037.99 2011.25L1038 1970H1045H1052V2022.5ZM1969 1977.54V1985.09L1961.75 1984.79L1954.5 1984.5L1954.21 1977.25L1953.91 1970H1961.46H1969V1977.54ZM2074.43 1985.31C2074.14 1986.08 2074.03 1989.59 2074.2 1993.1L2074.5 1999.5L2081.71 1999.79L2088.91 2000.09L2089.21 2007.29L2089.5 2014.5H2097H2104.5V2007V1999.5L2097.29 1999.21L2090.09 1998.91L2089.79 1991.71L2089.5 1984.5L2082.24 1984.21C2076.73 1983.98 2074.84 1984.25 2074.43 1985.31ZM90 1992V1999H82.5H75V1992V1985H82.5H90V1992ZM150 1992V1999H142.5H135V1992V1985H142.5H150V1992ZM1864 1992.5V2000H1931.5H1999V2015V2030H2006.5H2014V2037.5V2045H2006.5H1999V2052V2059H1991.5H1984V2088.89V2118.77L1969 2119.5L1954 2120.23V2127.76V2135.3L1934 2134.75C1923.01 2134.44 1909.51 2134.44 1904 2134.74L1894 2135.29V2142.15V2149H1879H1864V2142V2135H1856.5H1849V2157V2179H1841.5H1834V2097V2015H1841.5H1849V2000V1985H1856.5H1864V1992.5ZM240.667 1999.67C240.3 2000.03 240 2003.63 240 2007.67V2015H247.5H255V2007V1999H248.167C244.408 1999 241.033 1999.3 240.667 1999.67ZM330.69 2010.5C330.351 2016.82 330.351 2027.18 330.69 2033.5L331.306 2045H338H344.694L345.31 2033.5C345.649 2027.18 345.649 2016.82 345.31 2010.5L344.694 1999H338H331.306L330.69 2010.5ZM1082 2022V2030H1074.5H1067V2022V2014H1074.5H1082V2022ZM931 2022V2029H924H917V2022V2015H924H931V2022ZM1157 2022V2029H1150H1143V2022V2015H1150H1157V2022ZM1138.16 2030H1142V2044.5V2059H1134.5H1127V2074V2089H1120H1113V2058.85V2028.7L1123.66 2029.35C1129.52 2029.71 1136.04 2030 1138.16 2030ZM1352.24 2059.25C1352.54 2075.34 1352.58 2088.84 1352.33 2089.25C1352.08 2089.66 1345.38 2090 1337.44 2090H1323V2097.5V2105H1330.5H1338V2120V2135H1345.5H1353V2112.5V2090H1360H1367V2112.5V2135H1374.5H1382V2180V2225H1375.15H1368.31L1367.66 2236.25C1367.3 2242.44 1367.01 2252.79 1367.01 2259.25L1367 2271H1360H1353V2278V2285H1360H1367V2292.5V2300H1360.1H1353.21L1352.48 2315.5L1351.76 2331H1344.88H1338V2315.5V2300H1330.5H1323V2337.5V2375H1330H1337V2390V2405H1329.5H1322V2427.5V2450H1314.5H1307V2472.5V2495H1299.5H1292V2502.35V2509.7L1281.34 2510.35C1275.48 2510.71 1268.96 2511 1266.84 2511H1263V2503.5V2496H1270.5H1278V2481V2466H1270.61H1263.23L1262.5 2481L1261.77 2496H1254.89H1248V2518.54V2541.09L1255.25 2540.79L1262.5 2540.5L1262.79 2533.25L1263.09 2526H1270.04H1277V2540.46V2554.91L1269.75 2555.21L1262.5 2555.5L1262.22 2570.75L1261.95 2586H1254.47H1247V2600.35V2614.7L1236.34 2615.35C1230.48 2615.71 1223.96 2616 1221.84 2616H1218V2608.54V2601.09L1225.25 2600.79L1232.5 2600.5L1232.78 2585.75L1233.05 2571H1240.53H1248V2563.5V2556H1240.5H1233V2383V2210H1240.5H1248V2187.5V2165H1255.5H1263V2157.5V2150H1270.5H1278V2142.5V2135H1285.5H1293V2142.5V2150H1300.5H1308V2142.5V2135H1315.54H1323.08L1322.79 2127.25L1322.5 2119.5L1307.75 2119.84L1293 2120.18V2112.59V2105H1300.5H1308V2097.5V2090H1315.5H1323V2082.5V2075H1330.5H1338V2052.5V2030H1344.85H1351.71L1352.24 2059.25ZM781 2060V2075H773.5H766V2097.5V2120H780.956H795.912L796.206 2127.25L796.5 2134.5H811C818.975 2134.5 828.987 2134.61 833.25 2134.75L841 2135V2150V2165H848.5H856V2172.58V2180.16L848.498 2179.83L840.995 2179.5L840.998 2187.25L841 2195H856H871V2202.5V2210H864H857V2217.5V2225H864.5H872V2240V2255H879H886V2315V2375H879H872V2352.5V2330H864.5H857V2352.46V2374.91L864.25 2375.21L871.5 2375.5L871.794 2382.75L872.088 2390H879.044H886V2443V2496H871H856V2511V2526H871H886V2533.6V2541.21L871.544 2540.49L857.088 2539.76L856.794 2547.63L856.5 2555.5L849.25 2555.79L842 2556.09V2548.04V2540H834.5H827V2533V2526H834.5H842V2518.5V2511H834.5H827V2503.5V2496H819.5H812V2488.54V2481.09L819.25 2480.79L826.5 2480.5V2465.5V2450.5L819.25 2450.21L812 2449.91V2457.46V2465H804.5H797V2450.54V2436.09L804.25 2435.79L811.5 2435.5V2428V2420.5L804.293 2420.21L797.086 2419.91L796.793 2412.71L796.5 2405.5L789.25 2405.21L782 2404.91V2389.96V2375H774.5H767V2360V2345H774.544H782.088L781.794 2337.75L781.5 2330.5L774.25 2330.21L767 2329.91V2322.46V2315H774.5H782V2292.5V2270H774H766V2278V2286H759H752V2270.5V2255H767H782V2248V2241H774.621H767.242L766.516 2225.5L765.789 2210H751.395H737V2194.5V2179H744H751V2172V2165H744H737V2150V2135H743.847H750.694L751.343 2123.75C751.699 2117.56 751.993 2100.69 751.995 2086.25L752 2060H759.5H767V2052.5V2045H774H781V2060ZM857 2052V2059H849.5H842V2052V2045H849.5H857V2052ZM1082 2052.5V2060H1075H1068V2052.5V2045H1075H1082V2052.5ZM871 2067V2074H864H857V2067V2060H864H871V2067ZM2044 2067V2074H2037H2030V2067V2060H2037H2044V2067ZM2135 2067.54V2075.09L2142.25 2074.79L2149.5 2074.5L2149.79 2067.25L2150.09 2060H2142.54H2135V2067.54ZM796 2082.5V2090H803.5H811V2105V2120H804H797L797.002 2112.25L797.005 2104.5L789.502 2104.83L782 2105.16V2090.08V2075H789H796V2082.5ZM1037 2097.5V2105H1044.5H1052V2097.5V2090H1044.5H1037V2097.5ZM1232 2104.5V2119H1224.5H1217V2115.16C1217 2113.04 1217.29 2106.52 1217.65 2100.66L1218.3 2090H1225.15H1232V2104.5ZM180 2112V2119H187.5H195V2112V2105H187.5H180V2112ZM210.206 2112.25L210.5 2119.5L225.25 2119.78L240 2120.05V2112.53V2105H224.956H209.912L210.206 2112.25ZM931 2120V2135H938.5H946V2150V2165H954H962V2187.5V2210H969.5H977V2217.5V2225H969.5H962V2217.5V2210H954.5H947V2194.5V2179H939.5H932V2171.5V2164H924.5H917V2149.5V2135H909.5H902V2127.5V2120H909.5H917V2112.5V2105H924H931V2120ZM1849 2112.5V2120H1856.5H1864V2112.5V2105H1856.5H1849V2112.5ZM676 2134.5V2149H669H662V2134.5V2120H669H676V2134.5ZM1187.21 2127.25L1187.5 2134.5L1194.75 2134.79L1202 2135.09V2142V2148.91L1194.75 2149.21L1187.5 2149.5L1187.21 2157.25L1186.92 2165H1180.05H1173.19L1172.47 2180L1171.74 2195H1164.87H1158V2180V2165H1165.5H1173V2142.5V2120H1179.96H1186.91L1187.21 2127.25ZM1217 2127V2134H1210H1203V2127V2120H1210H1217V2127ZM1879 2127.5V2135H1886.5H1894V2127.5V2120H1886.5H1879V2127.5ZM767 2142.5V2150H758.956H750.912L751.206 2157.25L751.5 2164.5H759H766.5L766.793 2157.29L767.086 2150.09L774.293 2149.79L781.5 2149.5L781.794 2142.25L782.088 2135H774.544H767V2142.5ZM812 2157.5V2165H819.5H827V2157.5V2150H819.5H812V2157.5ZM1278 2157.5V2165H1285.5H1293V2157.5V2150H1285.5H1278V2157.5ZM1353 2157.5V2165H1360.5H1368V2157.5V2150H1360.5H1353V2157.5ZM1323 2172.54V2180.09L1330.25 2179.79L1337.5 2179.5L1337.79 2172.25L1338.09 2165H1330.54H1323V2172.54ZM1488 2172.5V2180H1495.5H1503V2172.5V2165H1495.5H1488V2172.5ZM331 2195V2210H338H345V2217.5V2225H353H361V2217.5V2210H353H345V2195V2180H338H331V2195ZM766 2195V2210H774H782V2195V2180H774H766V2195ZM1157 2202.5V2210H1150H1143V2202.5V2195H1150H1157V2202.5ZM1488 2225V2240H1495.5H1503V2225V2210H1495.5H1488V2225ZM751 2240V2255H744H737V2240V2225H744H751V2240ZM841 2240V2255H848.348H855.696L856.348 2244.34C856.707 2238.48 857 2231.73 857 2229.34V2225H849H841V2240ZM1338 2247.5V2270H1345.5H1353V2247.5V2225H1345.5H1338V2247.5ZM1744 2232.5V2240H1751.5H1759V2247.5V2255H1766.5H1774V2247.5V2240H1766.5H1759V2232.5V2225H1751.5H1744V2232.5ZM1142 2247.5V2255H1135H1128V2247.5V2240H1135H1142V2247.5ZM992 2248V2255H984.5H977V2248V2241H984.5H992V2248ZM346 2262.46V2270H353.544H361.088L360.794 2262.75L360.5 2255.5L353.25 2255.21L346 2254.91V2262.46ZM1488 2270V2285H1495.5H1503V2270V2255H1495.5H1488V2270ZM857 2270.5V2285H864.5H872V2281.16C872 2279.04 871.707 2272.52 871.348 2266.66L870.696 2256H863.848H857V2270.5ZM1909 2263.5V2271H1901.5H1894V2263.5V2256H1901.5H1909V2263.5ZM255 2277.5V2285H248H241V2277.5V2270H248H255V2277.5ZM601 2277.5V2285H608.5H616V2277.5V2270H608.5H601V2277.5ZM1759 2277.5V2285H1766.5H1774V2277.5V2270H1766.5H1759V2277.5ZM1864 2285.5V2300H1856.5H1849V2285.5V2271H1856.5H1864V2285.5ZM1248 2299.96V2315H1255.53H1263.05L1262.78 2300.25L1262.5 2285.5L1255.25 2285.21L1248 2284.91V2299.96ZM616 2307.5V2315H623.5H631V2307.5V2300H623.5H616V2307.5ZM766 2307.5V2315H759H752V2307.5V2300H759H766V2307.5ZM1473 2315V2330H1480.5H1488V2315V2300H1480.5H1473V2315ZM2014 2307.5V2315H2007H2000V2307.5V2300H2007H2014V2307.5ZM1879 2308V2315H1871.5H1864V2308V2301H1871.5H1879V2308ZM15 2322.5V2330H22.5H30V2322.5V2315H22.5H15V2322.5ZM1052 2352.5V2375H1067H1082V2382.5V2390H1067H1052V2398V2406H1059.5H1067V2421V2436H1074.5H1082V2473.5V2511H1074.5H1067V2480.5V2450H1059.5H1052V2480.5V2511H1044.75H1037.5L1037.66 2472.75C1037.74 2451.71 1037.85 2424.49 1037.91 2412.25L1038 2390H1045H1052V2382.5V2375H1045H1038V2352.5V2330H1045H1052V2352.5ZM1082 2337.5V2345H1074.5H1067V2337.5V2330H1074.5H1082V2337.5ZM1819 2337.5V2345H1826.5H1834V2337.5V2330H1826.5H1819V2337.5ZM962 2353.5V2376H969.5H977V2383V2390H969.5H962V2398V2406H969.5H977V2413V2420H969.5H962V2435V2450H954.5H947V2390.5V2331H954.5H962V2353.5ZM1172 2352.5V2360H1165H1158V2352.5V2345H1165H1172V2352.5ZM1352 2352.5V2360H1345H1338V2352.5V2345H1345H1352V2352.5ZM1954 2353V2360H1947H1940V2353V2346H1947H1954V2353ZM706 2368V2375H699H692V2368V2361H699H706V2368ZM1157 2368.5V2376H1150H1143V2368.5V2361H1150H1157V2368.5ZM1172 2428.29V2480.58L1142.5 2480.76L1113 2480.94V2465.97V2451H1120.5H1128V2443.53V2436.05L1142.75 2435.78L1157.5 2435.5L1157.79 2428.38L1158.08 2421.26L1143.04 2420.53L1128 2419.81V2412.91V2406H1135.5H1143V2398V2390H1150.5H1158V2383V2376H1165H1172V2428.29ZM1413 2398V2420H1405.5H1398V2398V2376H1405.5H1413V2398ZM75 2397.5V2405H82.5H90V2397.5V2390H82.5H75V2397.5ZM165 2397.5V2405H172.5H180V2397.5V2390H172.5H165V2397.5ZM195 2398V2406H202.5H210V2398V2390H202.5H195V2398ZM1969.67 2390.67C1969.3 2391.03 1969 2394.41 1969 2398.17V2405H1976.5H1984V2397.5V2390H1977.17C1973.41 2390 1970.03 2390.3 1969.67 2390.67ZM1999.67 2390.67C1999.3 2391.03 1999 2394.41 1999 2398.17V2405H2014H2029V2397.5V2390H2014.67C2006.78 2390 2000.03 2390.3 1999.67 2390.67ZM721 2420V2435H714H707V2420V2405H714H721V2420ZM857 2412.96V2421H849.658H842.317L841.69 2442.65C841.345 2454.55 841.301 2464.68 841.591 2465.15C841.881 2465.62 845.466 2466 849.559 2466H857V2458.5V2451H863.895H870.789L871.474 2435.75C871.85 2427.36 872.01 2417.12 871.829 2413L871.5 2405.5L864.25 2405.21L857 2404.91V2412.96ZM1293 2420V2435H1285.5H1278V2443.04V2451.09L1285.25 2450.79L1292.5 2450.5L1292.79 2443.29L1293.09 2436.09L1300.29 2435.79L1307.5 2435.5L1307.78 2420.25L1308.05 2405H1300.53H1293V2420ZM1247.46 2421.25C1247.17 2421.99 1247.07 2428.88 1247.22 2436.55L1247.5 2450.5H1255H1262.5V2435.5V2420.5L1255.24 2420.21C1249.87 2419.99 1247.84 2420.26 1247.46 2421.25ZM992 2503.5V2586H984.5H977V2593.5V2601H984.5H992V2608V2615H984.5H977V2608V2601H969.5H962V2608V2615H954.5H947V2562.5V2510H954.5H962V2540.5V2571H969.5H977V2533V2495H969.5H962V2473V2451H969.5H977V2436V2421H984.5H992V2503.5ZM1397 2450.5V2465H1390H1383V2450.5V2436H1390H1397V2450.5ZM1142.43 2451.31C1142.14 2452.08 1142.03 2455.59 1142.2 2459.1L1142.5 2465.5H1150H1157.5V2458V2450.5L1150.24 2450.21C1144.73 2449.98 1142.84 2450.25 1142.43 2451.31ZM736 2465.5V2480H729H722V2465.5V2451H729H736V2465.5ZM1382 2481V2496H1375H1368V2481V2466H1375H1382V2481ZM751 2503V2511H744H737V2503V2495H744H751V2503ZM1142.79 2502.63L1143.08 2509.76L1157.54 2510.49L1172 2511.21V2541.1V2571H1164.5H1157V2608.5V2646H1149.5H1142V2653.5V2661H1135H1128V2585.5V2510H1120.5H1113V2503.04V2496.08L1120.75 2495.72C1125.01 2495.53 1131.65 2495.39 1135.5 2495.43L1142.5 2495.5L1142.79 2502.63ZM1428 2503.5V2511H1420.5H1413V2503.5V2496H1420.5H1428V2503.5ZM1367 2518.5V2526H1360H1353V2518.5V2511H1360H1367V2518.5ZM1413 2533.5V2541H1405.5H1398V2533.5V2526H1405.5H1413V2533.5ZM766 2547.5V2555H759H752V2547.5V2540H759H766V2547.5ZM1143 2556V2571H1150H1157V2556V2541H1150H1143V2556ZM781 2563.5V2571H774H767V2563.5V2556H774H781V2563.5ZM1352 2563V2570H1345H1338V2563V2556H1345H1352V2563ZM886 2586.15V2601.3L875.344 2600.65C869.484 2600.29 862.959 2600 860.844 2600H857V2592.5V2585H864H871V2578V2571H878.5H886V2586.15ZM796 2593V2600H789H782V2593V2586H789H796V2593ZM1037 2601V2616H1044.5H1052V2601V2586H1044.5H1037V2601ZM1337 2593V2600H1330H1323V2593V2586H1330H1337V2593ZM1322 2608V2615H1315H1308V2608V2601H1315H1322V2608ZM766 2623.5V2631H759H752V2623.5V2616H759H766V2623.5ZM811 2623.5V2631H804H797V2623.5V2616H804H811V2623.5ZM1368 2623.5V2631H1360.5H1353V2623.5V2616H1360.5H1368V2623.5ZM901 2638.5V2646H894H887V2638.5V2631H894H901V2638.5ZM977 2646V2661H969.5H962V2646V2631H969.5H977V2646ZM1232 2638.5V2646H1225H1218V2638.5V2631H1225H1232V2638.5ZM1307 2638.5V2646H1300H1293V2638.5V2631H1300H1307V2638.5ZM1368 2714V2722H1375.5H1383V2714V2706H1375.5H1368V2714ZM872 2729V2751H879.5H887V2736V2721H894.338C898.375 2721 911.875 2721.3 924.338 2721.66L947 2722.32V2729.16V2736H954.5H962V2729V2722H969.5H977V2729V2736H969.5H962V2750.87V2765.74L947 2766.47L932 2767.19L931.995 2777.84C931.993 2783.7 931.699 2793.56 931.343 2799.75L930.694 2811H923.847H917V2803.5V2796H909H901V2803.5V2811H894H887V2796V2781H879.5H872V2766V2751H864.5H857V2736V2721H849.5H842V2714V2707H857H872V2729ZM1262 2721.5V2736H1255H1248V2721.5V2707H1255H1262V2721.5ZM1337 2728.5V2736H1345H1353V2728.5V2721H1345H1337V2728.5ZM1217.21 2729.25L1217.5 2736.5L1232.25 2736.16L1247 2735.82V2743.41V2751H1240.15H1233.31L1232.66 2762.25C1232.3 2768.44 1232.01 2778.56 1232.01 2784.75L1232 2796H1224.5H1217V2811V2826H1202.5H1188V2811V2796H1180.5H1173V2781V2766H1180.5H1188V2759.04V2752.09L1195.25 2751.79L1202.5 2751.5L1202.79 2743.75L1203.08 2736H1195.04H1187V2743.46V2750.91L1179.75 2751.21L1172.5 2751.5L1172.21 2758.75L1171.91 2766H1164.96H1158V2751V2736H1165H1172V2729V2722H1194.46H1216.91L1217.21 2729.25ZM887 2758.5V2766H894.5H902V2758.5V2751H894.5H887V2758.5ZM1307 2804V2826H1300H1293V2804V2782H1300H1307V2804ZM826 2818.96V2840.91L818.75 2841.21L811.5 2841.5L811.838 2856.25L812.176 2871H797.088H782V2864V2857H789.5H797V2849V2841H804.5H812V2834V2827H804.5H797V2819.5V2812H804.5H812V2804.5V2797H819H826V2818.96ZM916 2819V2826H909H902V2819V2812H909H916V2819ZM1368 2834V2842H1375.5H1383V2834V2826H1375.5H1368V2834ZM1293 2841.5V2856H1300.5H1308V2841.5V2827H1314.98H1321.97L1322.23 2856.75L1322.5 2886.5L1329.73 2886.79L1336.97 2887.09L1337.23 2916.79L1337.5 2946.5L1344.75 2946.79L1352 2947.09L1352.01 2973.29C1352.01 2987.71 1352.3 3004.56 1352.66 3010.75L1353.31 3022H1360.15H1367V3037V3052H1360H1353L1352.99 3063.25C1352.99 3069.44 1352.7 3079.56 1352.34 3085.75L1351.69 3097H1344.85H1338V3104.5V3112H1345H1352V3134.5V3157H1345.15H1338.31L1337.66 3168.25C1337.3 3174.44 1337.01 3191.31 1337.01 3205.75L1337 3232H1329.5H1322V3254.5V3277H1315H1308V3269.5V3262H1300.5H1293V3269.5V3277H1300H1307V3307V3337H1299.5H1292V3359.5V3382H1284.5H1277V3397V3412H1270H1263V3397.5V3383H1255.5H1248V3300V3217H1255.54H1263.09L1262.79 3209.75L1262.5 3202.5L1255.25 3202.21L1248 3201.91V3171.96V3142H1240.5H1233V3104.5V3067H1240.5H1248V3022.04V2977.09L1255.25 2976.79L1262.5 2976.5L1262.79 2969.25L1263.09 2962H1255.54H1248V2939.5V2917H1255.5H1263V2887V2857H1270.5H1278V2842V2827H1285.5H1293V2841.5ZM722 2864V2872H729H736V2864V2856H729H722V2864ZM841 2864V2871H834H827V2864V2857H834H841V2864ZM1142.23 2886.75L1142.5 2916.5L1149.75 2916.79L1157 2917.09V2924.54V2932H1150H1143V2939.5V2947H1150H1157V2977V3007H1150H1143V3014.5V3022H1157.5H1172V3104.5V3187H1165H1158V3142V3097H1150.5H1143V3066.5V3036H1135.5H1128V2946.5V2857H1134.98H1141.97L1142.23 2886.75ZM1187 2864V2871H1180H1173V2864V2857H1180H1187V2864ZM1232 2871.5V2886H1225H1218V2871.5V2857H1225H1232V2871.5ZM827 2879.6V2887.21L841.5 2886.48L856 2885.76V2908.88V2932H863.5H871V3172V3412H864H857V3419.5V3427H849.5H842V3405V3383H849.5H857L856.995 3363.75C856.993 3353.16 856.699 3339.44 856.343 3333.25L855.694 3322H841.347H827V3330V3338H834.353H841.706L841.603 3360.25L841.5 3382.5L834.25 3382.79L827 3383.09V3367.54V3352H819.5H812V3329.5V3307H804.5H797V3277V3247H789.5H782V3217V3187H774.5H767V3172V3157H774H781V3149.5V3142H774H767V3127V3112H759.5H752V3059.5V3007H759.5H767V2962V2917H774.5H782V2902.03V2887.05L796.75 2886.78L811.5 2886.5L811.794 2879.25L812.088 2872H819.544H827V2879.6ZM901.5 2887L902.226 2902H909.613H917V2887V2872H924H931V2887V2902H924.16H917.319L916.66 2924.66C916.297 2937.13 916 2981 916 3022.16V3097H909H902V2999.5V2902H894.5H887V2887V2872H893.887H900.774L901.5 2887ZM1067 2916.5V2947H1074.5H1082V2916.5V2886H1074.5H1067V2916.5ZM977 2917V2947H984.5H992V2954.5V2962H984.5H977V2999.5V3037H969.5H962V3044.5V3052H969.5H977V3074.5V3097H969.5H962V3104.5V3112H954.5H947V3059.5V3007H954.5H962V2999.5V2992H954.5H947V2984.5V2977H954.5H962V2932V2887H969.5H977V2917ZM1217 2924.5V2962H1202.5H1188V2954.54V2947.09L1195.25 2946.79L1202.5 2946.5L1202.79 2939.25L1203.09 2932H1195.54H1188V2909.5V2887H1202.5H1217V2924.5ZM1413 2954.5V2962H1420.5H1428V2954.5V2947H1420.5H1413V2954.5ZM842 2969.5V2977H849.5H857V2969.5V2962H849.5H842V2969.5ZM842 2999.5V3007H849.5H857V2999.5V2992H849.5H842V2999.5ZM1067 2999.5V3007H1074.5H1082V2999.5V2992H1074.5H1067V2999.5ZM1413 3007V3022H1428H1443V3014.5V3007H1435.5H1428V2999.5V2992H1420.5H1413V3007ZM766.657 3018.25C766.301 3024.44 766.007 3041.31 766.005 3055.75L766 3082H774H782L781.995 3055.75C781.993 3041.31 781.699 3024.44 781.343 3018.25L780.694 3007H774H767.306L766.657 3018.25ZM1323 3089.5V3097H1330.5H1338V3089.5V3082H1330.5H1323V3089.5ZM842 3134.5V3142H849.5H857V3134.5V3127H849.5H842V3134.5ZM962 3134.5V3142H954.5H947V3134.5V3127H954.5H962V3134.5ZM1007 3134.5V3142H1014.5H1022V3134.5V3127H1014.5H1007V3134.5ZM1323 3134.5V3142H1330.5H1338V3134.5V3127H1330.5H1323V3134.5ZM962 3164.5V3172H954.5H947V3164.5V3157H954.5H962V3164.5ZM1097 3172V3187H1104.5H1112V3172V3157H1104.5H1097V3172ZM1007 3187V3202H1014.5H1022V3187V3172H1014.5H1007V3187ZM842 3232V3262H849.5H857V3232V3202H849.5H842V3232ZM946 3209.5V3217H939H932V3209.5V3202H939H946V3209.5ZM1082.67 3232.67C1082.3 3233.03 1082 3236.41 1082 3240.17V3247H1089.5H1097V3239.5V3232H1090.17C1086.41 3232 1083.03 3232.3 1082.67 3232.67ZM1112.21 3239.75L1112.5 3247.5L1119.75 3247.79L1127 3248.09V3240.04V3232H1119.46H1111.92L1112.21 3239.75ZM721.667 3247.67C721.3 3248.03 721 3251.41 721 3255.17V3262H728.5H736V3254.5V3247H729.167C725.408 3247 722.033 3247.3 721.667 3247.67ZM1262.99 3250.71C1262.99 3252.79 1262.7 3259.56 1262.34 3265.75L1261.69 3277H1269.87H1278.05L1277.78 3262.25L1277.5 3247.5L1270.25 3247.21L1263 3246.91L1262.99 3250.71ZM1263 3300V3308.09L1270.25 3307.79L1277.5 3307.5V3300V3292.5L1270.25 3292.21L1263 3291.91V3300ZM1263 3345V3368.09L1270.25 3367.79L1277.5 3367.5V3345V3322.5L1270.25 3322.21L1263 3321.91V3345ZM1248 3405.5V3413H1255H1262V3427.5V3442H1247.5H1233V3420V3398H1240.5H1248V3405.5ZM871 3435V3442H864H857V3435V3428H864H871V3435ZM1143 3480.5V3488H1150H1157V3480.5V3473H1150H1143V3480.5ZM872 3525.5V3548H887H902V3533V3518H909H916V3525.5V3533H923.5H931V3540.5V3548H924H917V3555.5V3563H924H931V3577.84C931 3586 931.297 3602.87 931.66 3615.34L932.319 3638H939.16H946V3675.84C946 3696.65 946.297 3723.87 946.66 3736.34L947.319 3759H954.66H962V3796.5V3834H954.5H947V3818.5V3803H939.5H932V3796V3789H924.5H917V3796V3803H909.5H902V3796V3789H897.656C895.266 3789 888.516 3788.71 882.656 3788.35L872 3787.7V3795.35V3803H864.5H857V3795.5V3788H849.5H842V3780.5V3773H827H812V3766.03V3759.05L826.75 3758.78L841.5 3758.5L841.794 3751.25L842.088 3744H834.544H827V3706V3668H834.5H842V3600.5V3533H849.5H857V3518V3503H864.5H872V3525.5ZM1217 3510.5V3518H1232.5H1248V3510.5V3503H1255H1262V3529.84C1262 3544.61 1262.29 3561.48 1262.65 3567.34L1263.3 3578H1270.15H1277V3585.5V3593H1270H1263V3600.5V3608H1270H1277V3653V3698H1270H1263V3705.5V3713H1277.5H1292V3721V3729H1277.5H1263V3736.62V3744.24L1277.5 3743.52L1292 3742.79V3747.24C1292 3749.69 1292.29 3756.48 1292.65 3762.34L1293.3 3773H1285.7H1278.09L1277.79 3765.75L1277.5 3758.5L1270.25 3758.21L1263 3757.91V3765.96V3774H1270H1277V3781V3788H1262H1247V3795.5V3803H1240.04H1233.09L1232.79 3795.75L1232.5 3788.5H1225H1217.5L1217.21 3795.75L1216.91 3803H1209.46H1202V3796V3789H1195H1188L1187.99 3770.25C1187.99 3759.94 1187.7 3746.44 1187.34 3740.25L1186.69 3729H1179.35H1172V3803.5V3878H1165H1158V3788.54V3699.09L1165.25 3698.79L1172.5 3698.5L1172.78 3683.25L1173.05 3668H1188.07H1203.09L1202.79 3660.75L1202.5 3653.5L1187.75 3653.22L1173 3652.95V3615.43V3577.91L1180.25 3578.21L1187.5 3578.5L1187.79 3585.75L1188.09 3593H1195.59H1203.09L1202.79 3585.75L1202.5 3578.5L1195.25 3578.21L1188 3577.91V3547.96V3518H1195.5H1203V3510.5V3503H1210H1217V3510.5ZM1202 3540.5V3548H1210H1218V3540.5V3533H1210H1202V3540.5ZM902 3570.5V3578H909.5H917V3570.5V3563H909.5H902V3570.5ZM992 3585.5V3593H999.5H1007V3585.5V3578H999.5H992V3585.5ZM902 3600.5V3608H909.5H917V3600.5V3593H909.5H902V3600.5ZM1187.49 3609.01C1187.12 3609.61 1187.14 3616.38 1187.54 3624.05L1188.26 3638H1195.66H1203.05L1202.78 3623.25L1202.5 3608.5L1195.33 3608.21C1190.92 3608.03 1187.91 3608.34 1187.49 3609.01ZM917 3660.5V3668H924.5H932V3660.5V3653H924.5H917V3660.5ZM917 3728.5V3744H924.5H932V3728.5V3713H924.5H917V3728.5ZM1097.44 3714.3C1097.16 3715.01 1097.07 3721.88 1097.22 3729.55L1097.5 3743.5L1104.75 3743.79L1112 3744.09V3728.54V3713H1104.97C1100.13 3713 1097.78 3713.4 1097.44 3714.3ZM1007 3766V3804H1014.5H1022V3766V3728H1014.5H1007V3766ZM1368 3736V3744H1375.5H1383V3736V3728H1375.5H1368V3736ZM1097.67 3773.67C1097.3 3774.03 1097 3781.01 1097 3789.17V3804H1104.5H1112V3788.5V3773H1105.17C1101.41 3773 1098.03 3773.3 1097.67 3773.67ZM1368 3826V3834H1375.5H1383V3826V3818H1375.5H1368V3826ZM962 3871V3893H954.5H947V3871V3849H954.5H962V3871ZM1007 3901V3909H1014.5H1022V3901V3893H1014.5H1007V3901ZM1082.21 3901.25L1082.5 3908.5L1089.75 3908.79L1097 3909.09V3901.54V3894H1089.46H1081.91L1082.21 3901.25ZM0 3931V3954H7.5H15V3931V3908H7.5H0V3931Z" fill="black"/>
</svg>
