<svg width="2119" height="3954" viewBox="0 0 2119 3954" fill="none" xmlns="http://www.w3.org/2000/svg">
<path fill-rule="evenodd" clip-rule="evenodd" d="M1007 7.5V15H1059.5H1112V7.5V0H1059.5H1007V7.5ZM962 22.5V30H947H932V37.5V45H924.5H917V52.5V60H909.5H902V68V76H894.5H887V90.5V105H894.565H902.131L901.992 97.75C901.916 93.763 901.887 87.257 901.927 83.294L902 76.088L909.25 75.794L916.5 75.5L916.792 67.75L917.084 60H924.542H932V52.5V45H947H962V37.5V30H977H992V22.5V15H977H962V22.5ZM1113 22.5V30H1135H1157V37.5V45H1165H1173V52.5V60H1180.5H1188V67.5V75H1195.5H1203V82.5V90H1210H1217V75.604V61.208L1202.5 60.483L1188 59.758V52.379V45H1180.5H1173V37.5V30H1165H1157V22.5V15H1135H1113V22.5ZM1218 105V120H1225H1232V105V90H1225H1218V105ZM872 240.5V375H879H886L886.077 330.25C886.119 305.637 886.232 245.112 886.327 195.75L886.5 106H879.25H872V240.5ZM1233 181V241H1240H1247V181V121H1240H1233V181ZM1218 346V421H1225H1232V346V271H1225H1218V346ZM887 413.5V436H894.653H902.306L901.657 424.75C901.301 418.563 901.007 408.438 901.005 402.25L901 391H894H887V413.5ZM1203 451V466H1210H1217V451V436H1210H1203V451ZM902 466V481H909.5H917V488.5V496H924.5H932V503.5V511H939.5H947V518.5V526H954.5H962V533.381V540.762L932.041 541.499L902.083 542.236L901.791 549.368L901.5 556.5L894.25 556.794L887 557.088V563.931V570.774L872 571.5L857 572.226V579.113V586H872H887V578.5V571H902H917V616.5V662H894.5H872V668.981V675.962L894.25 676.231L916.5 676.5L916.794 683.75L917.088 691H932.044H947V698.5V706H954.5H962V698.5V691H954.605H947.211L946.549 675.75C946.184 667.362 946.102 640.475 946.366 616C946.63 591.525 946.88 568.013 946.923 563.75L947 556H954.5H962V549.113V542.226L977 541.5L992 540.774V534V527.226L977 526.5L962 525.774V518.387V511H954.5H947V503.5V496H939.5H932V488.5V481H924.5H917V466V451H909.5H902V466ZM1188 474V482H1180.6H1173.21L1172.49 496.385L1171.77 510.77L1157.39 511.489L1143 512.208V519.104V526H1135.5H1128V533.456V540.912L1135.25 541.206L1142.5 541.5L1142.79 548.624L1143.08 555.748L1156.99 556.464C1164.64 556.859 1171.37 556.889 1171.95 556.531C1172.53 556.172 1173 552.563 1173 548.441V541H1165H1157V533.5V526H1164.5H1172V518.5V511H1179.5H1187V503.5V496H1194.5H1202V481V466H1195H1188V474ZM1187.67 541.667C1187.3 542.033 1187 575.783 1187 616.667V691H1195H1203V683.5V676H1218H1233V669V662H1217.5H1202V616.5V571H1210.04H1218.09L1217.79 563.75L1217.5 556.5L1209.75 556.208L1202 555.916V548.458V541H1195.17C1191.41 541 1188.03 541.3 1187.67 541.667ZM992 549V556H984.5H977V563.5V571H992H1007V578.5V586H1059.5H1112V578.5V571H1127H1142V563.5V556H1134.5H1127V549V542H1112H1097V548.847V555.694L1085.75 556.343C1079.56 556.699 1067.75 556.991 1059.5 556.991C1051.25 556.991 1039.44 556.699 1033.25 556.343L1022 555.694V548.847V542H1007H992V549ZM932 563.5V571H924.5H917V563.5V556H924.5H932V563.5ZM1022 564V571H1014.5H1007V564V557H1014.5H1022V564ZM1112 564V571H1105H1098V564V557H1105H1112V564ZM1232.71 571.627C1232.32 572.015 1232 575.408 1232 579.167V586H1240.04H1248.09L1247.79 578.75L1247.5 571.5L1240.46 571.21C1236.58 571.051 1233.1 571.239 1232.71 571.627ZM811.75 586.748L797 587.053V594.027V601H826.5H856V594.152V587.304L845.344 586.652C839.484 586.293 832.846 586.1 830.594 586.221C828.342 586.343 819.862 586.58 811.75 586.748ZM1263 593.5V601H1285.5H1308V594.154V587.307L1295.84 586.654C1289.16 586.294 1279.03 586 1273.34 586H1263V593.5ZM721.794 609.25L721.5 616.5L713.75 616.792L706 617.084V624.042V631H736.5H767V623.5V616H774H781V609V602H751.544H722.088L721.794 609.25ZM1338 616.5V631H1375.5H1413V624.113V617.226L1398 616.5L1383 615.774V608.887V602H1360.5H1338V616.5ZM1158 654V692H1150.5H1143V699.612V707.225L1157.25 706.501C1165.09 706.103 1171.58 705.714 1171.67 705.636C1172.15 705.232 1172.47 672.849 1172.25 646.25L1172 616H1165H1158V654ZM646 639V646H668.5H691V639V632H668.5H646V639ZM796 639V646H811.5H827V639V632H811.5H796V639ZM1292 639V646H1307.5H1323V639V632H1307.5H1292V639ZM1428 639V646L1416.75 646.005C1410.56 646.007 1400.44 646.301 1394.25 646.657L1383 647.306V654.04V660.774L1398 661.5L1413 662.226V669.613V677H1398H1383V684V691H1398H1413V698.387V705.774L1428 706.5L1443 707.226V714.613V722H1450.5H1458V729.5V737H1465.38H1472.76L1473.48 751.5L1474.21 766H1481.1H1488V751.5V737H1495.5H1503V744.5V752H1510.5H1518V766.5V781H1525.5H1533V766.5V752H1525.5H1518V744.5V737H1510.5H1503V729.5V722H1495.5H1488V714.5V707H1480.5H1473V699.5V692H1465.5H1458V684.613V677.226L1443 676.5L1428 675.774V660.887V646H1450.5H1473V639V632H1450.5H1428V639ZM691.793 653.724L691.5 661.5L684.25 661.794L677 662.088V669.544V677H669H661V684.5V692H653.5H646V699.5V707H638.5H631V713.956V720.912L623.75 721.206L616.5 721.5L616.207 728.707L615.914 735.914L608.707 736.207L601.5 736.5L601.208 744.25L600.916 752H593.458H586V759.5V767H578.5H571V781.5V796H578.5H586V781.5V767H593.458H600.916L601.208 759.25L601.5 751.5L608.75 751.206L616 750.912V743.456V736H623.5H631V729V722H638.5H646V729V736H653.5H661V728.5V721H668.5H676V713.5V706H691H706V698.5V691H714H722V684V677H714H706V684V691H691.5H677V684.044V677.088L684.25 676.794L691.5 676.5L691.793 669.276L692.087 662.053L706.793 661.776L721.5 661.5V654V646.5L706.793 646.224L692.085 645.947L691.793 653.724ZM616 654V661H631H646V654V647H631H616V654ZM841 654V661H856H871V654V647H856H841V654ZM1248 654V661H1263H1278V654V647H1263H1248V654ZM1473 654V661H1488H1503V654V647H1488H1473V654ZM601 668.887V675.774L586 676.5L571 677.226V684.613V692H563.5H556V706.5V721H548.5H541V728.5V736H548.5H556V728.5V721H563.5H571V713.5V706H578.5H586V698.5V691H593.5H601V683.5V676H608.5H616V669V662H608.5H601V668.887ZM736 669V676H751H766V669V662H751H736V669ZM782 669V676H804H826V669V662H804H782V669ZM1293 669V676H1308H1323V669V662H1308H1293V669ZM1353 669V676H1368H1383V669V662H1368H1353V669ZM1503 669V676H1510.5H1518V669V662H1510.5H1503V669ZM827 684V691H842H857V684V677H842H827V684ZM1248 684V691H1270H1292V684V677H1270H1248V684ZM1428 684V691H1420.5H1413V684V677H1420.5H1428V684ZM1518 684V691H1525.46H1532.92L1533.21 698.75L1533.5 706.5L1540.71 706.793L1547.91 707.086L1548.21 714.293L1548.5 721.5L1555.71 721.793L1562.91 722.086L1563.21 729.293L1563.5 736.5L1570.66 736.792L1577.81 737.084L1578.54 752.042L1579.26 767H1586.02H1592.79L1593.52 781.5L1594.24 796H1601.12H1608V781.5V767H1600.5H1593V752V737H1585.5H1578V729.5V722H1570.5H1563V714.544V707.088L1555.75 706.794L1548.5 706.5L1548.21 698.75L1547.92 691H1540.46H1533V684V677H1525.5H1518V684ZM676 699V706H668.5H661V699V692H668.5H676V699ZM872 706.5V721H887H902V717.156C902 715.041 901.707 708.516 901.348 702.656L900.696 692H886.348H872V706.5ZM1217.79 699.25L1217.5 706.5L1210.25 706.794L1203 707.088V714.044V721H1225H1247V706.5V692H1232.54H1218.09L1217.79 699.25ZM1458 699V706H1450.5H1443V699V692H1450.5H1458V699ZM661 714V721H653.5H646V714V707H653.5H661V714ZM977 714.5V722H984.5H992V714.5V707H984.5H977V714.5ZM1113 713.848V720.696L1123.66 721.348C1129.52 721.707 1136.04 722 1138.16 722H1142V714.5V707H1127.5H1113V713.848ZM1473 714.5V722H1480.5H1488V729.5V737H1480.5H1473V729.5V722H1465.5H1458V714.5V707H1465.5H1473V714.5ZM842 729V736H857H872V729V722H857H842V729ZM917 729V736H939.5H962V729V722H939.5H917V729ZM1007 729V736H1022H1037V729V722H1022H1007V729ZM1082 729V736H1097H1112V729V722H1097H1082V729ZM1143 729V736H1172.5H1202V729V722H1172.5H1143V729ZM1248 729V736H1262.5H1277V729V722H1262.5H1248V729ZM526 744.5V752H518.5H511V767V782H503.5H496V797V812H503.5H511V797V782H518.5H526V767V752H533.5H541V744.5V737H533.5H526V744.5ZM631 744.5V752H623.5H616V759.5V767H623.5H631V759.5V752H638.5H646V744.5V737H638.5H631V744.5ZM812 744.5V752H804.5H797V759.544V767.088L804.25 766.794L811.5 766.5L811.792 759.352L812.084 752.204L826.542 751.481L841 750.758V743.879V737H826.5H812V744.5ZM886 744V751H901H916V744V737H901H886V744ZM977 744V751H984.5H992V744V737H984.5H977V744ZM1038 744V751H1052.5H1067V744V737H1052.5H1038V744ZM1113 744.652V752.304L1123.66 751.652C1129.52 751.293 1136.04 751 1138.16 751H1142V744V737H1127.5H1113V744.652ZM1203 744V751H1217.5H1232V744V737H1217.5H1203V744ZM1278 744V751H1285.5H1293V744V737H1285.5H1278V744ZM856.206 759.25L856.5 766.5H864H871.5L871.794 759.25L872.088 752H864H855.912L856.206 759.25ZM992 759.5V767H999.5H1007V774.5V782H1014.5H1022L1022.2 819.75C1022.31 840.513 1022.24 924.888 1022.05 1007.25L1021.69 1157H1029.35H1037V969.5V782H1029.5H1022V774.5V767H1014.5H1007V759.5V752H999.5H992V759.5ZM1097.52 766.458L1096.8 780.916L1089.65 781.208L1082.5 781.5L1082.17 789C1081.99 793.125 1082.15 803.362 1082.53 811.75L1083.21 827H1090.1H1097V804V781H1104.5H1112V766.5V752H1105.12H1098.24L1097.52 766.458ZM1233 758.872V765.744L1246.95 766.462C1254.62 766.858 1261.37 766.889 1261.95 766.531C1262.53 766.174 1263 762.759 1263 758.941V752H1248H1233V758.872ZM1293 758.887V765.774L1308 766.5L1323 767.226V774.613V782H1330.5H1338V774.5V767H1330.5H1323V759.5V752H1308H1293V758.887ZM1488.42 767.355C1488.13 768.101 1488.03 771.588 1488.2 775.105L1488.5 781.5L1495.64 781.792L1502.78 782.083L1503.5 797.042L1504.23 812H1511H1517.77L1518.5 827L1519.23 842H1526.11H1533V827V812H1525.5H1518V797V782H1510.5H1503V774V766H1495.97C1490.97 766 1488.79 766.393 1488.42 767.355ZM767 774.5V782H758.956H750.912L751.206 789.25L751.5 796.5H759H766.5L766.791 789.369L767.083 782.238L781.541 781.515L796 780.792V773.896V767H781.5H767V774.5ZM827 774.544V782.088L834.25 781.794L841.5 781.5L841.794 774.25L842.088 767H834.544H827V774.544ZM1263 773.872V780.744L1276.95 781.462C1284.62 781.858 1291.37 781.889 1291.95 781.531C1292.53 781.174 1293 777.759 1293 773.941V767H1278H1263V773.872ZM601.667 781.667C601.3 782.033 601 785.633 601 789.667V797H593.5H586V812V827H593.5H601V812V797H608.5H616V789V781H609.167C605.408 781 602.033 781.3 601.667 781.667ZM797 789.5V797H789H781V804.542V812.084L788.75 811.792L796.5 811.5L796.792 804.352L797.084 797.204L811.542 796.481L826 795.758V788.879V782H811.5H797V789.5ZM1293 789V796H1307.5H1322V789V782H1307.5H1293V789ZM1352.21 789.25L1352.5 796.5L1360.25 796.792L1368 797.084V804.542V812H1375.5H1383V819.5V827H1375.5H1368V834.5V842H1375.5H1383V849.5V857H1390.5H1398V864.5V872H1413H1428V879.5V887H1435.5H1443V894.5V902H1450.5H1458V909.5V917H1465.5H1473V939.5V962H1480.5H1488V939.5V917H1495.5H1503V924.5V932H1525.5H1548V894.5V857H1541H1534V887V917H1518.5H1503V909.5V902H1495.5H1488V894.5V887H1480.5H1473V879.5V872H1465.5H1458V864.5V857H1450.5H1443V849.5V842H1435.5H1428V834.5V827H1420.5H1413V819.5V812H1398H1383V804.5V797H1375.5H1368V789.5V782H1359.96H1351.91L1352.21 789.25ZM1533 789.5V797H1540.5H1548V789.5V782H1540.5H1533V789.5ZM556 812V827H548.5H541V849.5V872H548.5H556V849.5V827H563.5H571V812V797H563.5H556V812ZM722 804.5V812H714H706V819.5V827H698.5H691V834.5V842H676.5H662V849.5V857H654.5H647V864.5V872H639H631V879.5V887H623.5H616V894.5V902H609H602V909.5V917H586.5H571V909.5V902H563.5H556V917V932H586H616V924.5V917H623.5H631V946.956V976.912L623.75 977.206L616.5 977.5L616.186 1000.5C616.014 1013.15 616.173 1029.91 616.54 1037.75L617.208 1052H624.104H631V1014.5V977H638.5H646V947V917H653.5H661V909.5V902H668.5H676V894.5V887H683.5H691V879.5V872H698.5H706V864.5V857H698.5H691V849.5V842H698.5H706V834.5V827H714H722V819.5V812H736.5H751V804.5V797H736.5H722V804.5ZM1323 804.5V812H1330.5H1338V819.5V827H1352.5H1367V819.5V812H1352.5H1338V804.5V797H1330.5H1323V804.5ZM1609 812V827H1616H1623V812V797H1616H1609V812ZM752 819.5V827H759.5H767V819.5V812H759.5H752V819.5ZM1548.01 815.75C1548.01 817.813 1548.3 824.563 1548.66 830.75L1549.31 842H1556.15H1563V827V812H1555.5H1548L1548.01 815.75ZM481 849.5V872H487.847H494.694L495.343 860.75C495.699 854.563 495.993 844.438 495.995 838.25L496 827H488.5H481V849.5ZM736 834.5V842H721.5H707V849.5V857H710.844C712.959 857 719.484 856.707 725.344 856.348L736 855.696V848.848V842H743.5H751V834.5V827H743.5H736V834.5ZM1413 834.5V842H1420.5H1428V849.5V857H1435.5H1443V864.5V872H1450.5H1458V879.5V887H1465.5H1473V894.5V902H1480.5H1488V909.5V917H1480.5H1473V909.5V902H1465.5H1458V894.5V887H1450.5H1443V879.5V872H1435.5H1428V864.5V857H1413H1398V849.5V842H1390.5H1383V834.5V827H1398H1413V834.5ZM571 856.5V872H578.5H586V856.5V841H578.5H571V856.5ZM1068 895V948H1075H1082V895V842H1075H1068V895ZM1563.59 854.566C1563.21 861.478 1563.21 878.353 1563.6 892.066L1564.31 917H1571.15H1578V879.5V842H1571.15H1564.29L1563.59 854.566ZM1624 917V992H1616H1608V984.456V976.912L1600.75 977.206L1593.5 977.5L1593.21 984.75L1592.91 992H1600.41H1607.92L1608.21 999.75L1608.5 1007.5H1616H1623.5L1623.79 999.75L1624.08 992H1631.04H1638V917V842H1631H1624V917ZM691 864.5V872H683.5H676V879.5V887H668.5H661V894.5V902H653.5H646V909.5V917H638.5H631V902V887H639H647V879.5V872H661.5H676V864.5V857H683.5H691V864.5ZM526 932.5V963H518.5H511V977.5V992H503.613H496.226L495.5 977L494.774 962H487.887H481V985.153V1008.31L492.25 1007.66C498.438 1007.3 505.188 1007.01 507.25 1007.01L511 1007V999.5V992H518.5H526V999.5V1007H533.5H541V999.5V992H548.5H556V984.5V977H571H586V969.5V962H593.5H601V969.5V977H608.5H616V962V947H601H586V954.5V962H571H556V969.5V977H548.5H541V984.5V992H533.5H526V977.5V963H533.5H541V932.5V902H533.5H526V932.5ZM1564 947V962H1571H1578V947V932H1571H1564V947ZM1503 954.5V962H1518H1533V969.5V977H1541H1549V984.5V992H1556.5H1564V999.5V1007H1571.5H1579V1014.5V1022H1586H1593V1007.5V993H1585.5H1578V985.5V978H1570.5H1563V970.595V963.191L1548 962.467L1533 961.744V954.372V947H1518H1503V954.5ZM1579 969.5V977H1586H1593V969.5V962H1586H1579V969.5ZM646.667 977.667C646.3 978.033 646 984.783 646 992.667V1007H653.387H660.774L661.5 1022L662.226 1037H669.113H676V1044.5V1052H683.5H691V1044.5V1037H683.5H676V1022V1007H668.5H661V992V977H654.167C650.408 977 647.033 977.3 646.667 977.667ZM1458 985V993H1450.5H1443V1007.5V1022H1435.5H1428V1037V1052H1420.5H1413V1059.5V1067H1420.5H1428V1059.5V1052H1435.5H1443V1037V1022H1450.5H1458V1007.5V993H1465.5H1473V985V977H1465.5H1458V985ZM1488 985V993H1495.5H1503V985V977H1495.5H1488V985ZM511 1022.5V1037H503.5H496V1045V1053H488.5H481V1068.04V1083.09L488.25 1082.79L495.5 1082.5L495.776 1067.79L496.053 1053.09L503.276 1052.79L510.5 1052.5L510.792 1044.75L511.084 1037H518.542H526V1022.5V1008H518.5H511V1022.5ZM1488 1041.34C1488 1051.98 1488.29 1065.48 1488.65 1071.34L1489.3 1082H1496.15H1503V1052V1022H1495.5H1488V1041.34ZM1594 1030V1038H1600.9H1607.79L1608.52 1052.5L1609.24 1067H1616.12H1623V1052.5V1038H1615.5H1608V1030V1022H1601H1594V1030ZM1458 1052.5V1067H1450.5H1443V1074.5V1082H1458H1473V1060V1038H1465.5H1458V1052.5ZM646 1067V1082H638.5H631V1108.84C631 1123.61 631.293 1140.48 631.652 1146.34L632.304 1157H639.152H646V1119.5V1082H653.5H661V1089.5V1097H668.5H676V1082.5V1068H668.5H661V1060V1052H653.5H646V1067ZM691.348 1063.66C691.707 1069.52 692 1076.04 692 1078.16V1082H699H706V1067.5V1053H698.348H690.696L691.348 1063.66ZM601.537 1082.25C601.166 1090.64 601.006 1104.25 601.181 1112.5L601.5 1127.5L608.75 1127.79L616 1128.09V1097.54V1067H609.105H602.211L601.537 1082.25ZM1398 1082.5V1097H1390.5H1383V1105V1113H1375.5H1368V1120.5V1128H1360.5H1353V1135.5V1143H1344.96H1336.91L1337.21 1150.25L1337.5 1157.5L1345.25 1157.79L1353 1158.08V1150.54V1143H1360.5H1368V1135.5V1128H1375.5H1383V1120.54V1113.09L1390.25 1112.79L1397.5 1112.5L1397.79 1104.75L1398.08 1097H1405.54H1413V1082.5V1068H1405.5H1398V1082.5ZM1624 1082.5V1097H1631H1638V1082.5V1068H1631H1624V1082.5ZM707 1090V1098H713.896H720.792L721.517 1112.5L722.242 1127H729.621H737V1134.5V1142H744.5H752V1149.37V1156.74L765.949 1157.46C773.621 1157.86 780.371 1157.89 780.949 1157.53C781.527 1157.17 782 1153.76 782 1149.94V1143H774H766V1135.5V1128H758.5H751V1120.5V1113H743.5H736V1105.5V1098H728.5H721V1090V1082H714H707V1090ZM466 1105V1127H473.5H481V1115.66C481 1109.42 480.707 1099.52 480.348 1093.66L479.696 1083H472.848H466V1105ZM1082.51 1112.48C1082.1 1128.7 1082.1 1148.72 1082.5 1156.98L1083.23 1172H1090.61H1098V1179.37V1186.74L1111.95 1187.46C1119.62 1187.86 1126.37 1187.89 1126.95 1187.53C1127.53 1187.17 1128 1183.76 1128 1179.94V1173H1120H1112V1165.5V1158H1104.5H1097V1120.5V1083H1090.12H1083.25L1082.51 1112.48ZM1428 1097.5V1112H1420.5H1413V1119.5V1127H1420.5H1428V1119.5V1112H1435.5H1443V1097.5V1083H1435.5H1428V1097.5ZM676.417 1098.35C676.131 1099.1 676.033 1102.59 676.199 1106.1L676.5 1112.5L683.707 1112.79L690.914 1113.09L691.207 1120.29L691.5 1127.5L698.707 1127.79L705.914 1128.09L706.207 1135.29L706.5 1142.5L713.601 1142.79L720.701 1143.08L721.351 1153.7C722.19 1167.42 722.184 1237.14 721.343 1251.75L720.694 1263H713.847H707V1255.5V1248H699.5H692V1255.5V1263H699.5H707V1270.5V1278H721.5H736V1210.5V1143H728.5H721V1135.5V1128H713.5H706V1120.5V1113H698.5H691V1105V1097H683.969C678.975 1097 676.787 1097.39 676.417 1098.35ZM1503.67 1097.67C1502.81 1098.52 1502.8 1132.43 1503.65 1146.34L1504.3 1157H1511.15H1518V1127V1097H1511.17C1507.41 1097 1504.03 1097.3 1503.67 1097.67ZM1639 1120.5V1143H1646H1653V1120.5V1098H1646H1639V1120.5ZM451 1165.5V1203H457.859H464.717L465.195 1174.75C465.458 1159.21 465.466 1142.34 465.214 1137.25L464.755 1128H457.878H451V1165.5ZM1398 1135.5V1143H1390.5H1383V1150.5V1158H1375.5H1368V1165.5V1173H1375.5H1383V1165.5V1158H1390.5H1398V1150.5V1143H1405.5H1413V1135.5V1128H1405.5H1398V1135.5ZM586.667 1142.67C586.3 1143.03 586 1153.16 586 1165.17V1187H593.5H601V1164.5V1142H594.167C590.408 1142 587.033 1142.3 586.667 1142.67ZM1458.65 1153.66C1458.29 1159.52 1458 1169.42 1458 1175.66V1187H1465.5H1473V1165V1143H1466.15H1459.3L1458.65 1153.66ZM1654 1232.5V1308H1661H1668V1232.5V1157H1661H1654V1232.5ZM646.654 1168.62C646.297 1174.46 646.297 1184.36 646.655 1190.62L647.305 1202H654.152H661V1180V1158H654.152H647.304L646.654 1168.62ZM796 1165V1172H819H842V1165V1158H819H796V1165ZM1007 1165.5V1173H946.5H886V1180V1187L935.25 1187.01C962.337 1187.01 989.563 1187.3 995.75 1187.66L1007 1188.31V1180.65V1173H1014.5H1022V1165.5V1158H1014.5H1007V1165.5ZM1263 1164.96V1171.93L1285.25 1172.21C1297.49 1172.37 1310.99 1172.37 1315.25 1172.21L1323 1171.92V1164.96V1158H1293H1263V1164.96ZM1518.01 1168.75C1518.01 1174.66 1518.3 1184.56 1518.66 1190.75L1519.31 1202H1526.15H1533V1180V1158H1525.5H1518L1518.01 1168.75ZM752 1240.5V1308H744H736V1315.5V1323H750.993H765.986L766.243 1255.25L766.5 1187.5L774.25 1187.21L782 1186.92V1179.96V1173H767H752V1240.5ZM1142 1179.9V1186.8L1151.25 1187.17C1156.34 1187.37 1176.81 1187.36 1196.75 1187.14L1233 1186.75V1179.88V1173H1187.5H1142V1179.9ZM1323 1180V1187L1326.75 1187.01C1328.81 1187.01 1335.56 1187.3 1341.75 1187.66L1353 1188.31V1180.65V1173H1338H1323V1180ZM571 1203V1218H563.5H556V1232.5V1247H548.5H541V1255V1263H533.5H526V1270.5V1278H518.5H511V1285.5V1293H503.5H496V1300.5V1308H488.5H481V1315.5V1323H473H465V1330.5V1338H457.5H450V1345.5V1353H443H436V1368V1383H443H450V1375.5V1368H457.387H464.774L465.5 1353L466.226 1338H473.613H481V1330.5V1323H488.5H496V1315.5V1308H503.5H511V1300.5V1293H518.5H526V1285.5V1278H533.5H541V1270.5V1263H548.5H556V1278V1293H548.5H541V1300.5V1308H533.5H526V1315.5V1323H518.5H511V1330.5V1338H503.5H496V1345.5V1353H488.5H481V1368V1383H473.5H466V1390.5V1398H458.5H451V1405.5V1413H443.5H436V1421V1429H428.5H421V1443.5V1458H428.5H436V1443.54V1429.09L443.25 1428.79L450.5 1428.5L450.792 1420.75L451.084 1413H458.542H466V1405.5V1398H473.5H481V1390.5V1383H487.887H494.774L495.5 1368L496.226 1353H503.613H511V1345.5V1338H518.5H526V1330.5V1323H533.5H541V1315.5V1308H548.5H556V1323V1338H548.5H541V1360.5V1383H548.5H556V1360.5V1338H563.5H571V1300.5V1263H563.5H556V1255V1247H563.5H571V1232.5V1218H578.5H586V1203V1188H578.5H571V1203ZM797 1195V1202H812H827V1209.5V1217H834H841V1202.5V1188H819H797V1195ZM1278 1195.5V1203L1281.75 1202.99C1283.81 1202.99 1290.56 1202.7 1296.75 1202.34L1308 1201.69V1194.85V1188H1293H1278V1195.5ZM1443 1203V1218H1435.5H1428V1225.5V1233H1420.5H1413V1240.5V1248H1398H1383V1263V1278H1390.5H1398V1270.61V1263.23L1413 1262.5L1428 1261.77V1247.39V1233H1435.5H1443V1225.5V1218H1450.5H1458V1203V1188H1450.5H1443V1203ZM661.206 1210.25L661.5 1217.5L668.724 1217.79L675.947 1218.09L676.224 1232.79L676.5 1247.5L683.75 1247.79L691 1248.09V1233.04V1218H683.5H676V1210.5V1203H668.456H660.912L661.206 1210.25ZM857 1210.31V1217.62L939.75 1217.56L1022.5 1217.5L1022.78 1232.75L1023.05 1248H1030.03H1037V1225.5V1203H947H857V1210.31ZM1068 1214.25C1068 1220.44 1067.7 1240.7 1067.34 1259.28L1066.68 1293.05L1082.09 1292.78L1097.5 1292.5L1097.79 1285.25L1098.09 1278H1090.04H1082V1248.15V1218.31L1093.25 1217.66C1099.44 1217.3 1130.04 1217.01 1161.25 1217.01L1218 1217V1210V1203H1143H1068L1068 1214.25ZM1232.83 1248L1233.25 1293H1210.12H1187V1300.5V1308H1134.5H1082V1315.5V1323H1074.5H1067L1067.01 1356.75C1067.01 1375.31 1067.3 1395.56 1067.66 1401.75L1068.31 1413H1120.65H1173V1406.16V1399.32L1150.34 1398.66C1137.88 1398.3 1117.4 1398 1104.84 1398H1082V1360.5V1323H1142H1202V1315.5V1308H1224.5H1247L1247.01 1266.75C1247.01 1244.06 1247.3 1220.44 1247.66 1214.25L1248.31 1203H1240.36H1232.41L1232.83 1248ZM1263 1248V1293H1270H1277V1248V1203H1270H1263V1248ZM1353 1263V1323H1368H1383V1315.5V1308H1405.5H1428V1293V1278H1420.5H1413V1285.5V1293H1398H1383V1300.5V1308H1375.5H1368L1367.99 1266.75C1367.99 1244.06 1367.7 1220.44 1367.34 1214.25L1366.69 1203H1359.85H1353V1263ZM1533 1206.84C1533 1208.96 1533.29 1215.48 1533.65 1221.34L1534.3 1232H1541.15H1548V1217.5V1203H1540.5H1533V1206.84ZM405.777 1232.75L405.5 1247.5L398.25 1247.79L391 1248.09V1255.7V1263.31L402.25 1262.66C408.438 1262.3 415.188 1262.01 417.25 1262.01L421 1262V1240V1218H413.527H406.053L405.777 1232.75ZM1684 1293V1368H1691H1698V1315.5V1263H1706H1714V1270.5V1278H1721.5H1729V1293V1308H1736.5H1744V1323V1338H1751.5H1759V1353V1368H1766.5H1774V1383.5V1399H1780.94C1784.78 1399 1788.18 1398.52 1788.54 1397.93C1788.9 1397.35 1788.88 1390.37 1788.48 1382.43L1787.76 1368H1780.99H1774.23L1773.5 1353L1772.77 1338H1766H1759.23L1758.5 1323L1757.77 1308H1751H1744.23L1743.5 1293.04L1742.78 1278.08L1735.64 1277.79L1728.5 1277.5L1728.21 1269.75L1727.92 1262H1721.06H1714.21L1713.48 1247.5L1712.76 1233H1705.88H1699V1225.5V1218H1691.5H1684V1293ZM1548.42 1233.35C1548.13 1234.1 1548.03 1237.59 1548.2 1241.1L1548.5 1247.5L1555.75 1247.79L1563 1248.09V1255.54V1263H1570.5H1578V1270.5V1278H1585.5H1593V1285.5V1293H1600.5H1608V1300.5V1308H1615.5H1623V1300.5V1293H1615.5H1608V1285.5V1278H1600.5H1593V1270.5V1263H1585.5H1578V1255.5V1248H1570.5H1563V1240V1232H1555.97C1550.97 1232 1548.79 1232.39 1548.42 1233.35ZM842 1472.96V1699H826.456H810.912L811.206 1706.25L811.5 1713.5L826.75 1713.78L842 1714.05V1721.57V1729.09L849.25 1728.79L856.5 1728.5V1488V1247.5L849.25 1247.21L842 1246.91V1472.96ZM872 1278V1308H894.5H917V1315.5V1323H969.5H1022V1330.5V1338H1029.5H1037V1323V1308H984H931V1300.5V1293H908.5H886V1270.5V1248H879H872V1278ZM421 1293V1323H435.5H450V1308V1293H443H436V1278V1263H428.5H421V1293ZM1533.35 1273.66C1533.71 1279.52 1534 1286.27 1534 1288.66V1293H1540.88H1547.76L1548.48 1307.43C1548.88 1315.37 1548.89 1322.38 1548.5 1323C1548.11 1323.62 1548.12 1330.63 1548.52 1338.57L1549.24 1353H1556.12H1563V1330.5V1308H1570.5H1578V1315.5V1323H1585.39H1592.77L1593.5 1338L1594.23 1353H1601.61H1609V1360.5V1368H1616.5H1624V1375.5V1383H1631H1638V1375.5V1368H1631.11H1624.23L1623.5 1353L1622.77 1338H1615.39H1608V1330.5V1323H1600.5H1593V1315.5V1308H1585.5H1578V1300.5V1293H1570.5H1563V1285.5V1278H1555.5H1548V1270.5V1263H1540.35H1532.7L1533.35 1273.66ZM376 1285.5V1293H383H390V1285.5V1278H383H376V1285.5ZM692 1308V1338H699H706V1323V1308H713.5H721V1300.5V1293H713.5H706V1285.5V1278H699H692V1308ZM962 1285.5V1293H984.5H1007V1285.5V1278H984.5H962V1285.5ZM1022 1285.5V1293H1029.5H1037V1285.5V1278H1029.5H1022V1285.5ZM1112 1285.5V1293H1134.5H1157V1285.5V1278H1134.5H1112V1285.5ZM361 1308V1323H368H375V1308V1293H368H361V1308ZM1624 1315.5V1323H1631H1638V1315.5V1308H1631H1624V1315.5ZM346 1338V1353H353H360V1338V1323H353H346V1338ZM872 1368.5V1414H879H886V1421V1428H894H902V1420.5V1413H894.653H887.306L886.657 1401.75C886.301 1395.56 886.007 1378.69 886.005 1364.25L886 1338H894H902V1330.5V1323H887H872V1368.5ZM1217 1330.5V1338H1225H1233V1330.5V1323H1225H1217V1330.5ZM1398 1360.5V1398H1405.5H1413V1360.5V1323H1405.5H1398V1360.5ZM1639 1338V1353H1646.5H1654V1360.5V1368H1661.5H1669L1668.99 1356.75C1668.99 1350.56 1668.7 1340.44 1668.34 1334.25L1667.69 1323H1653.35H1639V1338ZM331 1375.5V1398H338H345V1375.5V1353H338H331V1375.5ZM406 1383V1413H412.887H419.774L420.5 1398C420.9 1389.75 420.9 1376.25 420.5 1368L419.774 1353H412.887H406V1383ZM707 1405.5V1458H714H721V1405.5V1353H714H707V1405.5ZM1563.01 1371.75C1563.01 1373.81 1563.3 1380.56 1563.66 1386.75L1564.31 1398H1571.15H1578V1383V1368H1570.5H1563L1563.01 1371.75ZM1639 1390.5V1398H1645.89H1652.77L1653.5 1413L1654.23 1428H1661.61H1669V1435.5V1443H1676.5H1684V1458V1473H1691H1698V1458V1443H1691.04H1684.09L1683.79 1435.75L1683.5 1428.5L1676.34 1428.21L1669.19 1427.92L1668.46 1412.96L1667.74 1398H1660.37H1653V1390.5V1383H1646H1639V1390.5ZM1699 1405.5V1428H1706H1713V1405.5V1383H1706H1699V1405.5ZM316 1413V1428H323H330V1413V1398H323H316V1413ZM526 1413V1428H533.5H541V1413V1398H533.5H526V1413ZM947.25 1398.75L932 1399.05V1406.03V1413H984.5H1037V1405.5V1398L999.75 1398.22C979.263 1398.34 955.638 1398.58 947.25 1398.75ZM1579 1421V1443H1586H1593V1421V1399H1586H1579V1421ZM1210.25 1413.72L1203 1414.09V1421.04V1428H1218.04H1233.09L1232.79 1420.75L1232.5 1413.5L1225 1413.43C1220.88 1413.39 1214.24 1413.52 1210.25 1413.72ZM1248 1428.5V1444H1255H1262V1428.5V1413H1255H1248V1428.5ZM1383 1420.46V1428H1390.54H1398.09L1397.79 1420.75L1397.5 1413.5L1390.25 1413.21L1383 1412.91V1420.46ZM1789 1428V1443H1796.5H1804V1428V1413H1796.5H1789V1428ZM391 1443V1458H398H405V1443V1428H398H391V1443ZM917 1435.49V1442.98L969.75 1443.24L1022.5 1443.5L1022.83 1451C1023.02 1455.12 1022.85 1472.12 1022.47 1488.76L1021.77 1519.01L954.135 1518.76L886.5 1518.5L886.235 1488.25L885.971 1458H893.485H901V1450.35V1442.7L890.344 1443.35C884.484 1443.71 877.959 1444 875.844 1444H872V1488.5V1533H954.5H1037V1480.5V1428H977H917V1435.49ZM1075.25 1428.74L1068 1429.09V1466.04V1503H1075H1082V1473V1443H1135H1188V1435.5V1428L1135.25 1428.2C1106.24 1428.31 1079.24 1428.55 1075.25 1428.74ZM301 1451.5V1474H308H315V1451.5V1429H308H301V1451.5ZM511 1451.5V1474H518.5H526V1451.5V1429H518.5H511V1451.5ZM1217.71 1443.63C1217.32 1444.01 1217 1447.41 1217 1451.17V1458H1225.04H1233.09L1232.79 1450.75L1232.5 1443.5L1225.46 1443.21C1221.58 1443.05 1218.1 1443.24 1217.71 1443.63ZM1398 1458V1473H1405.5H1413V1488.5V1504H1420.5H1428V1488.5V1473H1420.5H1413V1458V1443H1405.5H1398V1458ZM1714 1458V1473H1706.5H1699V1488V1503H1706.5H1714V1488V1473H1721H1728V1458V1443H1721H1714V1458ZM1594 1473.5V1503H1601H1608V1473.5V1444H1601H1594V1473.5ZM1804 1473.5V1489H1811.5H1819V1473.5V1458H1811.5H1804V1473.5ZM376 1481V1503H383.5H391V1518V1533H398H405V1511V1489H398.128H391.256L390.533 1474L389.809 1459H382.905H376V1481ZM406 1473.5V1488H413H420V1484.16C420 1482.04 420.293 1475.52 420.652 1469.66L421.304 1459H413.652H406V1473.5ZM692 1474V1489H699H706V1474V1459H699H692V1474ZM1728.78 1488.75L1728.5 1503.5L1721.25 1503.79L1714 1504.09V1526.04V1548H1720.85H1727.69L1728.34 1536.75C1728.7 1530.56 1728.99 1520.66 1728.99 1514.75L1729 1504H1736H1743V1489V1474H1736.03H1729.05L1728.78 1488.75ZM286 1518V1548H293H300V1518V1488H293H286V1518ZM496 1511V1534.09L503.25 1533.79L510.5 1533.5V1511V1488.5L503.25 1488.21L496 1487.91V1511ZM361 1517.96V1533H368.527H376.053L375.777 1518.25L375.5 1503.5L368.25 1503.21L361 1502.91V1517.96ZM676.648 1514.5C676.287 1520.82 676.287 1531.18 676.648 1537.5L677.305 1549H684.152H691V1526V1503H684.152H677.305L676.648 1514.5ZM1609 1526.5V1549H1616H1623V1526.5V1504H1616H1609V1526.5ZM1819 1541.5V1579H1826.5H1834V1552.16C1834 1537.39 1833.71 1520.52 1833.35 1514.66L1832.7 1504H1825.85H1819V1541.5ZM1082 1525.75V1533L1150 1533.22C1187.4 1533.34 1221.26 1533.45 1225.25 1533.47L1232.5 1533.5V1526.16V1518.82L1157.25 1518.66L1082 1518.5V1525.75ZM1428 1563V1608H1420.5H1413V1615.5V1623H1420.5H1428V1615.5V1608H1435.5H1443V1563V1518H1435.5H1428V1563ZM1744 1533V1548H1751H1758V1533V1518H1751H1744V1533ZM346 1549V1564H352.941C356.759 1564 360.174 1563.53 360.531 1562.95C360.889 1562.37 360.858 1555.62 360.462 1547.95L359.744 1534H352.872H346V1549ZM376 1549V1564H383H390V1549V1534H383H376V1549ZM481 1563.5V1579H473.5H466V1594V1609H473.5H481V1594.04V1579.09L488.25 1578.79L495.5 1578.5L495.776 1563.25L496.052 1548H488.526H481V1563.5ZM1150.86 1548.73L1083.22 1549.01L1082.5 1562.93C1082.11 1570.58 1082.08 1577.33 1082.45 1577.92C1082.83 1578.53 1086.17 1579 1090.06 1579H1097V1571V1563H1165.04H1233.09L1232.79 1555.75L1232.5 1548.5L1225.5 1548.47C1221.65 1548.46 1188.06 1548.57 1150.86 1548.73ZM872 1608.5V1668H878.991H885.982L886.241 1615.75L886.5 1563.5L954.25 1563.24L1022 1562.99V1585.83C1022 1598.39 1022.3 1629 1022.66 1653.84L1023.33 1699H1030.16H1037V1624V1549H954.5H872V1608.5ZM1729 1564V1579H1736.5H1744V1564V1549H1736.5H1729V1564ZM1759 1564V1579H1766.65H1774.31L1773.66 1567.75C1773.3 1561.56 1773.01 1554.81 1773.01 1552.75L1773 1549H1766H1759V1564ZM1624 1578.5V1594H1631H1638V1578.5V1563H1631H1624V1578.5ZM271 1601.5V1639H278H285V1601.5V1564H278H271V1601.5ZM1233 1601V1638H1239.85H1246.69L1247.34 1626.75C1247.7 1620.56 1247.99 1608.97 1247.99 1601C1247.99 1593.03 1247.7 1581.44 1247.34 1575.25L1246.69 1564H1239.85H1233V1601ZM361 1593V1608H368H375V1593V1578H368H361V1593ZM331 1593.5V1608H338H345V1593.5V1579H338H331V1593.5ZM676.504 1592.92C676.108 1600.58 676.084 1607.33 676.451 1607.92C676.824 1608.52 680.156 1609 684.015 1609H690.912L691.206 1616.25L691.5 1623.5L698.75 1623.79L706 1624.09V1631.54V1639H713.5H721V1646.5V1654H728.5H736V1661.54V1669.08L743.75 1668.79L751.5 1668.5L751.794 1661.25L752.088 1654H744.044H736V1646.5V1639H728.5H721V1631.5V1624H713.5H706V1616.5V1609H698.5H691V1594V1579H684.112H677.225L676.504 1592.92ZM1744 1608V1623H1750.89H1757.78L1758.5 1609.08C1758.89 1601.42 1758.92 1594.67 1758.55 1594.08C1758.17 1593.47 1754.83 1593 1750.94 1593H1744V1608ZM1774 1607.96V1623H1781.53H1789.05L1788.78 1608.25L1788.5 1593.5L1781.25 1593.21L1774 1592.91V1607.96ZM1639 1609V1624H1646H1653V1609V1594H1646H1639V1609ZM1834 1638.5V1669H1841.5H1849V1638.5V1608H1841.5H1834V1638.5ZM316 1624V1639H323H330V1624V1609H323H316V1624ZM346 1624V1639H353H360V1624V1609H353H346V1624ZM451 1638V1653H457.888H464.775L465.496 1639.08C465.892 1631.42 465.916 1624.67 465.549 1624.08C465.175 1623.47 461.831 1623 457.941 1623H451V1638ZM1067.53 1693.92C1067.12 1732.38 1067.12 1783.01 1067.53 1806.42L1068.27 1849H1075.13H1082V1856.5V1864H1104.5H1127V1856.5V1849H1104.5H1082V1736.5V1624H1075.14H1068.27L1067.53 1693.92ZM1398 1631.5V1639H1390.5H1383V1646.5V1654H1368H1353V1661.5V1669H1345.5H1338V1676.5V1684H1323H1308V1691.5V1699H1285H1262V1691.5V1684H1255H1248V1706V1728H1262.5H1277V1721V1714H1292.5H1308V1706.53V1699.05L1322.75 1698.78L1337.5 1698.5L1337.79 1691.25L1338.09 1684H1345.54H1353V1676.53V1669.05L1367.75 1668.78L1382.5 1668.5L1382.79 1661.29L1383.09 1654.09L1390.29 1653.79L1397.5 1653.5L1397.79 1646.25L1398.09 1639H1405.54H1413V1631.5V1624H1405.5H1398V1631.5ZM1654 1639V1654H1661H1668V1639V1624H1661H1654V1639ZM1759 1639.04V1654.09L1766.25 1653.79L1773.5 1653.5L1773.78 1638.75L1774.05 1624H1766.53H1759V1639.04ZM1789 1639V1654H1781.5H1774V1669V1684H1781.5H1789V1669.04V1654.09L1796.25 1653.79L1803.5 1653.5L1803.78 1638.75L1804.05 1624H1796.53H1789V1639ZM301 1654V1669H308H315V1654V1639H308H301V1654ZM676 1646.5V1654H683.5H691V1661V1668H698.5H706V1661V1654H698.5H691V1646.5V1639H683.5H676V1646.5ZM1428 1646.5V1654H1413H1398V1661.5V1669H1390.5H1383V1676.5V1684H1375.5H1368V1691.5V1699H1360.5H1353V1706.5V1714H1345.5H1338V1729V1744H1330.5H1323V1751.5V1759H1315.5H1308V1774V1789H1300.5H1293V1804V1819H1299.89H1306.77L1307.5 1804L1308.23 1789H1315H1321.77L1322.5 1774L1323.23 1759H1330.61H1338V1751.5V1744H1345.5H1353V1736V1728H1359.9H1366.79L1367.52 1713.5L1368.24 1699H1375.62H1383V1691.5V1684H1390.5H1398V1676.5V1669L1401.75 1668.99C1403.81 1668.99 1410.56 1668.7 1416.75 1668.34L1428 1667.69V1743.35V1819H1435.5H1443V1729V1639H1435.5H1428V1646.5ZM331 1661V1669H338H345V1661V1653H338H331V1661ZM436 1660.96V1669H443.542H451.084L450.792 1661.25L450.5 1653.5L443.25 1653.21L436 1652.91V1660.96ZM256 1676.5V1699H263H270V1676.5V1654H263H256V1676.5ZM1218 1676.5V1699H1225H1232V1676.5V1654H1225H1218V1676.5ZM1669 1669V1684H1675.94C1679.76 1684 1683.17 1683.53 1683.53 1682.95C1683.89 1682.37 1683.86 1675.62 1683.46 1667.95L1682.74 1654H1675.87H1669V1669ZM1804 1669V1684H1811.5H1819V1669V1654H1811.5H1804V1669ZM661.861 1817.75C661.663 1899.56 661.657 1970.66 661.849 1975.75L662.199 1985H669.099H676V1827V1669H669.111H662.223L661.861 1817.75ZM707 1676V1683H714.5H722V1676V1669H714.5H707V1676ZM752 1675.9V1682.79L766.459 1683.52L780.917 1684.24L781.209 1691.37L781.5 1698.5L789.25 1698.79L797 1699.08V1691.54V1684H789H781V1676.5V1669H766.5H752V1675.9ZM421 1691V1699H413.5H406V1714V1729H398.5H391V1744V1759H383.5H376V1766.5V1774H383.5H391V1766.5V1759H397.887H404.774L405.498 1744.04L406.222 1729.08L413.361 1728.79L420.5 1728.5L420.692 1721C420.798 1716.88 420.91 1710.24 420.942 1706.25L421 1699H428.5H436V1691V1683H428.5H421V1691ZM887 1698.46V1714H894.5H902V1729V1744H909.5H917V1759V1774H924.5H932V1781.5V1789H939.5H947V1781.5V1774H939.5H932V1759V1744H924.5H917V1729V1714H909.526H902.052L901.776 1698.75L901.5 1683.5L894.25 1683.21L887 1682.91V1698.46ZM1849 1698.5V1714H1841.54H1834.08L1833.79 1706.25L1833.5 1698.5L1826.25 1698.21L1819 1697.91V1705.96V1714H1826.5H1834V1729V1744H1826.63H1819.26L1818.53 1729L1817.81 1714H1810.91H1804V1706V1698H1796.5H1789V1706V1714H1796.5H1804V1729V1744H1811.5H1819V1759V1774H1826.5H1834V1789V1804H1841.5H1849V1811.5V1819H1856.5H1864V1811.5V1804H1856.5H1849V1789V1774H1856.5H1864V1781.5V1789H1871.5H1879V1804V1819H1886.5H1894V1804V1789H1886.5H1879V1766.5V1744H1871.5H1864V1713.5V1683H1856.5H1849V1698.5ZM286 1691.5V1699H293H300V1691.5V1684H293H286V1691.5ZM316 1698.5V1713H323H330V1698.5V1684H323H316V1698.5ZM722 1691.54V1699.09L729.25 1698.79L736.5 1698.5L736.794 1691.25L737.088 1684H729.544H722V1691.54ZM1684 1699V1714H1691.5H1699V1729V1744H1706.5H1714V1751.5V1759H1721H1728V1751.5V1744H1721.11H1714.23L1713.5 1729L1712.77 1714H1706H1699.23L1698.5 1699L1697.77 1684H1690.89H1684V1699ZM737 1706.5V1714H744.5H752V1721.5V1729H759.5H767V1736.5V1744H774H781V1736.5V1729H774H767V1721.5V1714H759.5H752V1706.5V1699H744.5H737V1706.5ZM1203 1714V1729H1210H1217V1714V1699H1210H1203V1714ZM270 1721.5V1729H255.653H241.306L240.657 1740.25C240.301 1746.44 240.007 1756.56 240.005 1762.75L240 1774H233.152H226.305L225.662 1785.26C225.308 1791.45 225.308 1801.57 225.662 1807.76L226.306 1819H233.111H239.916L240.208 1826.75L240.5 1834.5L247.75 1834.79L255 1835.09V1827.04V1819H262.5H270V1804V1789H277.5H285V1774V1759H292.5H300V1751.5V1744H292.5H285V1751.5V1759H278.113H271.226L270.5 1774L269.774 1789H263H256.226L255.5 1804L254.774 1819H247.387H240V1804V1789H247.387H254.774L255.5 1774L256.226 1759H263H269.774L270.5 1744L271.226 1729H278.113H285V1721.5V1714H277.5H270V1721.5ZM300.005 1717.75C300.007 1719.81 300.301 1726.56 300.657 1732.75L301.306 1744H308.153H315V1729V1714H307.5H300L300.005 1717.75ZM782 1759V1774H789.5H797V1781.5V1789H804H811V1781.5V1774H804.113H797.226L796.5 1759L795.774 1744H788.887H782V1759ZM1188 1751.5V1759H1195H1202V1751.5V1744H1195H1188V1751.5ZM1849 1759V1774H1841.5H1834V1759V1744H1841.5H1849V1759ZM1172.5 1774L1171.77 1789H1164.89H1158V1804V1819H1165H1172V1804V1789H1179.5H1187V1774V1759H1180.11H1173.23L1172.5 1774ZM1729 1774V1789H1736.5H1744V1804V1819H1751.5H1759V1834V1849H1765.89H1772.78L1773.5 1835.08C1773.89 1827.42 1773.92 1820.67 1773.55 1820.08C1773.18 1819.48 1769.86 1819 1766.05 1819H1759.23L1758.5 1804L1757.77 1789H1751H1744.23L1743.5 1774L1742.77 1759H1735.89H1729V1774ZM361 1796.5V1804H368H375V1796.5V1789H368H361V1796.5ZM842 1804V1819H849.5H857V1834V1849H863.887H870.774L871.502 1833.96L872.23 1818.92L879.365 1819.21L886.5 1819.5L886.794 1826.75L887.088 1834H894.544H902V1841.5V1849H909.5H917V1856.5V1864H932H947V1871.5V1879H954.5H962V1886.5V1894H969.5H977V1901.5V1909H992H1007V1916.5V1924H1014.5H1022V1954.5V1985H1029.5H1037V1954.5V1924H1029.5H1022V1916.5V1909H1014.5H1007V1902V1895H999.5H992V1887.61V1880.23L977 1879.5L962 1878.77V1871.39V1864H954.544H947.088L946.794 1856.75L946.5 1849.5L931.75 1849.22L917 1848.95V1841.47V1834H909.544H902.088L901.794 1826.75L901.5 1819.5L893.75 1819.21L886 1818.92V1812.06V1805.21L871.5 1804.48L857 1803.76V1796.38V1789H849.5H842V1804ZM1248 1796.5V1804H1240.5H1233V1811.46V1818.92L1225.25 1819.21L1217.5 1819.5L1217.21 1826.75L1216.91 1834H1202.46H1188V1841.46V1848.92L1180.25 1849.21L1172.5 1849.5L1172.21 1856.75L1171.91 1864H1164.46H1157V1871.38V1878.76L1142.5 1879.48L1128 1880.21V1887.06V1893.92L1120.25 1894.21L1112.5 1894.5L1112.21 1901.65L1111.92 1908.8L1097.46 1909.52L1083 1910.24V1917.62V1925H1074.85H1066.7L1067.35 1935.66C1067.71 1941.52 1068 1948.04 1068 1950.16V1954H1075H1082V1946.5V1939H1089.5H1097V1931.5V1924H1104.5H1112V1916.5V1909H1119.46H1126.91L1127.21 1901.75L1127.5 1894.5L1142.25 1894.22L1157 1893.95V1886.47V1879H1164.5H1172V1871.5V1864H1180H1188V1856.5V1849H1202.5H1217V1841.5V1834H1225H1233V1826.5V1819H1240.5H1248V1834V1849H1255H1262L1262.01 1837.75C1262.01 1831.56 1262.3 1821.44 1262.66 1815.25L1263.31 1804H1270.65H1278V1796.5V1789H1263H1248V1796.5ZM346 1819V1834H353H360V1819V1804H353H346V1819ZM812 1811.46V1819H819.544H827.088L826.794 1811.75L826.5 1804.5L819.25 1804.21L812 1803.91V1811.46ZM947 1819V1834H954.5H962V1841.5V1849H969.5H977V1841.5V1834H969.5H962V1819V1804H954.5H947V1819ZM1023 1826.5V1849L1011.25 1849.01C1004.79 1849.01 994.438 1849.3 988.25 1849.66L977 1850.31V1857.15V1864H1007H1037V1834V1804H1030H1023V1826.5ZM1142.79 1826.75L1142.5 1834.5L1135.25 1834.79L1128 1835.09V1842.04V1849H1142.5H1157V1834V1819H1150.04H1143.08L1142.79 1826.75ZM1278 1834V1849H1284.87H1291.74L1292.46 1835.05C1292.86 1827.38 1292.89 1820.63 1292.53 1820.05C1292.17 1819.47 1288.76 1819 1284.94 1819H1278V1834ZM331 1849V1864H338H345V1849V1834H338H331V1849ZM827 1849V1864H834H841V1849V1834H834H827V1849ZM1864 1841.5V1849H1871.5H1879V1864V1879H1886.5H1894V1886.5V1894H1901.5H1909V1886.5V1879H1901.5H1894V1864V1849H1886.5H1879V1841.5V1834H1871.5H1864V1841.5ZM225 1856.5V1864H218.113H211.226L210.502 1878.96L209.778 1893.92L202.639 1894.21L195.5 1894.5L195.223 1909.25L194.947 1924H202.473H210V1909V1894H217.5H225V1879V1864H232.5H240V1856.5V1849H232.5H225V1856.5ZM1233 1864V1879H1240H1247V1864V1849H1240H1233V1864ZM1263 1864V1879H1270H1277V1864V1849H1270H1263V1864ZM1352.77 1871.75L1352.5 1894.5L1345.25 1894.79L1338 1895.09V1917.04V1939H1344.9H1351.79L1352.52 1924.5L1353.24 1910H1360.62H1368V1932.54V1955.09L1375.25 1954.79L1382.5 1954.5L1382.83 1946.5C1383.01 1942.1 1382.85 1932.09 1382.47 1924.25L1381.79 1910H1374.9H1368L1367.99 1890.75C1367.99 1880.16 1367.7 1866.44 1367.34 1860.25L1366.69 1849H1359.87H1353.04L1352.77 1871.75ZM1774 1864V1879H1781.5H1789V1887.04V1895.09L1796.25 1894.79L1803.5 1894.5L1803.79 1886.75L1804.08 1879H1796.54H1789V1864V1849H1781.5H1774V1864ZM316 1879V1894H323H330V1879V1864H323H316V1879ZM751.5 1879L750.774 1894H743.887H737V1917V1940H744H751V1925V1910H758.441C762.534 1910 766.116 1909.62 766.402 1909.16C766.688 1908.69 766.644 1898.34 766.303 1886.16L765.684 1864H758.955H752.226L751.5 1879ZM842 1878.96V1894H849.527H857.053L856.777 1879.25L856.5 1864.5L849.25 1864.21L842 1863.91V1878.96ZM872 1879V1894H878.872H885.744L886.462 1880.05C886.858 1872.38 886.889 1865.63 886.531 1865.05C886.174 1864.47 882.759 1864 878.941 1864H872V1879ZM1218 1894V1909H1225H1232V1894V1879H1225H1218V1894ZM301 1909V1924H308H315V1909V1894H308H301V1909ZM887 1909V1924H894.653H902.306L901.657 1912.75C901.301 1906.56 901.007 1899.81 901.005 1897.75L901 1894H894H887V1909ZM1248 1909V1924H1255H1262V1909V1894H1255H1248V1909ZM1443 1969V2044H1450.5H1458V1969V1894H1450.5H1443V1969ZM1909 1909.5V1924H1916.5H1924V1909.5V1895H1916.5H1909V1909.5ZM857 1924V1939H863.888H870.775L871.496 1925.08C871.892 1917.42 871.916 1910.67 871.549 1910.08C871.175 1909.47 867.831 1909 863.941 1909H857V1924ZM1804 1917V1925H1811.5H1819V1939.5V1954H1834H1849V1947.04V1940.08L1841.25 1939.79L1833.5 1939.5L1833.21 1932.25L1832.91 1925H1825.96H1819V1917V1909H1811.5H1804V1917ZM767 1932V1954H774H781V1932V1910H774H767V1932ZM1203 1925V1940H1210H1217V1925V1910H1210H1203V1925ZM285.667 1924.67C285.3 1925.03 285 1928.63 285 1932.67V1940H277.5H270V1947V1954H285H300V1939V1924H293.167C289.408 1924 286.033 1924.3 285.667 1924.67ZM225 1932V1939H240.5H256V1932V1925H240.5H225V1932ZM902 1940.04V1955.09L909.25 1954.79L916.5 1954.5L916.777 1939.75L917.053 1925H909.527H902V1940.04ZM1233 1940V1955H1240H1247V1940V1925H1240H1233V1940ZM1849 1932V1939H1871.5H1894V1932V1925H1871.5H1849V1932ZM158.25 1939.68L150 1940.08V1947.04V1954H142.5H135V1961.5V1969H127.5H120V1976.5V1984H127.5H135V1976.5V1969H142.5H150V1961.5V1954H180H210V1947V1940H198.656C192.416 1940 182.629 1939.84 176.906 1939.64C171.183 1939.43 162.787 1939.45 158.25 1939.68ZM1924.25 1939.75L1909 1940.05V1947.03V1954H1928.34C1938.98 1954 1952.47 1954.29 1958.3 1954.65L1968.92 1955.3L1969.21 1962.4L1969.5 1969.5L1976.71 1969.79L1983.91 1970.09L1984.21 1977.29L1984.5 1984.5L1991.71 1984.79L1998.91 1985.09L1999.21 1992.29L1999.5 1999.5L2006.65 1999.79L2013.8 2000.08L2014.52 2014.5L2015.24 2028.92L2022.37 2029.21L2029.5 2029.5L2029.79 2037.25L2030.08 2045H2037H2043.91L2044.21 2052.25L2044.5 2059.5L2051.71 2059.79L2058.91 2060.09L2059.21 2067.29L2059.5 2074.5L2066.71 2074.79L2073.91 2075.09L2074.21 2082.29L2074.5 2089.5L2081.75 2089.79L2089 2090.09V2082.54V2075H2081.5H2074V2067.5V2060H2066.5H2059V2052.5V2045H2051.5H2044V2037V2029H2036.5H2029V2014.5V2000H2021.5H2014V1992.5V1985H2006.5H1999V1977.5V1970H1991.5H1984V1962.5V1955H1976.5H1969V1947.65V1940.31L1957.75 1939.66C1951.56 1939.3 1944.92 1939.11 1943 1939.23C1941.08 1939.35 1932.64 1939.58 1924.25 1939.75ZM872 1955V1970H878.941C882.831 1970 886.175 1969.53 886.549 1968.92C886.916 1968.33 886.892 1961.58 886.496 1953.92L885.775 1940H878.888H872V1955ZM1323 1955.04V1970.09L1330.25 1969.79L1337.5 1969.5L1337.78 1954.75L1338.05 1940H1330.53H1323V1955.04ZM722 1984V2014H729H736V1984V1954H729H722V1984ZM782 1969.5V1985H789H796V1969.5V1954H789H782V1969.5ZM1188 1969V1984H1195H1202V1969V1954H1195H1188V1969ZM225 1962V1969H240H255V1962V1955H240H225V1962ZM1082.72 1964.58C1082.41 1969.85 1082.41 1983.35 1082.73 1994.58L1083.31 2015H1090.15H1097V1985V1955H1090.15H1083.29L1082.72 1964.58ZM1864 1962V1969H1879H1894V1962V1955H1879H1864V1962ZM917 1984V1999H924.5H932V2014V2029H939.527H947.053L946.777 2014.25L946.5 1999.5L939.25 1999.21L932 1998.91V1983.96V1969H924.5H917V1984ZM1218 1984V1999H1225H1232V1984V1969H1225H1218V1984ZM270.206 1977.25L270.5 1984.5L277.75 1984.79L285 1985.09V1977.54V1970H277.456H269.912L270.206 1977.25ZM752 1991.85V2013.7L762.656 2014.35C768.516 2014.71 775.041 2015 777.156 2015H781V2007V1999H774.121H767.242L766.517 1984.5L765.792 1970H758.896H752V1991.85ZM1833 1977V1984H1826H1819V2007V2030H1825.85H1832.69L1833.34 2018.75C1833.7 2012.56 1833.99 2002.21 1833.99 1995.75L1834 1984H1841.5H1849V1977V1970H1841H1833V1977ZM887 1998.96V2014H894.527H902.053L901.777 1999.25L901.5 1984.5L894.25 1984.21L887 1983.91V1998.96ZM1308 1999V2014H1314.85H1321.7L1322.35 2003.34C1322.71 1997.48 1323 1990.73 1323 1988.34V1984H1315.5H1308V1999ZM1338 1998.97V2014H1345.5H1353V2022.04V2030.09L1360.25 2029.79L1367.5 2029.5V2007V1984.5L1352.75 1984.22L1338 1983.95V1998.97ZM1383 2006.46V2029H1390.52H1398.04L1397.77 2006.75L1397.5 1984.5L1390.25 1984.21L1383 1983.91V2006.46ZM105 1992V1999H112.5H120V1992V1985H112.5H105V1992ZM286 2105V2225H293H300V2105V1985H293H286V2105ZM1173 2000V2015H1180H1187V2000V1985H1180H1173V2000ZM797 2007V2015H804H811V2007V1999H804H797V2007ZM90 2007.5V2015H82.5H75V2029.5V2044H67.5H60V2051.5V2059H67.5H75V2051.5V2044H82.5H90V2029.5V2015H97.5H105V2007.5V2000H97.5H90V2007.5ZM1007 2060V2120H999.5H992V2112.5V2105H984.5H977V2112.5V2120H984.5H992V2142.5V2165H999.5H1007V2180V2195H1014.5H1022V2172.5V2150H1014.5H1007V2135V2120H1014.5H1022V2060V2000H1014.5H1007V2060ZM1203 2015V2030H1210H1217V2015V2000H1210H1203V2015ZM1293 2029V2044H1299.89H1306.78L1307.5 2030.08C1307.89 2022.42 1307.92 2015.67 1307.55 2015.08C1307.17 2014.47 1303.83 2014 1299.94 2014H1293V2029ZM646.692 2079.96C646.342 2115.68 646.341 2159.56 646.689 2177.46L647.322 2210H654.161H661V2247.5V2285H668.5H676L676.005 2258.75C676.007 2244.31 676.301 2227.44 676.657 2221.25L677.306 2210H684.153H691V2187.5V2165H684.153H677.306L676.657 2176.25C676.301 2182.44 676.007 2192.56 676.005 2198.75L676 2210H668.5H661V2112.5V2015H654.163H647.327L646.692 2079.96ZM902 2030V2045H909.5H917V2060V2075H924.5H932V2070.66C932 2068.27 931.707 2061.52 931.348 2055.66L930.696 2045H923.848H917V2030V2015H909.5H902V2030ZM1158 2030V2045H1165H1172V2030V2015H1165H1158V2030ZM1323 2029.5V2044H1330H1337V2040.16C1337 2038.04 1337.29 2031.52 1337.65 2025.66L1338.3 2015H1330.65H1323V2029.5ZM707 2052V2075H714H721V2052V2029H714H707V2052ZM737 2052V2075H744H751V2052V2029H744H737V2052ZM782 2037V2045.09L789.25 2044.79L796.5 2044.5V2037V2029.5L789.25 2029.21L782 2028.91V2037ZM812 2037V2045H819H826V2037V2029H819H812V2037ZM947 2045V2060H954.5H962V2075V2090H969.5H977V2075V2060H969.5H962V2045V2030H954.5H947V2045ZM1097.88 2044.25C1097.81 2052.09 1097.64 2085.84 1097.5 2119.25L1097.24 2180H1104.62H1112V2165V2150H1119.5H1127V2135V2120H1119.5H1112V2075V2030H1105H1098L1097.88 2044.25ZM1188 2059V2074H1195H1202V2059V2044H1195H1188V2059ZM827 2060V2075H834H841V2060V2045H834H827V2060ZM1278 2052.5V2060H1285.5H1293V2052.5V2045H1285.5H1278V2052.5ZM1308 2059.5V2074H1315H1322V2070.16C1322 2068.04 1322.29 2061.52 1322.65 2055.66L1323.3 2045H1315.65H1308V2059.5ZM1398 2067.5V2090H1405.5H1413V2067.5V2045H1405.5H1398V2067.5ZM797 2067V2075.09L804.25 2074.79L811.5 2074.5V2067V2059.5L804.25 2059.21L797 2058.91V2067ZM1143 2074V2089H1150H1157V2074V2059H1150H1143V2074ZM1368 2081.46V2104H1374.9H1381.79L1382.47 2089.75C1382.85 2081.91 1383.01 2071.9 1382.83 2067.5L1382.5 2059.5L1375.25 2059.21L1368 2058.91V2081.46ZM45 2067.5V2075H37.5H30V2082.5V2090H22.5H15V2097V2104H7.5H0V2112V2120H6.956H13.912L14.206 2127.25L14.5 2134.5H29.5H44.5L44.794 2127.25L45.088 2120H52.544H60V2112.5V2105H67.5H75V2097.5V2090H82.5H90V2082.5V2075H97.5H105V2097.5V2120H112.5H120V2097.5V2075H112.5H105V2067.5V2060H97.5H90V2067.5V2075H82.5H75V2082.5V2090H67.5H60V2097.5V2105H52.5H45V2112.5V2120H30H15V2112.54V2105.09L22.25 2104.79L29.5 2104.5L29.793 2097.29L30.086 2090.09L37.293 2089.79L44.5 2089.5L44.794 2082.25L45.088 2075H52.544H60V2067.5V2060H52.5H45V2067.5ZM1999.81 2073.25C1999.36 2086.17 1999.35 2110.15 1999.78 2126.75L2000 2135H2007H2014V2112V2089H2018.34C2020.73 2089 2027.47 2089.29 2033.3 2089.65L2043.92 2090.3L2044.21 2097.4L2044.5 2104.5L2051.71 2104.79L2058.91 2105.09L2059.21 2112.29L2059.5 2119.5L2066.71 2119.79L2073.91 2120.09L2074.21 2127.29L2074.5 2134.5L2089.25 2134.78L2104 2135.05V2127.53V2120H2089H2074V2112.5V2105H2066.5H2059V2097.5V2090H2051.5H2044V2082.5V2075H2029.5H2015V2067.5V2060H2007.64H2000.27L1999.81 2073.25ZM1458.67 2074.67C1457.81 2075.52 1457.8 2153.92 1458.66 2168.75L1459.31 2180H1466.15H1473V2127V2074H1466.17C1462.41 2074 1459.03 2074.3 1458.67 2074.67ZM812 2089.5V2104H819.652H827.304L826.652 2093.34C826.293 2087.48 826 2080.96 826 2078.84V2075H819H812V2089.5ZM842 2089.5V2104H849.652H857.304L856.652 2093.34C856.293 2087.48 856 2080.96 856 2078.84V2075H849H842V2089.5ZM1173 2090V2105H1180H1187V2090V2075H1180H1173V2090ZM1263 2082.5V2090H1255.5H1248V2104.5V2119H1240.5H1233V2127V2135H1225.5H1218V2142.5V2150H1210.5H1203V2157.5V2165H1195.61H1188.23L1187.5 2180L1186.77 2195H1179.39H1172V2202.5V2210H1165H1158V2225V2240H1165H1172V2225V2210H1179.5H1187V2202.5V2195H1194.39H1201.77L1202.5 2180L1203.23 2165H1210.61H1218V2195V2225H1225H1232V2195.04V2165.08L1239.75 2164.79L1247.5 2164.5L1247.79 2157.25L1248.09 2150H1255.04H1262V2142.5V2135H1255H1248V2127V2119H1254.9H1261.79L1262.52 2104.54L1263.24 2090.08L1270.37 2089.79L1277.5 2089.5L1277.79 2082.25L1278.09 2075H1270.54H1263V2082.5ZM1293 2082.5V2090H1285.53H1278.05L1277.78 2104.75L1277.5 2119.5L1270.25 2119.79L1263 2120.09V2127.54V2135H1269.96H1276.92L1277.21 2127.25L1277.5 2119.5L1284.65 2119.21L1291.8 2118.92L1292.52 2104.5L1293.24 2090.08L1300.37 2089.79L1307.5 2089.5L1307.79 2082.25L1308.09 2075H1300.54H1293V2082.5ZM932 2104V2119H938.888H945.775L946.496 2105.08C946.892 2097.42 946.916 2090.67 946.549 2090.08C946.175 2089.48 942.831 2089 938.941 2089H932V2104ZM692 2112.5V2135H699H706V2112.5V2090H699H692V2112.5ZM722 2112.5V2135H729H736V2112.5V2090H729H722V2112.5ZM1128 2105V2120H1135H1142V2105V2090H1135H1128V2105ZM2090 2097.5V2105H2097H2104V2097.5V2090H2097H2090V2097.5ZM827 2112.54V2120.09L834.25 2119.79L841.5 2119.5L841.794 2112.25L842.088 2105H834.544H827V2112.54ZM857 2112.5V2120H849.5H842V2127.5V2135H849.5H857V2150V2165H864.5H872V2172.5V2180H879.5H887V2225.5V2271H893.886H900.772L901.5 2254.99C901.901 2246.19 901.897 2225.71 901.491 2209.49L900.754 2180H893.919H887.084L886.792 2172.25L886.5 2164.5L879.25 2164.21L872 2163.91V2149.46V2135H879.588H887.176L886.838 2149.75L886.5 2164.5L894.25 2164.79L902 2165.08V2172.54V2180H909.5H917V2187.5V2195H924.5H932V2210V2225H939.5H947V2232.5V2240H954.5H962V2232.5V2225H954.5H947V2210V2195H939.5H932V2187.5V2180H924.5H917V2172.5V2165H909.613H902.226L901.5 2150L900.774 2135H893.887H887V2127.5V2120H879.5H872V2112.5V2105H864.5H857V2112.5ZM1158 2120V2135H1165H1172V2120V2105H1165H1158V2120ZM1383 2127.5V2150H1390.5H1398V2138.16C1398 2131.64 1397.71 2121.52 1397.35 2115.66L1396.7 2105H1389.85H1383V2127.5ZM1413 2135V2165H1405.5H1398V2180V2195H1405.5H1413V2180V2165H1420.5H1428V2135V2105H1420.5H1413V2135ZM2105 2112V2119H2112H2119V2112V2105H2112H2105V2112ZM1819 2149.5V2180H1826H1833V2149.5V2119H1826H1819V2149.5ZM872 2127.5V2135H864.5H857V2127.5V2120H864.5H872V2127.5ZM947 2135V2150H954.5H962V2165V2180H969.5H977V2195V2210H984.5H992V2195V2180H984.5H977V2165V2150H969.5H962V2135V2120H954.5H947V2135ZM90 2157.5V2180H97.5H105V2157.5V2135H97.5H90V2157.5ZM135 2142.5V2150H127.5H120V2172.5V2195H127.5H135V2172.5V2150H142.473H149.947L150.223 2164.75L150.5 2179.5L157.75 2179.79L165 2180.09V2165.04V2150H157.5H150V2142.5V2135H142.5H135V2142.5ZM1143 2150V2165H1150H1157V2150V2135H1150H1143V2150ZM1248 2142.5V2150H1240.5H1233V2142.5V2135H1240.5H1248V2142.5ZM1969 2142V2149H1962H1955V2179.5V2210H1962H1969V2180V2150H1976.5H1984V2142.5V2135H1976.5H1969V2142ZM180.652 2160.66C180.293 2166.52 180 2180.02 180 2190.66V2210H187.5H195V2225V2240H202.5H210V2195V2150H195.652H181.304L180.652 2160.66ZM706.34 2172.66C706.703 2185.13 707 2202 707 2210.16V2225H714H721V2187.5V2150H713.34H705.681L706.34 2172.66ZM1232 2157.5V2165H1225H1218V2157.5V2150H1225H1232V2157.5ZM1909.01 2206.25C1909.01 2237.19 1909.3 2267.56 1909.66 2273.75L1910.31 2285H1917.15H1924L1924.01 2273.75C1924.01 2267.56 1924.3 2257.44 1924.66 2251.25L1925.31 2240H1932.15H1939V2202.5V2165H1931.5H1924V2157.5V2150H1916.5H1909L1909.01 2206.25ZM2015 2172.5V2195H2022H2029V2172.5V2150H2022H2015V2172.5ZM1864 2172V2180H1856.5H1849V2195V2210H1856.5H1864V2195V2180H1871.5H1879V2172V2164H1871.5H1864V2172ZM225.61 2224.75C225.671 2257.61 225.783 2287.99 225.86 2292.25L226 2300H233H240V2240V2180H247.5H255V2172.5V2165L240.25 2165H225.5L225.61 2224.75ZM1128 2180V2195H1135H1142V2180V2165H1135H1128V2180ZM1984.01 2176.25C1984.01 2182.44 1984.3 2192.56 1984.66 2198.75L1985.31 2210H1992.15H1999V2187.5V2165H1991.5H1984L1984.01 2176.25ZM256 2217.5V2255H263H270V2217.5V2180H263H256V2217.5ZM1428 2210V2240H1435.5H1443V2262.5V2285H1450.5H1458V2247.5V2210H1450.5H1443V2195V2180H1435.5H1428V2210ZM75 2210V2225H82.5H90V2210V2195H82.5H75V2210ZM105 2225V2240H112.5H120V2225V2210H112.5H105V2225ZM135 2232.5V2255H142.5H150V2232.5V2210H142.5H135V2232.5ZM1112.99 2213.75C1112.99 2215.81 1112.7 2222.56 1112.34 2228.75L1111.69 2240H1119.35H1127V2225V2210H1120H1113L1112.99 2213.75ZM1383 2240V2270H1390.5H1398V2240V2210H1390.5H1383V2240ZM1804 2247.5V2285H1826.5H1849V2262.5V2240H1841.5H1834V2255V2270H1826.5H1819V2240V2210H1811.5H1804V2247.5ZM2030 2232.5V2255H2037H2044V2232.5V2210H2037H2030V2232.5ZM165.517 2240.49C165.117 2249 165.117 2262.5 165.516 2270.49L166.242 2285H173.121H180V2322.5V2360H195H210V2352.5V2345H217.5H225V2323V2301H218H211L210.995 2311.75C210.993 2317.66 210.699 2327.56 210.343 2333.75L209.694 2345H202.347H195V2307.5V2270H187.5H180V2247.5V2225H173.121H166.242L165.517 2240.49ZM992 2240V2255H999.5H1007V2240V2225H999.5H992V2240ZM1969.74 2235C1969.44 2240.51 1969.44 2254.01 1969.74 2265L1970.3 2285H1977.15H1984V2255V2225H1977.15H1970.29L1969.74 2235ZM2000 2240V2255H2007H2014V2240V2225H2007H2000V2240ZM60 2262.5V2285H66.848H73.696L74.348 2274.34C74.707 2268.48 75 2258.36 75 2251.84V2240H67.5H60V2262.5ZM301 2255V2270H286H271V2277.5V2285H286H301V2277.5V2270H308H315V2255V2240H308H301V2255ZM722 2270V2300H729H736V2270V2240H729H722V2270ZM917 2247.46V2255H923.847H930.694L931.343 2266.25C931.699 2272.44 931.993 2282.56 931.995 2288.75L932 2300H939.5H947V2307.5V2315H954.5H962V2330V2345H969.5H977V2330V2315H969.5H962V2300V2285H954.527H947.053L946.777 2270.25L946.5 2255.5L939.293 2255.21L932.086 2254.91L931.793 2247.71L931.5 2240.5L924.25 2240.21L917 2239.91V2247.46ZM1143 2255V2270H1150H1157V2255V2240H1150H1143V2255ZM962 2255.5V2270H969.5H977V2255.5V2241H969.5H962V2255.5ZM90 2270V2285H97.5H105V2270V2255H97.5H90V2270ZM691.657 2266.25C691.301 2272.44 691.007 2286.16 691.005 2296.75L691 2316H684.159H677.318L676.709 2347.63C676.374 2365.03 676.374 2388.43 676.708 2399.63L677.315 2420H684.157H691V2375V2330H699H707V2345V2360H714H721V2345V2330H714.159H707.319L706.662 2308.25C706.3 2296.29 706.004 2279.41 706.002 2270.75L706 2255H699.153H692.306L691.657 2266.25ZM1097.66 2266.26C1097.31 2272.45 1097.31 2282.57 1097.66 2288.76L1098.31 2300H1105.15H1112V2307.5V2315H1104.5H1097V2322.5V2330H1090H1083V2367.5V2405H1090H1097V2393.66C1097 2387.42 1097.29 2377.52 1097.65 2371.66L1098.3 2361H1105.15H1112V2345.5V2330H1119.5H1127V2315V2300H1119.5H1112V2277.5V2255H1105.15H1098.31L1097.66 2266.26ZM1172.71 2255.63C1172.32 2256.01 1172 2262.78 1172 2270.67V2285H1165H1158V2292.46V2299.91L1165.25 2300.21L1172.5 2300.5L1172.76 2397.75L1173.01 2495H1180.01H1187L1187.23 2390C1187.36 2332.25 1187.48 2278.36 1187.48 2270.25L1187.5 2255.5L1180.46 2255.21C1176.58 2255.05 1173.1 2255.24 1172.71 2255.63ZM1203 2345.5V2436H1210H1217V2345.5V2255H1210H1203V2345.5ZM1413 2277.5V2300H1405.5H1398V2322.5V2345H1405.5H1413V2337.5V2330H1420.5H1428V2292.5V2255H1420.5H1413V2277.5ZM1879 2285V2315H1886.5H1894V2285V2255H1886.5H1879V2285ZM1939 2277.5V2300H1932.15H1925.31L1924.66 2311.25C1924.3 2317.44 1924.01 2327.56 1924.01 2333.75L1924 2345H1916.5H1909V2337.5V2330H1901.5H1894V2337.5V2345H1901.5H1909V2352.5V2360H1924H1939V2330V2300H1946.5H1954V2277.5V2255H1946.5H1939V2277.5ZM2045 2277.5V2300H2037H2029V2285V2270H2022H2015V2285V2300H2022H2029V2307.5V2315H2044H2059V2285V2255H2052H2045V2277.5ZM120 2300V2330H127.5H135V2300V2270H127.5H120V2300ZM1007 2292.5V2315H999.5H992V2323V2331H999.5H1007V2360.5V2390H999.5H992V2368V2346H984.5H977V2368V2390H984.5H992V2405.5V2421H999.5H1007V2405.5V2390H1014.5H1022V2330V2270H1014.5H1007V2292.5ZM1128 2285V2300H1135H1142V2285V2270H1135H1128V2285ZM977 2292.5V2300H984.5H992V2292.5V2285H984.5H977V2292.5ZM1368 2307.5V2330H1375.5H1383V2307.5V2285H1375.5H1368V2307.5ZM60 2307.5V2315H75H90V2307.5V2300H75H60V2307.5ZM150.667 2300.67C150.3 2301.03 150 2308.01 150 2316.17V2331H157.5H165V2315.5V2300H158.167C154.408 2300 151.033 2300.3 150.667 2300.67ZM1984.31 2322.5L1984.95 2345H1976.97H1969V2330V2315H1962.12H1955.24L1954.52 2329.43C1954.12 2337.37 1954.1 2344.35 1954.46 2344.93C1954.82 2345.52 1958.19 2346 1961.95 2346H1968.79L1969.52 2360.5L1970.24 2375H1977.12H1984V2367.5V2360H1991.5H1999V2330V2300H1991.34H1983.68L1984.31 2322.5ZM1143 2316V2331H1150H1157V2316V2301H1150H1143V2316ZM737 2330.5V2346H744H751V2330.5V2315H744H737V2330.5ZM120 2352.5V2360L123.75 2360C125.813 2360.01 132.563 2360.3 138.75 2360.66L150 2361.31V2353.15V2345H135H120V2352.5ZM1128 2360V2375H1135H1142V2360V2345H1135H1128V2360ZM1353 2367.5V2390H1360.5H1368V2367.5V2345H1360.5H1353V2367.5ZM1428 2368V2391H1435.5H1443V2368V2345H1435.5H1428V2368ZM1383 2382.5V2405H1389.85H1396.69L1397.34 2393.75C1397.7 2387.56 1397.99 2377.44 1397.99 2371.25L1398 2360H1390.5H1383V2382.5ZM752 2383V2405H759H766V2383V2361H759H752V2383ZM722 2397.5V2420H729H736V2397.5V2375H729H722V2397.5ZM1112.22 2390.75L1112.5 2405.5L1119.75 2405.79L1127 2406.09V2391.04V2376H1119.47H1111.95L1112.22 2390.75ZM1338 2413V2435H1345.5H1353V2423.66C1353 2417.42 1352.71 2407.52 1352.35 2401.66L1351.7 2391H1344.85H1338V2413ZM767 2428V2450H774H781V2428V2406H774H767V2428ZM1368 2428V2450H1374.85H1381.7L1382.35 2439.34C1382.71 2433.48 1383 2423.58 1383 2417.34V2406H1375.5H1368V2428ZM1413 2428V2450H1420.5H1428V2428V2406H1420.5H1413V2428ZM887 2473V2526H894H901V2473V2420H894H887V2473ZM1097.44 2421.3C1097.16 2422.01 1097.07 2428.88 1097.22 2436.55L1097.5 2450.5L1104.75 2450.79L1112 2451.09V2435.54V2420H1104.97C1100.13 2420 1097.78 2420.4 1097.44 2421.3ZM692 2443.5V2466H699H706V2443.5V2421H699H692V2443.5ZM737 2436V2451H744H751V2436V2421H744H737V2436ZM1007 2480.5V2526H1014.5H1022V2480.5V2435H1014.5H1007V2480.5ZM1323 2458V2480H1329.85H1336.7L1337.37 2469C1337.73 2462.95 1337.73 2453.05 1337.37 2447L1336.7 2436H1329.85H1323V2458ZM782 2473V2495H789H796V2473V2451H789H782V2473ZM917 2495.5V2540H923.887H930.773L931.17 2522.25C931.389 2512.49 931.384 2492.46 931.159 2477.75L930.751 2451H923.876H917V2495.5ZM1353 2466V2481H1360.5H1368V2466V2451H1360.5H1353V2466ZM1398 2473V2495H1405.5H1413V2473V2451H1405.5H1398V2473ZM707 2488V2510H714H721V2488V2466H714H707V2488ZM752 2481V2496H759H766V2481V2466H759H752V2481ZM1097.7 2491.55C1097.37 2497.36 1097.38 2520.98 1097.71 2544.05L1098.32 2586H1105.16H1112V2533.5V2481H1105.15H1098.3L1097.7 2491.55ZM1308 2496.04V2511.09L1315.25 2510.79L1322.5 2510.5L1322.78 2495.75L1323.05 2481H1315.53H1308V2496.04ZM1338 2510V2525H1344.85H1351.7L1352.35 2514.34C1352.71 2508.48 1353 2501.73 1353 2499.34V2495H1345.5H1338V2510ZM767 2511V2526H774H781V2511V2496H774H767V2511ZM797 2511V2526H804H811V2511V2496H804H797V2511ZM1383 2511V2526H1375.5H1368V2541V2556H1360.5H1353V2571V2586H1345.5H1338V2601V2616H1330.5H1323V2623.5V2631H1315.5H1308V2646V2661H1292.5H1277V2653.5V2646H1270H1263V2631V2616H1269.89H1276.77L1277.5 2601L1278.23 2586H1284.96H1291.69L1292.34 2574.75C1292.7 2568.56 1292.99 2561.81 1292.99 2559.75L1293 2556H1285.5H1278V2571V2586H1270.5H1263V2601V2616H1255.5H1248V2631V2646H1240.5H1233V2653.5V2661H1217.5H1202V2646V2631H1195.16H1188.32L1187.66 2608.34C1187.3 2595.87 1187 2568.87 1187 2548.34V2511H1180H1173V2571V2631H1180H1187V2653.5V2676H1210H1233V2668.5V2661H1240.5H1248V2653.5V2646H1255H1262V2661V2676H1285H1308V2668.5V2661H1314.89H1321.77L1322.5 2646L1323.23 2631H1330.61H1338V2623.54V2616.09L1345.25 2615.79L1352.5 2615.5L1352.78 2600.75L1353.05 2586H1360.53H1368V2571V2556H1375.5H1383V2541V2526H1390.5H1398V2511V2496H1390.5H1383V2511ZM721.348 2521.66C721.707 2527.52 722 2534.27 722 2536.66V2541H728.905H735.809L736.533 2556L737.256 2571H744.128H751V2556V2541H743.5H736V2526V2511H728.348H720.696L721.348 2521.66ZM1203 2556V2601H1210H1217V2556V2511H1210H1203V2556ZM1293 2532.96V2541H1300.54H1308.08L1307.79 2533.25L1307.5 2525.5L1300.25 2525.21L1293 2524.91V2532.96ZM812 2541V2556H819H826V2541V2526H819H812V2541ZM1323 2540.5V2555H1330H1337V2551.16C1337 2549.04 1337.29 2542.52 1337.65 2536.66L1338.3 2526H1330.65H1323V2540.5ZM782 2548V2556H789H796V2548V2540H789H782V2548ZM1308 2571V2586H1300.5H1293V2601V2616H1285.5H1278V2623.5V2631H1285.5H1293V2623.5V2616H1299.89H1306.77L1307.5 2601L1308.23 2586H1314.96H1321.69L1322.34 2574.75C1322.7 2568.56 1322.99 2561.81 1322.99 2559.75L1323 2556H1315.5H1308V2571ZM827 2578V2586H834H841V2578V2570H834H827V2578ZM752 2586V2601H759H766V2586V2571H759H752V2586ZM797 2578.5V2586L804.25 2586L811.5 2586L811.171 2578.5L810.842 2571H803.921H797V2578.5ZM902 2601V2631H909.5H917V2601V2571H909.5H902V2601ZM992 2623.5V2676H999.5H1007V2623.5V2571H999.5H992V2623.5ZM932 2616V2646H924.5H917V2653.5V2661H901.5H886V2653.5V2646H879.113H872.226L871.5 2631L870.774 2616H863.887H857V2608.5V2601H849.5H842V2608.5V2616H834.5H827V2608.5V2601H819.5H812V2608.5V2616H819.5H827V2631V2646H834.5H842V2653.5V2661H827H812V2653.5V2646H804.613H797.226L796.5 2631L795.774 2616H788.387H781V2608.5V2601H774H767V2608.5V2616H773.887H780.774L781.5 2631L782.226 2646H789.613H797V2653.5V2661H804.5H812V2668.5V2676H834.5H857V2661V2646H864.5H872V2661V2676H902H932V2668.5V2661H939.5H947V2668.5V2676H962H977V2668.5V2661H962H947L946.995 2634.75C946.993 2620.31 946.699 2603.44 946.343 2597.25L945.694 2586H938.847H932V2616ZM857 2631V2646H849.5H842V2631V2616H849.5H857V2631ZM1158 2653.5V2661H1150H1142V2668.5V2676H1157H1172V2661V2646H1165H1158V2653.5ZM1112 2668.5V2676H1120H1128V2668.5V2661H1120H1112V2668.5ZM812 2698.5V2706H819.5H827V2721.5V2737H834H841V2721.5V2706H901.5H962V2698.5V2691H887H812V2698.5ZM1150.25 2691.74L1143 2692.09V2699.04V2706H1210.5H1278V2721V2736H1284.85H1291.69L1292.34 2724.75C1292.7 2718.56 1292.99 2708.44 1292.99 2702.25L1293 2691L1225.25 2691.2C1187.99 2691.31 1154.24 2691.55 1150.25 2691.74ZM977 2728.5V2751H969.5H962V2766V2781H954.5H947V2796V2811H939.5H932V2819V2827H924.5H917V2834.5V2842H909.542H902.084L901.792 2834.25L901.5 2826.5L894.369 2826.21L887.238 2825.92L886.515 2811.46L885.792 2797H878.896H872V2789V2781H864.5H857V2789V2797H864.5H872V2811.5V2826H879.5H887V2834V2842H893.896H900.792L901.517 2856.5L902.242 2871H909.621H917V2863.5V2856H924.5H932V2841.54V2827.09L939.25 2826.79L946.5 2826.5L946.792 2818.75L947.084 2811H954.542H962V2796V2781H969.5H977V2766V2751H984.5H992V2736V2721H999.5H1007V2713.5V2706H992H977V2728.5ZM1112.21 2713.75L1112.5 2721.5H1120H1127.5L1127.79 2713.75L1128.08 2706H1120H1111.92L1112.21 2713.75ZM797 2744V2766H804.5H812V2773.5V2781H819H826V2766V2751H819.121H812.242L811.517 2736.5L810.792 2722H803.896H797V2744ZM1128 2751V2766H1135H1142V2751V2736H1135H1128V2751ZM1263 2751V2766H1255.5H1248V2781V2796H1254.89H1261.77L1262.5 2781L1263.23 2766H1270.11H1277V2751V2736H1270H1263V2751ZM1300.25 2736.74L1293 2737.09V2751.54V2766H1300.5H1308V2773.5V2781H1315H1322V2758.5V2736L1314.75 2736.2C1310.76 2736.31 1304.24 2736.55 1300.25 2736.74ZM842 2759V2767.09L849.25 2766.79L856.5 2766.5V2759V2751.5L849.25 2751.21L842 2750.91V2759ZM1143 2774V2782H1150H1157V2774V2766H1150H1143V2774ZM782 2789.5V2812H789H796V2789.5V2767H789H782V2789.5ZM1278 2781.5V2796H1285H1292V2792.16C1292 2790.04 1292.29 2783.52 1292.65 2777.66L1293.3 2767H1285.65H1278V2781.5ZM827 2796V2811H834H841V2796V2781H834H827V2796ZM1112.67 2826.62C1112.31 2851.16 1112.31 2881.31 1112.67 2893.62L1113.32 2916H1120.16H1127V2871V2826H1134.5H1142V2811.5V2797H1134.5H1127V2789.5V2782H1120.16H1113.33L1112.67 2826.62ZM977 2804V2812H969.5H962V2826.5V2841H969.5H977V2833.5V2826H984.5H992V2811V2796H984.5H977V2804ZM1158 2803.5V2811H1165H1172V2803.5V2796H1165H1158V2803.5ZM1233 2804V2812H1240H1247V2804V2796H1240H1233V2804ZM1323 2818.5V2841H1329.85H1336.7L1337.36 2830.11C1337.72 2824.13 1337.72 2814 1337.36 2807.61L1336.69 2796H1329.85H1323V2818.5ZM1263 2812V2827H1270H1277V2812V2797H1270H1263V2812ZM842 2827V2842H848.941C852.831 2842 856.175 2841.52 856.549 2840.92C856.916 2840.33 856.892 2833.58 856.496 2825.92L855.775 2812H848.888H842V2827ZM1173 2826.5V2841H1180H1187V2826.5V2812H1180H1173V2826.5ZM1218 2826.5V2841H1225H1232V2826.5V2812H1225H1218V2826.5ZM767 2849V2872H774H781V2849V2826H774H767V2849ZM1143 2841V2856H1150H1157V2841V2826H1150H1143V2841ZM992 2947V3067H999.5H1007V2947V2827H999.5H992V2947ZM1248 2856.5V2872H1255H1262V2856.5V2841H1255H1248V2856.5ZM947 2864.5V2887H954.5H962V2864.5V2842H954.5H947V2864.5ZM1188 2856.5V2871H1202.5H1217V2856.5V2842H1202.5H1188V2856.5ZM1338 2871.5V2901H1345.5H1353V2882.16C1353 2871.79 1352.71 2858.52 1352.35 2852.66L1351.7 2842H1344.85H1338V2871.5ZM857 2871.5V2887.09L864.25 2886.79L871.5 2886.5V2871.5V2856.5L864.25 2856.21L857 2855.91V2871.5ZM1158 2887V2917H1165H1172V2887V2857H1165H1158V2887ZM752 2909V2932H759H766V2909V2886H759H752V2909ZM1233 2908.5V2931H1240H1247V2908.5V2886H1240H1233V2908.5ZM872 2924.04V2947.09L879.25 2946.79L886.5 2946.5L886.832 2940C887.015 2936.42 886.855 2926.19 886.476 2917.25L885.787 2901H878.894H872V2924.04ZM932 2947V2992H938.847H945.694L946.343 2980.75C946.699 2974.56 946.993 2954.31 946.995 2935.75L947 2902H939.5H932V2947ZM1353 2931.5V2961H1360.5H1368V2942.16C1368 2931.79 1367.71 2918.52 1367.35 2912.66L1366.7 2902H1359.85H1353V2931.5ZM1173 3014.5V3097H1180H1187V3014.5V2932H1180H1173V3014.5ZM1218 3180V3428H1225H1232V3180V2932H1225H1218V3180ZM737 2977V3007H744H751V2977V2947H744H737V2977ZM1368 3052V3142H1374.85H1381.69L1382.34 3130.75C1383.19 3116.12 1383.19 2987.88 1382.34 2973.25L1381.69 2962H1374.85H1368V3052ZM887 3104.5V3232H894H901V3104.5V2977H894H887V3104.5ZM1112.59 3031.57C1112.2 3045.08 1112.19 3061.95 1112.58 3069.07L1113.28 3082H1120.14H1127V3044.5V3007H1120.15H1113.3L1112.59 3031.57ZM917 3149.5V3262H923.847H930.694L931.343 3250.75C932.187 3236.1 932.187 3062.9 931.343 3048.25L930.694 3037H923.847H917V3149.5ZM737 3120V3158H744H751V3120V3082H744H737V3120ZM977 3105V3128H984.5H992V3105V3082H984.5H977V3105ZM1128 3127V3157H1135H1142V3127V3097H1135H1128V3127ZM962 3172V3202H969.5H977V3172V3142H969.5H962V3172ZM1353 3180.04V3203.09L1360.25 3202.79L1367.5 3202.5L1367.77 3179.75L1368.04 3157H1360.52H1353V3180.04ZM752 3202V3232H759H766V3202V3172H759H752V3202ZM1143 3195V3218H1150H1157V3195V3172H1150H1143V3195ZM1188 3236.34C1188 3263.48 1187.71 3290.48 1187.35 3296.34L1186.7 3307H1179.85H1173V3360V3413H1179.85H1186.69L1187.34 3424.25C1187.7 3430.44 1187.99 3440.58 1187.99 3446.79L1188 3458.09L1195.25 3457.79L1202.5 3457.5L1202.47 3450.25C1202.45 3446.26 1202.34 3385.4 1202.22 3315L1202 3187H1195H1188V3236.34ZM947 3240V3263H954.5H962V3240V3217H954.5H947V3240ZM1338 3239.5V3262H1345.5H1353V3239.5V3217H1345.5H1338V3239.5ZM767 3255.5V3278H774H781V3255.5V3233H774H767V3255.5ZM1158 3262.5V3292H1165H1172V3262.5V3233H1165H1158V3262.5ZM1323 3292.5V3308H1329.88H1336.76L1337.48 3293.57C1337.88 3285.63 1337.9 3278.65 1337.54 3278.07C1337.18 3277.48 1333.78 3277 1329.94 3277H1323V3292.5ZM782 3307.5V3323H789H796V3307.5V3292H789H782V3307.5ZM917 3374.97V3458H924.5H932V3412.5V3367H938.885H945.771L946.467 3337.75C946.85 3321.66 947.014 3304.9 946.832 3300.5L946.5 3292.5L931.75 3292.22L917 3291.95V3374.97ZM1308 3337.5V3353H1314.87H1321.73L1322.45 3338.54C1322.84 3330.58 1322.87 3323.61 1322.52 3323.04C1322.17 3322.47 1318.76 3322 1314.94 3322H1308V3337.5ZM797 3353V3368H804H811V3353V3338H804H797V3353ZM887 3398V3458H864.605H842.211L841.484 3442.5L840.758 3427H833.879H827V3442.5V3458H834.5H842V3465.5V3473H864.5H887V3465.5V3458H894.662H902.324L901.663 3424.25C901.3 3405.69 901.002 3378.69 901.002 3364.25L901 3338H894H887V3398ZM1293 3382.5V3398H1299.88H1306.76L1307.48 3383.57C1307.88 3375.63 1307.9 3368.65 1307.54 3368.07C1307.18 3367.48 1303.78 3367 1299.94 3367H1293V3382.5ZM812 3397.5V3413H819H826V3397.5V3382H819H812V3397.5ZM1278 3427.5V3443H1270.5H1263V3450.5V3458H1247.5H1232V3450V3442H1225.06C1221.24 3442 1217.83 3442.47 1217.48 3443.04C1217.13 3443.61 1217.16 3450.58 1217.55 3458.54L1218.27 3473H1236.98C1247.27 3473 1260.43 3472.71 1266.23 3472.35L1276.77 3471.71L1277.49 3457.35L1278.21 3443H1284.98H1291.76L1292.48 3428.57C1292.88 3420.63 1292.9 3413.65 1292.54 3413.07C1292.18 3412.48 1288.78 3412 1284.94 3412H1278V3427.5ZM841 3495.5V3503H834H827V3533V3563H834H841V3533V3503H849H857V3495.5V3488H849H841V3495.5ZM872 3495.5V3503H902H932V3495.5V3488H902H872V3495.5ZM1187 3495.5V3503H1180H1173V3518V3533H1180H1187V3518V3503H1232.5H1278V3495.5V3488H1232.5H1187V3495.5ZM932 3533V3548H939.5H947V3533V3518H939.5H932V3533ZM1278 3555.5V3593H1284.85H1291.71L1292.41 3580.43C1292.79 3573.52 1292.79 3556.65 1292.4 3542.93L1291.69 3518H1284.85H1278V3555.5ZM1158 3578V3608H1165H1172V3578V3548H1165H1158V3578ZM947 3601V3639H954.5H962V3601V3563H954.5H947V3601ZM812 3631V3684H819H826V3631V3578H819H812V3631ZM1293 3668.5V3714H1299.94C1303.76 3714 1307.13 3713.6 1307.43 3713.11C1307.74 3712.62 1307.69 3692.14 1307.33 3667.61L1306.67 3623H1299.84H1293V3668.5ZM1143 3676.5V3729H1150H1157V3676.5V3624H1150H1143V3676.5ZM962 3751V3834H969.5H977V3751V3668H969.5H962V3751ZM797 3736V3759H804H811V3736V3713H804H797V3736ZM1308 3751.5V3774H1314.94C1318.76 3774 1322.13 3773.6 1322.43 3773.11C1322.73 3772.62 1322.69 3762.5 1322.33 3750.61L1321.68 3729H1314.84H1308V3751.5ZM782 3803.5V3834H789.5H797V3841V3848H803.896H810.792L811.517 3833.5L812.242 3819H819.621H827V3804V3789H819.5H812V3803.5V3818H804H796V3795.5V3773H789H782V3803.5ZM1128 3781.5V3789H1135H1142V3781.5V3774H1135H1128V3781.5ZM1293 3819V3849H1285.5H1278V3826V3803H1270.5H1263V3841V3879H1255.65H1248.29L1247.74 3869C1247.44 3863.49 1247.44 3850.06 1247.74 3839.15C1248.16 3824.06 1248 3819.12 1247.07 3818.54C1246.39 3818.12 1239.58 3818.11 1231.92 3818.5L1218 3819.23V3856.61V3894H1210.5H1203L1202.99 3860.25C1202.99 3841.69 1202.7 3821.44 1202.34 3815.25L1201.69 3804H1195H1188.3L1187.65 3814.66C1187.29 3820.52 1187 3837.17 1187 3851.66V3878H1180H1173V3886V3894H1188H1203V3901.5V3909H1206.84C1208.96 3909 1215.47 3908.71 1221.3 3908.35L1231.92 3907.7L1232.21 3900.6L1232.5 3893.5L1240.5 3893.63C1244.9 3893.7 1254.87 3893.54 1262.65 3893.28L1276.8 3892.8L1277.52 3878.43L1278.24 3864.05L1292.87 3863.78L1307.5 3863.5L1307.78 3848.87L1308.05 3834.24L1322.53 3833.52L1337 3832.79V3810.9V3789H1330H1323V3804V3819H1315.63H1308.26L1307.53 3804L1306.81 3789H1299.91H1293V3819ZM841.482 3804.03C841.132 3804.6 840.993 3811.46 841.173 3819.28L841.5 3833.5L834.293 3833.79L827.086 3834.09L826.793 3841.29L826.5 3848.5L819.25 3848.79L812 3849.09V3856.54V3864H819.5H827V3871V3878H834.5H842V3863V3848H848.841H855.681L856.332 3826.39C856.689 3814.5 856.734 3804.38 856.432 3803.89C855.663 3802.65 842.259 3802.77 841.482 3804.03ZM871.762 3841.25L871.5 3878.5L856.75 3878.78L842 3879.05V3886.53V3894H864.5H887V3901.53V3909.05L901.75 3908.78L916.5 3908.5L916.794 3901.25L917.088 3894H924.544H932V3900.85V3907.69L943.25 3908.34C949.438 3908.7 959.563 3908.99 965.75 3909L977 3909V3901.5V3894H984.5H992V3871.5V3849H984.5H977V3871.5V3894H961.5H946V3886.5V3879H939H932V3841.5V3804H924.613H917.226L916.576 3818.75C916.218 3826.86 916.054 3846.63 916.21 3862.67C916.367 3878.71 916.268 3892.07 915.989 3892.34C915.449 3892.88 906.089 3893.2 894.25 3893.08L887 3893V3848.5V3804H879.512H872.024L871.762 3841.25ZM1128 3849V3894H1135H1142V3901.5V3909H1157H1172V3901.5V3894H1157H1142V3849V3804H1135H1128V3849ZM0 3931.5V3954H7.5H15V3931.5V3909H7.5H0V3931.5Z" fill="black"/>
</svg>
